<svg xmlns="http://www.w3.org/2000/svg" viewBox="0 0 123 123"><style>.slack0{fill:#E01E5A;}.slack1{fill:#36C5F0;}.slack2{fill:#2EB67D;}.slack3{fill:#ECB22E;}</style><g><path d="m25.8,77.6c0,7.1 -5.8,12.9 -12.9,12.9c-7.1,0 -12.9,-5.8 -12.9,-12.9c0,-7.1 5.8,-12.9 12.9,-12.9l12.9,0l0,12.9z" class="slack0"/><path d="m32.3,77.6c0,-7.1 5.8,-12.9 12.9,-12.9s12.9,5.8 12.9,12.9l0,32.3c0,7.1 -5.8,12.9 -12.9,12.9s-12.9,-5.8 -12.9,-12.9l0,-32.3z" class="slack0"/></g><g><path d="m45.2,25.8c-7.1,0 -12.9,-5.8 -12.9,-12.9c0,-7.1 5.8,-12.9 12.9,-12.9s12.9,5.8 12.9,12.9l0,12.9l-12.9,0z" class="slack1"/><path d="m45.2,32.3c7.1,0 12.9,5.8 12.9,12.9s-5.8,12.9 -12.9,12.9l-32.3,0c-7.1,0 -12.9,-5.8 -12.9,-12.9s5.8,-12.9 12.9,-12.9l32.3,0z" class="slack1"/></g><g><path d="m97,45.2c0,-7.1 5.8,-12.9 12.9,-12.9c7.1,0 12.9,5.8 12.9,12.9s-5.8,12.9 -12.9,12.9l-12.9,0l0,-12.9z" class="slack2"/><path d="m90.5,45.2c0,7.1 -5.8,12.9 -12.9,12.9c-7.1,0 -12.9,-5.8 -12.9,-12.9l0,-32.3c0,-7.1 5.8,-12.9 12.9,-12.9c7.1,0 12.9,5.8 12.9,12.9l0,32.3z" class="slack2"/></g><g><path d="m77.6,97c7.1,0 12.9,5.8 12.9,12.9c0,7.1 -5.8,12.9 -12.9,12.9c-7.1,0 -12.9,-5.8 -12.9,-12.9l0,-12.9l12.9,0z" class="slack3"/><path d="m77.6,90.5c-7.1,0 -12.9,-5.8 -12.9,-12.9c0,-7.1 5.8,-12.9 12.9,-12.9l32.3,0c7.1,0 12.9,5.8 12.9,12.9c0,7.1 -5.8,12.9 -12.9,12.9l-32.3,0z" class="slack3"/></g></g></svg>