<svg xmlns="http://www.w3.org/2000/svg" viewBox="0 0 356 80"><style>.zoom0{fill-rule:evenodd;clip-rule:evenodd;fill:#2D8CFF;}</style><g><path d="m144.3,11.7c-7.8,-7.8 -18,-11.7 -28.3,-11.7l0,0c-10.2,0 -20.5,3.9 -28.3,11.7c-15.6,15.6 -15.6,40.9 0,56.6c15.6,15.6 40.9,15.6 56.6,0c15.6,-15.6 15.6,-41 0,-56.6zm-11.3,45.3c-9.4,9.4 -24.6,9.4 -33.9,0c-9.4,-9.4 -9.4,-24.6 0,-33.9c9.4,-9.4 24.6,-9.4 33.9,0c9.3,9.3 9.3,24.5 0,33.9z" class="zoom0"/><path d="m228.3,11.7c-7.8,-7.8 -18,-11.7 -28.3,-11.7c-10.2,0 -20.5,3.9 -28.3,11.7c-15.6,15.6 -15.6,40.9 0,56.6c15.6,15.6 40.9,15.6 56.6,0c15.6,-15.6 15.6,-41 0,-56.6zm-11.3,45.3c-9.4,9.4 -24.6,9.4 -33.9,0c-9.4,-9.4 -9.4,-24.6 0,-33.9c9.4,-9.4 24.6,-9.4 33.9,0c9.3,9.3 9.3,24.5 0,33.9z" class="zoom0"/><path d="m16,79.8l4,0.2l60,0l-0.2,-4c-0.5,-6.6 -5.2,-11.4 -11.8,-11.8l-4,-0.2l-36,0l48,-48l-0.2,-4c-0.3,-6.6 -5.2,-11.5 -11.8,-11.8l-4,-0.2l-60,0l0.2,4c0.5,6.5 5.3,11.4 11.8,11.8l4,0.2l36,0l-48,48l0.2,4c0.4,6.6 5.2,11.4 11.8,11.8z" class="zoom0"/><path d="m289.8,24c1.4,2.4 1.8,5 2,8l0.2,4l0,28l0.2,4c0.4,6.5 5.2,11.4 11.8,11.8l4,0.2l0,-44l0.2,-4c0.2,-3 0.6,-5.7 2,-8.1c2.8,-4.8 7.9,-7.9 13.8,-7.9c5.9,0 11.1,3.2 13.9,8c1.4,2.4 1.8,5.1 1.9,8l0.2,4l0,28l0.2,4c0.4,6.6 5.2,11.4 11.8,11.8l4,0.2l0,-44l0,-4c0,-17.7 -14.3,-32 -32,-32c-9.6,0 -18.1,4.2 -24,10.8c-5.9,-6.6 -14.4,-10.8 -24,-10.8c-6.6,0 -12.8,2 -17.9,5.5c-3.1,-3.5 -10.1,-5.5 -14.1,-5.5l0,80l4,-0.2c6.7,-0.4 11.5,-5.2 11.8,-11.8l0.2,-4l0,-28l0.2,-4c0.2,-3 0.6,-5.7 2,-8c2.8,-4.8 7.9,-8 13.8,-8c5.9,0 11.1,3.2 13.8,8z" class="zoom0"/></g></svg>