<svg xmlns="http://www.w3.org/2000/svg" width="761.92" height="263.361" viewBox="0 0 7937 2743" xmlns:xlink="http://www.w3.org/1999/xlink" shape-rendering="geometricPrecision" text-rendering="geometricPrecision" image-rendering="optimizeQuality" fill-rule="evenodd" clip-rule="evenodd"><defs><style>.fil0{fill:#000}.fil0,.fil1,.fil2{fill-rule:nonzero}.fil2{fill:#454545}.fil1{fill:#ee413c}</style><clipPath id="id0" clip-rule="nonzero"><path d="M310 1323v269h-8v-269h8zm42 210c3 11 7 21 13 29s14 15 23 20c10 5 21 7 35 7 20 0 37-5 51-16 13-11 22-27 25-48h8c-3 23-12 40-27 53-15 12-34 19-56 19-15 0-28-2-39-7s-19-12-26-21-12-20-15-32-5-26-5-40c0-16 2-30 7-43s11-23 19-32 17-15 27-20 21-7 32-7c15 0 28 3 39 9s20 13 27 23 12 20 15 33c3 12 4 25 4 38H347c0 13 2 25 5 36zm145-78c-3-11-8-20-15-28-6-8-14-14-24-19s-21-7-33-7c-11 0-20 2-30 6-9 4-17 10-24 18s-13 17-17 28-7 23-8 37h155c0-12-2-23-5-34zm154-57v48h1c2-8 5-14 8-21 4-6 8-12 14-17s12-8 18-11c7-3 14-4 21-4 15-1 28 3 38 12 10 8 17 19 20 34h1c4-14 11-25 22-33s24-12 39-12c12 0 22 2 29 5 8 4 14 8 19 15 5 6 8 14 10 22 2 9 3 18 3 29v127h-8v-127c0-10-1-18-2-26-2-8-5-14-9-20s-10-10-17-13-16-5-26-5c-9 0-18 2-25 5-8 4-14 9-19 15s-9 14-12 22-4 17-4 26v123h-8v-124c0-9-1-18-2-26s-4-15-8-21-9-11-16-14c-7-4-16-5-26-5s-18 2-26 7c-8 4-14 10-20 18-5 7-10 16-12 26-3 10-4 20-4 31v110h-8v-194h8zm290 35c3-8 8-15 14-21s14-10 23-14c9-3 19-5 31-5 9 0 17 1 24 3 8 2 14 5 20 9s10 10 14 17 5 16 6 26v123c0 4 1 7 2 8 2 2 4 3 6 4 3 1 5 1 8 1s6 0 8-1v8h-11c-6 0-10-1-15-4-4-3-6-8-6-15v-25h-1c-2 6-5 12-10 18-4 6-10 11-17 15-7 5-14 8-23 11s-18 4-28 4c-20 0-35-4-47-13s-18-22-18-39c0-12 2-22 6-29s9-13 15-17 13-7 21-9 16-3 24-3c13-1 25-1 34-2 10-1 17-2 24-4 6-2 11-5 14-9s4-9 4-17c0-6-1-12-2-18s-3-12-7-17-10-10-17-13c-8-3-18-5-31-5-20 0-36 5-48 15-11 10-18 24-19 42h-8c1-9 2-18 6-25zm124 45c-3 4-6 6-12 8-5 2-11 3-18 4s-14 2-22 2-16 1-23 1c-8 1-15 1-22 3-7 1-14 4-19 8-6 4-10 9-13 15s-5 15-5 25c0 6 1 11 3 16s5 10 10 14 10 8 18 10c7 3 16 4 27 4 13 0 24-2 34-6s18-10 25-17 12-15 15-24 5-18 5-28v-36h-1zm198 49c-2 9-6 16-11 23s-11 13-18 17c-7 5-14 8-23 11-8 2-16 4-25 4-14 0-25-3-35-8s-18-12-25-20-12-18-15-30c-3-11-5-23-5-35 0-13 2-25 5-37 4-11 9-22 16-30 7-9 16-16 26-21s22-8 36-8c9 0 18 1 26 4s15 7 22 12c6 5 12 11 16 18s8 14 10 22h1v-52h8v187c0 27-7 46-21 59-14 12-34 19-60 19-10 0-19-1-28-3s-17-6-23-11c-7-5-12-11-16-19s-6-17-6-28h8c0 10 2 18 6 25s8 12 15 17c6 4 13 7 21 9s16 3 25 3c24 0 42-6 54-17 13-11 19-29 19-53v-58h-1zm-4-71c-3-11-8-20-14-28s-14-15-23-20-20-7-32-7c-13 0-24 2-33 7s-17 11-24 19c-6 8-11 17-14 28s-5 22-5 34 2 23 5 34c3 10 8 19 14 27s14 14 23 18 19 7 31 7c13 0 24-2 33-7 10-5 18-11 24-18 6-8 11-17 15-27 3-10 5-21 5-33 0-11-2-22-5-32zm58-24c3-8 8-15 14-21s14-10 23-14c9-3 19-5 31-5 9 0 17 1 24 3 8 2 14 5 20 9s10 10 14 17 5 16 6 26v123c0 4 1 7 2 8 2 2 4 3 6 4 3 1 5 1 8 1s6 0 8-1v8h-11c-6 0-10-1-15-4-4-3-6-8-6-15v-25h-1c-2 6-5 12-10 18-4 6-10 11-17 15-7 5-14 8-23 11s-18 4-28 4c-20 0-35-4-47-13s-18-22-18-39c0-12 2-22 6-29s9-13 15-17 13-7 21-9 16-3 24-3c13-1 25-1 34-2 10-1 17-2 24-4 6-2 11-5 14-9s4-9 4-17c0-6-1-12-2-18s-3-12-7-17-10-10-17-13c-8-3-18-5-31-5-20 0-36 5-48 15-11 10-18 24-19 42h-8c1-9 2-18 6-25zm124 45c-3 4-6 6-12 8-5 2-11 3-18 4s-14 2-22 2-16 1-23 1c-8 1-15 1-22 3-7 1-14 4-19 8-6 4-10 9-13 15s-5 15-5 25c0 6 1 11 3 16s5 10 10 14 10 8 18 10c7 3 16 4 27 4 13 0 24-2 34-6s18-10 25-17 12-15 15-24 5-18 5-28v-36h-1zm182 114h-150v-9l136-177h-126v-8h133v9l-136 177h142v8zm22-231v-38h8v38h-8zm0 231v-194h8v194h-8zm56-194v48h1c2-8 5-14 8-21 4-6 9-12 15-17s13-8 21-11 16-4 26-4 19 2 28 5c8 3 16 7 22 13s11 13 14 22 5 19 5 30v129h-8v-127c0-11-2-21-5-29s-8-14-13-20c-6-5-12-9-20-11-7-2-15-4-24-4-12 0-22 2-31 7-9 4-16 10-22 18-6 7-10 16-13 26s-5 20-5 31v110h-8v-194h8zm181 135c3 11 7 21 13 29s14 15 23 20c10 5 21 7 35 7 20 0 37-5 51-16 13-11 22-27 25-48h8c-3 23-12 40-27 53-15 12-34 19-56 19-15 0-28-2-39-7s-19-12-26-21-12-20-15-32-5-26-5-40c0-16 2-30 7-43s11-23 19-32 17-15 27-20 21-7 32-7c15 0 28 3 39 9s20 13 27 23 12 20 15 33c3 12 4 25 4 38h-162c0 13 2 25 5 36zm145-78c-3-11-8-20-15-28-6-8-14-14-24-19s-21-7-33-7c-11 0-20 2-30 6-9 4-17 10-24 18s-13 17-17 28-7 23-8 37h155c0-12-2-23-5-34zm305-133v269h-8v-54h-1c-5 17-14 31-28 42-13 11-30 16-50 16-13 0-24-3-34-8s-19-12-26-21-13-20-16-32c-4-12-6-26-6-40s2-27 5-39c4-12 9-23 16-32s16-17 26-22c10-6 22-8 35-8 21 0 38 5 51 16s22 25 27 43h1v-130h8zm-29 103c-14-16-33-24-57-24-13 0-24 3-34 8-10 6-17 13-23 22s-11 19-13 30c-3 11-4 22-4 34s2 24 5 35 8 21 14 30 14 16 23 21 20 8 33 8 24-3 33-8c10-5 18-12 25-20 7-9 12-18 15-30 4-11 5-23 5-36 0-30-7-54-21-70zm212 167v-48h-1c-4 15-11 28-23 37-12 10-27 15-47 15-10 0-19-1-28-4-8-3-16-7-22-13s-11-13-14-22-5-19-5-30v-129h8v127c0 11 2 21 5 29s8 14 13 20c6 5 12 9 20 11 7 2 15 4 24 4 12 0 22-2 31-7 9-4 16-10 22-18 6-7 10-16 13-26s5-20 5-31v-110h8v194h-8zm304 0v-37h-1c-3 6-6 12-11 17s-10 10-17 13c-6 4-13 6-20 8s-14 3-21 3c-15 0-28-3-39-8s-20-13-27-22-13-20-16-33c-4-12-5-26-5-39 0-14 2-27 5-39 4-12 9-23 16-33 7-9 16-17 27-22 11-6 24-8 39-8 7 0 14 1 21 3s13 4 19 8 11 8 16 13 8 11 11 18h1v-112h24v269h-22zm-130-67c2 10 6 19 11 27s12 14 20 19 18 7 29 7c13 0 23-2 32-7s16-11 21-19 9-17 12-27c2-10 4-20 4-30s-1-20-4-30c-2-10-6-19-12-27-5-8-12-14-21-19s-19-7-32-7c-11 0-21 2-29 7s-15 11-20 19-9 17-11 27-4 20-4 30 1 20 4 30zm214 3c2 9 6 17 12 25 5 7 12 13 20 18s18 7 29 7c17 0 31-5 41-14s17-21 20-36h24c-5 22-14 39-28 51-13 12-32 18-57 18-15 0-29-3-40-8s-20-13-27-22-12-20-16-33c-3-12-5-26-5-39s2-25 5-38c3-12 9-23 16-33s16-17 27-23 24-9 40-9 29 3 40 9 20 15 27 25 12 22 15 35 4 27 4 40h-150c0 9 1 17 4 27zm118-73c-3-8-7-16-12-22s-12-12-19-15c-8-4-16-6-26-6s-18 2-26 6-14 9-19 15-9 14-13 22c-3 8-5 17-6 26h126c0-9-2-18-5-26zm-82-85l40-53h29l-50 53h-19zm147 27l61 171h1l60-171h25l-73 195h-25l-75-195h26zm187 130c2 9 6 17 12 25 5 7 12 13 20 18s18 7 29 7c17 0 31-5 41-14s17-21 20-36h24c-5 22-14 39-28 51-13 12-32 18-57 18-15 0-29-3-40-8s-20-13-27-22-12-20-16-33c-3-12-5-26-5-39s2-25 5-38c3-12 9-23 16-33s16-17 27-23 24-9 40-9 29 3 40 9 20 15 27 25 12 22 15 35 4 27 4 40h-150c0 9 1 17 4 27zm118-73c-3-8-7-16-12-22s-12-12-19-15c-8-4-16-6-26-6s-18 2-26 6-14 9-19 15-9 14-13 22c-3 8-5 17-6 26h126c0-9-2-18-5-26zm84-132v269h-24v-269h24zm167 77c11 6 21 13 29 22s14 20 18 33c4 12 6 26 6 40s-2 27-6 40c-4 12-10 23-18 33-8 9-17 17-29 22-11 5-25 8-39 8-15 0-28-3-39-8s-21-13-29-22-14-20-18-33c-4-12-6-26-6-40s2-27 6-40c4-12 10-23 18-33 8-9 17-17 29-22 11-6 25-8 39-8 15 0 28 3 39 8zm-69 19c-9 5-16 11-21 19-6 8-10 17-13 27s-4 20-4 30 1 20 4 30 7 19 13 27 13 14 21 19c9 5 18 7 30 7 11 0 21-2 30-7s16-11 21-19c6-8 10-17 13-27s4-20 4-30-1-20-4-30-7-19-13-27-13-14-21-19c-9-5-18-7-30-7-11 0-21 2-30 7zm178-22v37h1c6-14 15-24 27-31s27-11 42-11 28 3 39 8c11 6 20 13 27 22s13 20 16 33c4 12 5 26 5 39 0 14-2 27-5 39-4 12-9 23-16 33-7 9-16 17-27 22s-24 8-39 8c-7 0-14-1-21-3s-14-4-20-8-11-8-16-13-8-11-11-18h-1v109h-24v-266h22zm130 67c-2-10-6-19-11-27s-12-14-20-19-18-7-29-7c-13 0-24 2-33 7s-16 11-21 18c-5 8-9 16-11 26s-3 21-3 32c0 10 1 20 4 30 2 10 6 19 12 27 5 8 12 14 21 19s19 7 32 7c11 0 21-2 29-7s15-11 20-19 9-17 11-27 4-20 4-30-1-20-4-30zm85-67v37h1c6-14 15-24 27-31s27-11 42-11 28 3 39 8c11 6 20 13 27 22s13 20 16 33c4 12 5 26 5 39 0 14-2 27-5 39-4 12-9 23-16 33-7 9-16 17-27 22s-24 8-39 8c-7 0-14-1-21-3s-14-4-20-8-11-8-16-13-8-11-11-18h-1v109h-24v-266h22zm130 67c-2-10-6-19-11-27s-12-14-20-19-18-7-29-7c-13 0-24 2-33 7s-16 11-21 18c-5 8-9 16-11 26s-3 21-3 32c0 10 1 20 4 30 2 10 6 19 12 27 5 8 12 14 21 19s19 7 32 7c11 0 21-2 29-7s15-11 20-19 9-17 11-27 4-20 4-30-1-20-4-30zm81 63c2 9 6 17 12 25 5 7 12 13 20 18s18 7 29 7c17 0 31-5 41-14s17-21 20-36h24c-5 22-14 39-28 51-13 12-32 18-57 18-15 0-29-3-40-8s-20-13-27-22-12-20-16-33c-3-12-5-26-5-39s2-25 5-38c3-12 9-23 16-33s16-17 27-23 24-9 40-9 29 3 40 9 20 15 27 25 12 22 15 35 4 27 4 40h-150c0 9 1 17 4 27zm118-73c-3-8-7-16-12-22s-12-12-19-15c-8-4-16-6-26-6s-18 2-26 6-14 9-19 15-9 14-13 22c-3 8-5 17-6 26h126c0-9-2-18-5-26zm195 137v-35h-1c-6 13-15 23-27 30s-25 10-40 10c-12 0-23-2-31-5-9-3-16-8-21-15-5-6-9-14-12-23s-4-19-4-31v-126h24v127c1 18 5 31 12 40 8 9 21 14 40 14 10 0 19-2 26-7 7-4 13-10 18-18 5-7 8-16 11-25 2-9 3-19 3-29v-102h24v195h-22zm88-195v46h1c6-16 15-28 28-37s28-12 45-12v24c-11-1-21 1-29 4-9 3-16 8-23 15-6 6-11 14-15 22-4 9-5 18-5 28v104h-24v-195h22z"/></clipPath></defs><g id="Calque_x0020_1"><g id="_334819552"><path class="fil0" d="M4841 1146l-245-623h-100v711h68V619h2l244 615h63l243-615h2v615h68V523h-100z"/><path class="fil1" d="M1559 1152c-2-16-3-32-3-47-1-15-1-29-2-40-1-18-4-36-7-54-4-18-9-34-17-49s-18-28-31-39-29-19-48-24v-2c40-16 68-39 86-70s26-67 26-109c0-27-5-53-14-76-10-24-24-44-42-62s-40-32-66-42-54-15-86-15H972v711h156V956h156c39 0 67 9 85 26 17 17 29 44 34 82 4 29 7 58 9 90 2 31 7 58 16 81h156c-7-10-13-22-16-36-4-14-6-29-8-45zm-180-331c-18 16-45 24-81 24h-171V645h171c36 0 63 8 81 23 18 16 27 41 27 75 0 36-9 62-27 78z"/><path class="fil0" d="M7329 1128v106h84v-106z"/><path class="fil1" d="M814 594c-20-21-45-38-76-51s-69-19-113-19H305v711h156V980h164c44 0 82-6 113-19s57-30 76-51c20-21 34-46 43-73 9-28 13-56 13-84 0-29-4-57-13-85-9-27-23-51-43-73zM708 806c-8 14-18 25-30 32-13 8-27 13-44 15-17 3-34 4-52 4H461V644h121c18 0 35 1 52 4s31 8 44 15c13 8 23 18 30 32 8 14 11 32 11 55s-4 41-11 55z"/><path class="fil0" d="M7390 1056l15-321V523h-68v212l15 321zm-159-473v-60h-512v58h436l-467 593v60h553v-58h-478zm-3492 565c-2-18-3-35-4-52s-1-32-2-44c-1-21-4-41-8-59s-11-34-21-48-22-25-37-34-34-15-58-18v-2c46-9 80-31 103-64s35-72 35-117c0-32-6-60-17-83-12-24-27-43-47-58s-42-26-69-33c-26-7-54-11-83-11h-325v711h68V920h257c32-1 57 4 75 16s32 28 42 47c10 20 16 42 19 67s5 50 6 75c1 7 1 16 2 26s1 20 2 30 3 20 5 30 5 18 9 24h75c-7-9-13-21-17-36-4-16-7-32-9-50zm-154-297c-19 6-38 9-59 9h-253V580h253c52 0 90 13 115 38s38 60 38 104c0 22-4 41-12 58s-19 31-33 43-30 21-49 27zm2088 295l-246-623h-99v711h68V619h1l244 615h64l243-615h2v615h67V523h-99zM4081 523l-286 711h72l86-221h323l87 221h73l-279-711h-76zm-107 432l142-364 137 364h-280zm-1204-25h242c1 38-4 73-15 105s-27 59-48 83c-21 23-47 41-78 54s-66 19-105 19c-47 0-88-9-121-27-34-18-62-42-83-71-22-30-37-63-48-101-10-37-15-75-15-114s5-77 15-114 26-71 48-100c22-30 49-53 83-71s74-27 121-27c34 0 64 5 92 16 27 11 51 25 70 42 20 17 35 36 47 57s18 42 20 62h68c-7-39-19-73-37-103-18-29-40-54-66-74s-55-35-89-45c-33-10-68-15-105-15-56 0-105 10-147 30s-77 47-105 82c-28 34-49 74-63 118s-21 91-21 140 7 96 21 140 35 84 63 117c28 34 63 61 105 81s91 30 147 30c26 0 51-3 75-8s47-14 68-25c21-12 41-27 58-45 18-18 32-40 44-65h2l9 129h49V869h-301v58zm3459-35h396v-58h-396V581h423v-58h-491v711h496v-58h-428z"/><path class="fil1" d="M2263 614c-30-34-66-60-109-80-43-19-92-29-147-29-54 0-103 10-147 29-43 19-80 46-110 80s-53 74-69 119-24 95-24 148c0 52 8 100 24 145s39 84 69 117 66 59 110 78c43 19 92 28 147 28s104-9 147-28 80-45 109-78c30-33 53-72 69-117s24-93 24-145c0-53-8-102-24-148-16-45-39-85-69-119zm-74 354c-7 28-18 54-33 76-15 23-35 41-60 54-25 14-54 20-90 20-35 0-65-7-90-20-25-14-44-32-60-54-15-23-26-48-33-76s-10-57-10-87c0-31 3-61 10-91 7-29 18-55 33-78s35-41 60-55 54-20 90-20c35 0 65 7 90 20 25 14 44 32 60 55 15 23 26 49 33 78s10 59 10 91c0 30-3 59-10 87z"/></g><path class="fil1" d="M310 1323v269h-8v-269h8zm42 210c3 11 7 21 13 29s14 15 23 20c10 5 21 7 35 7 20 0 37-5 51-16 13-11 22-27 25-48h8c-3 23-12 40-27 53-15 12-34 19-56 19-15 0-28-2-39-7s-19-12-26-21-12-20-15-32-5-26-5-40c0-16 2-30 7-43s11-23 19-32 17-15 27-20 21-7 32-7c15 0 28 3 39 9s20 13 27 23 12 20 15 33c3 12 4 25 4 38H347c0 13 2 25 5 36zm145-78c-3-11-8-20-15-28-6-8-14-14-24-19s-21-7-33-7c-11 0-20 2-30 6-9 4-17 10-24 18s-13 17-17 28-7 23-8 37h155c0-12-2-23-5-34zm154-57v48h1c2-8 5-14 8-21 4-6 8-12 14-17s12-8 18-11c7-3 14-4 21-4 15-1 28 3 38 12 10 8 17 19 20 34h1c4-14 11-25 22-33s24-12 39-12c12 0 22 2 29 5 8 4 14 8 19 15 5 6 8 14 10 22 2 9 3 18 3 29v127h-8v-127c0-10-1-18-2-26-2-8-5-14-9-20s-10-10-17-13-16-5-26-5c-9 0-18 2-25 5-8 4-14 9-19 15s-9 14-12 22-4 17-4 26v123h-8v-124c0-9-1-18-2-26s-4-15-8-21-9-11-16-14c-7-4-16-5-26-5s-18 2-26 7c-8 4-14 10-20 18-5 7-10 16-12 26-3 10-4 20-4 31v110h-8v-194h8zm290 35c3-8 8-15 14-21s14-10 23-14c9-3 19-5 31-5 9 0 17 1 24 3 8 2 14 5 20 9s10 10 14 17 5 16 6 26v123c0 4 1 7 2 8 2 2 4 3 6 4 3 1 5 1 8 1s6 0 8-1v8h-11c-6 0-10-1-15-4-4-3-6-8-6-15v-25h-1c-2 6-5 12-10 18-4 6-10 11-17 15-7 5-14 8-23 11s-18 4-28 4c-20 0-35-4-47-13s-18-22-18-39c0-12 2-22 6-29s9-13 15-17 13-7 21-9 16-3 24-3c13-1 25-1 34-2 10-1 17-2 24-4 6-2 11-5 14-9s4-9 4-17c0-6-1-12-2-18s-3-12-7-17-10-10-17-13c-8-3-18-5-31-5-20 0-36 5-48 15-11 10-18 24-19 42h-8c1-9 2-18 6-25zm124 45c-3 4-6 6-12 8-5 2-11 3-18 4s-14 2-22 2-16 1-23 1c-8 1-15 1-22 3-7 1-14 4-19 8-6 4-10 9-13 15s-5 15-5 25c0 6 1 11 3 16s5 10 10 14 10 8 18 10c7 3 16 4 27 4 13 0 24-2 34-6s18-10 25-17 12-15 15-24 5-18 5-28v-36h-1zm198 49c-2 9-6 16-11 23s-11 13-18 17c-7 5-14 8-23 11-8 2-16 4-25 4-14 0-25-3-35-8s-18-12-25-20-12-18-15-30c-3-11-5-23-5-35 0-13 2-25 5-37 4-11 9-22 16-30 7-9 16-16 26-21s22-8 36-8c9 0 18 1 26 4s15 7 22 12c6 5 12 11 16 18s8 14 10 22h1v-52h8v187c0 27-7 46-21 59-14 12-34 19-60 19-10 0-19-1-28-3s-17-6-23-11c-7-5-12-11-16-19s-6-17-6-28h8c0 10 2 18 6 25s8 12 15 17c6 4 13 7 21 9s16 3 25 3c24 0 42-6 54-17 13-11 19-29 19-53v-58h-1zm-4-71c-3-11-8-20-14-28s-14-15-23-20-20-7-32-7c-13 0-24 2-33 7s-17 11-24 19c-6 8-11 17-14 28s-5 22-5 34 2 23 5 34c3 10 8 19 14 27s14 14 23 18 19 7 31 7c13 0 24-2 33-7 10-5 18-11 24-18 6-8 11-17 15-27 3-10 5-21 5-33 0-11-2-22-5-32zm58-24c3-8 8-15 14-21s14-10 23-14c9-3 19-5 31-5 9 0 17 1 24 3 8 2 14 5 20 9s10 10 14 17 5 16 6 26v123c0 4 1 7 2 8 2 2 4 3 6 4 3 1 5 1 8 1s6 0 8-1v8h-11c-6 0-10-1-15-4-4-3-6-8-6-15v-25h-1c-2 6-5 12-10 18-4 6-10 11-17 15-7 5-14 8-23 11s-18 4-28 4c-20 0-35-4-47-13s-18-22-18-39c0-12 2-22 6-29s9-13 15-17 13-7 21-9 16-3 24-3c13-1 25-1 34-2 10-1 17-2 24-4 6-2 11-5 14-9s4-9 4-17c0-6-1-12-2-18s-3-12-7-17-10-10-17-13c-8-3-18-5-31-5-20 0-36 5-48 15-11 10-18 24-19 42h-8c1-9 2-18 6-25zm124 45c-3 4-6 6-12 8-5 2-11 3-18 4s-14 2-22 2-16 1-23 1c-8 1-15 1-22 3-7 1-14 4-19 8-6 4-10 9-13 15s-5 15-5 25c0 6 1 11 3 16s5 10 10 14 10 8 18 10c7 3 16 4 27 4 13 0 24-2 34-6s18-10 25-17 12-15 15-24 5-18 5-28v-36h-1zm182 114h-150v-9l136-177h-126v-8h133v9l-136 177h142v8zm22-231v-38h8v38h-8zm0 231v-194h8v194h-8zm56-194v48h1c2-8 5-14 8-21 4-6 9-12 15-17s13-8 21-11 16-4 26-4 19 2 28 5c8 3 16 7 22 13s11 13 14 22 5 19 5 30v129h-8v-127c0-11-2-21-5-29s-8-14-13-20c-6-5-12-9-20-11-7-2-15-4-24-4-12 0-22 2-31 7-9 4-16 10-22 18-6 7-10 16-13 26s-5 20-5 31v110h-8v-194h8zm181 135c3 11 7 21 13 29s14 15 23 20c10 5 21 7 35 7 20 0 37-5 51-16 13-11 22-27 25-48h8c-3 23-12 40-27 53-15 12-34 19-56 19-15 0-28-2-39-7s-19-12-26-21-12-20-15-32-5-26-5-40c0-16 2-30 7-43s11-23 19-32 17-15 27-20 21-7 32-7c15 0 28 3 39 9s20 13 27 23 12 20 15 33c3 12 4 25 4 38h-162c0 13 2 25 5 36zm145-78c-3-11-8-20-15-28-6-8-14-14-24-19s-21-7-33-7c-11 0-20 2-30 6-9 4-17 10-24 18s-13 17-17 28-7 23-8 37h155c0-12-2-23-5-34zm305-133v269h-8v-54h-1c-5 17-14 31-28 42-13 11-30 16-50 16-13 0-24-3-34-8s-19-12-26-21-13-20-16-32c-4-12-6-26-6-40s2-27 5-39c4-12 9-23 16-32s16-17 26-22c10-6 22-8 35-8 21 0 38 5 51 16s22 25 27 43h1v-130h8zm-29 103c-14-16-33-24-57-24-13 0-24 3-34 8-10 6-17 13-23 22s-11 19-13 30c-3 11-4 22-4 34s2 24 5 35 8 21 14 30 14 16 23 21 20 8 33 8 24-3 33-8c10-5 18-12 25-20 7-9 12-18 15-30 4-11 5-23 5-36 0-30-7-54-21-70zm212 167v-48h-1c-4 15-11 28-23 37-12 10-27 15-47 15-10 0-19-1-28-4-8-3-16-7-22-13s-11-13-14-22-5-19-5-30v-129h8v127c0 11 2 21 5 29s8 14 13 20c6 5 12 9 20 11 7 2 15 4 24 4 12 0 22-2 31-7 9-4 16-10 22-18 6-7 10-16 13-26s5-20 5-31v-110h8v194h-8zm304 0v-37h-1c-3 6-6 12-11 17s-10 10-17 13c-6 4-13 6-20 8s-14 3-21 3c-15 0-28-3-39-8s-20-13-27-22-13-20-16-33c-4-12-5-26-5-39 0-14 2-27 5-39 4-12 9-23 16-33 7-9 16-17 27-22 11-6 24-8 39-8 7 0 14 1 21 3s13 4 19 8 11 8 16 13 8 11 11 18h1v-112h24v269h-22zm-130-67c2 10 6 19 11 27s12 14 20 19 18 7 29 7c13 0 23-2 32-7s16-11 21-19 9-17 12-27c2-10 4-20 4-30s-1-20-4-30c-2-10-6-19-12-27-5-8-12-14-21-19s-19-7-32-7c-11 0-21 2-29 7s-15 11-20 19-9 17-11 27-4 20-4 30 1 20 4 30zm214 3c2 9 6 17 12 25 5 7 12 13 20 18s18 7 29 7c17 0 31-5 41-14s17-21 20-36h24c-5 22-14 39-28 51-13 12-32 18-57 18-15 0-29-3-40-8s-20-13-27-22-12-20-16-33c-3-12-5-26-5-39s2-25 5-38c3-12 9-23 16-33s16-17 27-23 24-9 40-9 29 3 40 9 20 15 27 25 12 22 15 35 4 27 4 40h-150c0 9 1 17 4 27zm118-73c-3-8-7-16-12-22s-12-12-19-15c-8-4-16-6-26-6s-18 2-26 6-14 9-19 15-9 14-13 22c-3 8-5 17-6 26h126c0-9-2-18-5-26zm-82-85l40-53h29l-50 53h-19zm147 27l61 171h1l60-171h25l-73 195h-25l-75-195h26zm187 130c2 9 6 17 12 25 5 7 12 13 20 18s18 7 29 7c17 0 31-5 41-14s17-21 20-36h24c-5 22-14 39-28 51-13 12-32 18-57 18-15 0-29-3-40-8s-20-13-27-22-12-20-16-33c-3-12-5-26-5-39s2-25 5-38c3-12 9-23 16-33s16-17 27-23 24-9 40-9 29 3 40 9 20 15 27 25 12 22 15 35 4 27 4 40h-150c0 9 1 17 4 27zm118-73c-3-8-7-16-12-22s-12-12-19-15c-8-4-16-6-26-6s-18 2-26 6-14 9-19 15-9 14-13 22c-3 8-5 17-6 26h126c0-9-2-18-5-26zm84-132v269h-24v-269h24zm167 77c11 6 21 13 29 22s14 20 18 33c4 12 6 26 6 40s-2 27-6 40c-4 12-10 23-18 33-8 9-17 17-29 22-11 5-25 8-39 8-15 0-28-3-39-8s-21-13-29-22-14-20-18-33c-4-12-6-26-6-40s2-27 6-40c4-12 10-23 18-33 8-9 17-17 29-22 11-6 25-8 39-8 15 0 28 3 39 8zm-69 19c-9 5-16 11-21 19-6 8-10 17-13 27s-4 20-4 30 1 20 4 30 7 19 13 27 13 14 21 19c9 5 18 7 30 7 11 0 21-2 30-7s16-11 21-19c6-8 10-17 13-27s4-20 4-30-1-20-4-30-7-19-13-27-13-14-21-19c-9-5-18-7-30-7-11 0-21 2-30 7zm178-22v37h1c6-14 15-24 27-31s27-11 42-11 28 3 39 8c11 6 20 13 27 22s13 20 16 33c4 12 5 26 5 39 0 14-2 27-5 39-4 12-9 23-16 33-7 9-16 17-27 22s-24 8-39 8c-7 0-14-1-21-3s-14-4-20-8-11-8-16-13-8-11-11-18h-1v109h-24v-266h22zm130 67c-2-10-6-19-11-27s-12-14-20-19-18-7-29-7c-13 0-24 2-33 7s-16 11-21 18c-5 8-9 16-11 26s-3 21-3 32c0 10 1 20 4 30 2 10 6 19 12 27 5 8 12 14 21 19s19 7 32 7c11 0 21-2 29-7s15-11 20-19 9-17 11-27 4-20 4-30-1-20-4-30zm85-67v37h1c6-14 15-24 27-31s27-11 42-11 28 3 39 8c11 6 20 13 27 22s13 20 16 33c4 12 5 26 5 39 0 14-2 27-5 39-4 12-9 23-16 33-7 9-16 17-27 22s-24 8-39 8c-7 0-14-1-21-3s-14-4-20-8-11-8-16-13-8-11-11-18h-1v109h-24v-266h22zm130 67c-2-10-6-19-11-27s-12-14-20-19-18-7-29-7c-13 0-24 2-33 7s-16 11-21 18c-5 8-9 16-11 26s-3 21-3 32c0 10 1 20 4 30 2 10 6 19 12 27 5 8 12 14 21 19s19 7 32 7c11 0 21-2 29-7s15-11 20-19 9-17 11-27 4-20 4-30-1-20-4-30zm81 63c2 9 6 17 12 25 5 7 12 13 20 18s18 7 29 7c17 0 31-5 41-14s17-21 20-36h24c-5 22-14 39-28 51-13 12-32 18-57 18-15 0-29-3-40-8s-20-13-27-22-12-20-16-33c-3-12-5-26-5-39s2-25 5-38c3-12 9-23 16-33s16-17 27-23 24-9 40-9 29 3 40 9 20 15 27 25 12 22 15 35 4 27 4 40h-150c0 9 1 17 4 27zm118-73c-3-8-7-16-12-22s-12-12-19-15c-8-4-16-6-26-6s-18 2-26 6-14 9-19 15-9 14-13 22c-3 8-5 17-6 26h126c0-9-2-18-5-26zm195 137v-35h-1c-6 13-15 23-27 30s-25 10-40 10c-12 0-23-2-31-5-9-3-16-8-21-15-5-6-9-14-12-23s-4-19-4-31v-126h24v127c1 18 5 31 12 40 8 9 21 14 40 14 10 0 19-2 26-7 7-4 13-10 18-18 5-7 8-16 11-25 2-9 3-19 3-29v-102h24v195h-22zm88-195v46h1c6-16 15-28 28-37s28-12 45-12v24c-11-1-21 1-29 4-9 3-16 8-23 15-6 6-11 14-15 22-4 9-5 18-5 28v104h-24v-195h22z" id="_334820128"/><path class="fil1" d="M310 1323v269h-8v-269h8zm42 210c3 11 7 21 13 29s14 15 23 20c10 5 21 7 35 7 20 0 37-5 51-16 13-11 22-27 25-48h8c-3 23-12 40-27 53-15 12-34 19-56 19-15 0-28-2-39-7s-19-12-26-21-12-20-15-32-5-26-5-40c0-16 2-30 7-43s11-23 19-32 17-15 27-20 21-7 32-7c15 0 28 3 39 9s20 13 27 23 12 20 15 33c3 12 4 25 4 38H347c0 13 2 25 5 36zm145-78c-3-11-8-20-15-28-6-8-14-14-24-19s-21-7-33-7c-11 0-20 2-30 6-9 4-17 10-24 18s-13 17-17 28-7 23-8 37h155c0-12-2-23-5-34zm154-57v48h1c2-8 5-14 8-21 4-6 8-12 14-17s12-8 18-11c7-3 14-4 21-4 15-1 28 3 38 12 10 8 17 19 20 34h1c4-14 11-25 22-33s24-12 39-12c12 0 22 2 29 5 8 4 14 8 19 15 5 6 8 14 10 22 2 9 3 18 3 29v127h-8v-127c0-10-1-18-2-26-2-8-5-14-9-20s-10-10-17-13-16-5-26-5c-9 0-18 2-25 5-8 4-14 9-19 15s-9 14-12 22-4 17-4 26v123h-8v-124c0-9-1-18-2-26s-4-15-8-21-9-11-16-14c-7-4-16-5-26-5s-18 2-26 7c-8 4-14 10-20 18-5 7-10 16-12 26-3 10-4 20-4 31v110h-8v-194h8zm290 35c3-8 8-15 14-21s14-10 23-14c9-3 19-5 31-5 9 0 17 1 24 3 8 2 14 5 20 9s10 10 14 17 5 16 6 26v123c0 4 1 7 2 8 2 2 4 3 6 4 3 1 5 1 8 1s6 0 8-1v8h-11c-6 0-10-1-15-4-4-3-6-8-6-15v-25h-1c-2 6-5 12-10 18-4 6-10 11-17 15-7 5-14 8-23 11s-18 4-28 4c-20 0-35-4-47-13s-18-22-18-39c0-12 2-22 6-29s9-13 15-17 13-7 21-9 16-3 24-3c13-1 25-1 34-2 10-1 17-2 24-4 6-2 11-5 14-9s4-9 4-17c0-6-1-12-2-18s-3-12-7-17-10-10-17-13c-8-3-18-5-31-5-20 0-36 5-48 15-11 10-18 24-19 42h-8c1-9 2-18 6-25zm124 45c-3 4-6 6-12 8-5 2-11 3-18 4s-14 2-22 2-16 1-23 1c-8 1-15 1-22 3-7 1-14 4-19 8-6 4-10 9-13 15s-5 15-5 25c0 6 1 11 3 16s5 10 10 14 10 8 18 10c7 3 16 4 27 4 13 0 24-2 34-6s18-10 25-17 12-15 15-24 5-18 5-28v-36h-1zm198 49c-2 9-6 16-11 23s-11 13-18 17c-7 5-14 8-23 11-8 2-16 4-25 4-14 0-25-3-35-8s-18-12-25-20-12-18-15-30c-3-11-5-23-5-35 0-13 2-25 5-37 4-11 9-22 16-30 7-9 16-16 26-21s22-8 36-8c9 0 18 1 26 4s15 7 22 12c6 5 12 11 16 18s8 14 10 22h1v-52h8v187c0 27-7 46-21 59-14 12-34 19-60 19-10 0-19-1-28-3s-17-6-23-11c-7-5-12-11-16-19s-6-17-6-28h8c0 10 2 18 6 25s8 12 15 17c6 4 13 7 21 9s16 3 25 3c24 0 42-6 54-17 13-11 19-29 19-53v-58h-1zm-4-71c-3-11-8-20-14-28s-14-15-23-20-20-7-32-7c-13 0-24 2-33 7s-17 11-24 19c-6 8-11 17-14 28s-5 22-5 34 2 23 5 34c3 10 8 19 14 27s14 14 23 18 19 7 31 7c13 0 24-2 33-7 10-5 18-11 24-18 6-8 11-17 15-27 3-10 5-21 5-33 0-11-2-22-5-32zm58-24c3-8 8-15 14-21s14-10 23-14c9-3 19-5 31-5 9 0 17 1 24 3 8 2 14 5 20 9s10 10 14 17 5 16 6 26v123c0 4 1 7 2 8 2 2 4 3 6 4 3 1 5 1 8 1s6 0 8-1v8h-11c-6 0-10-1-15-4-4-3-6-8-6-15v-25h-1c-2 6-5 12-10 18-4 6-10 11-17 15-7 5-14 8-23 11s-18 4-28 4c-20 0-35-4-47-13s-18-22-18-39c0-12 2-22 6-29s9-13 15-17 13-7 21-9 16-3 24-3c13-1 25-1 34-2 10-1 17-2 24-4 6-2 11-5 14-9s4-9 4-17c0-6-1-12-2-18s-3-12-7-17-10-10-17-13c-8-3-18-5-31-5-20 0-36 5-48 15-11 10-18 24-19 42h-8c1-9 2-18 6-25zm124 45c-3 4-6 6-12 8-5 2-11 3-18 4s-14 2-22 2-16 1-23 1c-8 1-15 1-22 3-7 1-14 4-19 8-6 4-10 9-13 15s-5 15-5 25c0 6 1 11 3 16s5 10 10 14 10 8 18 10c7 3 16 4 27 4 13 0 24-2 34-6s18-10 25-17 12-15 15-24 5-18 5-28v-36h-1zm182 114h-150v-9l136-177h-126v-8h133v9l-136 177h142v8zm22-231v-38h8v38h-8zm0 231v-194h8v194h-8zm56-194v48h1c2-8 5-14 8-21 4-6 9-12 15-17s13-8 21-11 16-4 26-4 19 2 28 5c8 3 16 7 22 13s11 13 14 22 5 19 5 30v129h-8v-127c0-11-2-21-5-29s-8-14-13-20c-6-5-12-9-20-11-7-2-15-4-24-4-12 0-22 2-31 7-9 4-16 10-22 18-6 7-10 16-13 26s-5 20-5 31v110h-8v-194h8zm181 135c3 11 7 21 13 29s14 15 23 20c10 5 21 7 35 7 20 0 37-5 51-16 13-11 22-27 25-48h8c-3 23-12 40-27 53-15 12-34 19-56 19-15 0-28-2-39-7s-19-12-26-21-12-20-15-32-5-26-5-40c0-16 2-30 7-43s11-23 19-32 17-15 27-20 21-7 32-7c15 0 28 3 39 9s20 13 27 23 12 20 15 33c3 12 4 25 4 38h-162c0 13 2 25 5 36zm145-78c-3-11-8-20-15-28-6-8-14-14-24-19s-21-7-33-7c-11 0-20 2-30 6-9 4-17 10-24 18s-13 17-17 28-7 23-8 37h155c0-12-2-23-5-34zm305-133v269h-8v-54h-1c-5 17-14 31-28 42-13 11-30 16-50 16-13 0-24-3-34-8s-19-12-26-21-13-20-16-32c-4-12-6-26-6-40s2-27 5-39c4-12 9-23 16-32s16-17 26-22c10-6 22-8 35-8 21 0 38 5 51 16s22 25 27 43h1v-130h8zm-29 103c-14-16-33-24-57-24-13 0-24 3-34 8-10 6-17 13-23 22s-11 19-13 30c-3 11-4 22-4 34s2 24 5 35 8 21 14 30 14 16 23 21 20 8 33 8 24-3 33-8c10-5 18-12 25-20 7-9 12-18 15-30 4-11 5-23 5-36 0-30-7-54-21-70zm212 167v-48h-1c-4 15-11 28-23 37-12 10-27 15-47 15-10 0-19-1-28-4-8-3-16-7-22-13s-11-13-14-22-5-19-5-30v-129h8v127c0 11 2 21 5 29s8 14 13 20c6 5 12 9 20 11 7 2 15 4 24 4 12 0 22-2 31-7 9-4 16-10 22-18 6-7 10-16 13-26s5-20 5-31v-110h8v194h-8zm304 0v-37h-1c-3 6-6 12-11 17s-10 10-17 13c-6 4-13 6-20 8s-14 3-21 3c-15 0-28-3-39-8s-20-13-27-22-13-20-16-33c-4-12-5-26-5-39 0-14 2-27 5-39 4-12 9-23 16-33 7-9 16-17 27-22 11-6 24-8 39-8 7 0 14 1 21 3s13 4 19 8 11 8 16 13 8 11 11 18h1v-112h24v269h-22zm-130-67c2 10 6 19 11 27s12 14 20 19 18 7 29 7c13 0 23-2 32-7s16-11 21-19 9-17 12-27c2-10 4-20 4-30s-1-20-4-30c-2-10-6-19-12-27-5-8-12-14-21-19s-19-7-32-7c-11 0-21 2-29 7s-15 11-20 19-9 17-11 27-4 20-4 30 1 20 4 30zm214 3c2 9 6 17 12 25 5 7 12 13 20 18s18 7 29 7c17 0 31-5 41-14s17-21 20-36h24c-5 22-14 39-28 51-13 12-32 18-57 18-15 0-29-3-40-8s-20-13-27-22-12-20-16-33c-3-12-5-26-5-39s2-25 5-38c3-12 9-23 16-33s16-17 27-23 24-9 40-9 29 3 40 9 20 15 27 25 12 22 15 35 4 27 4 40h-150c0 9 1 17 4 27zm118-73c-3-8-7-16-12-22s-12-12-19-15c-8-4-16-6-26-6s-18 2-26 6-14 9-19 15-9 14-13 22c-3 8-5 17-6 26h126c0-9-2-18-5-26zm-82-85l40-53h29l-50 53h-19zm147 27l61 171h1l60-171h25l-73 195h-25l-75-195h26zm187 130c2 9 6 17 12 25 5 7 12 13 20 18s18 7 29 7c17 0 31-5 41-14s17-21 20-36h24c-5 22-14 39-28 51-13 12-32 18-57 18-15 0-29-3-40-8s-20-13-27-22-12-20-16-33c-3-12-5-26-5-39s2-25 5-38c3-12 9-23 16-33s16-17 27-23 24-9 40-9 29 3 40 9 20 15 27 25 12 22 15 35 4 27 4 40h-150c0 9 1 17 4 27zm118-73c-3-8-7-16-12-22s-12-12-19-15c-8-4-16-6-26-6s-18 2-26 6-14 9-19 15-9 14-13 22c-3 8-5 17-6 26h126c0-9-2-18-5-26zm84-132v269h-24v-269h24zm167 77c11 6 21 13 29 22s14 20 18 33c4 12 6 26 6 40s-2 27-6 40c-4 12-10 23-18 33-8 9-17 17-29 22-11 5-25 8-39 8-15 0-28-3-39-8s-21-13-29-22-14-20-18-33c-4-12-6-26-6-40s2-27 6-40c4-12 10-23 18-33 8-9 17-17 29-22 11-6 25-8 39-8 15 0 28 3 39 8zm-69 19c-9 5-16 11-21 19-6 8-10 17-13 27s-4 20-4 30 1 20 4 30 7 19 13 27 13 14 21 19c9 5 18 7 30 7 11 0 21-2 30-7s16-11 21-19c6-8 10-17 13-27s4-20 4-30-1-20-4-30-7-19-13-27-13-14-21-19c-9-5-18-7-30-7-11 0-21 2-30 7zm178-22v37h1c6-14 15-24 27-31s27-11 42-11 28 3 39 8c11 6 20 13 27 22s13 20 16 33c4 12 5 26 5 39 0 14-2 27-5 39-4 12-9 23-16 33-7 9-16 17-27 22s-24 8-39 8c-7 0-14-1-21-3s-14-4-20-8-11-8-16-13-8-11-11-18h-1v109h-24v-266h22zm130 67c-2-10-6-19-11-27s-12-14-20-19-18-7-29-7c-13 0-24 2-33 7s-16 11-21 18c-5 8-9 16-11 26s-3 21-3 32c0 10 1 20 4 30 2 10 6 19 12 27 5 8 12 14 21 19s19 7 32 7c11 0 21-2 29-7s15-11 20-19 9-17 11-27 4-20 4-30-1-20-4-30zm85-67v37h1c6-14 15-24 27-31s27-11 42-11 28 3 39 8c11 6 20 13 27 22s13 20 16 33c4 12 5 26 5 39 0 14-2 27-5 39-4 12-9 23-16 33-7 9-16 17-27 22s-24 8-39 8c-7 0-14-1-21-3s-14-4-20-8-11-8-16-13-8-11-11-18h-1v109h-24v-266h22zm130 67c-2-10-6-19-11-27s-12-14-20-19-18-7-29-7c-13 0-24 2-33 7s-16 11-21 18c-5 8-9 16-11 26s-3 21-3 32c0 10 1 20 4 30 2 10 6 19 12 27 5 8 12 14 21 19s19 7 32 7c11 0 21-2 29-7s15-11 20-19 9-17 11-27 4-20 4-30-1-20-4-30zm81 63c2 9 6 17 12 25 5 7 12 13 20 18s18 7 29 7c17 0 31-5 41-14s17-21 20-36h24c-5 22-14 39-28 51-13 12-32 18-57 18-15 0-29-3-40-8s-20-13-27-22-12-20-16-33c-3-12-5-26-5-39s2-25 5-38c3-12 9-23 16-33s16-17 27-23 24-9 40-9 29 3 40 9 20 15 27 25 12 22 15 35 4 27 4 40h-150c0 9 1 17 4 27zm118-73c-3-8-7-16-12-22s-12-12-19-15c-8-4-16-6-26-6s-18 2-26 6-14 9-19 15-9 14-13 22c-3 8-5 17-6 26h126c0-9-2-18-5-26zm195 137v-35h-1c-6 13-15 23-27 30s-25 10-40 10c-12 0-23-2-31-5-9-3-16-8-21-15-5-6-9-14-12-23s-4-19-4-31v-126h24v127c1 18 5 31 12 40 8 9 21 14 40 14 10 0 19-2 26-7 7-4 13-10 18-18 5-7 8-16 11-25 2-9 3-19 3-29v-102h24v195h-22zm88-195v46h1c6-16 15-28 28-37s28-12 45-12v24c-11-1-21 1-29 4-9 3-16 8-23 15-6 6-11 14-15 22-4 9-5 18-5 28v104h-24v-195h22z" id="_334824928"/><g clip-path="url(#id0)"><image transform="translate(-3968.33 1371.67)" x="3968" y="-1372" width="7937" height="2743" xlink:href="p1aqhdr6jfbm6inh1tfggr3rs44_Images\p1aqhdr6jfbm6inh1tfggr3rs44_ImgID1.png"/></g><path class="fil2" d="M5296 1473h24l20 86 19-86h23l19 86 21-86h23l-33 115h-23l-19-86-19 86h-24l-32-115zm155 0h24l20 86 19-86h23l19 86 21-86h23l-33 115h-23l-19-86-19 86h-24l-32-115zm155 0h24l20 86 19-86h23l19 86 21-86h23l-33 115h-23l-19-86-19 86h-24l-32-115zm154 85h28v30h-28v-30zm52-85h22v16c3-7 8-11 13-14 6-3 12-4 19-4 8 0 15 2 21 5s11 8 15 13c4 6 7 12 9 20 2 7 3 15 3 24 0 8-1 15-3 23-2 7-5 14-8 19-4 6-8 10-14 13s-12 5-20 5c-3 0-7 0-10-1s-7-2-10-3-6-3-9-6c-3-2-5-5-7-8v58h-23v-158zm80 58c0-5-1-10-2-15s-3-9-5-13-5-7-9-9-8-3-12-3c-10 0-17 4-22 11s-7 17-7 30c0 6 1 11 2 16s3 9 6 13 6 6 9 8c4 2 8 3 12 3 5 0 10-1 13-4 4-2 7-5 9-9s4-8 5-13 2-10 2-15zm44-58h21v22c1-3 2-6 4-9s4-6 7-8l9-6c3-1 7-2 10-2h9v25c-2 0-3-1-5-1h-5c-4 0-8 1-11 3s-6 4-9 8c-3 3-5 7-6 12s-2 11-2 17v55h-23v-115zm113 118c-8 0-16-2-22-5s-12-7-16-13c-4-5-8-12-10-19s-4-16-4-25 1-17 4-24c2-7 6-14 10-19s10-10 16-13 14-5 22-5 16 2 22 5 12 7 16 13c4 5 8 12 10 19s4 16 4 24c0 9-1 17-4 25-2 7-6 14-10 19s-10 10-16 13c-7 3-14 5-22 5zm0-20c5 0 9-1 13-4 4-2 7-5 9-9s4-8 5-13 2-10 2-15-1-10-2-15-3-9-5-13-5-7-9-9-8-4-13-4-10 1-13 4c-4 2-7 5-9 9s-4 8-5 13-2 10-2 15 1 10 2 15 3 9 5 13 5 7 9 9 8 4 13 4zm167 11c0 17-4 30-13 39s-21 13-38 13c-5 0-10-1-16-2-5-1-10-3-14-6s-8-7-11-11c-3-5-5-10-5-17h23c1 4 2 6 3 9 2 2 4 4 6 5s5 2 7 2c3 0 5 1 8 1 9 0 16-3 20-8s6-12 6-22v-18c-3 6-8 11-13 15-6 4-12 5-18 5-8 0-15-2-21-5s-11-8-14-13c-4-6-7-12-8-19-2-7-3-15-3-23s1-15 3-22 5-13 9-18 9-9 15-13c6-3 12-5 20-5 7 0 13 2 18 5s10 8 13 14v-16h23v109zm-51-14c5 0 9-1 13-3s6-5 9-9c2-4 4-8 5-13s2-10 2-15-1-10-2-14c-1-5-3-9-5-12-2-4-5-6-9-8s-8-3-13-3-9 1-13 4c-3 2-6 5-8 9s-4 8-5 13-1 10-1 14c0 5 1 9 2 14s3 9 5 12c2 4 5 6 8 9 3 2 8 3 12 3zm74-95h21v22c1-3 2-6 4-9s4-6 7-8l9-6c3-1 7-2 10-2h9v25c-2 0-3-1-5-1h-5c-4 0-8 1-11 3s-6 4-9 8c-3 3-5 7-6 12s-2 11-2 17v55h-23v-115zm158 90c0 3 0 5 1 7 1 1 2 2 4 2h5v18c-1 0-2 1-3 1s-3 1-4 1-3 1-4 1h-3c-5 0-9-1-12-3s-5-6-6-11c-5 5-10 8-17 11-7 2-13 3-19 3-5 0-9-1-13-2s-8-4-11-6c-3-3-6-6-8-10s-3-9-3-15c0-7 1-13 4-17 2-4 5-8 9-10 4-3 8-4 13-5s10-2 14-3 8-2 12-2 7-1 10-2 5-2 7-4 3-5 3-8-1-6-2-8-3-4-5-5-4-2-7-2-5-1-7-1c-6 0-12 1-16 4s-6 8-7 14h-23c0-7 2-14 5-19s6-9 11-12c4-3 9-5 15-6 5-1 11-2 17-2 5 0 10 1 15 2s9 3 13 6 7 6 10 10c2 4 4 9 4 16v59zm-23-32c-3 3-8 4-13 5s-10 1-15 2c-2 0-5 1-7 2l-6 3c-2 1-3 3-4 6-1 2-2 5-2 8s1 5 2 7 3 3 5 5c2 1 4 2 7 2 2 0 5 1 7 1 3 0 5 0 8-1s6-2 8-4c3-2 5-4 7-7s3-6 3-10v-19zm49-58h22v16h1c2-3 4-5 6-8 2-2 4-4 7-6 2-2 5-3 9-4 3-1 7-1 11-1 6 0 12 2 18 5 5 3 9 8 12 15 4-6 8-11 13-14s11-5 19-5c11 0 20 3 26 9s9 16 9 30v80h-23v-80c0-4-1-7-2-10s-3-5-6-6-6-2-10-2c-8 0-13 3-17 8-3 5-5 13-5 23v68h-23v-74c0-8-1-14-4-18s-7-6-14-6c-3 0-6 1-9 2s-5 3-7 6-4 6-5 9c-1 4-2 8-2 13v69h-23v-115zm172 0h22v16h1c2-3 4-5 6-8 2-2 4-4 7-6 2-2 5-3 9-4 3-1 7-1 11-1 6 0 12 2 18 5 5 3 9 8 12 15 4-6 8-11 13-14s11-5 19-5c11 0 20 3 26 9s9 16 9 30v80h-23v-80c0-4-1-7-2-10s-3-5-6-6-6-2-10-2c-8 0-13 3-17 8-3 5-5 13-5 23v68h-23v-74c0-8-1-14-4-18s-7-6-14-6c-3 0-6 1-9 2s-5 3-7 6-4 6-5 9c-1 4-2 8-2 13v69h-23v-115zm190 64c0 4 1 9 2 13s3 8 5 11 5 6 9 7c3 2 8 3 12 3 7 0 12-2 16-5s7-8 9-14h22c-1 6-3 12-6 17s-6 9-11 12c-4 3-9 6-14 8s-11 3-16 3c-8 0-15-1-22-4-6-3-12-7-16-12s-8-12-10-19-3-16-3-25c0-8 1-16 4-23 2-7 6-14 10-19 4-6 10-10 16-13s13-5 21-5 15 2 22 6c6 4 12 9 16 15s7 13 9 22c2 8 2 16 2 25h-76zm53-17c0-4-1-8-2-12s-3-7-5-10-5-5-8-7-7-3-11-3-8 1-11 2c-3 2-6 4-8 6-2 3-4 6-6 10-1 4-2 8-2 12h53zm38-48h84v18l-59 77h62v20h-91v-18l57-77h-53v-20zm107 85h28v30h-28v-30zm122-47c-1-7-4-13-8-16-4-4-10-5-16-5-3 0-6 1-9 2s-6 3-9 6-5 7-7 13c-2 5-3 13-3 21 0 5 1 10 2 14 1 5 3 9 5 13s5 7 9 9c3 2 8 3 13 3 7 0 12-2 17-7 4-5 7-11 8-19h23c-2 15-7 27-15 34-8 8-19 12-32 12-8 0-15-2-22-5-6-3-11-7-16-12-4-5-8-12-10-19s-3-15-3-24 1-17 3-24c2-8 5-14 10-20 4-6 10-10 16-13s14-5 22-5c6 0 12 1 17 3s10 4 14 8c4 3 8 8 10 13 3 5 4 11 5 19h-23zm91 80c-8 0-16-2-22-5s-12-7-16-13c-4-5-8-12-10-19s-4-16-4-25 1-17 4-24c2-7 6-14 10-19s10-10 16-13 14-5 22-5 16 2 22 5 12 7 16 13c4 5 8 12 10 19s4 16 4 24c0 9-1 17-4 25-2 7-6 14-10 19s-10 10-16 13c-7 3-14 5-22 5zm0-20c5 0 9-1 13-4 4-2 7-5 9-9s4-8 5-13 2-10 2-15-1-10-2-15-3-9-5-13-5-7-9-9-8-4-13-4-10 1-13 4c-4 2-7 5-9 9s-4 8-5 13-2 10-2 15 1 10 2 15 3 9 5 13 5 7 9 9 8 4 13 4zm71-98h22v16h1c2-3 4-5 6-8 2-2 4-4 7-6 2-2 5-3 9-4 3-1 7-1 11-1 6 0 12 2 18 5 5 3 9 8 12 15 4-6 8-11 13-14s11-5 19-5c11 0 20 3 26 9s9 16 9 30v80h-23v-80c0-4-1-7-2-10s-3-5-6-6-6-2-10-2c-8 0-13 3-17 8-3 5-5 13-5 23v68h-23v-74c0-8-1-14-4-18s-7-6-14-6c-3 0-6 1-9 2s-5 3-7 6-4 6-5 9c-1 4-2 8-2 13v69h-23v-115z" id="_334802200"/></g></svg>