<?xml version="1.0" encoding="utf-8"?>
<!-- Generator: Adobe Illustrator 16.0.0, SVG Export Plug-In . SVG Version: 6.00 Build 0)  -->
<!DOCTYPE svg PUBLIC "-//W3C//DTD SVG 1.1//EN" "http://www.w3.org/Graphics/SVG/1.1/DTD/svg11.dtd">
<svg version="1.1" id="Layer_2" xmlns="http://www.w3.org/2000/svg" xmlns:xlink="http://www.w3.org/1999/xlink"
	 width="515" height="245" viewBox="160 160 515 245" xml:space="preserve">
<g>
	<path fill="#3366CC" d="M312.001,331.785c-0.785-5.767-2.429-10.755-7.204-15.221c-12.743-11.92-12.256-31.811,0.211-43.735
		c12.622-12.072,31.798-11.516,43.832,1.23c6.717,7.115,8.979,15.7,8.181,25.438c9.456,1.371,18.605,2.698,28.034,4.065
		c0.355-1.926,0.758-3.518,0.931-5.135c3.097-29.073-17.764-56.904-46.395-61.934c-30.699-5.393-59.739,13.142-66.663,42.745
		c-2.083,8.907-3.396,17.994-5.472,26.903c-0.942,4.044-0.402,6.278,3.367,8.88c10.618,7.329,15.409,17.789,13.043,30.722
		c-2.309,12.625-10.024,21-22.313,24.364c-12.61,3.452-23.352-0.456-31.751-10.425c-7.398-8.78-8.331-18.903-5.39-29.945
		c-8.692,0-17.122,0-26.457,0c0,6.058-0.581,11.746,0.096,17.28c3.805,31.09,33.285,53.762,64.065,49.557
		C294.091,392.208,316.308,363.404,312.001,331.785z"/>
	<polygon fill="#3366CC" points="257.462,335.083 253.456,328.144 249.45,335.083 241.98,335.083 245.715,341.552 241.98,348.021 
		249.45,348.021 253.456,354.96 257.462,348.021 264.932,348.021 261.197,341.552 264.932,335.083 	"/>
	<polygon fill="#3366CC" points="330.72,289.422 326.714,282.484 322.708,289.422 315.238,289.422 318.973,295.892 315.238,302.36 
		322.708,302.36 326.714,309.3 330.72,302.36 338.19,302.36 334.455,295.892 338.19,289.422 	"/>
	<polygon fill="#3366CC" points="541.347,300.446 541.347,252.74 557.373,252.74 557.373,237.097 509.605,237.097 509.605,252.74 
		525.632,252.74 525.632,300.446 	"/>
	<polygon fill="#3366CC" points="602.949,284.847 578.423,284.847 578.423,237.097 562.708,237.097 562.708,300.446 
		602.949,300.446 	"/>
	<polygon fill="#3366CC" points="635.955,300.446 654.839,237.097 638.89,237.097 627.59,282.686 616.144,237.097 599.716,237.097 
		618.923,300.446 	"/>
	<path fill="#3366CC" d="M394.773,292.718c-0.004,3.007-0.008,6.015-0.013,9.021c38.217,11.983,76.435-11.826,114.652,0.15
		c0.004-3.007,0.008-6.015,0.012-9.022c-12.225-3.833-24.45-3.998-36.675-2.849l1.127-6.08c11.846-1.033,23.69-0.762,35.536,2.95
		c0.004-3.007,0.008-6.015,0.012-9.022c-11.283-3.538-22.566-3.945-33.851-3.085l1.124-6.062c10.905-0.747,21.81-0.249,32.715,3.169
		c0.004-3.007,0.008-6.015,0.012-9.022c-10.345-3.244-20.689-3.854-31.035-3.272l9.94-53.617c5.047-1.522,14.319-4.036,18.218-3.252
		c5.488,1.103,18.284,12.352,18.284,12.352s15.72-5.532,21.08-4.441c4.779,0.972,13.848,9.834,15.588,11.571
		c-0.019-0.043-0.045-0.1-0.068-0.153c0.098,0.15,0.153,0.239,0.153,0.239c0.134,0.134,0.211,0.212,0.211,0.212
		s-0.128-0.511-0.415-1.427c-1.393-7.239-11.193-44.902-65.851-56.455c-0.731-0.298-1.497-0.55-2.299-0.748
		c-11.862-1.462-20.414,12.209-22.05,19.836c-5.543-0.688-19.252,2.751-19.252,2.751s-12.144-4.311-17.702-5.587
		c0.004,0.001,0.008,0.001,0.012,0.002c3.972-4.348,14.391-24.529,58.343-17.11c-61.812-12.421-85.819,28.476-85.819,28.476
		s0.621-0.46,1.689-1.194c3.342-1.327,13.756-5.243,18.258-4.366c5.559,1.082,18.561,12.407,18.561,12.407s16.149-5.446,21.635-4.33
		c4.505,0.917,13.945,8.792,17.014,11.432l-9.958,53.714c-26.396,2.287-52.792,11.083-79.188,2.811
		c-0.004,3.007-0.008,6.015-0.013,9.022c25.833,8.101,51.666-0.145,77.498-2.646l-1.128,6.086
		c-25.452,2.625-50.904,10.514-76.357,2.538c-0.004,3.007-0.008,6.015-0.013,9.022c24.888,7.804,49.775,0.433,74.663-2.354
		l-1.132,6.107C443.785,293.37,419.279,300.396,394.773,292.718z M544.999,201.933l-1.42,0.919
		c-5.42-0.931-17.739-1.536-17.739-1.536s-12.159-9.088-17.257-10.113c-0.152-0.031-0.314-0.057-0.483-0.079
		c1.332-7.213-1.676-21.397-11.812-26.159C529.353,174.939,537.192,186.573,544.999,201.933z"/>
	<polygon fill="#3366CC" points="405.37,313.775 384.339,392.39 407.714,392.39 428.744,313.775 	"/>
	<path fill="#3366CC" d="M504.385,337.585c0.047-4.791-0.821-8.99-2.602-12.602c-1.779-3.61-4.514-6.382-8.201-8.312
		c-3.689-1.931-8.949-2.896-15.779-2.896H443.15l-21.03,78.614h34.651c4.152,0,8.979-0.715,14.475-2.145
		c4.019-1.036,8.077-3.119,12.176-6.247c4.098-3.129,7.684-7.007,10.758-11.637c3.075-4.63,5.737-11.146,7.984-19.547
		C503.599,347.452,504.34,342.376,504.385,337.585z M478.608,353.297c-1.684,6.292-3.484,10.842-5.402,13.648
		s-4.057,4.772-6.418,5.898c-2.36,1.126-5.978,1.688-10.853,1.688h-5.715l11.492-42.953h5.818c6.041,0,9.953,1.537,11.74,4.611
		C481.058,339.266,480.837,344.968,478.608,353.297z"/>
	<polygon fill="#3366CC" points="541.061,330.561 580.191,330.561 584.682,313.775 522.176,313.775 501.145,392.39 564.783,392.39 
		569.546,374.586 529.282,374.586 533.428,359.089 569.729,359.089 574.018,343.055 537.718,343.055 	"/>
	<path fill="#3366CC" d="M647.505,318.039c-4.064-3.736-10.918-5.604-20.563-5.604c-7.86,0-14.322,1.027-19.387,3.082
		c-5.063,2.057-9.201,4.881-12.409,8.473c-3.21,3.594-5.354,7.41-6.436,11.449c-1.646,6.15-0.802,11.209,2.53,15.177
		c3.297,3.968,9.74,7.15,19.328,9.545c5.865,1.43,9.439,2.95,10.727,4.559c1.286,1.608,1.657,3.432,1.111,5.47
		c-0.573,2.146-1.979,4.031-4.217,5.657c-2.237,1.627-5.021,2.439-8.351,2.439c-4.462,0-7.47-1.591-9.02-4.772
		c-0.951-1.966-1.164-4.826-0.641-8.58l-22.579,1.448c-1.471,7.937-0.423,14.479,3.143,19.627
		c3.566,5.148,11.768,7.722,24.605,7.722c7.311,0,13.662-1.099,19.058-3.298c5.393-2.198,9.998-5.425,13.813-9.68
		c3.815-4.253,6.397-8.901,7.746-13.942c1.147-4.29,1.182-8.168,0.102-11.637c-1.081-3.468-3.514-6.372-7.298-8.714
		c-3.785-2.341-10.468-4.656-20.05-6.945c-3.881-0.892-6.231-1.857-7.053-2.895c-0.864-1.001-1.13-2.127-0.795-3.379
		c0.459-1.716,1.535-3.172,3.229-4.37c1.693-1.197,3.896-1.797,6.609-1.797c3.295,0,5.661,0.804,7.102,2.413
		c1.441,1.609,1.979,4.184,1.616,7.722l22.344-1.34C652.99,327.718,651.567,321.774,647.505,318.039z"/>
	<path fill="#3366CC" d="M373.955,346.46c-3.785-2.341-10.467-4.656-20.05-6.945c-3.88-0.892-6.231-1.857-7.052-2.895
		c-0.865-1.001-1.13-2.127-0.795-3.379c0.459-1.716,1.535-3.172,3.229-4.37c1.693-1.197,3.896-1.797,6.609-1.797
		c3.295,0,5.662,0.804,7.102,2.413c1.441,1.609,1.979,4.184,1.616,7.722l22.344-1.34c1.22-8.151-0.203-14.095-4.266-17.83
		c-4.064-3.736-10.918-5.604-20.563-5.604c-3.502,0-6.711,0.216-9.659,0.624c-5.316,7.959-14.221,13.312-24.402,13.751
		c-1.977,2.754-3.369,5.63-4.171,8.629c-1.646,6.15-0.802,11.209,2.531,15.177c3.297,3.968,9.74,7.15,19.328,9.545
		c5.865,1.43,9.439,2.95,10.726,4.559c1.286,1.608,1.657,3.432,1.112,5.47c-0.574,2.146-1.98,4.031-4.217,5.657
		c-2.238,1.627-5.022,2.439-8.351,2.439c-4.462,0-7.47-1.591-9.02-4.772c-0.951-1.966-1.164-4.826-0.641-8.58l-22.579,1.448
		c-1.471,7.937-0.423,14.479,3.142,19.627c3.566,5.148,11.767,7.722,24.605,7.722c7.312,0,13.663-1.099,19.058-3.298
		c5.393-2.198,9.998-5.425,13.814-9.68c3.815-4.253,6.397-8.901,7.746-13.942c1.147-4.29,1.182-8.168,0.102-11.637
		C380.172,351.706,377.739,348.802,373.955,346.46z"/>
	<path fill="#3366CC" d="M226.249,326.781c5.244-9.64,15.462-16.183,27.208-16.183c1.641,0,3.251,0.13,4.823,0.376
		c1.13-2.187,1.951-4.52,2.45-7.005c1.026-5.119,0.511-9.371-1.545-12.755c-2.058-3.382-5.847-5.768-11.369-7.159
		c4.083-1.316,7.342-3.108,9.779-5.376c3.655-3.401,5.959-7.478,6.912-12.233c1.136-5.667,0.005-10.423-3.392-14.262
		c-3.397-3.841-8.987-5.761-16.77-5.761h-46.696l-16.118,80.421h43.062C225.029,326.845,225.587,326.822,226.249,326.781z
		 M219.548,262.717h11.013c3.78,0,6.302,0.658,7.562,1.974c1.259,1.317,1.655,3.146,1.186,5.486
		c-0.506,2.524-1.655,4.453-3.445,5.787c-1.792,1.336-4.633,2.003-8.524,2.003h-10.848L219.548,262.717z M210.159,309.564
		l3.265-16.292h12.665c4.368,0,7.279,0.722,8.734,2.167c1.454,1.445,1.944,3.354,1.467,5.732c-0.513,2.561-1.804,4.6-3.869,6.117
		c-2.066,1.518-5.248,2.275-9.542,2.275H210.159z"/>
</g>
</svg>
