<svg xmlns="http://www.w3.org/2000/svg" xmlns:xlink="http://www.w3.org/1999/xlink" width="1407.508" height="1028.26" viewBox="0 0 1126.0066 822.60819"><defs><linearGradient id="a"><stop offset="0" stop-color="#b00"/><stop offset="1" stop-color="#b00" stop-opacity="0"/></linearGradient><linearGradient xlink:href="#a" id="i" x1="739.134" y1="303.531" x2="816.574" y2="303.531" gradientUnits="userSpaceOnUse" gradientTransform="translate(-31.34 24.316)"/><filter id="h"><feGaussianBlur stdDeviation=".373"/></filter><filter id="c"><feGaussianBlur stdDeviation="4.659"/></filter><linearGradient id="b"><stop offset="0" stop-color="#b00"/><stop offset="1" stop-color="#b00" stop-opacity="0"/></linearGradient><filter id="e"><feGaussianBlur stdDeviation="3.244"/></filter><filter id="d" x="-.041" width="1.081" y="-.174" height="1.348"><feGaussianBlur stdDeviation="3.244"/></filter><filter id="f"><feGaussianBlur stdDeviation="3.244"/></filter><filter id="g"><feGaussianBlur stdDeviation="5.332"/></filter></defs><path style="line-height:125%" d="M616.5-904.375c-8.453-1.179-12.01 7.794-16.5 13.031-6.17 4.157-5.492 14.106.75 17.875 64.62 70.54 101.676 163.172 111.929 257.673 7.87 68.191 5.129 137.505-5.475 205.187-10.416 62.29-33.256 122.537-68.36 175.14-13.04 20.279-27.812 39.43-43.032 58.25-2.744 8.266 6.325 12.845 11.125 17.657 4.094 4.656 12.241 8.37 17.132 2.595 68.998-58.519 120.25-137.13 146.74-223.656 28.114-91.105 29.628-190.272 6.013-282.558-12.874-48.857-35.903-94.342-64.358-135.897-26.202-39.645-56.784-77.072-95.214-105.36l-.75.063z" transform="rotate(90 1.376 5.156)" font-size="796.727" font-weight="400" letter-spacing="0" word-spacing="0" fill="#afafaf" filter="url(#c)" font-family="Sans"/><path d="M159.85 618.014l.39-4.668 12.837-14.783h4.668c53.946 44.868 108.539 76.25 163.78 94.145 55.243 18.154 121.636 27.231 199.183 27.232 140.568 0 254.423-40.46 341.565-121.377h4.28l15.172 12.06.389 4.28c-29.308 39.94-76.25 78.712-140.828 116.318-64.32 37.865-140.698 56.798-229.137 56.798-71.581 0-139.531-14.394-203.85-43.182-64.578-28.529-120.728-70.803-168.449-126.823" style="-inkscape-font-specification:Palatino Linotype Bold Italic" font-weight="700" font-family="Palatino Linotype" font-size="796.727" letter-spacing="0" word-spacing="0" fill="#b00"/><path style="line-height:125%;-inkscape-font-specification:Liberation Sans" d="M800.888 311.262v46.125c7.762 1.44 12.077-.568 9.968-9-2.17-8.462 2.335-10.248 10-8.875 4.77-1.439 15.98 3.563 14.625-4 2.233-8.556-8.923-3.722-14-4.968-6.985.777-13.209.792-10.625-8-1.957-8.093 9.284-2.988 14-4.406 6.104.02 14.133 1.965 11.375-6.875-1.894-4.44-11.834-.833-17-2h-18.343v2zM854.419 318.887c-2.186 0-4.433.687-6 2.25-.915-2.897-12.622-3.525-9.219 3.031.223 11.07.029 22.147.094 33.22 7.755 1.546 11.59-.828 9.625-9 .994-6.317-2.325-15.193 3.25-19.97 2.71-1.99 8.169 2.956 6.969-2.062.092-3.432 1.021-7.78-3.407-7.469-.44.034-.873-.089-1.312 0zM875.2 318.887c-7.483-.6-15.256 4.91-14.938 12.938 3.843-.38 10.583 3.294 10.438-2.438 1.634-3.248 7.672-3.1 9.813-.406 1.52 2.68.284 4.954-3.281 3.817-7.552-.545-17.615 2.404-18.157 11.37-1.444 7.3 4.584 14.682 12.156 13.844 4.164.466 8.808-2.09 11.313-4.156 2.382 5.008 8.991 4.157 13.406 2.938-.009-3.782 1.293-8.94-3.813-6.875-2.594-.93-.37-6.02-1.187-8.063.289-7.47 1.364-18.462-7.375-21.719-2.651-1.048-5.528-1.36-8.375-1.25zm6.031 22.563c.422 5.61-7.493 11.066-11.875 6.969-2.32-4.04 1.687-8.306 5.875-7.531 1.573.346 5.95-1.272 6 .562z" font-size="64.159" font-weight="400" letter-spacing="0" word-spacing="0" fill="#969696" filter="url(#d)" font-family="Liberation Sans"/><path style="line-height:125%;-inkscape-font-specification:Liberation Sans" d="M914.231 318.887c-3.047-.31-6.625 1.568-8.625 2.72.666-3.324-11.68-3.742-9.312.437.348 11.775.065 23.563.156 35.344 7.755 1.546 11.59-.828 9.625-9 1.098-6.436-2.702-15.724 3.375-20.344 3.17-1.936 8.941-.859 8.281 3.719.234 8.535.022 17.084.094 25.625 7.756 1.527 11.679-.78 9.687-9-1.106-8.648 2.735-19.405-3.593-26.594-2.568-2.419-6.289-3.002-9.688-2.906zM945.981 318.887c-9.45-.225-15.89 8.938-15.531 17.813-.991 9.03 3.38 20.141 13.531 21.125 8.949 1.982 18.665-4.902 18.313-14.375-3.694.456-10.337-2.99-10.188 2.531-1.512 5.766-11.112 4.12-11.187-1.687-.488-5.343-2.261-13.44 3.219-16.625 4.203-1.728 8.721 1.069 8.312 5.875 3.364-1.066 11.831 1.608 9.156-4.125-1.614-6.923-8.73-11.199-15.625-10.531z" font-size="64.159" font-weight="400" letter-spacing="0" word-spacing="0" fill="#969696" filter="url(#d)" font-family="Liberation Sans"/><path style="line-height:125%;-inkscape-font-specification:Liberation Sans" d="M978.794 318.887c-9.542-.393-16.737 8.71-16.274 17.905-.95 8.958 3.55 19.9 13.555 20.908 8.251 1.747 18.387-1.97 20.281-11.031-4.02-.75-9.066-4.601-10.375.781-4.037 4.71-13.29 2.185-13.281-4.375 1.505-3.476 10.531-.393 14.813-1.438 4.423-.161 11.028 1.748 9.062-4.75.392-8.982-6.12-18.429-15.813-18-.655-.025-1.313-.055-1.968 0zm.875 8.157c3.684-.404 6.498 2.78 6.844 6.25-4.007-.765-11.648 1.47-13.594-1 .78-3.168 3.418-5.434 6.75-5.25z" font-size="64.159" font-weight="400" letter-spacing="0" word-spacing="0" fill="#969696" filter="url(#d)" font-family="Liberation Sans"/><path style="line-height:125%;-inkscape-font-specification:Liberation Sans Bold" d="M635.7 370.481c.617 15.103-1.211 30.416.844 45.406 1.391 10.518 11.99 17.506 22.187 16.188 6.038-.247 12.095-3.324 15.563-8.156-.89 6.242 2.259 8.518 8.437 7.094 4.036-.87 12.938 2.778 10.344-4.25-.636-19.416-.109-38.856-.281-58.282h-19.188c-.68 13.38 1.374 27.338-1.031 40.375-1.116 6.643-10.568 11.004-15.125 5.25-4.814-8.185-1.541-18.684-2.531-27.781-.658-5.623 1.323-13.885-1-17.844H635.7v2zM729.231 367.419c-12.657-.218-24.485 8.883-27 21.375-3.577 14.394-.634 33.571 14.188 40.406 14.07 6.536 34.654 2.495 40.844-13.031 1.153-2.703 1.657-5.624 2.03-8.531-6.427-.284-12.854-.562-19.28-.875.235 5.809-4.104 12.068-10.438 10.906-8.178-1.365-8.606-11.638-8.688-18.188-.053-6.697.858-17.688 9.72-17.656 5.594-.516 8.873 4.895 8.937 9.969 6.489-.34 12.98-.659 19.469-1-1.163-12.092-11.292-22.272-23.462-23.156a43.365 43.365 0 0 0-6.32-.22zM766.013 348.731v82.281h19.218c.558-13.178-1.1-26.656.782-39.656.975-6.66 9.902-11.705 15.03-6.312 5.446 7.988 1.816 18.918 2.907 28.187.66 5.6-1.326 13.847 1 17.781h18.156c-.618-15.769 1.213-31.754-.843-47.406-1.521-10.782-12.474-17.78-22.938-16.094-5.487.43-10.794 2.977-14.188 7.375.21-9.382.039-18.77.094-28.156h-19.219v2zM858.544 367.419c-12.733-.299-24.81 8.657-27.063 21.344-3.017 14.234-.837 32.986 13.563 40.25 13.627 6.361 33.789 3.523 40.562-11.344 2.56-3.846 2.214-6.636-3.395-5.73-4.232.831-12.097-3.656-13.667 1.105-2.814 7.982-16.274 5.733-17.281-2.563-1.938-4.658-.268-7.232 5.125-5.812h31.5c.594-13.303-2.878-29.896-16.657-35.281-4.005-1.63-8.37-2.134-12.687-1.97zm.75 13.562c5.742-.667 9.428 5.022 9.656 10.156-5.896-.338-13.32.661-18.313-.468.308-4.774 3.334-9.836 8.657-9.688zM917.7 367.419c-10.436.033-22.873 5.868-23.656 17.531-1.64 9.552 5.888 18.123 14.958 19.973 6.906 2.906 15.582 1.804 21.417 6.683 2.291 4.61-3.89 6.717-7.469 6.375-5.606.534-13.702.151-14.29-7.028-4.576-1.184-11.735 1.484-17.313 1.795.616 8.706 8.586 17.032 17.697 18.296 12.395 2.085 28.319 2.183 36.656-8.813 6.496-9.095 2.61-23.479-8.188-27.281-7.843-3.833-17.407-3.15-24.874-7.5-2.593-3.016 1.599-6.294 4.625-5.781 4.977-.85 12.74-.373 12.936 6.232 4.456 1.504 11.859-.915 17.457-.99-.277-10.507-10.645-18.634-20.987-19.18-2.946-.447-5.985-.44-8.969-.312zM979.388 367.419c-10.44.031-22.84 5.86-23.657 17.531-1.636 9.543 5.876 18.13 14.959 19.973 6.87 2.911 15.534 1.792 21.354 6.62 2.455 4.583-3.804 6.83-7.406 6.438-5.626.55-13.674.125-14.29-7.028-4.576-1.184-11.736 1.484-17.313 1.795.616 8.706 8.585 17.032 17.696 18.296 12.395 2.085 28.32 2.183 36.657-8.813 6.494-9.095 2.617-23.478-8.188-27.281-7.905-3.862-17.352-3.179-24.875-7.5-2.583-3.01 1.594-6.3 4.625-5.781 4.997-.849 12.722-.388 12.936 6.232 4.457 1.504 11.86-.915 17.457-.99-.265-10.544-10.682-18.621-21.018-19.211-2.963-.382-5.956-.427-8.938-.281z" font-size="110.824" font-weight="700" letter-spacing="0" word-spacing="0" fill="#969696" filter="url(#e)" font-family="Liberation Sans"/><path d="M493.075 300.044v138.781c12.383-7.243 27.545-3.192 41.075-2.582 14.715 1.61 29.709 1.93 44.425.676 21.395-3.953 35.19-24.019 42.031-43.25 10.485-25.885 5.147-57.304-12.969-78.469-10.31-12.253-26.401-18.844-42.406-17.156-21.596-1.647-43.058 5.059-64.562 1.906-2.718.557-8.038-5.53-7.594-1.219v1.313zm51.875 16.875c13.807-.848 27.79 7.435 32.188 20.719 5.939 16.202 5.092 34.123 3.156 50.968-1.359 12.039-10.303 22.989-22.66 24.925-6.022 1.346-12.397 1.216-18.59 1.138l-.188-97.781 6.094.03z" fill="#969696" filter="url(#f)"/><path d="M341.163 56.519c-6.232 2.12-8.467 9.48-12.938 13.843-10.686 13.925-19.755 29.167-26.03 45.513-3.377 9.308-5.978 19.152-5.532 29.175-26.927-23.934-62.177-35.083-96.553-43.295-6.547-2.003-14.545-.318-16.987 6.901-10.18 21.667-14.852 45.598-18.18 69.144-4.449 30.995 1.383 63.012 13.429 91.828 4.013 9.789 9.285 23.45 22.133 22.755 34.575.886 69.96-6.862 99.658-24.958 2.428-.591 10.29-8.907 7.37-3.04-8.87 20.06-19.25 39.296-27.855 59.542-10.668 21.644-18.475 44.557-28.793 66.333-8.893 19.262-13.864 39.949-22.784 59.148-8.922 14.218-19.89 27.195-34.001 36.517-11.714 8.312-24.614 14.99-35.562 24.25-7.733 4.067-13.638 10.822-21.282 14.969-5.04 3.603-6.796 10.665-3.156 15.875 6.702 10.795 13.105 21.995 18.781 33.25.296 6.653-3.786 14.724 2.778 19.542 2.566 5.445 1.255 12.492.847 18.426-1.976 6.545-10.59 4.539-15.718 6.47-4.203.712-7.938 3.257-7.375 8-1.384 4.141 1.347 8.132 2.968 11.75 6.064 6.344 14.676 9.775 23.344 10.03 6.57.714 13.314-.157 19.906-.687-1.73 17.628-2.862 37.743 8.063 52.625 6.753 8.356 19.282 8.755 29.25 7.594 17.866-2.639 33.613-12.766 48.5-22.313 16.904-11 35.772-19.873 56.177-21.502 20.437-2.244 41.694-.868 60.423 8.099 13.09 6.016 26.847 11.62 37.014 22.057 9.913 8.575 19.192 20.466 33.51 20.659 9.723.745 20.445-1.809 26.157-10.313 9.896-10.771 11.112-25.776 14.688-39.406.446-5.421.625-10.865 1.125-16.281 8 1.592 16.14 1.252 24.125 0 6.509-1.605 12.497-5.868 17.03-10.813 2.025-4.636 3.421-10.648.126-15.031-2.678-5.717-8.856-7.964-14.781-8.219-3.26-8.784-5.453-19.121-.625-27.781 2.049-3.515 5.414-6.632 4.406-11.25-1.447-6.748 6.59-9.694 9.883-14.422 5.101-5.953 11.917-11.726 13.21-19.734-.581-8.734-9.036-12.966-13.906-19.188-17.318-14.765-34.494-29.74-52.406-43.844-8.018-7.479-15.73-15.35-20.625-25.28-10.118-14.452-12.304-32.385-19.416-48.268-8.796-21.837-16.843-43.962-27.99-64.67a586.767 586.767 0 0 0-32.219-59.892c-1.279-3.005-9.325-13.959-2.458-8.398 23.73 14.122 51.662 19.297 78.83 21.074 8.63-.237 20.579 3.565 25.753-5.784 8.762-13.729 13.834-29.587 17.969-45.25 6.906-27.732 7.713-57.388 1.247-85.473-4.902-19.51-9.136-39.522-16.973-58.017-2.871-9.699-14.227-10.492-22.53-8.569-29.712 4.84-56.238 21.688-76.445 43.654-3.593 5.083-3.755 2.175-4.3-1.845-7.231-25.495-18.227-50.175-32.905-72.281-2.429-2.784-4.712-3.673-8.375-3.22zm-106.47 386.406c-2.992 4.816-2.607-2.797 0 0zm248.157 61.281c9.976 6.536 20.04 13.305 28.469 22 5.686 4.874 14.753 11.637 9.88 20.262-3.231 7.06-10.77 11.025-16.068 16.176-6.088 1.446-13.346 2.642-16.437 8.843-1.735.636-1.675-7.194-2.844-9.875-3.622-13.319-7.328-26.888-8.97-40.559.805-5.693 3.664-11.559 5.97-16.847zm-283.531 1.406c5.64 7.093 6.88 16.803 3.764 25.292-2.626 12.087-7.318 23.721-9.666 35.732-.848 1.892-1.715 4.133-2.254 5.851-2.046-6.06-9.019-6.934-14.375-8.468-3.265-.584-7.571 2.681-9.22-1.594-5.659-8.357-13.94-16.605-14.218-27.156 3.003-4.173 9.456-5.292 13.219-8.969 10.59-7.25 21.562-14.506 32.75-20.688z" fill="#969696" filter="url(#g)"/><path d="M339.7 53.875c-.999.047-2.745 1.89-3.45 2.725-2.63 2.41-1.555 2.135-3.775 4.925-1.13 1.53-3.105 3.83-4.225 5.35-.68 1.01-4.545 6.025-5.225 7.025-3.6 6.03-.835.84-4.625 6.75-.9 1.48-3.005 4.975-3.875 6.475L311.15 93.7c-1.73 2.8-2.705 3.951-3.925 7.025l-3.85 8.65c-.66 1.65-1.725 5.295-2.425 6.925l-2.7 9.375-1 7.975c-.49 5.94-.045 3.84-.275 9.8l-2.775-1.125-4.85-4.125-5.475-4.15-6.75-4.75-7.95-4.825-8.325-4.5-8.725-3.875-8.925-3.65-9.425-3.275-8.35-2.65-9.525-2.975-9.275-2.475-7.425-1.85-5.1-.7c-1.565-.138-1.586.013-3.15-.125-.788.086-1.587.59-2.375.675l-1.975 1.1-2.4 3.025-2.725 5.125-2.275 5.8-2.825 8.2-3.15 10.525c-.861 2.9-2.014 8.617-2.75 11.55-.21 1.09-1.815 8.385-2.025 9.475-.35 1.33-1.66 9.65-1.95 11-.53 1.92-1.32 11.08-1.85 13-.22 1.38-.44 11.145-.65 12.525l-.025 13.6 1.225 12.125c.22 1.02 2.04 11.645 2.25 12.675l2.975 11.9 3.05 9.875 2.95 8.1 3.15 7.95 2.95 6.35 2.35 4.4 2.425 3.425 1.9 1.75 2.45 1.75 2.7.975 3.65.425 4.225.225 4.125.075 5.85-.175 7.1-.55 9.25-.975 10.825-1.55 10.275-2.2 10.15-2.825 9.725-3.1 7.6-3 6.775-3.075 6.9-3.5 6.65-3.925 5.225-3.45c.495-.395 3.993-3.075 5.8-4.2s1.92-.69 2.425-1.075l-3.875 10.125-3.875 8.55c-1.01 2.32-3.275 6.2-4.325 8.5-1.582 2.893-2.768 6.669-4.55 9.4l-4.775 9.85-5.025 11.275-5.25 11.5c-.75 1.94-4.745 10.26-5.625 12.15-2.213 4.648-2.873 6.088-4.775 10.875-1 2.33-2.805 7.45-3.775 9.8-1.44 2.95-2.84 6.32-4 9.4-.23.52-4.71 11.155-4.95 11.675-4.15 9.09-2.91 5.635-6.6 14.925-1.672 3.702-4.465 10.624-5.9 14.425-1.979 6.036-3.434 8.63-4.95 14.825-.46 1.23-3.69 9.685-4.15 10.925-1.3 3.33-7.797 20.26-5.775 14.475l-6.75 9.95-5.05 6.45c-2.983 3.496 1.097-.746-6.775 7.975l-7.375 6.5-9.05 6.95c-6.74 5.068-3.918 2.824-11.275 7.325-6.3 3.95-9.8 6.61-11.6 7.45-1.98 1-11.225 8.69-13.175 9.75-7.43 4.07-7.04 5.135-13.85 10.175-7.03 4.92-5.375 2.005-10.725 8.975-1.05 3.06-.33 3.065-.15 6.275.74 2.25 5.95 9.69 6.95 11.85l5.65 10.075 7.65 13.6c.32 3.06-.05 6.175-.75 9.175-.06 1.63-.05 4.86-.05 6.5l4.575 5.525c.74 6.02.625 12.12.075 18.15-.92 1.76-1.48 3.955-3.3 5.025-6.05 3-13.505 1.655-19.225 5.425-.4 1.07-.795 5.345-1.225 6.425.02 1.98 1.645 3.575 1.775 5.575 1.46 3.43 2.325 3.44 5.225 5.75 2.67 1.75 5.49 3.29 8.45 4.5 1.3.41 9.41 1.22 10.7 1.7l9.5-.175 11.1-.975c.32 1.81-1.37 14.82-1.1 16.65.227 5.013-.222 10.19.675 15.05.282 1.529.662 5.453 2 9.725 1.338 4.272 3.524 8.728 4.525 10.2 1 1.472 3.021 3.937 4.3 4.925l5.45 2.7 8.675 1.55c4.685.375 9.339-.026 13.9-.95 4.561-.924 9.02-2.365 13.35-4.075 5.57-2.845 11.393-5.203 16.725-8.5 5.44-2.62 9.865-6.94 15.375-9.45 5.83-3.55 6.09-4.265 12.2-7.325 2.948-1.49 8.353-4.459 11.475-5.55 1.2-.51 9.205-3.78 10.425-4.25l11.65-2.6 12.425-1.8 14.6-.575s9.454-.043 14.1.475c4.646.518 10.098 1.998 13.325 2.675 6.434 1.35 13 4.225 13 4.225 3.778 1.51 10.015 4.483 13.725 6.15 2.5 1.25 7.865 4.025 10.425 5.175 5.59 2.82 6.285 3.515 11.225 7.375 3.985 3.54 9.672 8.241 13.5 11.975 3.827 3.734 7.8 7.29 12.375 10.125 4.495 2.36 9.527 3.496 14.6 3.6 5.072.104 10.2-.83 14.875-2.625 3.425-2.17 6.205-4.995 8.625-8.15 2.42-3.155 4.48-6.625 6.425-10.075.24-.49 3.125-11.51 3.375-12l3.475-14.825c.31-.68.93-18.835 1.65-18.725 12.19 2.25 6.215.605 12.625 1.325 3.61.56 2.945-.095 12.925-1.075.875.752 9.875-4.8 9.875-4.8 3.85-3.94 2.755-1.22 6.225-5.95 0 0 1.29-7.9 1.35-8.35-3.39-6.3-.11-.52-3.3-6.1-4.87-3.95-5.125-3.65-5.125-3.65-.58-.12-8.075-1.375-8.075-1.375-1.869-5.953-1.7-3.349-3.35-12.475-1.11-7.71-.55-7.41-.15-11.4 3.14-7.3 2.225-5.925 2.575-6.425 1.68-4.42 3.565-3.155 4.175-7.775.18-1.82-.055-6.05.125-7.85 3.52-3.995 7.371-7.673 11.125-11.45 3.754-3.778 7.82-9.245 10.925-13.6.443-1.867.482-2.133.925-4L543 532.05c-2.287-3.155-7.213-7.07-9.5-10.225-4.025-3.98-4.184-4.062-12.275-10.7-9.145-7.503-8.785-8.181-15.05-12.85L497.1 490.3c-5.135-3.632-11.5-9.125-11.5-9.125-4.836-3.605-5.236-4.115-9.525-7.875-4.588-4.721-5.935-6.494-9.55-9.8l-7.325-9.825c3.889 5.394.123-1.56-3.525-6.775l-5.25-9.675c-1.01-2.99-1.935-6.42-2.975-9.4-.15-.57-2.85-8.09-3-8.65l-3.075-9.4c-1.838-4.862-3.86-10.181-6.05-14.9l-4.375-11.65c-.68-1.69-3.975-9.965-4.675-11.625-.89-2.07-3.96-9.55-4.75-11.65-3.026-6.812-2.315-4.085-5.275-10.925-1.61-3.73-5.105-10.025-6.775-13.725-1.55-3.18-4.22-8.185-5.6-11.425-1.35-3.17-4.11-8.135-5.5-11.275-1.218-2.233-4.023-7.282-5.075-9.6l-5.375-9.025L382.1 283.9l-5.6-9.525-3.9-7.25c-1.46-2.724-4.276-7.144-4.05-7.6l10.75 6.975 9.5 5.2 8.975 3.625 10.175 3.3 12.05 3.1c1.72.24 10.86 2.245 12.6 2.475 2.58.53 8.02.915 10.6 1.475l11 .9 10.375.5 8.25-.025 2.575-.725 2.675-1.725 2.15-2.85 3.075-4.625 2.55-5.35 2.775-6.35 2.9-7.65 3.375-9.675c1.71-5.06 1.61-5.815 3-10.975.73-2.97 2.265-10.725 3.075-13.675.32-1.99 1.32-11.225 1.6-13.225l.9-15.775c.06-5.3.025-13.565-.575-18.825l-1.875-13.275-2.425-12.525-3.55-13.9-3.05-11.35-2.625-9.8-2.625-7.75-2.1-7.075-1.875-4.025-1.8-3.675-1.75-2.4-1.7-1.225-2.075-1-2.625-.7-3.925-.075-5.025.375L459 88l-4 .85-5.5 1.525-8.975 2.9c-.52.155-3.957 1.518-7.675 3.15s-6.865 3.535-7.375 3.7l-7.55 4.2-6.825 4.475-6.35 4.925-7.625 6.45-9.125 9.1-7.525 7.15c-.72-3.25-.955-4.09-1.225-7.4-.78-2.59-1.88-7.21-2.8-9.75-.55-1.44-2.71-7.66-3.25-9.1-.64-1.66-2.865-7.33-3.475-9-1.74-3.95-2.945-7.38-4.725-11.3-.83-2.09-4.46-8.565-5.25-10.675-2.64-5.54-4.105-6.875-6.725-12.425-1.975-3.435-3.929-6.128-4.95-7.825-.51-.849-.792-1.46-1.325-2.175-.533-.714-1.72-1.537-3.25-2.85-.95.055-2.801-.098-3.8-.05zM480.775 497.6c1.852-.186 2.32.604 8 4.6 6.864 5.234 5.356 2.825 11.075 8.1 8.54 6.335 6.489 5.683 13.425 11.8 6.153 5.427 6.2 5.5 8.8 9.975l1.2 5.2-2.2 6.45c-2.95 4.89-5.94 7.205-10.5 10.725-1.8 1.84-3.635 3.645-5.575 5.325-2.875.43-5.708 1.485-7.375 1.9-1.668.415-5.78 1.38-7.175 4.1-.95.57-3.89 5.955-4.85 6.525-.76-1.19-3.12-15.57-3.85-16.75l-3.35-12.7c-1.95-6.68-2.885-15.52-4.975-22.15l-.225-6.175c1.359-3 2.178-6.384 3.375-9.45l3.3-7.325c.34-.059.635-.123.9-.15zm-281.725.35c-.158.088-.9.475-.9.475 3.33 3.42 4.891 7.969 6.55 11.95-.03 4.443 1.137 5.292.35 8.675-.788 3.382-1.995 9.92-2.825 13.225-1.63 5.98-3.44 10.7-5.2 16.65-1.75 7.18-1.565 7.97-3.725 15.05-.78-.02-2.77 9.16-3.55 9.15-1.24-2.74-2.505-6.055-4.525-8.275-.47-.33-6.19-2.17-6.65-2.5-4.51-1.94-6.245-.47-10.975-.15-1.33.31-10.95-14.015-11.7-14.875-4.408-7.864-2.64-3.627-6.35-13.6.1-2.74-.11-4.834 2.175-6.15.3-.19 9-5.375 9.3-5.575 9.386-6.606.125-.697 9.85-6.65 9.015-6.647.192.294 8.6-5.875l8.675-5.3c1.926-1.03 8.275-4.9 8.275-4.9 2.353-1.198 2.783-1.413 2.625-1.325z" fill="#040202"/><path d="M425.25 113.437l9.997-6.232 10.517-5.132 11.127-3.414 7.309-1.01 4.75.57 2.947 1.092 2.101 3.175 3.263 7.574 4.776 14.686c1.146 3.523 2.36 10.115 4.55 17.795 2.19 7.68 3.94 15.635 4.585 19.285 1.45 7.6 2.149 15.35 2.479 23.03.63 7.66-.33 14.97-.74 22.66-.7 7.5-2.07 14.91-3.17 22.36-1.59 7.89-4.28 15.51-6.87 23.12-2.55 6.45-4.46 13.37-8.8 18.92-1.43 2-3.93 2.84-6.3 2.98-8.98.51-17.93-.64-26.85-1.42-6.24-.615-12.425-1.645-18.544-2.99-6.119-1.343-12.171-3-18.146-4.87-7.83-2.43-14.84-6.85-21.74-11.16-5.44-3.59-11.07-7.33-14.86-12.75-1.92-2.79.26-6.01 1.23-8.72a35.483 35.483 0 0 0 2.981-13.132c.144-4.503-.581-9.028-2.231-13.258-2.09-4.58-5.11-8.64-7.62-12.97 2.87-6.44 6.15-12.71 9.82-18.73 4.3-6.53 7.87-13.5 12.22-20 5.25-8.285 11.145-16.373 17.932-23.545 6.788-7.173 14.468-13.29 23.288-17.914zM194.312 111.944l2.515-1.024 2.482-.601 3.554.097 5.818 1.228 12.908 3.73 13.816 5.332 20.64 8.872 15.256 9.688c3.19 2.61 7.762 6.732 12.177 11.003 4.415 4.27 8.674 8.69 11.238 11.893 5.127 6.406 9.875 13.149 14.735 19.714 1.98 3.33 5.53 6.57 4.81 10.77-2.38 3.335-4.81 6.755-6.799 10.38-1.989 3.627-3.536 7.46-4.151 11.62-.39 3.86-.08 8.6.58 12.43 1.12 4.11 3.02 6.95 4.68 10.85-3.385 2.705-8.648 6.141-13.997 9.459-5.35 3.317-11.378 6.507-15.318 8.343l-14.825 6.908c-4.49 1.435-12.038 4.382-16.619 5.456l-10.355 2.427-9.224 1.578-9.683 1.54c-1.388.22-5.53.731-8.475.936-2.946.205-4.984-.063-6.136-.063-2.306 0-.657-.267-3.47-.455l-3.322-1.49c-1.32-1.042-2.737-2.255-3.767-3.515l-3.565-6.688-3.564-9.233-3.08-10.663-4.288-16.954-2.502-17.366c-.55-9.32.05-6.65-.17-15.97-.1-2.86.245-10.905.706-16.142.461-5.236 1.439-15.663 1.804-18.488.88-6.25 2.13-9.84 3.81-15.96l3.144-10.47 2.195-6.843 2.653-6.25 2.087-3.705 1.702-2.374zM330.85 198.616c6.74-1.61 14.35-.68 19.74 3.96 5.376 3.935 8.29 10.355 8.627 16.91.336 6.555-1.906 13.245-6.846 17.72-5.4 5.92-14.3 6.63-21.71 5.05-5.11-.97-8.88-4.96-12.06-8.79-4.54-5.51-4.15-13.28-3.24-19.93 2.22-7.08 7.84-13.72 15.49-14.92zM328.29 385.406c4.666-.65 9.393-1.13 14.115-1.193 4.72-.062 9.436.293 14.076 1.313 6.01 1.335 12.06 2.942 17.841 5.173 5.781 2.232 11.294 5.087 16.229 8.917 4.165 3.57 8.335 7.382 11.89 11.645 3.555 4.262 6.495 8.975 8.2 14.345 1.98 6.79 2.93 13.93 2.41 20.99-1.16 7.955-4.31 15.365-8.771 21.94-4.462 6.577-10.234 12.32-16.64 16.94-4.57 3.235-9.502 6-14.687 8.125-5.185 2.125-10.622 3.61-16.202 4.285-8.01.35-16.09.45-24.06-.46-5.995-.955-12.078-2.103-17.921-3.905-5.844-1.803-11.45-4.26-16.49-7.835-4.034-2.84-7.982-5.98-11.44-9.553-3.46-3.572-6.43-7.577-8.51-12.147-2.57-5.62-4.577-11.65-5.584-17.804-1.008-6.154-1.015-12.431.415-18.546 1.37-4.4 3.317-8.615 5.734-12.548a60.148 60.148 0 0 1 8.546-10.852c3.57-3.88 7.6-7.42 12.42-9.66 4.485-2.18 9.115-4.115 13.862-5.684 4.748-1.569 9.613-2.771 14.568-3.486z" fill="#b00"/><path d="M297.75 402.916a28.378 28.378 0 0 1 2.982-1.885 30.333 30.333 0 0 1 3.164-1.503 33.04 33.04 0 0 1 3.31-1.144 36.305 36.305 0 0 1 3.42-.806 39.874 39.874 0 0 1 3.49-.488 43.44 43.44 0 0 1 3.525-.19 46.594 46.594 0 0 1 3.52.085c1.17.072 1.542.187 2.691.34l1.685.49 1.572.942c.242.145 1.51 1.332 1.51 1.332l1.103 1.525.878 1.47.564 1.56.34 1.335.207 2.246-.02 1.85-.206 2.238-.455 2.131-.849 2.64-2.001 3.33c-.636.76-1.88 2.046-2.588 2.71a19.932 19.932 0 0 1-2.198 1.795c-.752.526-1.736 1.077-2.72 1.78-.986.701-1.748.878-2.733 1.329 0 0-1.7.467-2.858.8-1.158.334-1.51.348-2.37.511l-2.753.35c-.753 0-1.79-.022-2.148.01-.358.031-1.36-.046-2.203-.085-.843-.038-1.585-.096-2.439-.138-.853-.042-1.45-.24-2.244-.364a20.266 20.266 0 0 1-2.292-.495c-.734-.205-1.37-.52-2.004-.843-.635-.324-1.157-.715-1.891-1.183l-1.366-1.417-1.028-1.248-.775-1.332-.774-1.332-.645-2.031-.137-2.2.176-2.652.493-1.893.55-1.725.97-1.724 1.03-1.555c.573-.868 1.2-1.69 1.952-2.444a18.574 18.574 0 0 1 2.566-2.122z" transform="translate(-9.112 -12.114) scale(1.02931)" fill="#fff" stroke="#e9e9e9" stroke-width="4" filter="url(#h)"/><path d="M425.316 438.754c.88-2.204 1.366-2.18 4.356-3.898 3.111-.179 6.88 1.15 6.88 1.15 2.397 2.916 2.036 3.081 3.459 6.36 0 0 1.85 6.021 2.75 9.04.64 2.33 1.32 4.65 2.05 6.96.932 3.438 1.881 6.872 2.66 10.35 1.161 3.859 2.59 10.957 3.74 14.82 2.9 9.01 1.87 6.12 4.03 15.34 1.1 4.3 1.8 6.59 2.71 10.94.772 2.982 2.635 9.591 3.2 12.62.46 1.89 2.42 9.81 2.88 11.71l3.18 12.42c.61 2.658 2.12 11.277 2.97 13.87l2.81 15.6 1.72 13.35c.87 3.9 1.16 11.16 2.08 15.06.3 3.38.5 6.76.75 10.15.8 4.28 1.03 10.25 1.44 14.56.47 5.33.475 10.282.224 15.23-.252 4.947-.36 13.09-.914 18.4l-1.85 12.42-4.73 11.44c-1.005 1.87-2.83 5.567-5.164 7.022l-5.386 3.358-6.62.18c-.955-.52-4.79-.673-7.409-1.647-2.619-.973-6.421-3.568-7.311-4.173-2.53-2.21-5.03-4.46-7.6-6.61l-.24-.36-10.77-10.22c-1.56-.77-10.7-7.97-12.23-8.75-2.264-1.055-9.738-5.287-12.02-6.3-2.607-1.254-8.52-3.803-11.29-4.61-2.204-.906-9.254-3.293-11.48-4.14-4.98-1.41-7.99-1.91-13.07-2.88-5.26-1.12-10.31-.95-15.57-2.01-6.39-.03-9.17-.15-15.55.06-3.98.63-11.24.73-15.22 1.33-3.68.67-8.58 1.69-12.25 2.42l-11.4 2.46-9.61 4.31-8.86 4.5-9.04 5.36c-4.158 2.465-4.98 4.05-10.46 7.18-1.07.64-6.94 4.09-8.01 4.74-3.155 1.877-8.807 4.781-12.06 6.48-3.42 1.344-5.256 2.885-8.83 3.83l-8.34 2.205-6.34.605-7.89-1.31-5.24-4.03-3.43-4.405-2.23-6.405-1.39-7.21-.59-8.01c.27-2.85.515-5.605.415-8.753-.1-3.147.655-8.287 1.145-11.107.27-2.02 1.68-10.05 1.95-12.07.42-1.67 1.93-10.96 2.25-12.65.88-3.55.7-4.77 1.46-8.34.58-2.55 1.29-5.47 1.64-8.06.406-3.74 1.937-7.372 2.32-11.09l2.44-11.52 3.13-11.55c.864-2.577 1.87-8.021 2.58-10.64 1.017-4.042 1.56-5.699 2.45-9.77.82-2.93 1.43-5.51 2.29-8.42.346-2.747 1.18-5.373 2.02-8 .476-3.462 1.759-6.756 2.83-10.07.84-3.09 1.97-6.09 2.81-9.18 1.273-3.212 1.374-4.945 2.52-8.2.298-2.074 2.013-7.934 2.83-9.84 2.19-5.93.6-2.323 3.53-9.05 1.778-5.523 1.99-6.093 3.19-9.81.9-1.927 1.942-4.248 3.18-9.14 1.884-4.671 2.375-5.495 2.89-7.55.88-2.24 2.83-6.13 3.51-8.43 2.06-4.23 2.03-8.087 7.13-9.527 2.11-.18 3.164.097 5.274.127 2.81 1.25 5.916 6.37 6.536 9.62l2.42 10.34c1.097 2.132 1.867 6.504 2.767 9.012.9 2.51 3.13 6.354 4.75 9.034 1.619 2.68 3.227 5.893 5.283 8.437 2.056 2.545 5.36 5.622 7.17 7.227 3.132 2.672 5.465 4.656 7.251 6.023 1.787 1.367 4.51 3.09 9.176 5.117l8.847 3.293 8.976 2.307 9.655 2.06 10.855 1.26 8.485.625 10.485-.575 10.035-1.76 7.235-2.16 7.285-2.578 6.485-3.377 7.77-5.555 7.52-6.208 7.12-7.807 3.84-6.815c.46-1.08 4.93-10.54 5.42-11.6l3.46-13.94c.43-4.97 1.895-10.202 1.895-10.202z" fill="#fefefe"/><text style="line-height:125%;-inkscape-font-specification:Nimbus Sans L Bold" x="627.813" y="425.969" font-size="110.824" font-weight="700" letter-spacing="0" word-spacing="0" fill="#b00" font-family="Nimbus Sans L"><tspan x="627.813" y="425.969" style="-inkscape-font-specification:Liberation Sans Bold" font-family="Liberation Sans">uchess</tspan></text><text style="line-height:125%;-inkscape-font-specification:Nimbus Sans L Bold" x="794.593" y="352.329" font-size="64.159" font-weight="700" letter-spacing="0" word-spacing="0" fill="#b00" font-family="Nimbus Sans L"><tspan x="794.593" y="352.329" style="-inkscape-font-specification:Liberation Sans" font-weight="400" font-family="Liberation Sans">France</tspan></text><path fill="url(#i)" d="M634.261 325.378h150.974v5.337H634.261z"/><path d="M280.004 537.381h42.387v84.775h-42.387z" fill="#002395"/><path d="M322.39 537.38v84.776h42.376V537.38H322.39z" fill="#fff"/><path d="M364.766 537.38v84.776h42.4V537.38z" fill="#ed2939"/><path d="M280.004 537.381v84.775H407.179v-84.775H280.004z" fill="none" stroke="#e9e9e9"/><g style="line-height:125%;-inkscape-font-specification:Nimbus Sans L Bold" font-size="110.824" font-weight="700" letter-spacing="0" word-spacing="0" fill="#b00" font-family="Liberation Sans"><path d="M649.89 367.418v32.847c0 2.273.181 4.365.542 6.277.36 1.876.956 3.5 1.785 4.87.83 1.335 1.894 2.381 3.193 3.139 1.335.757 2.958 1.136 4.87 1.136 1.84 0 3.5-.397 4.979-1.19 1.515-.83 2.814-1.984 3.896-3.464 1.082-1.515 1.912-3.3 2.49-5.357.612-2.092.919-4.383.919-6.872v-31.386h15.206v49.351c.036 1.335.072 2.616.108 3.842.072 1.191.126 2.273.162 3.247l.163 2.11H673.7a73.16 73.16 0 0 0-.216-2.056c-.072-.974-.144-2.038-.217-3.192-.036-1.155-.09-2.31-.162-3.464a95.638 95.638 0 0 1-.054-2.922h-.27c-2.02 4.438-4.6 7.666-7.739 9.687-3.102 2.02-6.8 3.03-11.093 3.03-3.5 0-6.475-.577-8.929-1.732-2.453-1.154-4.455-2.723-6.006-4.708-1.515-2.02-2.616-4.4-3.301-7.142s-1.028-5.7-1.028-8.875v-37.176h15.206M727.705 427.05c-4.654 0-8.73-.72-12.23-2.164-3.463-1.443-6.349-3.48-8.657-6.114-2.31-2.634-4.04-5.79-5.195-9.47-1.155-3.716-1.732-7.81-1.732-12.284 0-4.87.631-9.199 1.894-12.987 1.263-3.824 3.085-7.035 5.466-9.632 2.38-2.634 5.303-4.636 8.766-6.007 3.5-1.37 7.467-2.056 11.905-2.056 3.788 0 7.143.505 10.065 1.515 2.958 1.01 5.501 2.4 7.63 4.167a20.61 20.61 0 0 1 5.14 6.169 24.784 24.784 0 0 1 2.76 7.684l-15.314.757c-.433-2.994-1.515-5.375-3.247-7.142-1.731-1.804-4.184-2.706-7.359-2.706-4.077 0-7.053 1.677-8.929 5.032-1.876 3.355-2.814 8.226-2.814 14.61 0 13.493 3.987 20.24 11.96 20.24 2.885 0 5.303-.903 7.25-2.706 1.949-1.84 3.157-4.564 3.626-8.171l15.26.703a23.431 23.431 0 0 1-2.49 7.792c-1.262 2.453-2.993 4.636-5.194 6.548-2.165 1.876-4.798 3.391-7.9 4.545-3.103 1.119-6.656 1.678-10.66 1.678M779.978 379.107c2.057-4.474 4.636-7.72 7.739-9.74 3.102-2.02 6.8-3.03 11.093-3.03 3.535 0 6.511.576 8.928 1.73 2.454 1.155 4.438 2.742 5.953 4.763 1.551 2.02 2.67 4.4 3.355 7.143.685 2.741 1.028 5.7 1.028 8.874v37.122h-15.152v-32.793c0-2.273-.18-4.347-.54-6.223-.362-1.912-.957-3.535-1.786-4.87-.83-1.37-1.912-2.435-3.247-3.193-1.335-.757-2.958-1.136-4.87-1.136-1.84 0-3.518.415-5.033 1.245-1.479.793-2.76 1.948-3.842 3.463-1.082 1.479-1.93 3.265-2.543 5.357-.578 2.056-.866 4.329-.866 6.818v31.332h-15.206v-80.304h15.206v21.916c0 1.154-.018 2.327-.054 3.517a88.072 88.072 0 0 1-.163 3.3 362.22 362.22 0 0 1-.108 2.76c-.036.83-.072 1.48-.108 1.949h.216M856.71 427.05c-4.22 0-8.026-.612-11.417-1.839-3.355-1.263-6.223-3.156-8.604-5.682-2.381-2.561-4.203-5.754-5.465-9.578-1.263-3.86-1.894-8.37-1.894-13.528 0-5.592.74-10.3 2.218-14.124 1.515-3.824 3.536-6.908 6.06-9.253a22.927 22.927 0 0 1 8.821-5.14c3.32-1.047 6.819-1.57 10.498-1.57 4.618 0 8.55.812 11.797 2.435 3.283 1.588 5.97 3.824 8.063 6.71 2.092 2.886 3.625 6.35 4.6 10.39.973 4.004 1.46 8.442 1.46 13.312v.433h-37.554c0 2.453.216 4.744.65 6.872.432 2.092 1.136 3.914 2.11 5.465a11.04 11.04 0 0 0 3.788 3.626c1.55.866 3.427 1.299 5.627 1.299 2.67 0 4.852-.56 6.548-1.678 1.696-1.154 2.904-2.922 3.626-5.303l14.34 1.245c-.65 1.66-1.57 3.427-2.76 5.303-1.155 1.876-2.706 3.607-4.654 5.195-1.948 1.55-4.383 2.85-7.305 3.896-2.886 1.01-6.404 1.515-10.552 1.515m0-51.137c-1.551 0-3.013.27-4.383.812-1.335.505-2.508 1.335-3.518 2.489-.974 1.118-1.767 2.58-2.38 4.383-.614 1.804-.957 3.968-1.029 6.494h22.728c-.289-4.726-1.425-8.261-3.41-10.606-1.984-2.381-4.653-3.572-8.008-3.572M943.779 408.869c0 2.814-.596 5.34-1.786 7.576-1.154 2.236-2.85 4.148-5.087 5.736-2.236 1.551-4.978 2.76-8.225 3.625-3.247.83-6.944 1.245-11.093 1.245-3.716 0-7.07-.27-10.065-.812-2.994-.54-5.628-1.425-7.9-2.651-2.237-1.263-4.113-2.886-5.628-4.87-1.515-1.985-2.652-4.438-3.41-7.36l13.367-2.002c.432 1.623 1.028 2.94 1.785 3.95a7.626 7.626 0 0 0 2.814 2.327c1.118.541 2.417.902 3.896 1.082 1.515.18 3.229.27 5.141.27 1.732 0 3.337-.09 4.816-.27 1.515-.216 2.814-.559 3.896-1.028 1.119-.505 1.984-1.19 2.598-2.056.613-.902.92-2.02.92-3.355 0-1.515-.451-2.706-1.353-3.572-.866-.901-2.075-1.623-3.626-2.164-1.515-.577-3.319-1.064-5.411-1.461-2.056-.433-4.257-.92-6.602-1.461a82.523 82.523 0 0 1-7.251-1.948c-2.381-.758-4.51-1.786-6.385-3.085a15.23 15.23 0 0 1-4.546-4.924c-1.154-2.02-1.732-4.563-1.732-7.63 0-2.778.542-5.249 1.624-7.413 1.082-2.201 2.67-4.059 4.762-5.574 2.092-1.551 4.672-2.724 7.738-3.517 3.102-.83 6.656-1.245 10.66-1.245 3.175 0 6.133.307 8.875.92 2.741.577 5.195 1.515 7.36 2.814a17.531 17.531 0 0 1 5.41 4.87c1.48 1.984 2.508 4.383 3.085 7.197l-13.474 1.407c-.253-1.407-.704-2.561-1.353-3.463a7.162 7.162 0 0 0-2.435-2.219c-.938-.541-2.038-.902-3.301-1.082-1.263-.217-2.652-.325-4.167-.325-3.607 0-6.313.47-8.117 1.407-1.804.902-2.705 2.435-2.705 4.6 0 1.334.36 2.399 1.082 3.192.757.794 1.804 1.461 3.138 2.003 1.371.505 2.977.956 4.817 1.352 1.875.361 3.914.812 6.114 1.353a95.158 95.158 0 0 1 7.955 2.056c2.633.758 4.96 1.822 6.98 3.193a15.09 15.09 0 0 1 4.925 5.195c1.262 2.128 1.894 4.834 1.894 8.117M1005.468 408.869c0 2.814-.596 5.34-1.786 7.576-1.155 2.236-2.85 4.148-5.087 5.736-2.236 1.551-4.978 2.76-8.225 3.625-3.247.83-6.944 1.245-11.093 1.245-3.716 0-7.07-.27-10.065-.812-2.994-.54-5.628-1.425-7.9-2.651-2.237-1.263-4.113-2.886-5.628-4.87-1.516-1.985-2.652-4.438-3.41-7.36l13.366-2.002c.433 1.623 1.029 2.94 1.786 3.95a7.626 7.626 0 0 0 2.814 2.327c1.118.541 2.417.902 3.896 1.082 1.515.18 3.229.27 5.141.27 1.732 0 3.337-.09 4.816-.27 1.515-.216 2.814-.559 3.896-1.028 1.118-.505 1.984-1.19 2.598-2.056.613-.902.92-2.02.92-3.355 0-1.515-.451-2.706-1.353-3.572-.866-.901-2.075-1.623-3.626-2.164-1.515-.577-3.319-1.064-5.411-1.461-2.057-.433-4.257-.92-6.602-1.461a82.524 82.524 0 0 1-7.251-1.948c-2.381-.758-4.51-1.786-6.385-3.085a15.23 15.23 0 0 1-4.546-4.924c-1.154-2.02-1.732-4.563-1.732-7.63 0-2.778.542-5.249 1.624-7.413 1.082-2.201 2.67-4.059 4.762-5.574 2.092-1.551 4.671-2.724 7.738-3.517 3.102-.83 6.656-1.245 10.66-1.245 3.175 0 6.133.307 8.875.92 2.741.577 5.195 1.515 7.36 2.814a17.531 17.531 0 0 1 5.41 4.87c1.48 1.984 2.508 4.383 3.085 7.197l-13.474 1.407c-.253-1.407-.704-2.561-1.353-3.463a7.163 7.163 0 0 0-2.435-2.219c-.938-.541-2.039-.902-3.301-1.082-1.263-.217-2.652-.325-4.167-.325-3.607 0-6.313.47-8.117 1.407-1.804.902-2.705 2.435-2.705 4.6 0 1.334.36 2.399 1.082 3.192.757.794 1.804 1.461 3.138 2.003 1.371.505 2.977.956 4.816 1.352 1.876.361 3.915.812 6.115 1.353a95.158 95.158 0 0 1 7.955 2.056c2.633.758 4.96 1.822 6.98 3.193a15.09 15.09 0 0 1 4.925 5.195c1.262 2.128 1.894 4.834 1.894 8.117" style="-inkscape-font-specification:Liberation Sans Bold"/></g><g style="line-height:125%;-inkscape-font-specification:Nimbus Sans L Bold" font-size="64.159" font-weight="400" letter-spacing="0" word-spacing="0" fill="#b00" font-family="Liberation Sans"><path d="M805.84 313.076v16.415h24.623v4.95H805.84v17.888h-5.984v-44.14h31.36v4.887H805.84M838.264 352.33v-26.003c0-.71-.01-1.43-.031-2.161 0-.752-.01-1.473-.032-2.162-.02-.69-.041-1.337-.062-1.942a183.31 183.31 0 0 0-.063-1.63h5.326c.02.481.042 1.035.062 1.661.042.606.074 1.232.094 1.88.042.647.063 1.274.063 1.88.021.584.031 1.085.031 1.503h.126c.397-1.295.814-2.412 1.253-3.352.46-.96.992-1.744 1.598-2.35a5.482 5.482 0 0 1 2.161-1.378c.836-.313 1.849-.47 3.039-.47.46 0 .898.042 1.316.125.417.063.741.126.97.188v5.17a7.19 7.19 0 0 0-1.315-.22 13.75 13.75 0 0 0-1.692-.094c-1.294 0-2.401.293-3.32.877-.898.585-1.64 1.4-2.225 2.444-.563 1.023-.981 2.256-1.253 3.697-.271 1.42-.407 2.976-.407 4.667v17.67h-5.639M868.213 352.956c-3.404 0-5.962-.898-7.675-2.694-1.713-1.796-2.569-4.26-2.569-7.394 0-2.234.418-4.062 1.253-5.482.857-1.441 1.963-2.569 3.321-3.383 1.378-.815 2.945-1.379 4.7-1.692a35.01 35.01 0 0 1 5.356-.533l7.613-.125v-1.848c0-1.4-.146-2.59-.439-3.572-.292-.981-.741-1.775-1.347-2.38-.606-.606-1.368-1.045-2.287-1.316-.898-.293-1.963-.439-3.195-.439-1.086 0-2.068.084-2.945.25-.877.147-1.64.429-2.287.846-.647.397-1.17.95-1.566 1.66-.397.69-.658 1.567-.784 2.632l-5.89-.532c.21-1.337.607-2.559 1.191-3.666.585-1.127 1.41-2.098 2.475-2.913 1.086-.815 2.433-1.441 4.041-1.88 1.63-.46 3.593-.689 5.89-.689 4.26 0 7.467.982 9.618 2.945 2.15 1.942 3.227 4.762 3.227 8.458v14.6c0 1.67.219 2.934.657 3.79.439.835 1.274 1.253 2.507 1.253a7.1 7.1 0 0 0 .94-.063c.313-.042.616-.094.908-.156v3.508a18.535 18.535 0 0 1-4.355.501c-1.065 0-1.984-.135-2.756-.407-.752-.292-1.368-.72-1.849-1.284-.48-.585-.846-1.295-1.096-2.13-.25-.857-.408-1.849-.47-2.977h-.188a19.168 19.168 0 0 1-2.005 2.945c-.71.877-1.546 1.63-2.506 2.256-.961.606-2.058 1.075-3.29 1.41-1.211.334-2.61.5-4.198.5m1.285-4.228c1.796 0 3.362-.324 4.699-.972 1.357-.668 2.475-1.514 3.352-2.537a10.452 10.452 0 0 0 2.005-3.352c.439-1.211.658-2.37.658-3.478V335.6l-6.172.126c-1.378.02-2.694.125-3.947.313-1.232.167-2.318.512-3.258 1.034a5.98 5.98 0 0 0-2.256 2.193c-.543.94-.814 2.172-.814 3.696 0 1.838.49 3.258 1.472 4.26 1.003 1.003 2.423 1.505 4.26 1.505M916.803 352.33v-21.492c0-1.65-.126-3.028-.376-4.135-.23-1.107-.616-1.994-1.16-2.663-.542-.689-1.263-1.17-2.16-1.44-.878-.293-1.975-.44-3.29-.44-1.337 0-2.548.24-3.634.721a7.536 7.536 0 0 0-2.757 2.037c-.752.877-1.337 1.973-1.755 3.289-.417 1.295-.626 2.788-.626 4.48v19.642h-5.64v-26.66c0-.71-.01-1.451-.03-2.224 0-.793-.01-1.535-.032-2.224-.02-.71-.042-1.316-.062-1.817a12.78 12.78 0 0 0-.063-.971h5.326c.02.104.041.386.062.846.021.459.042.992.063 1.597.042.585.073 1.19.094 1.817.02.606.031 1.118.031 1.535h.094a17.928 17.928 0 0 1 1.786-2.663 9.372 9.372 0 0 1 2.255-2.005c.857-.563 1.838-.992 2.945-1.284 1.107-.313 2.392-.47 3.854-.47 1.88 0 3.498.23 4.855.69 1.358.459 2.475 1.169 3.353 2.13.877.96 1.514 2.203 1.91 3.728.418 1.503.627 3.3.627 5.388v22.587h-5.67M935.286 335.224c0 1.943.136 3.728.407 5.357.293 1.63.773 3.04 1.442 4.23.668 1.17 1.545 2.078 2.631 2.725 1.107.648 2.465.971 4.073.971 2.005 0 3.675-.543 5.012-1.629 1.358-1.086 2.193-2.757 2.506-5.012l5.702.376a13.288 13.288 0 0 1-1.222 4.041 11.061 11.061 0 0 1-2.569 3.415c-1.065.981-2.37 1.775-3.916 2.38-1.545.586-3.33.878-5.357.878-2.652 0-4.908-.45-6.766-1.347-1.86-.898-3.373-2.13-4.543-3.697-1.149-1.587-1.984-3.446-2.506-5.576-.522-2.151-.783-4.48-.783-6.986 0-2.277.188-4.282.563-6.015.376-1.755.899-3.28 1.567-4.574.69-1.316 1.493-2.412 2.412-3.29a11.496 11.496 0 0 1 2.976-2.13 13.191 13.191 0 0 1 3.415-1.159c1.19-.25 2.391-.376 3.603-.376 1.9 0 3.592.261 5.075.783s2.757 1.243 3.822 2.162a10.78 10.78 0 0 1 2.631 3.195 13.68 13.68 0 0 1 1.41 3.979l-5.796.439c-.292-1.88-1.033-3.373-2.224-4.48-1.19-1.107-2.882-1.66-5.075-1.66-1.608 0-2.955.27-4.041.814-1.065.522-1.932 1.326-2.6 2.412-.669 1.065-1.15 2.412-1.442 4.041-.271 1.63-.407 3.54-.407 5.733M967.397 336.571c0 1.776.178 3.415.533 4.919.376 1.483.94 2.767 1.692 3.853a8.147 8.147 0 0 0 2.944 2.507c1.19.584 2.621.877 4.292.877 2.444 0 4.397-.491 5.859-1.473 1.482-.981 2.485-2.224 3.007-3.728l4.95 1.41c-.355.94-.857 1.89-1.504 2.85-.626.94-1.472 1.797-2.537 2.57-1.066.752-2.402 1.378-4.01 1.88-1.588.48-3.51.72-5.765.72-5.012 0-8.834-1.493-11.466-4.48-2.61-2.987-3.916-7.425-3.916-13.314 0-3.175.397-5.859 1.19-8.052.794-2.213 1.88-4.01 3.259-5.388a12.085 12.085 0 0 1 4.824-2.976c1.838-.627 3.801-.94 5.89-.94 2.84 0 5.21.46 7.111 1.379 1.922.919 3.457 2.192 4.606 3.822 1.17 1.608 1.994 3.508 2.474 5.701.502 2.193.752 4.564.752 7.112v.751h-24.185m18.358-4.323c-.313-3.571-1.221-6.171-2.725-7.8-1.504-1.65-3.666-2.475-6.485-2.475-.94 0-1.932.156-2.976.47-1.024.292-1.974.825-2.851 1.597-.877.773-1.619 1.828-2.224 3.164-.606 1.316-.95 2.998-1.034 5.044h18.295" style="-inkscape-font-specification:Liberation Sans"/></g><path d="M492.05 296.975V432.45c20.54-9.517 43.667 0 55.5 0h20.3c35.929.515 52.682-46.493 53.175-67.725 0-37.39-23.175-67.714-51.775-67.75H548.225c-12.858 0-39.04 8.03-56.175 0zm41.775 14.85l11.3.025c28.893 0 35.45 24.813 35.45 50.9s-3.482 51.183-35.45 50.9L534 413.6z" fill="#bc0000"/></svg>