<?xml version="1.0" encoding="UTF-8"?>
<svg width="2551px" height="526px" viewBox="0 0 2551 526" version="1.1" xmlns="http://www.w3.org/2000/svg" xmlns:xlink="http://www.w3.org/1999/xlink">
    <!-- Generator: Sketch 48.2 (47327) - http://www.bohemiancoding.com/sketch -->
    <title>gdg url gris</title>
    <desc>Created with Sketch.</desc>
    <defs>
        <radialGradient cx="-54.1520536%" cy="-174.153191%" fx="-54.1520536%" fy="-174.153191%" r="402.145714%" gradientTransform="translate(-0.541521,-1.741532),scale(1.000000,0.801025),translate(0.541521,1.741532)" id="radialGradient-1">
            <stop stop-color="#FFCD4D" offset="0%"></stop>
            <stop stop-color="#F6C338" offset="100%"></stop>
        </radialGradient>
        <path d="M113.000531,0.448897355 L0.159047188,183.040646 L57.1504146,183.040646 C70.637203,183.040646 87.3948737,173.820422 94.3530761,162.502476 L142.356765,84.6941636 C148.023483,73.2760813 147.828443,56.6791656 141.355206,46.1546053 L113.000531,0.448897355 Z" id="path-2"></path>
        <radialGradient cx="-6.59523187%" cy="-88.3511738%" fx="-6.59523187%" fy="-88.3511738%" r="326.48889%" gradientTransform="translate(-0.065952,-0.883512),scale(1.000000,0.677844),translate(0.065952,0.883512)" id="radialGradient-4">
            <stop stop-color="#0DA960" offset="0%"></stop>
            <stop stop-color="#03914B" offset="100%"></stop>
        </radialGradient>
        <path d="M129.033226,0.230284895 C135.988793,11.5097172 135.988793,29.97584 129.033226,41.2963538 L2.29905832,247.71279 C-2.5927688,257.913834 2.49409884,266.001749 15.0689411,266.001749 L67.7720527,266.001749 L180.613537,83.4100004 L129.033226,0.230284895 Z" id="path-5"></path>
        <radialGradient cx="-4.42220406%" cy="-2.56349149%" fx="-4.42220406%" fy="-2.56349149%" r="226.256254%" gradientTransform="translate(-0.044222,-0.025635),scale(1.000000,0.662864),translate(0.044222,0.025635)" id="radialGradient-7">
            <stop stop-color="#4387FD" offset="0%"></stop>
            <stop stop-color="#4683EA" offset="100%"></stop>
        </radialGradient>
        <path d="M15.0689411,0.838994958 C1.52943897,0.838994958 -3.84735377,10.0925971 3.1108486,21.3668942 L208.968211,354.46576 C215.441448,364.99032 215.636489,381.584668 209.969771,393.005318 L260.01875,311.859136 L67.8036809,0.838994958 L15.0689411,0.838994958 Z" id="path-8"></path>
        <radialGradient cx="-35.1606313%" cy="-3.23311374%" fx="-35.1606313%" fy="-3.23311374%" r="261.045138%" gradientTransform="translate(-0.351606,-0.032331),scale(1.000000,0.724371),translate(0.351606,0.032331)" id="radialGradient-10">
            <stop stop-color="#E04A3F" offset="0%"></stop>
            <stop stop-color="#CD372D" offset="100%"></stop>
        </radialGradient>
        <path d="M220.259639,225.580336 L94.3530761,21.3668942 C87.392238,10.0900295 70.6345673,0.838994958 57.1504146,0.838994958 L0.19067538,0.838994958 L192.405744,311.861703 L220.262275,266.648973 C227.228385,255.325891 227.228385,236.857201 220.259639,225.580336 Z" id="path-11"></path>
    </defs>
    <g id="Letter" stroke="none" stroke-width="1" fill="none" fill-rule="evenodd" transform="translate(-3337.000000, -183.000000)">
        <g id="Group-3" transform="translate(3122.000000, 183.000000)">
            <g id="Group-2-Copy-2" transform="translate(631.881015, 57.468254)" fill="#757575">
                <path d="M120.49271,108.207365 L233.225652,108.207365 C233.868008,110.753664 234.403296,113.830395 234.831534,117.437651 C235.259771,121.044907 235.473887,124.652109 235.473887,128.259365 C235.473887,142.900581 233.225674,156.692824 228.729181,169.636508 C224.232688,182.580192 217.166876,194.144457 207.531534,204.329651 C197.253835,215.151419 184.942194,223.532859 170.59624,229.474222 C156.250286,235.415585 139.87045,238.386222 121.45624,238.386222 C104.75498,238.386222 89.0174901,235.415585 74.2432986,229.474222 C59.4691071,223.532859 46.6221767,215.257513 35.7021221,204.647937 C24.7820675,194.03836 16.1103896,181.4662 9.68682803,166.931079 C3.2632665,152.395959 0.0515339124,136.53488 0.0515339124,119.347365 C0.0515339124,102.159851 3.2632665,86.2987711 9.68682803,71.7636508 C16.1103896,57.2285305 24.7820675,44.6563705 35.7021221,34.0467937 C46.6221767,23.4372168 59.4691071,15.161871 74.2432986,9.22050794 C89.0174901,3.2791449 104.75498,0.308507937 121.45624,0.308507937 C140.084568,0.308507937 156.732049,3.49133325 171.399181,9.85707937 C186.066313,16.2228255 198.645599,25.0286422 209.137416,36.2747937 L179.268005,65.2387937 C171.773849,57.3877068 163.423345,51.3933858 154.21624,47.2556508 C145.009135,43.1179158 133.982186,41.0490794 121.135063,41.0490794 C110.643246,41.0490794 100.686875,42.9057275 91.2656516,46.6190794 C81.844428,50.3324313 73.600981,55.584093 66.5350633,62.3742222 C59.4691456,69.1643514 53.8486136,77.3866501 49.6732986,87.0413651 C45.4979836,96.69608 43.4103574,107.464639 43.4103574,119.347365 C43.4103574,131.230091 45.4979836,141.99865 49.6732986,151.653365 C53.8486136,161.30808 59.5226745,169.530379 66.6956516,176.320508 C73.8686286,183.110637 82.1656045,188.362299 91.586828,192.075651 C101.008052,195.789003 111.07148,197.645651 121.777416,197.645651 C133.982183,197.645651 144.313256,195.895097 152.770946,192.393937 C161.228635,188.892776 168.455033,184.383774 174.450357,178.866794 C178.732732,175.047346 182.426224,170.220061 185.530946,164.384794 C188.635667,158.549526 191.044467,152.024734 192.757416,144.810222 L120.49271,144.810222 L120.49271,108.207365 Z M271.445652,5.40107937 L349.170357,5.40107937 C367.370448,5.40107937 383.750285,8.15952797 398.310357,13.6765079 C412.87043,19.1934879 425.28913,26.9914099 435.566828,37.0705079 C445.844526,47.149606 453.713271,59.1912951 459.173299,73.1959365 C464.633326,87.200578 467.363299,102.584234 467.363299,119.347365 C467.363299,136.322688 464.633326,151.812438 459.173299,165.817079 C453.713271,179.821721 445.844526,191.810363 435.566828,201.783365 C425.28913,211.756367 412.87043,219.501242 398.310357,225.018222 C383.750285,230.535202 367.370448,233.293651 349.170357,233.293651 L271.445652,233.293651 L271.445652,5.40107937 Z M347.243299,192.553079 C359.876303,192.553079 371.010309,190.802525 380.645652,187.301365 C390.280994,183.800205 398.310325,178.866825 404.733887,172.501079 C411.157448,166.135333 415.975047,158.443505 419.186828,149.425365 C422.398609,140.407225 424.004475,130.381325 424.004475,119.347365 C424.004475,108.313405 422.398609,98.2875054 419.186828,89.2693651 C415.975047,80.2512248 411.157448,72.5593969 404.733887,66.1936508 C398.310325,59.8279047 390.280994,54.8945254 380.645652,51.3933651 C371.010309,47.8922047 359.876303,46.1416508 347.243299,46.1416508 L314.804475,46.1416508 L314.804475,192.553079 L347.243299,192.553079 Z M611.571534,108.207365 L724.304475,108.207365 C724.946831,110.753664 725.48212,113.830395 725.910357,117.437651 C726.338595,121.044907 726.55271,124.652109 726.55271,128.259365 C726.55271,142.900581 724.304498,156.692824 719.808005,169.636508 C715.311511,182.580192 708.2457,194.144457 698.610357,204.329651 C688.332659,215.151419 676.021017,223.532859 661.675063,229.474222 C647.329109,235.415585 630.949273,238.386222 612.535063,238.386222 C595.833803,238.386222 580.096314,235.415585 565.322122,229.474222 C550.547931,223.532859 537.701,215.257513 526.780946,204.647937 C515.860891,194.03836 507.189213,181.4662 500.765652,166.931079 C494.34209,152.395959 491.130357,136.53488 491.130357,119.347365 C491.130357,102.159851 494.34209,86.2987711 500.765652,71.7636508 C507.189213,57.2285305 515.860891,44.6563705 526.780946,34.0467937 C537.701,23.4372168 550.547931,15.161871 565.322122,9.22050794 C580.096314,3.2791449 595.833803,0.308507937 612.535063,0.308507937 C631.163392,0.308507937 647.810872,3.49133325 662.478005,9.85707937 C677.145137,16.2228255 689.724423,25.0286422 700.21624,36.2747937 L670.346828,65.2387937 C662.852673,57.3877068 654.502168,51.3933858 645.295063,47.2556508 C636.087958,43.1179158 625.06101,41.0490794 612.213887,41.0490794 C601.72207,41.0490794 591.765699,42.9057275 582.344475,46.6190794 C572.923252,50.3324313 564.679805,55.584093 557.613887,62.3742222 C550.547969,69.1643514 544.927437,77.3866501 540.752122,87.0413651 C536.576807,96.69608 534.489181,107.464639 534.489181,119.347365 C534.489181,131.230091 536.576807,141.99865 540.752122,151.653365 C544.927437,161.30808 550.601498,169.530379 557.774475,176.320508 C564.947452,183.110637 573.244428,188.362299 582.665652,192.075651 C592.086875,195.789003 602.150304,197.645651 612.85624,197.645651 C625.061007,197.645651 635.39208,195.895097 643.849769,192.393937 C652.307459,188.892776 659.533857,184.383774 665.529181,178.866794 C669.811555,175.047346 673.505048,170.220061 676.609769,164.384794 C679.714491,158.549526 682.12329,152.024734 683.83624,144.810222 L611.571534,144.810222 L611.571534,108.207365 Z M869.155063,233.293651 L869.155063,46.1416508 L804.919769,46.1416508 L804.919769,5.40107937 L976.749181,5.40107937 L976.749181,46.1416508 L912.513887,46.1416508 L912.513887,233.293651 L869.155063,233.293651 Z M1051.26212,72.2410794 C1063.46689,72.2410794 1074.65442,74.3099158 1084.82506,78.4476508 C1094.9957,82.5853858 1103.77444,88.3144713 1111.16153,95.6350794 C1118.54863,102.955687 1124.32975,111.708457 1128.50506,121.893651 C1132.68038,132.078845 1134.768,143.218733 1134.768,155.313651 C1134.768,167.408568 1132.68038,178.548457 1128.50506,188.733651 C1124.32975,198.918845 1118.54863,207.671614 1111.16153,214.992222 C1103.77444,222.31283 1094.9957,228.041916 1084.82506,232.179651 C1074.65442,236.317386 1063.46689,238.386222 1051.26212,238.386222 C1039.05736,238.386222 1027.86982,236.317386 1017.69918,232.179651 C1007.52854,228.041916 998.749806,222.31283 991.36271,214.992222 C983.975615,207.671614 978.194496,198.918845 974.019181,188.733651 C969.843866,178.548457 967.75624,167.408568 967.75624,155.313651 C967.75624,143.218733 969.843866,132.078845 974.019181,121.893651 C978.194496,111.708457 983.975615,102.955687 991.36271,95.6350794 C998.749806,88.3144713 1007.52854,82.5853858 1017.69918,78.4476508 C1027.86982,74.3099158 1039.05736,72.2410794 1051.26212,72.2410794 Z M1051.26212,199.873651 C1056.61509,199.873651 1061.80739,198.865756 1066.83918,196.849937 C1071.87097,194.834117 1076.31387,191.916527 1080.168,188.097079 C1084.02214,184.277632 1087.07329,179.609488 1089.32153,174.092508 C1091.56978,168.575528 1092.69389,162.315972 1092.69389,155.313651 C1092.69389,148.31133 1091.56978,142.051774 1089.32153,136.534794 C1087.07329,131.017814 1084.02214,126.34967 1080.168,122.530222 C1076.31387,118.710775 1071.87097,115.793185 1066.83918,113.777365 C1061.80739,111.761545 1056.61509,110.753651 1051.26212,110.753651 C1045.69504,110.753651 1040.44921,111.761545 1035.52448,113.777365 C1030.59974,115.793185 1026.21038,118.710775 1022.35624,122.530222 C1018.5021,126.34967 1015.45096,131.017814 1013.20271,136.534794 C1010.95446,142.051774 1009.83036,148.31133 1009.83036,155.313651 C1009.83036,162.315972 1010.95446,168.575528 1013.20271,174.092508 C1015.45096,179.609488 1018.5021,184.277632 1022.35624,188.097079 C1026.21038,191.916527 1030.59974,194.834117 1035.52448,196.849937 C1040.44921,198.865756 1045.69504,199.873651 1051.26212,199.873651 Z M1269.01977,212.923365 L1266.45036,212.923365 C1261.52563,220.774452 1254.88805,226.980961 1246.53742,231.543079 C1238.18679,236.105197 1228.65865,238.386222 1217.95271,238.386222 C1198.03967,238.386222 1183.21217,232.338854 1173.46977,220.243937 C1163.72737,208.149019 1158.85624,192.022704 1158.85624,171.864508 L1158.85624,77.3336508 L1200.93036,77.3336508 L1200.93036,166.771937 C1200.93036,178.018088 1203.44621,186.346481 1208.478,191.757365 C1213.50979,197.168249 1220.84325,199.873651 1230.47859,199.873651 C1236.2598,199.873651 1241.34504,198.653568 1245.73448,196.213365 C1250.12391,193.773162 1253.87093,190.484243 1256.97565,186.346508 C1260.08037,182.208773 1262.43564,177.328441 1264.04153,171.705365 C1265.64742,166.082289 1266.45036,160.087968 1266.45036,153.722222 L1266.45036,77.3336508 L1308.52448,77.3336508 L1308.52448,233.293651 L1269.01977,233.293651 L1269.01977,212.923365 Z M1344.49624,233.293651 L1344.49624,5.40107937 L1386.57036,5.40107937 L1386.57036,233.293651 L1344.49624,233.293651 Z M1495.44918,72.2410794 C1507.65395,72.2410794 1518.84148,74.3099158 1529.01212,78.4476508 C1539.18276,82.5853858 1547.9615,88.3144713 1555.34859,95.6350794 C1562.73569,102.955687 1568.51681,111.708457 1572.69212,121.893651 C1576.86744,132.078845 1578.95506,143.218733 1578.95506,155.313651 C1578.95506,167.408568 1576.86744,178.548457 1572.69212,188.733651 C1568.51681,198.918845 1562.73569,207.671614 1555.34859,214.992222 C1547.9615,222.31283 1539.18276,228.041916 1529.01212,232.179651 C1518.84148,236.317386 1507.65395,238.386222 1495.44918,238.386222 C1483.24441,238.386222 1472.05688,236.317386 1461.88624,232.179651 C1451.7156,228.041916 1442.93686,222.31283 1435.54977,214.992222 C1428.16267,207.671614 1422.38155,198.918845 1418.20624,188.733651 C1414.03092,178.548457 1411.9433,167.408568 1411.9433,155.313651 C1411.9433,143.218733 1414.03092,132.078845 1418.20624,121.893651 C1422.38155,111.708457 1428.16267,102.955687 1435.54977,95.6350794 C1442.93686,88.3144713 1451.7156,82.5853858 1461.88624,78.4476508 C1472.05688,74.3099158 1483.24441,72.2410794 1495.44918,72.2410794 Z M1495.44918,199.873651 C1500.80215,199.873651 1505.99445,198.865756 1511.02624,196.849937 C1516.05803,194.834117 1520.50093,191.916527 1524.35506,188.097079 C1528.2092,184.277632 1531.26035,179.609488 1533.50859,174.092508 C1535.75684,168.575528 1536.88095,162.315972 1536.88095,155.313651 C1536.88095,148.31133 1535.75684,142.051774 1533.50859,136.534794 C1531.26035,131.017814 1528.2092,126.34967 1524.35506,122.530222 C1520.50093,118.710775 1516.05803,115.793185 1511.02624,113.777365 C1505.99445,111.761545 1500.80215,110.753651 1495.44918,110.753651 C1489.88209,110.753651 1484.63626,111.761545 1479.71153,113.777365 C1474.7868,115.793185 1470.39744,118.710775 1466.5433,122.530222 C1462.68916,126.34967 1459.63802,131.017814 1457.38977,136.534794 C1455.14152,142.051774 1454.01742,148.31133 1454.01742,155.313651 C1454.01742,162.315972 1455.14152,168.575528 1457.38977,174.092508 C1459.63802,179.609488 1462.68916,184.277632 1466.5433,188.097079 C1470.39744,191.916527 1474.7868,194.834117 1479.71153,196.849937 C1484.63626,198.865756 1489.88209,199.873651 1495.44918,199.873651 Z M1713.20683,212.923365 L1710.63742,212.923365 C1705.71269,220.774452 1699.07511,226.980961 1690.72448,231.543079 C1682.37385,236.105197 1672.84571,238.386222 1662.13977,238.386222 C1642.22673,238.386222 1627.39923,232.338854 1617.65683,220.243937 C1607.91443,208.149019 1603.0433,192.022704 1603.0433,171.864508 L1603.0433,77.3336508 L1645.11742,77.3336508 L1645.11742,166.771937 C1645.11742,178.018088 1647.63327,186.346481 1652.66506,191.757365 C1657.69685,197.168249 1665.03031,199.873651 1674.66565,199.873651 C1680.44686,199.873651 1685.5321,198.653568 1689.92153,196.213365 C1694.31097,193.773162 1698.05799,190.484243 1701.16271,186.346508 C1704.26743,182.208773 1706.6227,177.328441 1708.22859,171.705365 C1709.83448,166.082289 1710.63742,160.087968 1710.63742,153.722222 L1710.63742,77.3336508 L1752.71153,77.3336508 L1752.71153,233.293651 L1713.20683,233.293651 L1713.20683,212.923365 Z M1849.38565,238.386222 C1839.10795,238.386222 1829.95452,237.113092 1821.92506,234.566794 C1813.89561,232.020495 1806.93686,228.678529 1801.04859,224.540794 C1795.16033,220.403059 1790.18214,215.628821 1786.11389,210.217937 C1782.04563,204.807052 1778.94096,199.343202 1776.79977,193.826222 L1814.37742,177.911937 C1818.01743,185.975215 1822.88856,191.969536 1828.99095,195.895079 C1835.09333,199.820623 1841.8915,201.783365 1849.38565,201.783365 C1857.09393,201.783365 1863.19622,200.404141 1867.69271,197.645651 C1872.1892,194.887161 1874.43742,191.598241 1874.43742,187.778794 C1874.43742,183.534963 1872.56391,180.086902 1868.81683,177.434508 C1865.06975,174.782114 1858.59276,172.394995 1849.38565,170.273079 L1827.22448,165.498794 C1822.29974,164.437836 1817.2145,162.740329 1811.96859,160.406222 C1806.72268,158.072115 1801.95861,155.101478 1797.67624,151.494222 C1793.39387,147.886966 1789.86096,143.537105 1787.07742,138.444508 C1784.29387,133.351911 1782.90212,127.410637 1782.90212,120.620508 C1782.90212,112.981613 1784.56152,106.191585 1787.88036,100.250222 C1791.1992,94.3088592 1795.74915,89.2693858 1801.53036,85.1316508 C1807.31156,80.9939158 1814.10973,77.8110905 1821.92506,75.5830794 C1829.7404,73.3550682 1838.14443,72.2410794 1847.13742,72.2410794 C1862.12573,72.2410794 1875.50795,75.1586692 1887.28448,80.9939365 C1899.061,86.8292038 1907.73268,96.1124443 1913.29977,108.843937 L1877.00683,123.485079 C1874.00917,117.331525 1869.6198,112.875569 1863.83859,110.117079 C1858.05739,107.358589 1852.27627,105.979365 1846.49506,105.979365 C1840.49974,105.979365 1835.25391,107.199448 1830.75742,109.639651 C1826.26092,112.079853 1824.01271,115.209632 1824.01271,119.029079 C1824.01271,122.636335 1825.88622,125.500878 1829.6333,127.622794 C1833.38038,129.744709 1838.46562,131.654404 1844.88918,133.351937 L1868.97742,139.081079 C1885.03632,142.900527 1896.97326,149.000942 1904.78859,157.382508 C1912.60393,165.764074 1916.51153,175.683879 1916.51153,187.142222 C1916.51153,193.932351 1914.90567,200.404096 1911.69389,206.557651 C1908.48211,212.711205 1903.93215,218.175055 1898.04389,222.949365 C1892.15562,227.723675 1885.08981,231.490018 1876.84624,234.248508 C1868.60267,237.006998 1859.44923,238.386222 1849.38565,238.386222 Z M2092.83742,195.735937 C2085.55738,208.467429 2075.7616,218.758564 2063.44977,226.609651 C2051.13794,234.460738 2036.09633,238.386222 2018.32448,238.386222 C2006.33383,238.386222 1995.25335,236.317386 1985.08271,232.179651 C1974.91207,228.041916 1966.07981,222.259783 1958.58565,214.833079 C1951.0915,207.406376 1945.25685,198.653606 1941.08153,188.574508 C1936.90622,178.49541 1934.81859,167.408568 1934.81859,155.313651 C1934.81859,144.067499 1936.85269,133.405035 1940.92095,123.325937 C1944.9892,113.246838 1950.66326,104.441022 1957.9433,96.9082222 C1965.22334,89.3754227 1973.84148,83.3811016 1983.798,78.9250794 C1993.75452,74.4690571 2004.72794,72.2410794 2016.71859,72.2410794 C2029.3516,72.2410794 2040.59266,74.3099158 2050.44212,78.4476508 C2060.29158,82.5853858 2068.53503,88.3144713 2075.17271,95.6350794 C2081.81039,102.955687 2086.84211,111.602363 2090.268,121.575365 C2093.6939,131.548367 2095.40683,142.369973 2095.40683,154.040508 L2095.40683,157.859937 C2095.19271,159.133086 2095.08565,160.300122 2095.08565,161.361079 C2094.87153,162.422037 2094.76448,163.589073 2094.76448,164.862222 L1976.25036,164.862222 C1977.10683,171.227968 1978.87329,176.691818 1981.54977,181.253937 C1984.22625,185.816055 1987.54504,189.635445 1991.50624,192.712222 C1995.46744,195.789 1999.80328,198.016977 2004.51389,199.396222 C2009.2245,200.775467 2014.0421,201.465079 2018.96683,201.465079 C2028.60217,201.465079 2036.57797,199.290149 2042.89448,194.940222 C2049.21098,190.590296 2054.18916,185.126446 2057.82918,178.548508 L2092.83742,195.735937 Z M2054.61742,135.261651 C2054.4033,132.503161 2053.49331,129.42643 2051.88742,126.031365 C2050.28153,122.6363 2047.92626,119.453475 2044.82153,116.482794 C2041.71681,113.512112 2037.86273,111.071946 2033.25918,109.162222 C2028.65563,107.252498 2023.14215,106.297651 2016.71859,106.297651 C2007.72561,106.297651 1999.80333,108.843911 1992.95153,113.936508 C1986.09973,119.029105 1981.28214,126.137415 1978.49859,135.261651 L2054.61742,135.261651 Z" id="GDG-Toulouse"></path>
                <path d="M3.08486725,316.472317 L17.1095731,316.472317 L17.1095731,337.79746 L16.2531025,347.239937 L17.1095731,347.239937 C18.6084042,344.764369 20.7674022,342.730897 23.586632,341.13946 C26.4058617,339.548024 29.5640654,338.752317 33.0613378,338.752317 C39.8417639,338.752317 44.8556353,340.732742 48.1031025,344.693651 C51.3505698,348.654559 52.974279,354.065363 52.974279,360.926222 L52.974279,392.436508 L38.9495731,392.436508 L38.9495731,362.623746 C38.9495731,359.01649 38.0931111,356.275724 36.3801614,354.401365 C34.6672116,352.527007 32.2762551,351.589841 29.2072202,351.589841 C27.2801517,351.589841 25.5672277,351.996536 24.0683967,352.809937 C22.5695656,353.623337 21.3027156,354.737326 20.2678084,356.151937 C19.2329013,357.566547 18.4478111,359.211007 17.9125143,361.085365 C17.3772175,362.959724 17.1095731,364.957831 17.1095731,367.079746 L17.1095731,392.436508 L3.08486725,392.436508 L3.08486725,316.472317 Z M81.6660437,372.490603 C81.6660437,373.693022 81.7909444,374.807011 82.0407496,375.832603 C82.2905548,376.858196 82.7723147,377.724631 83.4860437,378.431937 C84.4852644,379.563625 85.9127011,380.12946 87.7683967,380.12946 C88.7676173,380.12946 89.6240794,380.023366 90.3378084,379.811175 C91.0515375,379.598983 91.8366277,379.316065 92.6931025,378.962413 L93.656632,392.012127 C92.2291738,392.507241 90.8909519,392.843205 89.6419261,393.020032 C88.3929002,393.196858 86.8762487,393.28527 85.0919261,393.28527 C82.4511286,393.28527 80.078015,392.878575 77.9725143,392.065175 C75.8670136,391.251774 74.1005607,390.137785 72.6731025,388.723175 C69.318576,385.540302 67.6413378,381.013617 67.6413378,375.142984 L67.6413378,352.332508 L58.434279,352.332508 L58.434279,340.449841 L67.6413378,340.449841 L67.6413378,324.535556 L81.6660437,324.535556 L81.6660437,340.449841 L101.793103,340.449841 L101.793103,324.535556 L115.817808,324.535556 L115.817808,340.449841 L128.664867,340.449841 L128.664867,352.332508 L115.817808,352.332508 L115.817808,372.490603 C115.817808,373.693022 115.942709,374.807011 116.192514,375.832603 C116.442319,376.858196 116.924079,377.724631 117.637808,378.431937 C118.637029,379.563625 120.064466,380.12946 121.920161,380.12946 C123.133501,380.12946 124.097021,380.005684 124.81075,379.758127 C125.524479,379.51057 126.202511,379.174605 126.844867,378.750222 L130.806044,390.951175 C129.164467,391.72921 127.398014,392.312728 125.506632,392.701746 C123.61525,393.090764 121.527624,393.28527 119.243691,393.28527 C116.602893,393.28527 114.22978,392.878575 112.124279,392.065175 C110.018778,391.251774 108.252325,390.137785 106.824867,388.723175 C103.470341,385.540302 101.793103,381.013617 101.793103,375.142984 L101.793103,352.332508 L81.6660437,352.332508 L81.6660437,372.490603 Z M139.049573,340.449841 L152.217808,340.449841 L152.217808,346.70946 L153.074279,346.70946 C154.358991,344.516814 156.357403,342.642484 159.069573,341.086413 C161.781744,339.530341 165.13622,338.752317 169.133103,338.752317 C172.487629,338.752317 175.681519,339.44193 178.714867,340.821175 C181.748216,342.20042 184.42466,344.110115 186.744279,346.550317 C189.063898,348.99052 190.901723,351.90811 192.257808,355.303175 C193.613894,358.698239 194.291926,362.411535 194.291926,366.443175 C194.291926,370.474814 193.613894,374.18811 192.257808,377.583175 C190.901723,380.978239 189.063898,383.895829 186.744279,386.336032 C184.42466,388.776234 181.748216,390.68593 178.714867,392.065175 C175.681519,393.44442 172.487629,394.134032 169.133103,394.134032 C165.13622,394.134032 161.781744,393.356008 159.069573,391.799937 C156.357403,390.243865 154.358991,388.369535 153.074279,386.176889 L152.217808,386.176889 L153.074279,393.603556 L153.074279,415.353079 L139.049573,415.353079 L139.049573,340.449841 Z M166.242514,381.296508 C168.09821,381.296508 169.864663,380.942861 171.541926,380.235556 C173.219189,379.52825 174.700155,378.538038 175.984867,377.264889 C177.26958,375.99174 178.304471,374.435692 179.089573,372.596698 C179.874675,370.757705 180.26722,368.706551 180.26722,366.443175 C180.26722,364.179798 179.874675,362.128644 179.089573,360.289651 C178.304471,358.450657 177.26958,356.89461 175.984867,355.62146 C174.700155,354.348311 173.219189,353.358099 171.541926,352.650794 C169.864663,351.943489 168.09821,351.589841 166.242514,351.589841 C164.386819,351.589841 162.620366,351.925806 160.943103,352.597746 C159.265839,353.269686 157.784874,354.242216 156.500161,355.515365 C155.215449,356.788514 154.180557,358.344562 153.395455,360.183556 C152.610354,362.022549 152.217808,364.109068 152.217808,366.443175 C152.217808,368.777282 152.610354,370.8638 153.395455,372.702794 C154.180557,374.541787 155.215449,376.097835 156.500161,377.370984 C157.784874,378.644133 159.265839,379.616663 160.943103,380.288603 C162.620366,380.960543 164.386819,381.296508 166.242514,381.296508 Z M223.518985,394.134032 C220.093085,394.134032 217.041939,393.709655 214.365455,392.860889 C211.688972,392.012123 209.369387,390.898134 207.406632,389.518889 C205.443877,388.139644 203.784482,386.548231 202.428397,384.744603 C201.072311,382.940975 200.03742,381.119692 199.323691,379.280698 L211.849573,373.975937 C213.062913,376.663696 214.686622,378.661803 216.72075,379.970317 C218.754877,381.278832 221.020933,381.933079 223.518985,381.933079 C226.08841,381.933079 228.122507,381.473338 229.621338,380.553841 C231.120169,379.634345 231.869573,378.538038 231.869573,377.264889 C231.869573,375.850279 231.24507,374.700925 229.996044,373.816794 C228.747018,372.932662 226.58802,372.136956 223.518985,371.429651 L216.131926,369.838222 C214.490349,369.48457 212.795268,368.918734 211.046632,368.140698 C209.297996,367.362663 207.709972,366.37245 206.282514,365.170032 C204.855056,363.967613 203.677421,362.517659 202.749573,360.820127 C201.821725,359.122595 201.357808,357.14217 201.357808,354.878794 C201.357808,352.332495 201.91094,350.069153 203.01722,348.088698 C204.1235,346.108244 205.640152,344.42842 207.56722,343.049175 C209.494289,341.66993 211.760344,340.608988 214.365455,339.866317 C216.970567,339.123647 219.771911,338.752317 222.769573,338.752317 C227.765677,338.752317 232.226416,339.724847 236.151926,341.669937 C240.077436,343.615026 242.967995,346.709439 244.823691,350.95327 L232.726044,355.833651 C231.726823,353.782466 230.2637,352.297147 228.336632,351.377651 C226.409563,350.458154 224.482524,349.998413 222.555455,349.998413 C220.557014,349.998413 218.808404,350.405107 217.309573,351.218508 C215.810742,352.031909 215.061338,353.075168 215.061338,354.348317 C215.061338,355.550736 215.685841,356.505584 216.934867,357.212889 C218.183893,357.920194 219.878974,358.556759 222.020161,359.122603 L230.049573,361.032317 C235.402541,362.305467 239.381521,364.338938 241.986632,367.132794 C244.591743,369.926649 245.894279,373.233251 245.894279,377.052698 C245.894279,379.316075 245.35899,381.473323 244.288397,383.524508 C243.217803,385.575693 241.701152,387.396976 239.738397,388.988413 C237.775642,390.579849 235.420371,391.835297 232.672514,392.754794 C229.924657,393.67429 226.873511,394.134032 223.518985,394.134032 Z M262.916632,393.073079 C260.347207,393.073079 258.152523,392.171279 256.332514,390.367651 C254.512505,388.564023 253.602514,386.389092 253.602514,383.842794 C253.602514,381.296495 254.512505,379.139247 256.332514,377.370984 C258.152523,375.602721 260.347207,374.718603 262.916632,374.718603 C265.486057,374.718603 267.662898,375.602721 269.44722,377.370984 C271.231543,379.139247 272.123691,381.296495 272.123691,383.842794 C272.123691,386.389092 271.231543,388.564023 269.44722,390.367651 C267.662898,392.171279 265.486057,393.073079 262.916632,393.073079 Z M262.916632,357.531175 C260.347207,357.531175 258.152523,356.629374 256.332514,354.825746 C254.512505,353.022118 253.602514,350.847187 253.602514,348.300889 C253.602514,345.75459 254.512505,343.57966 256.332514,341.776032 C258.152523,339.972404 260.347207,339.070603 262.916632,339.070603 C265.486057,339.070603 267.662898,339.972404 269.44722,341.776032 C271.231543,343.57966 272.123691,345.75459 272.123691,348.300889 C272.123691,350.847187 271.231543,353.022118 269.44722,354.825746 C267.662898,356.629374 265.486057,357.531175 262.916632,357.531175 Z M280.153103,392.436508 L311.949573,316.472317 L325.760161,316.472317 L293.963691,392.436508 L280.153103,392.436508 Z M311.200161,392.436508 L342.996632,316.472317 L356.80722,316.472317 L325.01075,392.436508 L311.200161,392.436508 Z M382.394279,417.050603 C378.682888,417.050603 375.381941,416.573179 372.491338,415.618317 C369.600735,414.663456 367.084878,413.42569 364.943691,411.904984 C362.802504,410.384278 361.018208,408.704454 359.59075,406.86546 C358.163291,405.026467 357.1284,403.187501 356.486044,401.348508 L369.868397,396.043746 C370.867617,398.802236 372.50917,400.941802 374.793103,402.462508 C377.077036,403.983214 379.610736,404.743556 382.394279,404.743556 C386.819399,404.743556 390.316619,403.382014 392.886044,400.658889 C395.455468,397.935764 396.740161,394.134056 396.740161,389.253651 L396.740161,385.646413 L395.883691,385.646413 C394.242114,387.909789 392.083116,389.695708 389.406632,391.004222 C386.730148,392.312737 383.571944,392.966984 379.931926,392.966984 C376.791518,392.966984 373.740372,392.330419 370.778397,391.05727 C367.816421,389.784121 365.193506,387.962837 362.909573,385.593365 C360.62564,383.223893 358.769972,380.377032 357.342514,377.052698 C355.915056,373.728364 355.201338,370.015068 355.201338,365.912698 C355.201338,361.810329 355.915056,358.07935 357.342514,354.719651 C358.769972,351.359951 360.62564,348.495409 362.909573,346.125937 C365.193506,343.756464 367.816421,341.935181 370.778397,340.662032 C373.740372,339.388883 376.791518,338.752317 379.931926,338.752317 C383.571944,338.752317 386.730148,339.406565 389.406632,340.715079 C392.083116,342.023594 394.242114,343.809512 395.883691,346.072889 L396.740161,346.072889 L396.740161,340.449841 L410.122514,340.449841 L410.122514,388.723175 C410.122514,393.108466 409.444482,397.051633 408.088397,400.552794 C406.732311,404.053954 404.840958,407.024591 402.414279,409.464794 C399.9876,411.904996 397.079198,413.779327 393.688985,415.087841 C390.298772,416.396356 386.533908,417.050603 382.394279,417.050603 Z M382.929573,380.447746 C384.642523,380.447746 386.337604,380.129464 388.014867,379.492889 C389.692131,378.856314 391.173096,377.919149 392.457808,376.681365 C393.742521,375.443581 394.777412,373.922898 395.562514,372.11927 C396.347616,370.315642 396.740161,368.246805 396.740161,365.912698 C396.740161,363.578592 396.347616,361.492073 395.562514,359.653079 C394.777412,357.814086 393.742521,356.27572 392.457808,355.037937 C391.173096,353.800153 389.692131,352.862987 388.014867,352.226413 C386.337604,351.589838 384.642523,351.271556 382.929573,351.271556 C381.216623,351.271556 379.539385,351.589838 377.897808,352.226413 C376.256232,352.862987 374.793109,353.817835 373.508397,355.090984 C372.223684,356.364133 371.188793,357.902499 370.403691,359.706127 C369.618589,361.509755 369.226044,363.578592 369.226044,365.912698 C369.226044,368.246805 369.618589,370.315642 370.403691,372.11927 C371.188793,373.922898 372.223684,375.443581 373.508397,376.681365 C374.793109,377.919149 376.256232,378.856314 377.897808,379.492889 C379.539385,380.129464 381.216623,380.447746 382.929573,380.447746 Z M460.654279,386.176889 L459.797808,386.176889 C458.513096,388.369535 456.514685,390.243865 453.802514,391.799937 C451.090344,393.356008 447.735868,394.134032 443.738985,394.134032 C440.384458,394.134032 437.190569,393.44442 434.15722,392.065175 C431.123872,390.68593 428.447428,388.776234 426.127808,386.336032 C423.808189,383.895829 421.970364,380.978239 420.614279,377.583175 C419.258194,374.18811 418.580161,370.474814 418.580161,366.443175 C418.580161,362.411535 419.258194,358.698239 420.614279,355.303175 C421.970364,351.90811 423.808189,348.99052 426.127808,346.550317 C428.447428,344.110115 431.123872,342.20042 434.15722,340.821175 C437.190569,339.44193 440.384458,338.752317 443.738985,338.752317 C447.735868,338.752317 451.090344,339.530341 453.802514,341.086413 C456.514685,342.642484 458.513096,344.516814 459.797808,346.70946 L460.654279,346.70946 L459.797808,339.282794 L459.797808,316.472317 L473.822514,316.472317 L473.822514,392.436508 L460.654279,392.436508 L460.654279,386.176889 Z M446.629573,381.296508 C448.485269,381.296508 450.251722,380.960543 451.928985,380.288603 C453.606248,379.616663 455.087214,378.644133 456.371926,377.370984 C457.656638,376.097835 458.69153,374.541787 459.476632,372.702794 C460.261734,370.8638 460.654279,368.777282 460.654279,366.443175 C460.654279,364.109068 460.261734,362.022549 459.476632,360.183556 C458.69153,358.344562 457.656638,356.788514 456.371926,355.515365 C455.087214,354.242216 453.606248,353.269686 451.928985,352.597746 C450.251722,351.925806 448.485269,351.589841 446.629573,351.589841 C444.773878,351.589841 443.007425,351.943489 441.330161,352.650794 C439.652898,353.358099 438.171932,354.348311 436.88722,355.62146 C435.602508,356.89461 434.567616,358.450657 433.782514,360.289651 C432.997412,362.128644 432.604867,364.179798 432.604867,366.443175 C432.604867,368.706551 432.997412,370.757705 433.782514,372.596698 C434.567616,374.435692 435.602508,375.99174 436.88722,377.264889 C438.171932,378.538038 439.652898,379.52825 441.330161,380.235556 C443.007425,380.942861 444.773878,381.296508 446.629573,381.296508 Z M509.473103,417.050603 C505.761711,417.050603 502.460764,416.573179 499.570161,415.618317 C496.679559,414.663456 494.163701,413.42569 492.022514,411.904984 C489.881327,410.384278 488.097031,408.704454 486.669573,406.86546 C485.242115,405.026467 484.207223,403.187501 483.564867,401.348508 L496.94722,396.043746 C497.946441,398.802236 499.587993,400.941802 501.871926,402.462508 C504.155859,403.983214 506.689559,404.743556 509.473103,404.743556 C513.898223,404.743556 517.395443,403.382014 519.964867,400.658889 C522.534292,397.935764 523.818985,394.134056 523.818985,389.253651 L523.818985,385.646413 L522.962514,385.646413 C521.320937,387.909789 519.161939,389.695708 516.485455,391.004222 C513.808972,392.312737 510.650768,392.966984 507.01075,392.966984 C503.870342,392.966984 500.819196,392.330419 497.85722,391.05727 C494.895245,389.784121 492.27233,387.962837 489.988397,385.593365 C487.704464,383.223893 485.848796,380.377032 484.421338,377.052698 C482.99388,373.728364 482.280161,370.015068 482.280161,365.912698 C482.280161,361.810329 482.99388,358.07935 484.421338,354.719651 C485.848796,351.359951 487.704464,348.495409 489.988397,346.125937 C492.27233,343.756464 494.895245,341.935181 497.85722,340.662032 C500.819196,339.388883 503.870342,338.752317 507.01075,338.752317 C510.650768,338.752317 513.808972,339.406565 516.485455,340.715079 C519.161939,342.023594 521.320937,343.809512 522.962514,346.072889 L523.818985,346.072889 L523.818985,340.449841 L537.201338,340.449841 L537.201338,388.723175 C537.201338,393.108466 536.523305,397.051633 535.16722,400.552794 C533.811135,404.053954 531.919781,407.024591 529.493103,409.464794 C527.066424,411.904996 524.158021,413.779327 520.767808,415.087841 C517.377595,416.396356 513.612731,417.050603 509.473103,417.050603 Z M510.008397,380.447746 C511.721346,380.447746 513.416427,380.129464 515.093691,379.492889 C516.770954,378.856314 518.25192,377.919149 519.536632,376.681365 C520.821344,375.443581 521.856236,373.922898 522.641338,372.11927 C523.42644,370.315642 523.818985,368.246805 523.818985,365.912698 C523.818985,363.578592 523.42644,361.492073 522.641338,359.653079 C521.856236,357.814086 520.821344,356.27572 519.536632,355.037937 C518.25192,353.800153 516.770954,352.862987 515.093691,352.226413 C513.416427,351.589838 511.721346,351.271556 510.008397,351.271556 C508.295447,351.271556 506.618209,351.589838 504.976632,352.226413 C503.335055,352.862987 501.871932,353.817835 500.58722,355.090984 C499.302508,356.364133 498.267616,357.902499 497.482514,359.706127 C496.697412,361.509755 496.304867,363.578592 496.304867,365.912698 C496.304867,368.246805 496.697412,370.315642 497.482514,372.11927 C498.267616,373.922898 499.302508,375.443581 500.58722,376.681365 C501.871932,377.919149 503.335055,378.856314 504.976632,379.492889 C506.618209,380.129464 508.295447,380.447746 510.008397,380.447746 Z M554.437808,352.332508 L545.23075,352.332508 L545.23075,340.449841 L554.437808,340.449841 L554.437808,324.535556 L568.462514,324.535556 L568.462514,340.449841 L581.309573,340.449841 L581.309573,352.332508 L568.462514,352.332508 L568.462514,372.490603 C568.462514,373.693022 568.587415,374.807011 568.83722,375.832603 C569.087025,376.858196 569.568785,377.724631 570.282514,378.431937 C571.281735,379.563625 572.709172,380.12946 574.564867,380.12946 C575.778207,380.12946 576.741726,380.005684 577.455455,379.758127 C578.169185,379.51057 578.847217,379.174605 579.489573,378.750222 L583.45075,390.951175 C581.809173,391.72921 580.04272,392.312728 578.151338,392.701746 C576.259956,393.090764 574.17233,393.28527 571.888397,393.28527 C569.247599,393.28527 566.874486,392.878575 564.768985,392.065175 C562.663484,391.251774 560.897031,390.137785 559.469573,388.723175 C556.115047,385.540302 554.437808,381.013617 554.437808,375.142984 L554.437808,352.332508 Z M615.889573,338.752317 C619.957829,338.752317 623.687007,339.44193 627.07722,340.821175 C630.467433,342.20042 633.393678,344.110115 635.856044,346.550317 C638.318409,348.99052 640.245449,351.90811 641.63722,355.303175 C643.028992,358.698239 643.724867,362.411535 643.724867,366.443175 C643.724867,370.474814 643.028992,374.18811 641.63722,377.583175 C640.245449,380.978239 638.318409,383.895829 635.856044,386.336032 C633.393678,388.776234 630.467433,390.68593 627.07722,392.065175 C623.687007,393.44442 619.957829,394.134032 615.889573,394.134032 C611.821317,394.134032 608.092139,393.44442 604.701926,392.065175 C601.311713,390.68593 598.385468,388.776234 595.923103,386.336032 C593.460737,383.895829 591.533698,380.978239 590.141926,377.583175 C588.750154,374.18811 588.054279,370.474814 588.054279,366.443175 C588.054279,362.411535 588.750154,358.698239 590.141926,355.303175 C591.533698,351.90811 593.460737,348.99052 595.923103,346.550317 C598.385468,344.110115 601.311713,342.20042 604.701926,340.821175 C608.092139,339.44193 611.821317,338.752317 615.889573,338.752317 Z M615.889573,381.296508 C617.673896,381.296508 619.404663,380.960543 621.081926,380.288603 C622.759189,379.616663 624.240155,378.644133 625.524867,377.370984 C626.80958,376.097835 627.826628,374.541787 628.576044,372.702794 C629.325459,370.8638 629.700161,368.777282 629.700161,366.443175 C629.700161,364.109068 629.325459,362.022549 628.576044,360.183556 C627.826628,358.344562 626.80958,356.788514 625.524867,355.515365 C624.240155,354.242216 622.759189,353.269686 621.081926,352.597746 C619.404663,351.925806 617.673896,351.589841 615.889573,351.589841 C614.033878,351.589841 612.285268,351.925806 610.643691,352.597746 C609.002114,353.269686 607.538991,354.242216 606.254279,355.515365 C604.969567,356.788514 603.952518,358.344562 603.203103,360.183556 C602.453687,362.022549 602.078985,364.109068 602.078985,366.443175 C602.078985,368.777282 602.453687,370.8638 603.203103,372.702794 C603.952518,374.541787 604.969567,376.097835 606.254279,377.370984 C607.538991,378.644133 609.002114,379.616663 610.643691,380.288603 C612.285268,380.960543 614.033878,381.296508 615.889573,381.296508 Z M688.475455,385.646413 L687.618985,385.646413 C685.977408,388.263442 683.764881,390.332278 680.981338,391.852984 C678.197795,393.37369 675.021748,394.134032 671.453103,394.134032 C664.815422,394.134032 659.872923,392.118242 656.625455,388.086603 C653.377988,384.054964 651.754279,378.679526 651.754279,371.960127 L651.754279,340.449841 L665.778985,340.449841 L665.778985,370.262603 C665.778985,374.01132 666.617604,376.787451 668.294867,378.591079 C669.972131,380.394707 672.416616,381.296508 675.628397,381.296508 C677.555465,381.296508 679.250546,380.889814 680.713691,380.076413 C682.176835,379.263012 683.425842,378.166705 684.46075,376.78746 C685.495657,375.408215 686.280747,373.781438 686.816044,371.907079 C687.351341,370.032721 687.618985,368.034614 687.618985,365.912698 L687.618985,340.449841 L701.643691,340.449841 L701.643691,392.436508 L688.475455,392.436508 L688.475455,385.646413 Z M713.634279,392.436508 L713.634279,316.472317 L727.658985,316.472317 L727.658985,392.436508 L713.634279,392.436508 Z M763.951926,338.752317 C768.020182,338.752317 771.74936,339.44193 775.139573,340.821175 C778.529786,342.20042 781.456031,344.110115 783.918397,346.550317 C786.380762,348.99052 788.307801,351.90811 789.699573,355.303175 C791.091345,358.698239 791.78722,362.411535 791.78722,366.443175 C791.78722,370.474814 791.091345,374.18811 789.699573,377.583175 C788.307801,380.978239 786.380762,383.895829 783.918397,386.336032 C781.456031,388.776234 778.529786,390.68593 775.139573,392.065175 C771.74936,393.44442 768.020182,394.134032 763.951926,394.134032 C759.88367,394.134032 756.154492,393.44442 752.764279,392.065175 C749.374066,390.68593 746.447821,388.776234 743.985455,386.336032 C741.52309,383.895829 739.596051,380.978239 738.204279,377.583175 C736.812507,374.18811 736.116632,370.474814 736.116632,366.443175 C736.116632,362.411535 736.812507,358.698239 738.204279,355.303175 C739.596051,351.90811 741.52309,348.99052 743.985455,346.550317 C746.447821,344.110115 749.374066,342.20042 752.764279,340.821175 C756.154492,339.44193 759.88367,338.752317 763.951926,338.752317 Z M763.951926,381.296508 C765.736249,381.296508 767.467016,380.960543 769.144279,380.288603 C770.821542,379.616663 772.302508,378.644133 773.58722,377.370984 C774.871932,376.097835 775.888981,374.541787 776.638397,372.702794 C777.387812,370.8638 777.762514,368.777282 777.762514,366.443175 C777.762514,364.109068 777.387812,362.022549 776.638397,360.183556 C775.888981,358.344562 774.871932,356.788514 773.58722,355.515365 C772.302508,354.242216 770.821542,353.269686 769.144279,352.597746 C767.467016,351.925806 765.736249,351.589841 763.951926,351.589841 C762.096231,351.589841 760.347621,351.925806 758.706044,352.597746 C757.064467,353.269686 755.601344,354.242216 754.316632,355.515365 C753.03192,356.788514 752.014871,358.344562 751.265455,360.183556 C750.51604,362.022549 750.141338,364.109068 750.141338,366.443175 C750.141338,368.777282 750.51604,370.8638 751.265455,372.702794 C752.014871,374.541787 753.03192,376.097835 754.316632,377.370984 C755.601344,378.644133 757.064467,379.616663 758.706044,380.288603 C760.347621,380.960543 762.096231,381.296508 763.951926,381.296508 Z M836.537808,385.646413 L835.681338,385.646413 C834.039761,388.263442 831.827234,390.332278 829.043691,391.852984 C826.260147,393.37369 823.084101,394.134032 819.515455,394.134032 C812.877775,394.134032 807.935276,392.118242 804.687808,388.086603 C801.440341,384.054964 799.816632,378.679526 799.816632,371.960127 L799.816632,340.449841 L813.841338,340.449841 L813.841338,370.262603 C813.841338,374.01132 814.679957,376.787451 816.35722,378.591079 C818.034483,380.394707 820.478969,381.296508 823.69075,381.296508 C825.617818,381.296508 827.312899,380.889814 828.776044,380.076413 C830.239188,379.263012 831.488195,378.166705 832.523103,376.78746 C833.55801,375.408215 834.3431,373.781438 834.878397,371.907079 C835.413693,370.032721 835.681338,368.034614 835.681338,365.912698 L835.681338,340.449841 L849.706044,340.449841 L849.706044,392.436508 L836.537808,392.436508 L836.537808,385.646413 Z M881.93075,394.134032 C878.50485,394.134032 875.453704,393.709655 872.77722,392.860889 C870.100736,392.012123 867.781152,390.898134 865.818397,389.518889 C863.855642,388.139644 862.196247,386.548231 860.840161,384.744603 C859.484076,382.940975 858.449185,381.119692 857.735455,379.280698 L870.261338,373.975937 C871.474677,376.663696 873.098386,378.661803 875.132514,379.970317 C877.166642,381.278832 879.432698,381.933079 881.93075,381.933079 C884.500174,381.933079 886.534272,381.473338 888.033103,380.553841 C889.531934,379.634345 890.281338,378.538038 890.281338,377.264889 C890.281338,375.850279 889.656834,374.700925 888.407808,373.816794 C887.158783,372.932662 884.999785,372.136956 881.93075,371.429651 L874.543691,369.838222 C872.902114,369.48457 871.207033,368.918734 869.458397,368.140698 C867.70976,367.362663 866.121737,366.37245 864.694279,365.170032 C863.266821,363.967613 862.089186,362.517659 861.161338,360.820127 C860.23349,359.122595 859.769573,357.14217 859.769573,354.878794 C859.769573,352.332495 860.322705,350.069153 861.428985,348.088698 C862.535265,346.108244 864.051916,344.42842 865.978985,343.049175 C867.906053,341.66993 870.172109,340.608988 872.77722,339.866317 C875.382331,339.123647 878.183676,338.752317 881.181338,338.752317 C886.177441,338.752317 890.638181,339.724847 894.563691,341.669937 C898.489201,343.615026 901.37976,346.709439 903.235455,350.95327 L891.137808,355.833651 C890.138588,353.782466 888.675465,352.297147 886.748397,351.377651 C884.821328,350.458154 882.894289,349.998413 880.96722,349.998413 C878.968779,349.998413 877.220169,350.405107 875.721338,351.218508 C874.222507,352.031909 873.473103,353.075168 873.473103,354.348317 C873.473103,355.550736 874.097606,356.505584 875.346632,357.212889 C876.595658,357.920194 878.290739,358.556759 880.431926,359.122603 L888.461338,361.032317 C893.814306,362.305467 897.793286,364.338938 900.398397,367.132794 C903.003508,369.926649 904.306044,373.233251 904.306044,377.052698 C904.306044,379.316075 903.770755,381.473323 902.700161,383.524508 C901.629568,385.575693 900.112916,387.396976 898.150161,388.988413 C896.187406,390.579849 893.832136,391.835297 891.084279,392.754794 C888.336422,393.67429 885.285276,394.134032 881.93075,394.134032 Z M963.081338,379.91727 C960.654659,384.161101 957.389398,387.591479 953.285455,390.208508 C949.181513,392.825537 944.167642,394.134032 938.243691,394.134032 C934.246808,394.134032 930.553316,393.44442 927.163103,392.065175 C923.77289,390.68593 920.828801,388.758552 918.33075,386.282984 C915.832698,383.807416 913.887815,380.889826 912.496044,377.530127 C911.104272,374.170428 910.408397,370.474814 910.408397,366.443175 C910.408397,362.694457 911.086429,359.140303 912.442514,355.780603 C913.7986,352.420904 915.689953,349.485632 918.116632,346.974698 C920.543311,344.463765 923.416027,342.465658 926.734867,340.980317 C930.053707,339.494977 933.711514,338.752317 937.708397,338.752317 C941.919398,338.752317 945.666419,339.44193 948.949573,340.821175 C952.232727,342.20042 954.980542,344.110115 957.193103,346.550317 C959.405663,348.99052 961.082901,351.872745 962.224867,355.197079 C963.366834,358.521413 963.937808,362.128615 963.937808,366.018794 L963.937808,367.291937 C963.866436,367.71632 963.83075,368.105332 963.83075,368.458984 C963.759377,368.812637 963.723691,369.201649 963.723691,369.626032 L924.218985,369.626032 C924.504477,371.747947 925.093294,373.56923 925.985455,375.089937 C926.877617,376.610643 927.98388,377.883773 929.304279,378.909365 C930.624678,379.934958 932.069957,380.677617 933.640161,381.137365 C935.210365,381.597113 936.816232,381.826984 938.457808,381.826984 C941.669589,381.826984 944.32819,381.102007 946.433691,379.652032 C948.539191,378.202056 950.198587,376.380773 951.411926,374.188127 L963.081338,379.91727 Z M950.341338,359.759175 C950.269965,358.839678 949.966635,357.814101 949.431338,356.682413 C948.896041,355.550725 948.110951,354.489783 947.076044,353.499556 C946.041137,352.509328 944.756444,351.69594 943.221926,351.059365 C941.687409,350.42279 939.849584,350.104508 937.708397,350.104508 C934.710735,350.104508 932.069977,350.953261 929.786044,352.650794 C927.502111,354.348326 925.896244,356.717763 924.968397,359.759175 L950.341338,359.759175 Z M981.388397,393.073079 C978.818972,393.073079 976.624288,392.171279 974.804279,390.367651 C972.98427,388.564023 972.074279,386.389092 972.074279,383.842794 C972.074279,381.296495 972.98427,379.139247 974.804279,377.370984 C976.624288,375.602721 978.818972,374.718603 981.388397,374.718603 C983.957821,374.718603 986.134662,375.602721 987.918985,377.370984 C989.703308,379.139247 990.595455,381.296495 990.595455,383.842794 C990.595455,386.389092 989.703308,388.564023 987.918985,390.367651 C986.134662,392.171279 983.957821,393.073079 981.388397,393.073079 Z M1023.35546,315.623556 C1025.3539,315.623556 1027.20956,315.800379 1028.92251,316.154032 C1030.63546,316.507684 1032.16996,316.967426 1033.52604,317.53327 L1029.56487,329.946413 C1028.85114,329.59276 1028.08389,329.309842 1027.2631,329.097651 C1026.44231,328.885459 1025.42527,328.779365 1024.21193,328.779365 C1022.14211,328.779365 1020.50056,329.433613 1019.28722,330.742127 C1018.07388,332.050641 1017.46722,333.871925 1017.46722,336.206032 L1017.46722,340.449841 L1030.5284,340.449841 L1030.5284,352.332508 L1017.46722,352.332508 L1017.46722,392.436508 L1003.44251,392.436508 L1003.44251,352.332508 L994.021338,352.332508 L994.021338,340.449841 L1003.44251,340.449841 L1003.44251,335.35727 C1003.44251,332.174397 1003.92427,329.362901 1004.88781,326.922698 C1005.85134,324.482496 1007.22525,322.431342 1009.00957,320.769175 C1010.7939,319.107008 1012.89936,317.833877 1015.32604,316.949746 C1017.75272,316.065615 1020.42917,315.623556 1023.35546,315.623556 Z M1039.94957,340.449841 L1053.11781,340.449841 L1053.11781,347.664317 L1053.97428,347.664317 C1054.61664,346.391168 1055.4731,345.224132 1056.54369,344.163175 C1057.61428,343.102217 1058.80976,342.182734 1060.13016,341.404698 C1061.45056,340.626663 1062.878,340.025462 1064.41251,339.601079 C1065.94703,339.176696 1067.46368,338.964508 1068.96251,338.964508 C1070.81821,338.964508 1072.40623,339.141332 1073.72663,339.494984 C1075.04703,339.848637 1076.17114,340.308378 1077.09898,340.874222 L1073.35193,353.499556 C1072.49545,353.075172 1071.54977,352.739208 1070.51487,352.491651 C1069.47996,352.244094 1068.21311,352.120317 1066.71428,352.120317 C1064.78721,352.120317 1063.0386,352.491647 1061.4684,353.234317 C1059.89819,353.976988 1058.55997,355.020247 1057.45369,356.364127 C1056.34741,357.708007 1055.49095,359.281737 1054.88428,361.085365 C1054.27761,362.888993 1053.97428,364.851735 1053.97428,366.973651 L1053.97428,392.436508 L1039.94957,392.436508 L1039.94957,340.449841 Z" id="https://gdgtoulouse."></path>
            </g>
            <g id="Group-6">
                <g id="logo" transform="translate(0.000000, 65.309524)"></g>
                <g id="Group-4" transform="translate(124.901961, 0.000000)">
                    <g id="Group-5" transform="translate(124.428067, 21.287368)">
                        <g id="path2895" transform="translate(67.613005, 308.308587)">
                            <mask id="mask-3" fill="white">
                                <use xlink:href="#path-2"></use>
                            </mask>
                            <use id="Mask" fill="url(#radialGradient-1)" fill-rule="nonzero" xlink:href="#path-2"></use>
                            <path d="M-238.930045,-68.2192408 C-223.879281,-79.6940287 -199.325477,-104.227997 -192.622534,-145.734027 C-203.632605,-145.721601 -211.923847,-153.804002 -211.923847,-163.771631 C-211.923847,-173.739244 -203.632605,-181.82164 -193.407428,-181.82164 C-183.182249,-181.82164 -174.891004,-173.739244 -174.891004,-163.771631 C-174.891004,-157.901374 -177.80323,-152.652821 -182.252311,-149.356691 C-167.812596,-137.047577 -124.909,-104.806237 -62.1743485,-95.976772 C-71.1825756,-157.149148 -104.267294,-198.987065 -116.897536,-213.065086 C-120.278868,-208.728061 -125.663017,-205.889204 -131.684959,-205.889204 C-141.910163,-205.889204 -150.201366,-213.971602 -150.201366,-223.939216 C-150.201366,-233.906847 -141.910163,-241.989246 -131.684959,-241.989246 C-121.459782,-241.989246 -113.168552,-233.906847 -113.168552,-223.939216 C-70.6035906,-229.708207 -45.4366889,-253.643523 -33.6654094,-268.315187 C-40.2449071,-271.083859 -44.8647567,-277.478579 -44.8647567,-284.908179 C-44.8647567,-294.875787 -36.574548,-302.958186 -26.348332,-302.958186 C-16.0193887,-302.958186 -7.72914381,-294.875787 -7.72914381,-284.908179 C-7.72914381,-277.478579 -12.3480143,-271.083859 -18.9285182,-268.315187 C-7.15721163,-253.643523 18.009672,-229.708207 60.588221,-223.176111 C60.5761702,-233.906847 68.8664151,-241.989246 79.0926251,-241.989246 C89.3188351,-241.989246 97.6090498,-233.906847 97.6090498,-223.939216 C97.6090498,-213.971602 89.3188351,-205.889204 79.0926251,-205.889204 C73.0706468,-205.889204 67.6864886,-208.728061 64.3051777,-213.065086 C51.6759427,-198.987065 18.589136,-157.149148 9.53977948,-95.976627 C72.3155722,-104.807083 115.219132,-137.047435 129.659907,-149.356549 C125.211857,-152.652676 122.29863,-157.901229 122.29863,-163.771492 C122.29863,-173.739105 130.588785,-181.821495 140.814995,-181.821495 C151.041205,-181.821495 159.33142,-173.739105 159.33142,-163.771492 C159.33142,-153.80386 151.041205,-145.721459 140.814995,-145.721459 C146.734059,-104.22786 171.285808,-79.6948749 186.338705,-68.2190988 C189.175801,-74.6328579 195.737837,-79.1363304 203.360406,-79.1363304 C213.584537,-79.1363304 221.876801,-71.0549556 221.876801,-61.0873362 C221.876801,-51.1187197 213.584537,-43.037333 203.360406,-43.037333 C195.737837,-43.037333 189.175801,-47.5397966 186.338705,-53.9545794 C171.285808,-42.4797471 146.734059,-17.9457586 140.031149,23.5602514 C151.041205,23.5484168 159.33142,31.6308685 159.33142,41.5984495 C159.33142,51.5660896 151.041205,59.6484526 140.814995,59.6484526 C130.588785,59.6484526 122.29863,51.5660896 122.29863,41.5984495 C122.29863,35.7281755 125.211857,30.4796603 129.659907,27.1835245 C115.220156,14.8743843 72.3165966,-17.3649177 9.58195737,-26.1954328 C18.589136,34.974106 51.6759427,76.8160699 64.3051777,90.8920527 C67.6864886,86.5550661 73.0706468,83.7161885 79.0926251,83.7161885 C89.3188351,83.7161885 97.6090498,91.7985811 97.6090498,101.766192 C97.6090498,111.733773 89.3188351,119.816195 79.0926251,119.816195 C68.8664151,119.816195 60.5761702,111.733773 60.5761702,101.766192 C18.009672,107.535162 -7.15618731,131.470528 -18.9285182,146.142174 C-12.3490085,148.909837 -7.72914381,155.305537 -7.72914381,162.735134 C-7.72914381,172.702745 -16.0193887,180.785138 -26.2455987,180.785138 C-36.574548,180.785138 -44.8647567,172.702745 -44.8647567,162.735134 C-44.8647567,155.305537 -40.2459224,148.909837 -33.6654094,146.142174 C-45.4366889,131.470528 -70.6046361,107.535162 -113.18211,101.001057 C-113.168552,111.733773 -121.459782,119.816195 -131.684959,119.816195 C-141.910163,119.816195 -150.201366,111.733773 -150.201366,101.766192 C-150.201366,91.7985811 -141.910163,83.7161885 -131.684959,83.7161885 C-125.663017,83.7161885 -120.278868,86.5550661 -116.897536,90.8920527 C-104.267294,76.8160699 -71.1825756,34.974106 -62.1331769,-26.1954328 C-124.907994,-17.3639413 -167.811577,14.8743843 -182.252338,27.1835245 C-177.803254,30.4796603 -174.891031,35.7281755 -174.891031,41.5984495 C-174.891031,51.5660896 -183.182276,59.6484526 -193.407452,59.6484526 C-203.632635,59.6484526 -211.923874,51.5660896 -211.923874,41.5984495 C-211.923874,31.6308685 -203.632635,23.5484168 -193.407452,23.5484168 C-199.325444,-17.945729 -223.879245,-42.4787116 -238.930012,-53.9545202 C-241.769199,-47.5407434 -248.330183,-43.0372443 -255.951746,-43.0372443 C-266.176925,-43.0372443 -274.468171,-51.1186605 -274.468171,-61.087277 C-274.468171,-71.0549053 -266.176925,-79.1362771 -255.951746,-79.1362771 C-248.330216,-79.1364665 -241.769235,-74.6340029 -238.930045,-68.2192408 Z M-176.948393,-6.53533594 C-135.119773,-40.9015179 -69.8648359,-48.6239323 -37.2522834,-50.2755359 C-39.1593988,-18.4431657 -47.1152845,45.0167478 -82.3098258,85.7205215 C-82.3098258,85.7205215 -52.83786,92.1703642 -26.2873849,120.106822 C0.295832274,92.1572278 29.7143074,85.7204032 29.7143074,85.7204032 C-5.48030914,45.0166294 -13.4361737,-18.4432249 -15.1499819,-50.2875184 C17.2691789,-48.6241099 82.5251521,-40.9016955 124.353718,-6.53548388 C124.353718,-6.53548388 130.95998,-35.2239699 159.565778,-61.0896439 C130.971489,-86.884911 124.353959,-115.636567 124.353959,-115.636567 C82.5253329,-81.2703407 17.2693597,-73.547947 -15.3432169,-71.8963731 C-13.435993,-103.726163 -5.48012838,-167.188027 29.7144882,-207.891827 C29.7144882,-207.891827 0.295982909,-214.329669 -26.2328851,-242.200904 C-52.8387638,-214.341519 -82.3097143,-207.891638 -82.3097143,-207.891638 C-47.1161612,-167.187858 -39.1592572,-103.725998 -37.4454401,-71.8837574 C-69.8659024,-73.5478435 -135.119812,-81.2702579 -176.948405,-115.636481 C-176.948405,-115.636481 -183.554661,-86.9479745 -212.161504,-61.0863302 C-183.557716,-35.23684 -176.948393,-6.53533594 -176.948393,-6.53533594 Z" fill="#FFFFFF" fill-rule="nonzero" opacity="0.500283062" mask="url(#mask-3)"></path>
                        </g>
                        <g id="path2895" transform="translate(0.000000, 225.350051)">
                            <mask id="mask-6" fill="white">
                                <use xlink:href="#path-5"></use>
                            </mask>
                            <use id="Mask" fill="url(#radialGradient-4)" fill-rule="nonzero" xlink:href="#path-5"></use>
                            <path d="M-171.31704,14.7392946 C-156.266276,3.26450668 -131.712472,-21.2694612 -125.009528,-62.7754918 C-136.019599,-62.7630655 -144.310842,-70.8454669 -144.310842,-80.8130952 C-144.310842,-90.7807087 -136.019599,-98.8631043 -125.794423,-98.8631043 C-115.569243,-98.8631043 -107.277998,-90.7807087 -107.277998,-80.8130952 C-107.277998,-74.942839 -110.190225,-69.6942854 -114.639305,-66.3981554 C-100.19959,-54.0890419 -57.2959943,-21.8477014 5.43865694,-13.0182366 C-3.56957009,-74.1906127 -36.654289,-116.028529 -49.2845302,-130.106551 C-52.6658623,-125.769525 -58.0500114,-122.930669 -64.0719535,-122.930669 C-74.2971573,-122.930669 -82.5883602,-131.013067 -82.5883602,-140.980681 C-82.5883602,-150.948312 -74.2971573,-159.03071 -64.0719535,-159.03071 C-53.8467769,-159.03071 -45.5555469,-150.948312 -45.5555469,-140.980681 C-2.99058517,-146.749671 22.1763166,-170.684987 33.9475961,-185.356652 C27.3680984,-188.125323 22.7482488,-194.520044 22.7482488,-201.949644 C22.7482488,-211.917252 31.0384575,-219.99965 41.2646735,-219.99965 C51.5936168,-219.99965 59.8838617,-211.917252 59.8838617,-201.949644 C59.8838617,-194.520044 55.2649912,-188.125323 48.6844873,-185.356652 C60.4557938,-170.684987 85.6226775,-146.749671 128.201227,-140.217575 C128.189176,-150.948312 136.479421,-159.03071 146.705631,-159.03071 C156.931841,-159.03071 165.222055,-150.948312 165.222055,-140.980681 C165.222055,-131.013067 156.931841,-122.930669 146.705631,-122.930669 C140.683652,-122.930669 135.299494,-125.769525 131.918183,-130.106551 C119.288948,-116.028529 86.2021415,-74.1906127 77.152785,-13.0180916 C139.928578,-21.8485476 182.832137,-54.0888999 197.272913,-66.3980134 C192.824863,-69.6941404 189.911636,-74.942694 189.911636,-80.8129562 C189.911636,-90.7805697 198.20179,-98.8629593 208.428,-98.8629593 C218.65421,-98.8629593 226.944425,-90.7805697 226.944425,-80.8129562 C226.944425,-70.8453249 218.65421,-62.7629235 208.428,-62.7629235 C214.347065,-21.2693251 238.898814,3.2636605 253.951711,14.7394366 C256.788807,8.32567752 263.350843,3.82220505 270.973412,3.82220505 C281.197543,3.82220505 289.489806,11.9035798 289.489806,21.8711993 C289.489806,31.8398158 281.197543,39.9212024 270.973412,39.9212024 C263.350843,39.9212024 256.788807,35.4187388 253.951711,29.003956 C238.898814,40.4787883 214.347065,65.0127769 207.644154,106.518787 C218.65421,106.506952 226.944425,114.589404 226.944425,124.556985 C226.944425,134.524625 218.65421,142.606988 208.428,142.606988 C198.20179,142.606988 189.911636,134.524625 189.911636,124.556985 C189.911636,118.686711 192.824863,113.438196 197.272913,110.14206 C182.833162,97.8329197 139.929602,65.5936177 77.1949629,56.7631026 C86.2021415,117.932641 119.288948,159.774605 131.918183,173.850588 C135.299494,169.513601 140.683652,166.674724 146.705631,166.674724 C156.931841,166.674724 165.222055,174.757116 165.222055,184.724727 C165.222055,194.692308 156.931841,202.77473 146.705631,202.77473 C136.479421,202.77473 128.189176,194.692308 128.189176,184.724727 C85.6226775,190.493697 60.4568182,214.429063 48.6844873,229.10071 C55.263997,231.868373 59.8838617,238.264072 59.8838617,245.69367 C59.8838617,255.66128 51.5936168,263.743673 41.3674068,263.743673 C31.0384575,263.743673 22.7482488,255.66128 22.7482488,245.69367 C22.7482488,238.264072 27.3670831,231.868373 33.9475961,229.10071 C22.1763166,214.429063 -2.99163058,190.493697 -45.569104,183.959592 C-45.5555469,194.692308 -53.8467769,202.77473 -64.0719535,202.77473 C-74.2971573,202.77473 -82.5883602,194.692308 -82.5883602,184.724727 C-82.5883602,174.757116 -74.2971573,166.674724 -64.0719535,166.674724 C-58.0500114,166.674724 -52.6658623,169.513601 -49.2845302,173.850588 C-36.654289,159.774605 -3.56957009,117.932641 5.47982859,56.7631026 C-57.294988,65.5945941 -100.198572,97.8329197 -114.639332,110.14206 C-110.190249,113.438196 -107.278025,118.686711 -107.278025,124.556985 C-107.278025,134.524625 -115.56927,142.606988 -125.794447,142.606988 C-136.01963,142.606988 -144.310869,134.524625 -144.310869,124.556985 C-144.310869,114.589404 -136.01963,106.506952 -125.794447,106.506952 C-131.712439,65.0128064 -156.26624,40.4798238 -171.317007,29.0040152 C-174.156193,35.417792 -180.717178,39.9212911 -188.33874,39.9212911 C-198.56392,39.9212911 -206.855165,31.8398749 -206.855165,21.8712584 C-206.855165,11.9036301 -198.56392,3.8222583 -188.33874,3.8222583 C-180.717211,3.82206895 -174.156229,8.32453253 -171.31704,14.7392946 Z M-109.335387,76.4231995 C-67.5067672,42.0570175 -2.2518304,34.3346031 30.3607221,32.6829996 C28.4536066,64.5153697 20.4977209,127.975283 -14.6968203,168.679057 C-14.6968203,168.679057 14.7751455,175.1289 41.3256206,203.065358 C67.9088378,175.115763 97.3273129,168.678939 97.3273129,168.678939 C62.1326963,127.975165 54.1768317,64.5153106 52.4630236,32.671017 C84.8821844,34.3344256 150.138158,42.05684 191.966723,76.4230515 C191.966723,76.4230515 198.572986,47.7345655 227.178784,21.8688915 C198.584495,-3.9263756 191.966964,-32.6780317 191.966964,-32.6780317 C150.138338,1.68819471 84.8823652,9.4105884 52.2697886,11.0621623 C54.1770125,-20.7676279 62.1328771,-84.2294911 97.3274937,-124.933291 C97.3274937,-124.933291 67.9089884,-131.371134 41.3801204,-159.242369 C14.7742416,-131.382983 -14.6967088,-124.933102 -14.6967088,-124.933102 C20.4968443,-84.2293225 28.4537482,-20.7674622 30.1675654,11.074778 C-2.2528969,9.41069195 -67.5068063,1.68827755 -109.335399,-32.6779459 C-109.335399,-32.6779459 -115.941656,-3.98943908 -144.548499,21.8722052 C-115.944711,47.7216954 -109.335387,76.4231995 -109.335387,76.4231995 Z" fill="#FFFFFF" fill-rule="nonzero" opacity="0.500283062" mask="url(#mask-6)"></path>
                        </g>
                        <g id="path2895">
                            <mask id="mask-9" fill="white">
                                <use xlink:href="#path-8"></use>
                            </mask>
                            <use id="Mask" fill="url(#radialGradient-7)" fill-rule="nonzero" xlink:href="#path-8"></use>
                            <path d="M-171.31704,240.089346 C-156.266276,228.614558 -131.712472,204.08059 -125.009528,162.57456 C-136.019599,162.586986 -144.310842,154.504585 -144.310842,144.536956 C-144.310842,134.569343 -136.019599,126.486947 -125.794423,126.486947 C-115.569243,126.486947 -107.277998,134.569343 -107.277998,144.536956 C-107.277998,150.407212 -110.190225,155.655766 -114.639305,158.951896 C-100.19959,171.26101 -57.2959943,203.50235 5.43865694,212.331815 C-3.56957009,151.159439 -36.654289,109.321522 -49.2845302,95.2435009 C-52.6658623,99.580526 -58.0500114,102.419383 -64.0719535,102.419383 C-74.2971573,102.419383 -82.5883602,94.3369844 -82.5883602,84.3693709 C-82.5883602,74.4017396 -74.2971573,66.3193411 -64.0719535,66.3193411 C-53.8467769,66.3193411 -45.5555469,74.4017396 -45.5555469,84.3693709 C-2.99058517,78.6003801 22.1763166,54.6650642 33.9475961,39.9933999 C27.3680984,37.224728 22.7482488,30.8300078 22.7482488,23.4004074 C22.7482488,13.4327998 31.0384575,5.3504013 41.2646735,5.3504013 C51.5936168,5.3504013 59.8838617,13.4327998 59.8838617,23.4004074 C59.8838617,30.8300078 55.2649912,37.224728 48.6844873,39.9933999 C60.4557938,54.6650642 85.6226775,78.6003801 128.201227,85.132476 C128.189176,74.4017396 136.479421,66.3193411 146.705631,66.3193411 C156.931841,66.3193411 165.222055,74.4017396 165.222055,84.3693709 C165.222055,94.3369844 156.931841,102.419383 146.705631,102.419383 C140.683652,102.419383 135.299494,99.580526 131.918183,95.2435009 C119.288948,109.321522 86.2021415,151.159439 77.152785,212.33196 C139.928578,203.501504 182.832137,171.261152 197.272913,158.952038 C192.824863,155.655911 189.911636,150.407357 189.911636,144.537095 C189.911636,134.569482 198.20179,126.487092 208.428,126.487092 C218.65421,126.487092 226.944425,134.569482 226.944425,144.537095 C226.944425,154.504727 218.65421,162.587128 208.428,162.587128 C214.347065,204.080726 238.898814,228.613712 253.951711,240.089488 C256.788807,233.675729 263.350843,229.172256 270.973412,229.172256 C281.197543,229.172256 289.489806,237.253631 289.489806,247.221251 C289.489806,257.189867 281.197543,265.271254 270.973412,265.271254 C263.350843,265.271254 256.788807,260.76879 253.951711,254.354007 C238.898814,265.82884 214.347065,290.362828 207.644154,331.868838 C218.65421,331.857004 226.944425,339.939455 226.944425,349.907036 C226.944425,359.874676 218.65421,367.957039 208.428,367.957039 C198.20179,367.957039 189.911636,359.874676 189.911636,349.907036 C189.911636,344.036762 192.824863,338.788247 197.272913,335.492111 C182.833162,323.182971 139.929602,290.943669 77.1949629,282.113154 C86.2021415,343.282693 119.288948,385.124657 131.918183,399.20064 C135.299494,394.863653 140.683652,392.024775 146.705631,392.024775 C156.931841,392.024775 165.222055,400.107168 165.222055,410.074778 C165.222055,420.042359 156.931841,428.124782 146.705631,428.124782 C136.479421,428.124782 128.189176,420.042359 128.189176,410.074778 C85.6226775,415.843749 60.4568182,439.779115 48.6844873,454.450761 C55.263997,457.218424 59.8838617,463.614124 59.8838617,471.043721 C59.8838617,481.011332 51.5936168,489.093724 41.3674068,489.093724 C31.0384575,489.093724 22.7482488,481.011332 22.7482488,471.043721 C22.7482488,463.614124 27.3670831,457.218424 33.9475961,454.450761 C22.1763166,439.779115 -2.99163058,415.843749 -45.569104,409.309644 C-45.5555469,420.042359 -53.8467769,428.124782 -64.0719535,428.124782 C-74.2971573,428.124782 -82.5883602,420.042359 -82.5883602,410.074778 C-82.5883602,400.107168 -74.2971573,392.024775 -64.0719535,392.024775 C-58.0500114,392.024775 -52.6658623,394.863653 -49.2845302,399.20064 C-36.654289,385.124657 -3.56957009,343.282693 5.47982859,282.113154 C-57.294988,290.944646 -100.198572,323.182971 -114.639332,335.492111 C-110.190249,338.788247 -107.278025,344.036762 -107.278025,349.907036 C-107.278025,359.874676 -115.56927,367.957039 -125.794447,367.957039 C-136.01963,367.957039 -144.310869,359.874676 -144.310869,349.907036 C-144.310869,339.939455 -136.01963,331.857004 -125.794447,331.857004 C-131.712439,290.362858 -156.26624,265.829875 -171.317007,254.354067 C-174.156193,260.767843 -180.717178,265.271343 -188.33874,265.271343 C-198.56392,265.271343 -206.855165,257.189926 -206.855165,247.22131 C-206.855165,237.253682 -198.56392,229.17231 -188.33874,229.17231 C-180.717211,229.17212 -174.156229,233.674584 -171.31704,240.089346 Z M-109.335387,301.773251 C-67.5067672,267.407069 -2.2518304,259.684655 30.3607221,258.033051 C28.4536066,289.865421 20.4977209,353.325335 -14.6968203,394.029108 C-14.6968203,394.029108 14.7751455,400.478951 41.3256206,428.415409 C67.9088378,400.465815 97.3273129,394.02899 97.3273129,394.02899 C62.1326963,353.325216 54.1768317,289.865362 52.4630236,258.021068 C84.8821844,259.684477 150.138158,267.406891 191.966723,301.773103 C191.966723,301.773103 198.572986,273.084617 227.178784,247.218943 C198.584495,221.423676 191.966964,192.67202 191.966964,192.67202 C150.138338,227.038246 84.8823652,234.76064 52.2697886,236.412214 C54.1770125,204.582424 62.1328771,141.12056 97.3274937,100.41676 C97.3274937,100.41676 67.9089884,93.9789175 41.3801204,66.1076827 C14.7742416,93.9670682 -14.6967088,100.416949 -14.6967088,100.416949 C20.4968443,141.120729 28.4537482,204.582589 30.1675654,236.424829 C-2.2528969,234.760743 -67.5068063,227.038329 -109.335399,192.672106 C-109.335399,192.672106 -115.941656,221.360612 -144.548499,247.222257 C-115.944711,273.071747 -109.335387,301.773251 -109.335387,301.773251 Z" fill="#FFFFFF" fill-rule="nonzero" opacity="0.500283062" mask="url(#mask-9)"></path>
                        </g>
                        <g id="path2895" transform="translate(67.613005, 0.000000)">
                            <mask id="mask-12" fill="white">
                                <use xlink:href="#path-11"></use>
                            </mask>
                            <use id="Mask" fill="url(#radialGradient-10)" fill-rule="nonzero" xlink:href="#path-11"></use>
                            <path d="M-238.930045,240.089346 C-223.879281,228.614558 -199.325477,204.08059 -192.622534,162.57456 C-203.632605,162.586986 -211.923847,154.504585 -211.923847,144.536956 C-211.923847,134.569343 -203.632605,126.486947 -193.407428,126.486947 C-183.182249,126.486947 -174.891004,134.569343 -174.891004,144.536956 C-174.891004,150.407212 -177.80323,155.655766 -182.252311,158.951896 C-167.812596,171.26101 -124.909,203.50235 -62.1743485,212.331815 C-71.1825756,151.159439 -104.267294,109.321522 -116.897536,95.2435009 C-120.278868,99.580526 -125.663017,102.419383 -131.684959,102.419383 C-141.910163,102.419383 -150.201366,94.3369844 -150.201366,84.3693709 C-150.201366,74.4017396 -141.910163,66.3193411 -131.684959,66.3193411 C-121.459782,66.3193411 -113.168552,74.4017396 -113.168552,84.3693709 C-70.6035906,78.6003801 -45.4366889,54.6650642 -33.6654094,39.9933999 C-40.2449071,37.224728 -44.8647567,30.8300078 -44.8647567,23.4004074 C-44.8647567,13.4327998 -36.574548,5.3504013 -26.348332,5.3504013 C-16.0193887,5.3504013 -7.72914381,13.4327998 -7.72914381,23.4004074 C-7.72914381,30.8300078 -12.3480143,37.224728 -18.9285182,39.9933999 C-7.15721163,54.6650642 18.009672,78.6003801 60.588221,85.132476 C60.5761702,74.4017396 68.8664151,66.3193411 79.0926251,66.3193411 C89.3188351,66.3193411 97.6090498,74.4017396 97.6090498,84.3693709 C97.6090498,94.3369844 89.3188351,102.419383 79.0926251,102.419383 C73.0706468,102.419383 67.6864886,99.580526 64.3051777,95.2435009 C51.6759427,109.321522 18.589136,151.159439 9.53977948,212.33196 C72.3155722,203.501504 115.219132,171.261152 129.659907,158.952038 C125.211857,155.655911 122.29863,150.407357 122.29863,144.537095 C122.29863,134.569482 130.588785,126.487092 140.814995,126.487092 C151.041205,126.487092 159.33142,134.569482 159.33142,144.537095 C159.33142,154.504727 151.041205,162.587128 140.814995,162.587128 C146.734059,204.080726 171.285808,228.613712 186.338705,240.089488 C189.175801,233.675729 195.737837,229.172256 203.360406,229.172256 C213.584537,229.172256 221.876801,237.253631 221.876801,247.221251 C221.876801,257.189867 213.584537,265.271254 203.360406,265.271254 C195.737837,265.271254 189.175801,260.76879 186.338705,254.354007 C171.285808,265.82884 146.734059,290.362828 140.031149,331.868838 C151.041205,331.857004 159.33142,339.939455 159.33142,349.907036 C159.33142,359.874676 151.041205,367.957039 140.814995,367.957039 C130.588785,367.957039 122.29863,359.874676 122.29863,349.907036 C122.29863,344.036762 125.211857,338.788247 129.659907,335.492111 C115.220156,323.182971 72.3165966,290.943669 9.58195737,282.113154 C18.589136,343.282693 51.6759427,385.124657 64.3051777,399.20064 C67.6864886,394.863653 73.0706468,392.024775 79.0926251,392.024775 C89.3188351,392.024775 97.6090498,400.107168 97.6090498,410.074778 C97.6090498,420.042359 89.3188351,428.124782 79.0926251,428.124782 C68.8664151,428.124782 60.5761702,420.042359 60.5761702,410.074778 C18.009672,415.843749 -7.15618731,439.779115 -18.9285182,454.450761 C-12.3490085,457.218424 -7.72914381,463.614124 -7.72914381,471.043721 C-7.72914381,481.011332 -16.0193887,489.093724 -26.2455987,489.093724 C-36.574548,489.093724 -44.8647567,481.011332 -44.8647567,471.043721 C-44.8647567,463.614124 -40.2459224,457.218424 -33.6654094,454.450761 C-45.4366889,439.779115 -70.6046361,415.843749 -113.18211,409.309644 C-113.168552,420.042359 -121.459782,428.124782 -131.684959,428.124782 C-141.910163,428.124782 -150.201366,420.042359 -150.201366,410.074778 C-150.201366,400.107168 -141.910163,392.024775 -131.684959,392.024775 C-125.663017,392.024775 -120.278868,394.863653 -116.897536,399.20064 C-104.267294,385.124657 -71.1825756,343.282693 -62.1331769,282.113154 C-124.907994,290.944646 -167.811577,323.182971 -182.252338,335.492111 C-177.803254,338.788247 -174.891031,344.036762 -174.891031,349.907036 C-174.891031,359.874676 -183.182276,367.957039 -193.407452,367.957039 C-203.632635,367.957039 -211.923874,359.874676 -211.923874,349.907036 C-211.923874,339.939455 -203.632635,331.857004 -193.407452,331.857004 C-199.325444,290.362858 -223.879245,265.829875 -238.930012,254.354067 C-241.769199,260.767843 -248.330183,265.271343 -255.951746,265.271343 C-266.176925,265.271343 -274.468171,257.189926 -274.468171,247.22131 C-274.468171,237.253682 -266.176925,229.17231 -255.951746,229.17231 C-248.330216,229.17212 -241.769235,233.674584 -238.930045,240.089346 Z M-176.948393,301.773251 C-135.119773,267.407069 -69.8648359,259.684655 -37.2522834,258.033051 C-39.1593988,289.865421 -47.1152845,353.325335 -82.3098258,394.029108 C-82.3098258,394.029108 -52.83786,400.478951 -26.2873849,428.415409 C0.295832274,400.465815 29.7143074,394.02899 29.7143074,394.02899 C-5.48030914,353.325216 -13.4361737,289.865362 -15.1499819,258.021068 C17.2691789,259.684477 82.5251521,267.406891 124.353718,301.773103 C124.353718,301.773103 130.95998,273.084617 159.565778,247.218943 C130.971489,221.423676 124.353959,192.67202 124.353959,192.67202 C82.5253329,227.038246 17.2693597,234.76064 -15.3432169,236.412214 C-13.435993,204.582424 -5.48012838,141.12056 29.7144882,100.41676 C29.7144882,100.41676 0.295982909,93.9789175 -26.2328851,66.1076827 C-52.8387638,93.9670682 -82.3097143,100.416949 -82.3097143,100.416949 C-47.1161612,141.120729 -39.1592572,204.582589 -37.4454401,236.424829 C-69.8659024,234.760743 -135.119812,227.038329 -176.948405,192.672106 C-176.948405,192.672106 -183.554661,221.360612 -212.161504,247.222257 C-183.557716,273.071747 -176.948393,301.773251 -176.948393,301.773251 Z" fill="#FFFFFF" fill-rule="nonzero" opacity="0.500283062" mask="url(#mask-12)"></path>
                        </g>
                    </g>
                </g>
            </g>
        </g>
    </g>
</svg>