<?xml version="1.0" encoding="utf-8"?>
<!-- Generator: Adobe Illustrator 23.0.3, SVG Export Plug-In . SVG Version: 6.00 Build 0)  -->
<svg version="1.1" id="Layer_1" xmlns="http://www.w3.org/2000/svg" xmlns:xlink="http://www.w3.org/1999/xlink" x="0px" y="0px"
	 viewBox="0 0 1024 768" style="enable-background:new 0 0 1024 768;" xml:space="preserve">
<style type="text/css">
	.st0{fill:#767171;}
	.st1{fill:#4486F6;}
	.st2{fill:none;stroke:#4486F6;stroke-miterlimit:10;}
	.st3{fill:none;stroke:#767171;stroke-width:0.5;stroke-miterlimit:10;}
</style>
<g>
	<g>
		<path class="st0" d="M23.8,438.79c1.67,0.53,3.24,1.04,4.9,1.56c10.77-31.65,21.44-63.05,32.12-94.44
			c0.21,0.01,0.43,0.02,0.64,0.03c10.98,31.45,21.96,62.89,32.98,94.44c1.75-0.58,3.27-1.08,4.89-1.62
			c-12.77-36.6-25.47-72.98-38.27-109.65C48.58,365.85,36.22,402.23,23.8,438.79"/>
		<path class="st1" d="M78.87,333.28c12.06,35.86,24.02,71.39,36.02,107.05c1.63-0.55,3.09-1.05,4.58-1.55
			c-12.04-35.79-24-71.33-36.01-107.02C81.86,332.29,80.45,332.76,78.87,333.28"/>
		<path class="st2" d="M78.87,333.28c12.06,35.86,24.02,71.39,36.02,107.05c1.63-0.55,3.09-1.05,4.58-1.55
			c-12.04-35.79-24-71.33-36.01-107.02C81.86,332.29,80.45,332.76,78.87,333.28z"/>
		<rect x="133.94" y="358.79" class="st0" width="9.65" height="10.04"/>
		<rect x="133.91" y="414.7" class="st0" width="9.65" height="10.1"/>
	</g>
	<g>
		<path class="st1" d="M240.19,386c-6.39-3.11-13.12-5.12-20-6.74c-6.24-1.47-12.34-3.27-18-6.43c-11.2-6.24-11.54-23.68-3.92-31.32
			c4.8-4.81,10.71-6.64,17.28-7.31c12.99-1.32,23.26,4.42,28.62,16.31c0.61,1.36,1.18,2.74,1.8,4.21c2.09-0.84,4.01-1.61,5.92-2.37
			c-3.05-9.54-10.2-17.68-18.63-21.28c-6.97-2.98-14.25-3.2-21.6-2.19c-12.71,1.74-23.83,10.78-24.88,23.84
			c-0.89,11.07,2.24,20.17,12.51,25.48c4.99,2.58,10.44,4.35,15.79,6.16c6.42,2.16,13.07,3.66,19.42,5.99
			c8.98,3.29,13.41,10.14,13.56,19.65c0.14,8.98-3.27,16.61-12.52,20.9c-5.59,2.59-11.55,3.1-17.6,3.01
			c-12.84-0.2-23.51-7.69-28.01-19.65c-0.41-1.08-0.78-2.17-1.2-3.35c-2.14,0.88-4.08,1.68-6.14,2.52
			c3.72,11.38,10.93,19.43,20.98,23.42c8.5,3.38,17.31,3.48,26.13,1.85c13.47-2.49,25.48-11.79,24.89-29.59
			C254.26,398.47,249.88,390.72,240.19,386"/>
		<path class="st2" d="M240.19,386c-6.39-3.11-13.12-5.12-20-6.74c-6.24-1.47-12.34-3.27-18-6.43c-11.2-6.24-11.54-23.68-3.92-31.32
			c4.8-4.81,10.71-6.64,17.28-7.31c12.99-1.32,23.26,4.42,28.62,16.31c0.61,1.36,1.18,2.74,1.8,4.21c2.09-0.84,4.01-1.61,5.92-2.37
			c-3.05-9.54-10.2-17.68-18.63-21.28c-6.97-2.98-14.25-3.2-21.6-2.19c-12.71,1.74-23.83,10.78-24.88,23.84
			c-0.89,11.07,2.24,20.17,12.51,25.48c4.99,2.58,10.44,4.35,15.79,6.16c6.42,2.16,13.07,3.66,19.42,5.99
			c8.98,3.29,13.41,10.14,13.56,19.65c0.14,8.98-3.27,16.61-12.52,20.9c-5.59,2.59-11.55,3.1-17.6,3.01
			c-12.84-0.2-23.51-7.69-28.01-19.65c-0.41-1.08-0.78-2.17-1.2-3.35c-2.14,0.88-4.08,1.68-6.14,2.52
			c3.72,11.38,10.93,19.43,20.98,23.42c8.5,3.38,17.31,3.48,26.13,1.85c13.47-2.49,25.48-11.79,24.89-29.59
			C254.26,398.47,249.88,390.72,240.19,386z"/>
		<path class="st1" d="M1000.02,407.82c-0.5-10.33-5.24-17.79-14.67-21.85c-5.78-2.49-11.82-4.49-17.88-6.21
			c-6.72-1.91-13.52-3.44-19.73-6.88c-11.32-6.28-11.61-23.84-3.9-31.44c4.78-4.72,10.62-6.56,17.12-7.21
			c13.16-1.32,23.34,4.4,28.74,16.41c0.59,1.31,1.13,2.65,1.74,4.09c2.04-0.8,3.98-1.57,6.05-2.38c-3.55-8.97-8.65-16.37-17.4-20.65
			c-7.34-3.6-15.16-3.9-23.05-2.78c-13.04,1.85-23.73,11.14-24.75,23.74c-0.9,11.04,2.22,20.23,12.43,25.52
			c4.99,2.59,10.43,4.38,15.78,6.18c6.42,2.16,13.07,3.66,19.43,5.98c8.88,3.25,13.38,9.94,13.62,19.4
			c0.24,9.21-3.33,16.9-12.43,21.14c-5.59,2.61-11.54,3.12-17.6,3.04c-12.9-0.17-23.7-7.74-28.14-19.76
			c-0.38-1.04-0.73-2.08-1.12-3.24c-2.09,0.85-4.04,1.64-6.21,2.53c3.79,10.86,10.22,19.06,20.96,23.38
			c8.1,3.26,16.5,3.34,24.96,2.11c5.63-0.82,10.85-2.8,15.45-6.24C997.77,426.48,1000.51,417.91,1000.02,407.82"/>
		<path class="st2" d="M1000.02,407.82c-0.5-10.33-5.24-17.79-14.67-21.85c-5.78-2.49-11.82-4.49-17.88-6.21
			c-6.72-1.91-13.52-3.44-19.73-6.88c-11.32-6.28-11.61-23.84-3.9-31.44c4.78-4.72,10.62-6.56,17.12-7.21
			c13.16-1.32,23.34,4.4,28.74,16.41c0.59,1.31,1.13,2.65,1.74,4.09c2.04-0.8,3.98-1.57,6.05-2.38c-3.55-8.97-8.65-16.37-17.4-20.65
			c-7.34-3.6-15.16-3.9-23.05-2.78c-13.04,1.85-23.73,11.14-24.75,23.74c-0.9,11.04,2.22,20.23,12.43,25.52
			c4.99,2.59,10.43,4.38,15.78,6.18c6.42,2.16,13.07,3.66,19.43,5.98c8.88,3.25,13.38,9.94,13.62,19.4
			c0.24,9.21-3.33,16.9-12.43,21.14c-5.59,2.61-11.54,3.12-17.6,3.04c-12.9-0.17-23.7-7.74-28.14-19.76
			c-0.38-1.04-0.73-2.08-1.12-3.24c-2.09,0.85-4.04,1.64-6.21,2.53c3.79,10.86,10.22,19.06,20.96,23.38
			c8.1,3.26,16.5,3.34,24.96,2.11c5.63-0.82,10.85-2.8,15.45-6.24C997.77,426.48,1000.51,417.91,1000.02,407.82z"/>
		<path class="st1" d="M611.93,330.44c-2.51,0-4.54,0.09-6.56-0.03c-1.33-0.08-2.2,0.42-3.07,1.35
			c-16.84,17.91-33.7,35.81-50.6,53.68c-1.92,2.03-4.1,3.8-6.22,5.74v-60.61h-5.87v106.89h5.9v-2.52c0-9.59,0.25-19.19-0.1-28.77
			c-0.18-4.89,0.59-8.95,4.78-11.86c0.16-0.11,0.25-0.3,0.39-0.45c5.1-5.26,10.2-10.52,15.44-15.93c1.24,1.69,2.41,3.26,3.56,4.85
			c12.85,17.79,25.68,35.58,38.56,53.35c0.45,0.62,1.21,1.35,1.88,1.41c2.15,0.18,4.33,0.07,6.94,0.07
			c-15.83-21.48-31.38-42.58-46.99-63.77C583.91,359.42,597.76,345.1,611.93,330.44"/>
		<path class="st2" d="M611.93,330.44c-2.51,0-4.54,0.09-6.56-0.03c-1.33-0.08-2.2,0.42-3.07,1.35
			c-16.84,17.91-33.7,35.81-50.6,53.68c-1.92,2.03-4.1,3.8-6.22,5.74v-60.61h-5.87v106.89h5.9v-2.52c0-9.59,0.25-19.19-0.1-28.77
			c-0.18-4.89,0.59-8.95,4.78-11.86c0.16-0.11,0.25-0.3,0.39-0.45c5.1-5.26,10.2-10.52,15.44-15.93c1.24,1.69,2.41,3.26,3.56,4.85
			c12.85,17.79,25.68,35.58,38.56,53.35c0.45,0.62,1.21,1.35,1.88,1.41c2.15,0.18,4.33,0.07,6.94,0.07
			c-15.83-21.48-31.38-42.58-46.99-63.77C583.91,359.42,597.76,345.1,611.93,330.44z"/>
		<path class="st1" d="M511.7,412.28c-7.01,20.66-30.77,28.56-48.32,15.97c-7.89-5.66-12.52-13.63-15.26-22.78
			c-3.16-10.56-3.48-21.36-2.25-32.2c1.1-9.65,4.19-18.59,10.1-26.5c11.09-14.87,30.46-15.24,41.79-8.64
			c7.13,4.15,11.01,10.81,13.55,18.4c0.28,0.84,0.59,1.67,0.92,2.59c2.12-0.78,4.01-1.48,6.04-2.23c-0.53-1.44-0.96-2.68-1.45-3.9
			c-8.35-20.59-26.38-28.11-45.66-23.21c-12.5,3.17-20.55,11.98-26.17,23.17c-3.97,7.91-5.65,16.45-6.15,25.22
			c-0.71,12.48,0.39,24.74,5.83,36.19c9.95,20.93,27.21,28.93,48.14,23.93c14.32-3.42,21.73-13.98,26.3-27.3
			c-2.05-0.96-3.95-1.85-6.07-2.85C512.55,409.65,512.14,410.97,511.7,412.28"/>
		<path class="st2" d="M511.7,412.28c-7.01,20.66-30.77,28.56-48.32,15.97c-7.89-5.66-12.52-13.63-15.26-22.78
			c-3.16-10.56-3.48-21.36-2.25-32.2c1.1-9.65,4.19-18.59,10.1-26.5c11.09-14.87,30.46-15.24,41.79-8.64
			c7.13,4.15,11.01,10.81,13.55,18.4c0.28,0.84,0.59,1.67,0.92,2.59c2.12-0.78,4.01-1.48,6.04-2.23c-0.53-1.44-0.96-2.68-1.45-3.9
			c-8.35-20.59-26.38-28.11-45.66-23.21c-12.5,3.17-20.55,11.98-26.17,23.17c-3.97,7.91-5.65,16.45-6.15,25.22
			c-0.71,12.48,0.39,24.74,5.83,36.19c9.95,20.93,27.21,28.93,48.14,23.93c14.32-3.42,21.73-13.98,26.3-27.3
			c-2.05-0.96-3.95-1.85-6.07-2.85C512.55,409.65,512.14,410.97,511.7,412.28z"/>
		<path class="st0" d="M753.02,438c1.72,0.55,3.25,1.04,4.9,1.56c10.75-31.59,21.43-63.01,32.11-94.42
			c0.21-0.01,0.42-0.02,0.63-0.03c10.99,31.48,21.99,62.97,33,94.48c1.77-0.59,3.25-1.08,4.88-1.63
			c-12.77-36.59-25.48-73.02-38.27-109.65C777.81,365.03,765.44,401.45,753.02,438"/>
		<path class="st3" d="M753.02,438c1.72,0.55,3.25,1.04,4.9,1.56c10.75-31.59,21.43-63.01,32.11-94.42
			c0.21-0.01,0.42-0.02,0.63-0.03c10.99,31.48,21.99,62.97,33,94.48c1.77-0.59,3.25-1.08,4.88-1.63
			c-12.77-36.59-25.48-73.02-38.27-109.65C777.81,365.03,765.44,401.45,753.02,438z"/>
		<path class="st0" d="M350.51,438.78c1.65,0.54,3.19,1.04,4.89,1.59c10.74-31.58,21.44-63.02,32.13-94.47
			c0.21,0.02,0.43,0.03,0.64,0.05c10.98,31.45,21.96,62.9,32.97,94.43c1.72-0.56,3.2-1.05,4.89-1.61
			c-12.79-36.64-25.48-73.02-38.27-109.66C375.29,365.82,362.93,402.22,350.51,438.78"/>
		<path class="st3" d="M350.51,438.78c1.65,0.54,3.19,1.04,4.89,1.59c10.74-31.58,21.44-63.02,32.13-94.47
			c0.21,0.02,0.43,0.03,0.64,0.05c10.98,31.45,21.96,62.9,32.97,94.43c1.72-0.56,3.2-1.05,4.89-1.61
			c-12.79-36.64-25.48-73.02-38.27-109.66C375.29,365.82,362.93,402.22,350.51,438.78z"/>
		<polygon class="st1" points="265.54,335.67 300.99,335.67 300.99,437.45 307.01,437.45 307.01,335.59 342.43,335.59 
			342.43,330.55 265.54,330.55 		"/>
		<polygon class="st2" points="265.54,335.67 300.99,335.67 300.99,437.45 307.01,437.45 307.01,335.59 342.43,335.59 
			342.43,330.55 265.54,330.55 		"/>
		<polygon class="st1" points="683.2,330.58 677.37,330.58 677.37,437.5 739.39,437.5 739.39,432.46 683.2,432.46 		"/>
		<polygon class="st2" points="683.2,330.58 677.37,330.58 677.37,437.5 739.39,437.5 739.39,432.46 683.2,432.46 		"/>
		<path class="st1" d="M899.62,385.47c-4.57-2.47-9.54-3.65-14.68-4.71c1.12-0.25,2.24-0.48,3.35-0.74
			c7.34-1.74,13.84-4.86,18.07-11.48c3.38-5.29,3.8-11.17,2.98-17.19c-1.12-8.31-5.4-14.33-13.26-17.58
			c-5.57-2.3-11.43-3.25-17.41-3.3c-11.57-0.09-23.15-0.03-34.72-0.02c-0.5,0-1,0.09-1.44,0.13V437.6c11.73,0,23.3,0.06,34.87-0.04
			c3.49-0.03,7.02-0.22,10.44-0.84c13.17-2.39,23.48-10.05,24.99-24.91C913.91,400.95,910.61,391.4,899.62,385.47 M848.51,335.58
			c0.81,0,1.52,0,2.23,0c8.73,0.04,17.47-0.16,26.18,0.21c4.77,0.2,9.58,0.99,14.22,2.14c6.66,1.65,10.41,6.27,11.77,13
			c2,9.93-1.75,18.54-10.54,23c-2.96,1.5-6.23,2.62-9.49,3.27c-3.86,0.77-7.85,1.08-11.8,1.18c-7.46,0.17-14.93,0.05-22.58,0.05
			V335.58z M889.43,430.79c-4.27,1.01-8.74,1.44-13.14,1.54c-9.18,0.23-18.38,0.07-27.73,0.07v-48.88
			c12.42,0.55,24.77-1.03,36.92,1.67c5.91,1.31,11.31,3.76,15.47,8.3C912.56,406.15,906.22,426.81,889.43,430.79"/>
		<path class="st2" d="M899.62,385.47c-4.57-2.47-9.54-3.65-14.68-4.71c1.12-0.25,2.24-0.48,3.35-0.74
			c7.34-1.74,13.84-4.86,18.07-11.48c3.38-5.29,3.8-11.17,2.98-17.19c-1.12-8.31-5.4-14.33-13.26-17.58
			c-5.57-2.3-11.43-3.25-17.41-3.3c-11.57-0.09-23.15-0.03-34.72-0.02c-0.5,0-1,0.09-1.44,0.13V437.6c11.73,0,23.3,0.06,34.87-0.04
			c3.49-0.03,7.02-0.22,10.44-0.84c13.17-2.39,23.48-10.05,24.99-24.91C913.91,400.95,910.61,391.4,899.62,385.47z M848.51,335.58
			c0.81,0,1.52,0,2.23,0c8.73,0.04,17.47-0.16,26.18,0.21c4.77,0.2,9.58,0.99,14.22,2.14c6.66,1.65,10.41,6.27,11.77,13
			c2,9.93-1.75,18.54-10.54,23c-2.96,1.5-6.23,2.62-9.49,3.27c-3.86,0.77-7.85,1.08-11.8,1.18c-7.46,0.17-14.93,0.05-22.58,0.05
			V335.58z M889.43,430.79c-4.27,1.01-8.74,1.44-13.14,1.54c-9.18,0.23-18.38,0.07-27.73,0.07v-48.88
			c12.42,0.55,24.77-1.03,36.92,1.67c5.91,1.31,11.31,3.76,15.47,8.3C912.56,406.15,906.22,426.81,889.43,430.79z"/>
	</g>
</g>
</svg>
