<svg height="500" width="1979" xmlns="http://www.w3.org/2000/svg" xmlns:xlink="http://www.w3.org/1999/xlink"><defs><path id="a" d="m108.124.445-107.95 177.233h53.303c13.196 0 29.593-9.136 36.401-20.35l43.28-73.412c5.544-11.313 7.813-28.985 1.48-39.412l-26.515-44.06z"/><path id="b" d="m122.874.229c6.755 11.205 9.196 29.549 2.441 40.795l-123.082 205.053c-4.751 10.134.19 18.168 12.402 18.168h48.743l109.59-181.385-50.094-82.63z"/><path id="c" d="m14.752.834c-13.255 0-18.518 9.202-11.707 20.413l200.292 329.995c6.336 10.466 6.527 25.736.98 37.092l46.534-75.765-189.397-311.735z"/><path id="d" d="m212.72 224.402-122.99-203.147c-6.8-11.218-23.17-20.42-36.341-20.42h-53.186l186.537 308.165 25.984-43.745c6.805-11.264 6.805-29.636-.003-40.854z"/><mask id="e" fill="#fff"><use fill="none" xlink:href="#a"/></mask><mask id="f" fill="#fff"><use fill="none" xlink:href="#b"/></mask><mask id="g" fill="#fff"><use fill="none" xlink:href="#c"/></mask><mask id="h" fill="#fff"><use fill="none" xlink:href="#d"/></mask></defs><g fill="none" fill-rule="evenodd"><path d="m500.84 296.232v153.86h-22.54v-153.86h-49v-21.56h120.54v21.56zm61.74 93.835c0-18.457 5.797-33.728 17.394-45.815 11.76-12.087 26.542-18.13 44.345-18.13 17.804 0 32.503 6.043 44.1 18.13 11.76 12.087 17.64 27.358 17.64 45.815 0 18.62-5.88 33.892-17.64 45.815-11.597 12.087-26.296 18.13-44.1 18.13-17.803 0-32.585-6.043-44.345-18.13-11.597-12.087-17.395-27.358-17.395-45.815zm22.54 0c0 12.903 3.756 23.357 11.27 31.36 7.513 8.003 16.822 12.005 27.93 12.005 11.106 0 20.416-4.002 27.93-12.005 7.513-8.003 11.27-18.457 11.27-31.36 0-12.74-3.757-23.112-11.27-31.115-7.678-8.167-16.987-12.25-27.93-12.25-10.944 0-20.254 4.083-27.93 12.25-7.514 8.003-11.27 18.375-11.27 31.115zm226.87 60.025h-21.56v-16.66h-.98c-3.43 5.88-8.698 10.78-15.803 14.7s-14.496 5.88-22.173 5.88c-14.7 0-26.01-4.206-33.932-12.618-7.922-8.411-11.883-20.375-11.883-35.892v-75.46h22.54v73.99c.49 19.6 10.372 29.4 29.645 29.4 8.984 0 16.497-3.634 22.54-10.903 6.044-7.268 9.065-15.965 9.065-26.092v-66.395h22.54v120.05zm49.98-175.42v175.42h-22.54v-175.42zm20.58 115.395c0-18.457 5.797-33.728 17.394-45.815 11.76-12.087 26.542-18.13 44.345-18.13 17.804 0 32.503 6.043 44.1 18.13 11.76 12.087 17.64 27.358 17.64 45.815 0 18.62-5.88 33.892-17.64 45.815-11.597 12.087-26.296 18.13-44.1 18.13-17.803 0-32.585-6.043-44.345-18.13-11.597-12.087-17.395-27.358-17.395-45.815zm22.54 0c0 12.903 3.756 23.357 11.27 31.36 7.513 8.003 16.822 12.005 27.93 12.005 11.106 0 20.416-4.002 27.93-12.005 7.513-8.003 11.27-18.457 11.27-31.36 0-12.74-3.757-23.112-11.27-31.115-7.678-8.167-16.987-12.25-27.93-12.25-10.944 0-20.254 4.083-27.93 12.25-7.514 8.003-11.27 18.375-11.27 31.115zm226.87 60.025h-21.56v-16.66h-.98c-3.43 5.88-8.698 10.78-15.803 14.7s-14.496 5.88-22.173 5.88c-14.7 0-26.01-4.206-33.932-12.618-7.922-8.411-11.883-20.375-11.883-35.892v-75.46h22.54v73.99c.49 19.6 10.372 29.4 29.645 29.4 8.984 0 16.497-3.634 22.54-10.903 6.044-7.268 9.065-15.965 9.065-26.092v-66.395h22.54v120.05zm119.314-33.32c0 10.453-4.573 19.273-13.72 26.46s-20.661 10.78-34.545 10.78c-12.087 0-22.703-3.144-31.85-9.433-9.147-6.288-15.68-14.577-19.6-24.867l20.09-8.575c2.94 7.187 7.228 12.78 12.863 16.782s11.8 6.003 18.497 6.003c7.187 0 13.19-1.552 18.008-4.655s7.227-6.778 7.227-11.025c0-7.677-5.88-13.312-17.64-16.905l-20.58-5.145c-23.357-5.88-35.035-17.15-35.035-33.81 0-10.943 4.451-19.722 13.353-26.338 8.901-6.615 20.294-9.922 34.177-9.922 10.617 0 20.213 2.532 28.788 7.595s14.577 11.842 18.007 20.335l-20.09 8.33c-2.287-5.063-6.002-9.024-11.147-11.883-5.145-2.858-10.903-4.287-17.273-4.287-5.88 0-11.147 1.47-15.802 4.41s-6.983 6.533-6.983 10.78c0 6.86 6.452 11.76 19.355 14.7l18.13 4.655c23.847 5.88 35.77 17.885 35.77 36.015zm73.5 37.24c-17.64 0-32.176-6.043-43.61-18.13-11.433-12.087-17.15-27.358-17.15-45.815 0-18.293 5.553-33.524 16.66-45.693 11.107-12.168 25.317-18.252 42.63-18.252 17.804 0 31.973 5.757 42.508 17.272 10.535 11.516 15.802 27.645 15.802 48.388l-.245 2.45h-94.325c.327 11.76 4.247 21.233 11.76 28.42 7.514 7.187 16.497 10.78 26.95 10.78 14.374 0 25.643-7.187 33.81-21.56l20.09 9.8c-5.39 10.127-12.862 18.048-22.417 23.765s-20.376 8.575-32.463 8.575zm-36.015-78.4h68.845c-.653-8.33-4.042-15.23-10.167-20.703-6.125-5.471-14.333-8.207-24.623-8.207-8.493 0-15.802 2.613-21.927 7.84s-10.168 12.25-12.128 21.07zm270.235 52.92v21.56h-106.82v-22.54l43.365-43.855c14.537-14.863 24.582-26.01 30.135-33.443 5.554-7.431 8.33-15.23 8.33-23.397 0-7.35-2.858-13.638-8.575-18.865s-13.066-7.84-22.05-7.84c-7.677 0-14.291 2.287-19.845 6.86-5.553 4.573-9.146 10.127-10.78 16.66l-20.58-8.33c3.267-10.29 9.555-18.987 18.865-26.093 9.31-7.105 20.253-10.657 32.83-10.657 15.19 0 27.848 4.655 37.975 13.965s15.19 20.743 15.19 34.3c0 16.17-8.901 33.647-26.705 52.43l-49 49.245zm21.56-62.23c0-25.48 6.288-46.468 18.865-62.965s28.747-24.745 48.51-24.745c19.764 0 35.933 8.33 48.51 24.99 12.577 16.497 18.865 37.403 18.865 62.72 0 25.153-6.288 46.142-18.865 62.965-12.577 16.497-28.746 24.745-48.51 24.745-19.763 0-35.933-8.248-48.51-24.745-12.577-16.823-18.865-37.812-18.865-62.965zm111.72 0c0-19.273-4.083-35.117-12.25-47.53-8.003-12.413-18.701-18.62-32.095-18.62-13.393 0-24.091 6.207-32.095 18.62-8.167 12.413-12.25 28.257-12.25 47.53s4.083 35.198 12.25 47.775c8.004 12.25 18.702 18.375 32.095 18.375 13.394 0 24.092-6.207 32.095-18.62 8.167-12.577 12.25-28.42 12.25-47.53zm107.31-83.79v167.58h-22.54v-139.65l-32.585 14.21-8.575-19.11 49.245-23.03zm82.81 106.33c-13.393 0-25.561-5.308-36.505-15.925-10.617-10.943-15.925-23.683-15.925-38.22 0-15.19 5.717-28.257 17.15-39.2 11.434-11.27 24.827-16.905 40.18-16.905 16.17 0 29.808 5.553 40.915 16.66s16.66 24.255 16.66 39.445c0 13.557-5.471 28.992-16.415 46.305l-48.755 73.01-18.13-12.495 41.405-57.33-.49-.49c-5.227 3.43-11.923 5.145-20.09 5.145zm39.69-54.39c0-9.473-3.43-17.558-10.29-24.255-6.697-6.697-14.863-10.045-24.5-10.045s-17.803 3.348-24.5 10.045-10.045 14.782-10.045 24.255 3.348 17.558 10.045 24.255c7.024 6.697 15.19 10.045 24.5 10.045s17.477-3.348 24.5-10.045c6.86-6.533 10.29-14.618 10.29-24.255zm-1492.919-288.669h64.216c15.037 0 28.57 2.308 40.6 6.923 12.029 4.616 22.29 11.14 30.78 19.572 8.492 8.432 14.993 18.506 19.504 30.222s6.767 24.586 6.767 38.61c0 14.202-2.256 27.16-6.767 38.877-4.51 11.716-11.012 21.746-19.503 30.09-8.492 8.343-18.752 14.822-30.782 19.438-12.03 4.615-25.562 6.923-40.599 6.923h-64.216zm62.624 156.571c10.437 0 19.636-1.464 27.597-4.393 7.96-2.93 14.594-7.057 19.902-12.382 5.307-5.326 9.287-11.76 11.94-19.305 2.654-7.545 3.98-15.933 3.98-25.164 0-9.23-1.326-17.618-3.98-25.163-2.653-7.544-6.633-13.98-11.94-19.305-5.308-5.326-11.941-9.453-19.902-12.382-7.96-2.929-17.16-4.393-27.597-4.393h-26.801v122.487h26.8zm243.066 2.663c-6.015 10.651-14.108 19.26-24.28 25.83-10.172 6.567-22.6 9.851-37.283 9.851-9.907 0-19.061-1.73-27.464-5.192s-15.7-8.299-21.892-14.512-11.012-13.536-14.462-21.968-5.174-17.708-5.174-27.826c0-9.409 1.68-18.329 5.041-26.761 3.362-8.432 8.05-15.8 14.064-22.101 6.015-6.302 13.135-11.317 21.361-15.045s17.293-5.592 27.2-5.592c10.437 0 19.724 1.731 27.862 5.193 8.137 3.461 14.948 8.254 20.432 14.379 5.484 6.124 9.641 13.358 12.472 21.701 2.83 8.344 4.245 17.397 4.245 27.16v3.196a17.988 17.988 0 0 0 -.265 2.93 15.012 15.012 0 0 0 -.265 2.928h-97.917c.707 5.326 2.167 9.897 4.378 13.713 2.211 3.817 4.953 7.012 8.226 9.586 3.273 2.575 6.855 4.438 10.747 5.592a41.79 41.79 0 0 0 11.94 1.731c7.962 0 14.551-1.82 19.77-5.459 5.218-3.639 9.331-8.21 12.339-13.713l28.924 14.38zm-31.578-50.593c-.177-2.307-.928-4.881-2.255-7.722-1.327-2.84-3.273-5.503-5.838-7.988s-5.75-4.527-9.553-6.124c-3.803-1.598-8.359-2.397-13.666-2.397-7.43 0-13.975 2.13-19.636 6.39-5.661 4.261-9.641 10.208-11.941 17.841h62.89zm39.538-48.462h39.538l32.374 83.078h1.857l32.639-83.078h39.272l-55.99 130.476h-34.23zm165.847-60.18h120.472v34.085h-84.649v46.332h76.158v34.083h-76.158v76.156h-35.823v-190.655zm258.987 159.235c-6.014 10.651-14.108 19.26-24.28 25.83-10.172 6.567-22.599 9.851-37.282 9.851-9.907 0-19.061-1.73-27.464-5.192s-15.7-8.299-21.892-14.512-11.012-13.536-14.462-21.968-5.174-17.708-5.174-27.826c0-9.409 1.68-18.329 5.041-26.761s8.05-15.8 14.064-22.101c6.015-6.302 13.135-11.317 21.361-15.045s17.293-5.592 27.2-5.592c10.437 0 19.724 1.731 27.862 5.193 8.137 3.461 14.948 8.254 20.432 14.379 5.484 6.124 9.641 13.358 12.472 21.701 2.83 8.344 4.245 17.397 4.245 27.16v3.196a17.988 17.988 0 0 0 -.265 2.93 15.012 15.012 0 0 0 -.265 2.928h-97.917c.708 5.326 2.167 9.897 4.379 13.713 2.211 3.817 4.953 7.012 8.226 9.586 3.273 2.575 6.855 4.438 10.747 5.592a41.79 41.79 0 0 0 11.94 1.731c7.961 0 14.551-1.82 19.77-5.459 5.218-3.639 9.331-8.21 12.339-13.713l28.923 14.38zm-31.577-50.593c-.177-2.307-.929-4.881-2.255-7.722-1.327-2.84-3.273-5.503-5.838-7.988s-5.75-4.527-9.553-6.124c-3.803-1.598-8.359-2.397-13.666-2.397-7.43 0-13.975 2.13-19.636 6.39-5.661 4.261-9.641 10.208-11.941 17.841h62.89zm108.796 86.274c-8.491 0-16.054-1.065-22.688-3.195s-12.383-4.926-17.248-8.388c-4.865-3.461-8.978-7.455-12.34-11.982-3.36-4.527-5.925-9.098-7.694-13.714l31.046-13.313c3.008 6.745 7.032 11.76 12.074 15.044s10.658 4.926 16.85 4.926c6.369 0 11.41-1.153 15.125-3.461s5.573-5.06 5.573-8.255c0-3.55-1.548-6.435-4.644-8.654s-8.447-4.216-16.054-5.991l-18.31-3.994c-4.068-.888-8.27-2.308-12.604-4.26-4.334-1.953-8.27-4.439-11.808-7.456-3.538-3.018-6.457-6.657-8.757-10.918-2.3-4.26-3.45-9.23-3.45-14.911 0-6.391 1.371-12.072 4.113-17.042s6.502-9.187 11.278-12.648c4.776-3.462 10.393-6.125 16.85-7.989s13.4-2.796 20.83-2.796c12.384 0 23.44 2.441 33.17 7.323s16.894 12.648 21.494 23.3l-29.985 12.248c-2.477-5.148-6.104-8.876-10.88-11.184-4.776-2.307-9.553-3.461-14.33-3.461-4.953 0-9.287 1.02-13.002 3.062-3.715 2.041-5.572 4.66-5.572 7.855 0 3.018 1.548 5.414 4.644 7.19 3.095 1.775 7.297 3.373 12.604 4.793l19.902 4.793c13.267 3.195 23.13 8.299 29.587 15.31 6.457 7.013 9.685 15.312 9.685 24.898 0 5.68-1.327 11.095-3.98 16.243-2.654 5.148-6.413 9.719-11.278 13.713s-10.702 7.145-17.513 9.453-14.374 3.461-22.688 3.461zm89.69-104.913h-22.82v-29.823h22.82v-39.942h34.762v39.942h31.842v29.823h-31.842v50.593c0 3.018.31 5.813.928 8.387.62 2.574 1.814 4.749 3.583 6.524 2.476 2.84 6.014 4.26 10.614 4.26 3.007 0 5.396-.31 7.165-.931a22.37 22.37 0 0 0 5.041-2.53l9.818 30.622c-4.068 1.953-8.447 3.417-13.135 4.394-4.688.976-9.862 1.464-15.523 1.464-6.545 0-12.427-1.02-17.646-3.062s-9.597-4.837-13.135-8.388c-8.315-7.988-12.472-19.35-12.472-34.083z" fill="#333"/><g fill-rule="nonzero"><g transform="translate(108.195 317.113)"><use fill="#333" xlink:href="#a"/><path d="m-236.221-71.273c14.726-11.369 38.75-35.677 45.309-76.802-10.773.012-18.885-7.996-18.885-17.872s8.112-17.884 18.117-17.884 18.117 8.008 18.117 17.884c0 5.817-2.85 11.017-7.202 14.283 14.128 12.196 56.107 44.14 117.49 52.889-8.815-60.61-41.186-102.064-53.544-116.012a18.27 18.27 0 0 1 -14.469 7.11c-10.005 0-18.117-8.008-18.117-17.884s8.112-17.884 18.117-17.884 18.117 8.008 18.117 17.884c41.648-5.716 66.272-29.432 77.79-43.968-6.438-2.744-10.958-9.08-10.958-16.44 0-9.877 8.111-17.885 18.117-17.885 10.107 0 18.218 8.008 18.218 17.884 0 7.361-4.52 13.697-10.958 16.44 11.518 14.537 36.142 38.253 77.803 44.725-.012-10.632 8.1-18.64 18.106-18.64 10.005 0 18.117 8.008 18.117 17.884s-8.112 17.884-18.117 17.884a18.27 18.27 0 0 1 -14.47-7.11c-12.355 13.947-44.729 55.402-53.583 116.012 61.423-8.75 103.401-40.693 117.53-52.89-4.351-3.265-7.202-8.465-7.202-14.282 0-9.876 8.112-17.884 18.118-17.884 10.005 0 18.117 8.008 18.117 17.884s-8.112 17.884-18.117 17.884c5.791 41.113 29.814 65.42 44.542 76.79 2.776-6.354 9.197-10.816 16.655-10.816 10.004 0 18.117 8.007 18.117 17.883 0 9.877-8.113 17.884-18.117 17.884-7.458 0-13.879-4.461-16.655-10.817-14.728 11.37-38.75 35.678-45.31 76.802 10.773-.011 18.885 7.997 18.885 17.873s-8.112 17.884-18.117 17.884c-10.006 0-18.118-8.008-18.118-17.884 0-5.817 2.85-11.017 7.203-14.283-14.129-12.196-56.107-44.139-117.49-52.888 8.812 60.607 41.186 102.065 53.543 116.011a18.27 18.27 0 0 1 14.469-7.11c10.005 0 18.117 8.008 18.117 17.884s-8.112 17.885-18.117 17.885c-10.006 0-18.118-8.009-18.118-17.885-41.649 5.716-66.272 29.432-77.79 43.969 6.437 2.742 10.957 9.079 10.957 16.44 0 9.876-8.111 17.884-18.117 17.884-10.107 0-18.218-8.008-18.218-17.884 0-7.361 4.52-13.698 10.958-16.44-11.518-14.537-36.143-38.253-77.803-44.727.013 10.634-8.1 18.643-18.104 18.643-10.005 0-18.117-8.009-18.117-17.885s8.112-17.884 18.117-17.884a18.27 18.27 0 0 1 14.469 7.11c12.358-13.946 44.73-55.404 53.584-116.011-61.422 8.75-103.4 40.692-117.53 52.888 4.353 3.266 7.202 8.466 7.202 14.283 0 9.876-8.112 17.884-18.117 17.884s-18.117-8.008-18.117-17.884 8.112-17.884 18.117-17.884c-5.79-41.113-29.815-65.42-44.541-76.791-2.778 6.355-9.198 10.817-16.655 10.817-10.005 0-18.118-8.007-18.118-17.884 0-9.876 8.113-17.883 18.118-17.883 7.457 0 13.877 4.46 16.655 10.816zm60.645 61.117c40.927-34.05 104.776-41.701 136.686-43.338-1.866 31.54-9.65 94.417-44.086 134.746 0 0 28.837 6.39 54.815 34.07 26.01-27.692 54.795-34.07 54.795-34.07-34.436-40.33-42.22-103.206-43.898-134.758 31.72 1.648 95.57 9.3 136.497 43.35 0 0 6.464-28.425 34.453-54.053-27.978-25.558-34.453-54.045-34.453-54.045-40.928 34.05-104.777 41.702-136.687 43.338 1.866-31.537 9.65-94.416 44.087-134.745 0 0-28.785-6.38-54.742-33.994-26.032 27.603-54.868 33.994-54.868 33.994 34.435 40.33 42.22 103.208 43.897 134.758-31.721-1.65-95.569-9.3-136.496-43.351 0 0-6.464 28.425-34.454 54.049 27.987 25.612 34.454 54.05 34.454 54.05z" fill="#fff" mask="url(#e)" opacity=".5"/></g><g transform="translate(40 230.548)"><use fill="#333" xlink:href="#b"/><path d="m-166.38 14.642c14.616-11.4 38.463-35.771 44.973-77.003-10.693.012-18.746-8.017-18.746-17.918 0-9.902 8.053-17.931 17.983-17.931s17.983 8.029 17.983 17.93c0 5.832-2.828 11.046-7.149 14.32 14.024 12.228 55.691 44.257 116.618 53.028-8.749-60.769-40.88-102.33-53.146-116.315-3.284 4.308-8.513 7.128-14.362 7.128-9.93 0-17.983-8.029-17.983-17.93 0-9.902 8.053-17.932 17.983-17.932s17.983 8.03 17.983 17.931c41.339-5.73 65.78-29.508 77.212-44.083-6.39-2.75-10.876-9.102-10.876-16.483 0-9.902 8.051-17.93 17.983-17.93 10.031 0 18.082 8.028 18.082 17.93 0 7.38-4.485 13.733-10.876 16.483 11.432 14.575 35.874 38.352 77.225 44.841-.012-10.66 8.04-18.689 17.971-18.689 9.932 0 17.983 8.03 17.983 17.931 0 9.902-8.051 17.931-17.983 17.931-5.848 0-11.077-2.82-14.361-7.128-12.265 13.985-44.399 55.546-53.187 116.315 60.967-8.772 102.634-40.8 116.659-53.028-4.32-3.274-7.15-8.488-7.15-14.32 0-9.901 8.052-17.93 17.983-17.93 9.932 0 17.983 8.029 17.983 17.93 0 9.903-8.051 17.932-17.983 17.932 5.749 41.22 29.593 65.59 44.212 76.99 2.756-6.371 9.129-10.845 16.531-10.845 9.93 0 17.983 8.028 17.983 17.93 0 9.903-8.053 17.93-17.983 17.93-7.402 0-13.775-4.472-16.53-10.845-14.62 11.4-38.464 35.771-44.974 77.003 10.693-.011 18.744 8.018 18.744 17.92 0 9.901-8.051 17.93-17.983 17.93-9.931 0-17.983-8.029-17.983-17.93 0-5.832 2.83-11.046 7.15-14.32-14.024-12.228-55.691-44.255-116.619-53.027 8.747 60.766 40.88 102.331 53.146 116.315 3.284-4.309 8.513-7.129 14.361-7.129 9.932 0 17.983 8.03 17.983 17.93 0 9.903-8.051 17.932-17.983 17.932-9.931 0-17.983-8.03-17.983-17.931-41.34 5.73-65.78 29.508-77.213 44.083 6.39 2.75 10.876 9.103 10.876 16.483 0 9.902-8.051 17.931-17.983 17.931-10.03 0-18.082-8.029-18.082-17.93 0-7.381 4.486-13.735 10.876-16.484-11.432-14.575-35.874-38.352-77.225-44.843.013 10.662-8.04 18.69-17.97 18.69s-17.983-8.028-17.983-17.93 8.053-17.931 17.983-17.931c5.849 0 11.078 2.82 14.362 7.129 12.266-13.984 44.397-55.55 53.186-116.315-60.966 8.773-102.633 40.799-116.658 53.027 4.32 3.274 7.15 8.488 7.15 14.32 0 9.901-8.053 17.93-17.984 17.93-9.93 0-17.983-8.029-17.983-17.93 0-9.902 8.053-17.931 17.983-17.931-5.747-41.22-29.594-65.591-44.21-76.992-2.758 6.372-9.13 10.846-16.532 10.846-9.93 0-17.983-8.028-17.983-17.931 0-9.902 8.053-17.93 17.983-17.93 7.402 0 13.774 4.473 16.531 10.845zm60.195 61.277c40.623-34.14 103.998-41.811 135.67-43.452-1.851 31.622-9.578 94.663-43.758 135.098 0 0 28.622 6.407 54.408 34.16 25.817-27.766 54.388-34.16 54.388-34.16-34.18-40.435-41.907-103.476-43.573-135.11 31.485 1.653 94.861 9.324 135.484 43.463 0 0 6.416-28.499 34.198-54.194-27.77-25.624-34.197-54.186-34.197-54.186-40.624 34.139-104 41.81-135.672 43.451 1.852-31.62 9.579-94.662 43.76-135.097 0 0-28.572-6.396-54.336-34.083-25.84 27.676-54.461 34.083-54.461 34.083 34.181 40.435 41.908 103.478 43.572 135.11-31.486-1.653-94.86-9.325-135.483-43.464 0 0-6.416 28.499-34.198 54.19 27.78 25.679 34.198 54.19 34.198 54.19z" fill="#fff" mask="url(#f)" opacity=".5"/></g><g transform="translate(42.841 7)"><use fill="#333" xlink:href="#c"/><path d="m-170.17 238.74c14.734-11.41 38.77-35.806 45.333-77.08-10.779.013-18.895-8.024-18.895-17.935 0-9.912 8.116-17.949 18.126-17.949s18.127 8.037 18.127 17.949c0 5.837-2.851 11.056-7.207 14.334 14.136 12.24 56.136 44.3 117.55 53.08-8.82-60.83-41.207-102.432-53.571-116.43a18.26 18.26 0 0 1 -14.476 7.135c-10.01 0-18.127-8.037-18.127-17.949 0-9.911 8.117-17.948 18.127-17.948s18.126 8.037 18.126 17.948c41.669-5.735 66.305-29.537 77.829-44.125-6.441-2.753-10.964-9.112-10.964-16.5 0-9.912 8.116-17.949 18.127-17.949 10.111 0 18.227 8.037 18.227 17.949 0 7.388-4.522 13.747-10.964 16.5 11.524 14.589 36.16 38.39 77.842 44.885-.011-10.67 8.104-18.707 18.115-18.707 10.01 0 18.126 8.037 18.126 17.948 0 9.912-8.115 17.949-18.126 17.949a18.26 18.26 0 0 1 -14.476-7.136c-12.363 14-44.753 55.602-53.612 116.43 61.454-8.78 103.454-40.84 117.59-53.08-4.354-3.277-7.206-8.496-7.206-14.333 0-9.912 8.116-17.949 18.126-17.949 10.011 0 18.127 8.037 18.127 17.949 0 9.911-8.116 17.948-18.127 17.948 5.795 41.26 29.83 65.656 44.565 77.067 2.778-6.378 9.201-10.856 16.663-10.856 10.01 0 18.127 8.036 18.127 17.948s-8.118 17.948-18.127 17.948c-7.462 0-13.885-4.477-16.663-10.855-14.736 11.41-38.77 35.806-45.332 77.079 10.778-.012 18.894 8.025 18.894 17.937 0 9.911-8.116 17.948-18.127 17.948-10.01 0-18.126-8.037-18.126-17.948 0-5.838 2.852-11.057 7.206-14.334-14.135-12.24-56.135-44.298-117.549-53.08 8.818 60.826 41.208 102.433 53.571 116.43a18.26 18.26 0 0 1 14.476-7.135c10.01 0 18.126 8.037 18.126 17.948 0 9.912-8.115 17.949-18.126 17.949-10.01 0-18.126-8.037-18.126-17.949-41.67 5.737-66.306 29.538-77.83 44.127 6.44 2.752 10.963 9.112 10.963 16.5 0 9.911-8.116 17.948-18.127 17.948-10.111 0-18.227-8.037-18.227-17.949 0-7.387 4.522-13.747 10.964-16.5-11.524-14.588-36.161-38.39-77.842-44.887.013 10.673-8.103 18.71-18.113 18.71s-18.127-8.037-18.127-17.949c0-9.911 8.117-17.948 18.127-17.948a18.26 18.26 0 0 1 14.476 7.135c12.364-13.997 44.752-55.604 53.61-116.43-61.452 8.783-103.452 40.84-117.589 53.08 4.356 3.277 7.207 8.496 7.207 14.334 0 9.911-8.117 17.948-18.127 17.948s-18.126-8.037-18.126-17.948c0-9.912 8.116-17.949 18.126-17.949-5.793-41.261-29.83-65.656-44.563-77.067-2.78 6.377-9.203 10.856-16.664 10.856-10.01 0-18.126-8.036-18.126-17.95 0-9.91 8.116-17.947 18.126-17.947 7.461 0 13.884 4.477 16.663 10.856zm60.677 61.337c40.947-34.173 104.828-41.852 136.754-43.494-1.867 31.653-9.656 94.757-44.109 135.232 0 0 28.851 6.413 54.842 34.193 26.024-27.793 54.823-34.193 54.823-34.193-34.454-40.475-42.242-103.579-43.92-135.244 31.737 1.654 95.618 9.333 136.566 43.506 0 0 6.467-28.527 34.47-54.247-27.992-25.65-34.47-54.24-34.47-54.24-40.948 34.172-104.83 41.851-136.755 43.494 1.867-31.651 9.655-94.757 44.109-135.232 0 0-28.8-6.401-54.77-34.116-26.044 27.704-54.894 34.117-54.894 34.117 34.452 40.475 42.242 103.58 43.92 135.243-31.738-1.655-95.618-9.334-136.565-43.507 0 0-6.467 28.528-34.472 54.244 28.002 25.704 34.472 54.244 34.472 54.244z" fill="#fff" mask="url(#g)" opacity=".5"/></g><g transform="translate(108.195 7)"><use fill="#333" xlink:href="#d"/><path d="m-235.835 238.835c14.702-11.414 38.687-35.82 45.235-77.11-10.755.013-18.854-8.027-18.854-17.943 0-9.915 8.099-17.956 18.087-17.956 9.989 0 18.088 8.04 18.088 17.956 0 5.84-2.845 11.06-7.19 14.34 14.104 12.245 56.014 44.317 117.296 53.1-8.8-60.852-41.118-102.471-53.456-116.476-3.303 4.314-8.562 7.138-14.445 7.138-9.988 0-18.087-8.04-18.087-17.955 0-9.916 8.099-17.956 18.087-17.956 9.989 0 18.088 8.04 18.088 17.956 41.58-5.74 66.163-29.55 77.662-44.144-6.427-2.755-10.94-9.116-10.94-16.507 0-9.915 8.098-17.956 18.088-17.956 10.09 0 18.188 8.04 18.188 17.956 0 7.391-4.512 13.752-10.94 16.507 11.498 14.595 36.082 38.405 77.675 44.903-.012-10.675 8.086-18.715 18.076-18.715 9.989 0 18.087 8.04 18.087 17.956 0 9.915-8.098 17.955-18.087 17.955-5.883 0-11.142-2.824-14.445-7.138-12.338 14.005-44.658 55.624-53.498 116.477 61.322-8.784 103.231-40.856 117.338-53.101-4.345-3.279-7.191-8.5-7.191-14.34 0-9.915 8.098-17.956 18.088-17.956 9.989 0 18.087 8.04 18.087 17.956s-8.098 17.956-18.087 17.956c5.782 41.277 29.765 65.682 44.469 77.098a18.123 18.123 0 0 1 16.627-10.86c9.988 0 18.088 8.039 18.088 17.954 0 9.917-8.1 17.956-18.088 17.956a18.122 18.122 0 0 1 -16.627-10.86c-14.704 11.414-38.687 35.82-45.235 77.11 10.755-.012 18.853 8.028 18.853 17.944 0 9.915-8.098 17.955-18.087 17.955-9.99 0-18.088-8.04-18.088-17.955 0-5.84 2.846-11.061 7.19-14.34-14.105-12.245-56.014-44.316-117.296-53.1 8.798 60.85 41.119 102.473 53.456 116.476 3.303-4.315 8.562-7.139 14.445-7.139 9.989 0 18.087 8.04 18.087 17.956s-8.098 17.956-18.087 17.956c-9.99 0-18.088-8.04-18.088-17.956-41.58 5.739-66.164 29.55-77.663 44.144 6.427 2.753 10.94 9.116 10.94 16.507 0 9.915-8.099 17.955-18.088 17.955-10.09 0-18.188-8.04-18.188-17.955 0-7.391 4.512-13.754 10.94-16.507-11.499-14.595-36.084-38.405-77.675-44.905.013 10.677-8.086 18.717-18.075 18.717-9.988 0-18.087-8.04-18.087-17.956s8.099-17.956 18.087-17.956c5.883 0 11.142 2.824 14.445 7.139 12.338-14.003 44.657-55.626 53.496-116.476-61.32 8.785-103.23 40.855-117.337 53.1 4.346 3.279 7.19 8.5 7.19 14.34 0 9.915-8.098 17.955-18.087 17.955-9.988 0-18.087-8.04-18.087-17.955 0-9.916 8.099-17.956 18.087-17.956-5.78-41.278-29.766-65.683-44.468-77.098a18.127 18.127 0 0 1 -16.628 10.86c-9.988 0-18.087-8.04-18.087-17.956 0-9.915 8.1-17.955 18.087-17.955a18.125 18.125 0 0 1 16.628 10.86zm60.546 61.362c40.86-34.187 104.604-41.869 136.461-43.512-1.863 31.667-9.634 94.795-44.014 135.286 0 0 28.79 6.416 54.725 34.207 25.968-27.804 54.705-34.207 54.705-34.207-34.38-40.491-42.151-103.62-43.825-135.298 31.668 1.655 95.413 9.337 136.273 43.524 0 0 6.453-28.539 34.396-54.27-27.932-25.66-34.396-54.261-34.396-54.261-40.86 34.186-104.605 41.869-136.462 43.511 1.863-31.663 9.634-94.793 44.014-135.285 0 0-28.737-6.404-54.652-34.13-25.99 27.714-54.778 34.13-54.778 34.13 34.379 40.492 42.151 103.622 43.825 135.298-31.67-1.655-95.412-9.337-136.272-43.524 0 0-6.453 28.538-34.397 54.265 27.941 25.715 34.397 54.266 34.397 54.266z" fill="#fff" mask="url(#h)" opacity=".5"/></g></g></g></svg>