<svg height="500" width="1979" xmlns="http://www.w3.org/2000/svg" xmlns:xlink="http://www.w3.org/1999/xlink"><defs><radialGradient id="a" cx="-54.152%" cy="-174.153%" gradientTransform="matrix(1 0 0 .7807 0 -.382)" r="402.146%"><stop offset="0" stop-color="#ffcd4d"/><stop offset="1" stop-color="#f6c338"/></radialGradient><path id="b" d="m108.75.444-108.672 180.418h54.884c12.989 0 29.127-9.11 35.828-20.294l46.23-76.882c5.456-11.282 5.269-27.681-.965-38.08l-27.306-45.163z"/><radialGradient id="c" cx="-6.595%" cy="-88.351%" gradientTransform="matrix(1 0 0 .66295 0 -.298)" r="326.489%"><stop offset="0" stop-color="#0da960"/><stop offset="1" stop-color="#03914b"/></radialGradient><path id="d" d="m124.482.227c6.71 11.126 6.71 29.341 0 40.508l-122.264 203.609c-4.72 10.062.188 18.04 12.32 18.04h50.842l108.862-180.108z"/><radialGradient id="e" cx="-4.422%" cy="-2.563%" gradientTransform="matrix(1 0 0 .64807 0 -.009)" r="226.256%"><stop offset="0" stop-color="#4387fd"/><stop offset="1" stop-color="#4683ea"/></radialGradient><path id="f" d="m14.544.828c-13.068 0-18.257 9.135-11.542 20.265l198.681 328.827c6.248 10.39 6.436 26.771.967 38.045l48.304-80.105-185.514-307.032z"/><radialGradient id="g" cx="-35.161%" cy="-3.233%" gradientTransform="matrix(1 0 0 .70973 0 -.01)" r="261.045%"><stop offset="0" stop-color="#e04a3f"/><stop offset="1" stop-color="#cd372d"/></radialGradient><path id="h" d="m213.155 222.884-121.888-201.772c-6.739-11.143-22.962-20.283-36.017-20.283h-55.14l186.08 307.305 26.967-44.672c6.744-11.188 6.744-29.436-.002-40.578z"/><mask id="i" fill="#fff"><use fill="none" xlink:href="#b"/></mask><mask id="j" fill="#fff"><use fill="none" xlink:href="#d"/></mask><mask id="k" fill="#fff"><use fill="none" xlink:href="#f"/></mask><mask id="l" fill="#fff"><use fill="none" xlink:href="#h"/></mask></defs><g fill="none" fill-rule="evenodd"><path d="m500.84 297.232v153.86h-22.54v-153.86h-49v-21.56h120.54v21.56zm61.74 93.835c0-18.457 5.797-33.728 17.394-45.815 11.76-12.087 26.542-18.13 44.345-18.13 17.804 0 32.503 6.043 44.1 18.13 11.76 12.087 17.64 27.358 17.64 45.815 0 18.62-5.88 33.892-17.64 45.815-11.597 12.087-26.296 18.13-44.1 18.13-17.803 0-32.585-6.043-44.345-18.13-11.597-12.087-17.395-27.358-17.395-45.815zm22.54 0c0 12.903 3.756 23.357 11.27 31.36 7.513 8.003 16.822 12.005 27.93 12.005 11.106 0 20.416-4.002 27.93-12.005 7.513-8.003 11.27-18.457 11.27-31.36 0-12.74-3.757-23.112-11.27-31.115-7.678-8.167-16.987-12.25-27.93-12.25-10.944 0-20.254 4.083-27.93 12.25-7.514 8.003-11.27 18.375-11.27 31.115zm226.87 60.025h-21.56v-16.66h-.98c-3.43 5.88-8.698 10.78-15.803 14.7s-14.496 5.88-22.173 5.88c-14.7 0-26.01-4.206-33.932-12.618-7.922-8.411-11.883-20.375-11.883-35.892v-75.46h22.54v73.99c.49 19.6 10.372 29.4 29.645 29.4 8.984 0 16.497-3.634 22.54-10.903 6.044-7.268 9.065-15.965 9.065-26.092v-66.395h22.54v120.05zm49.98-175.42v175.42h-22.54v-175.42zm20.58 115.395c0-18.457 5.797-33.728 17.394-45.815 11.76-12.087 26.542-18.13 44.345-18.13 17.804 0 32.503 6.043 44.1 18.13 11.76 12.087 17.64 27.358 17.64 45.815 0 18.62-5.88 33.892-17.64 45.815-11.597 12.087-26.296 18.13-44.1 18.13-17.803 0-32.585-6.043-44.345-18.13-11.597-12.087-17.395-27.358-17.395-45.815zm22.54 0c0 12.903 3.756 23.357 11.27 31.36 7.513 8.003 16.822 12.005 27.93 12.005 11.106 0 20.416-4.002 27.93-12.005 7.513-8.003 11.27-18.457 11.27-31.36 0-12.74-3.757-23.112-11.27-31.115-7.678-8.167-16.987-12.25-27.93-12.25-10.944 0-20.254 4.083-27.93 12.25-7.514 8.003-11.27 18.375-11.27 31.115zm226.87 60.025h-21.56v-16.66h-.98c-3.43 5.88-8.698 10.78-15.803 14.7s-14.496 5.88-22.173 5.88c-14.7 0-26.01-4.206-33.932-12.618-7.922-8.411-11.883-20.375-11.883-35.892v-75.46h22.54v73.99c.49 19.6 10.372 29.4 29.645 29.4 8.984 0 16.497-3.634 22.54-10.903 6.044-7.268 9.065-15.965 9.065-26.092v-66.395h22.54v120.05zm119.314-33.32c0 10.453-4.573 19.273-13.72 26.46s-20.661 10.78-34.545 10.78c-12.087 0-22.703-3.144-31.85-9.433-9.147-6.288-15.68-14.577-19.6-24.867l20.09-8.575c2.94 7.187 7.228 12.78 12.863 16.782s11.8 6.003 18.497 6.003c7.187 0 13.19-1.552 18.008-4.655s7.227-6.778 7.227-11.025c0-7.677-5.88-13.312-17.64-16.905l-20.58-5.145c-23.357-5.88-35.035-17.15-35.035-33.81 0-10.943 4.451-19.722 13.353-26.338 8.901-6.615 20.294-9.922 34.177-9.922 10.617 0 20.213 2.532 28.788 7.595s14.577 11.842 18.007 20.335l-20.09 8.33c-2.287-5.063-6.002-9.024-11.147-11.883-5.145-2.858-10.903-4.287-17.273-4.287-5.88 0-11.147 1.47-15.802 4.41s-6.983 6.533-6.983 10.78c0 6.86 6.452 11.76 19.355 14.7l18.13 4.655c23.847 5.88 35.77 17.885 35.77 36.015zm73.5 37.24c-17.64 0-32.176-6.043-43.61-18.13-11.433-12.087-17.15-27.358-17.15-45.815 0-18.293 5.553-33.524 16.66-45.693 11.107-12.168 25.317-18.252 42.63-18.252 17.804 0 31.973 5.757 42.508 17.272 10.535 11.516 15.802 27.645 15.802 48.388l-.245 2.45h-94.325c.327 11.76 4.247 21.233 11.76 28.42 7.514 7.187 16.497 10.78 26.95 10.78 14.374 0 25.643-7.187 33.81-21.56l20.09 9.8c-5.39 10.127-12.862 18.048-22.417 23.765s-20.376 8.575-32.463 8.575zm-36.015-78.4h68.845c-.653-8.33-4.042-15.23-10.167-20.703-6.125-5.471-14.333-8.207-24.623-8.207-8.493 0-15.802 2.613-21.927 7.84s-10.168 12.25-12.128 21.07zm270.235 52.92v21.56h-106.82v-22.54l43.365-43.855c14.537-14.863 24.582-26.01 30.135-33.443 5.554-7.431 8.33-15.23 8.33-23.397 0-7.35-2.858-13.638-8.575-18.865s-13.066-7.84-22.05-7.84c-7.677 0-14.291 2.287-19.845 6.86-5.553 4.573-9.146 10.127-10.78 16.66l-20.58-8.33c3.267-10.29 9.555-18.987 18.865-26.093 9.31-7.105 20.253-10.657 32.83-10.657 15.19 0 27.848 4.655 37.975 13.965s15.19 20.743 15.19 34.3c0 16.17-8.901 33.647-26.705 52.43l-49 49.245zm21.56-62.23c0-25.48 6.288-46.468 18.865-62.965s28.747-24.745 48.51-24.745c19.764 0 35.933 8.33 48.51 24.99 12.577 16.497 18.865 37.403 18.865 62.72 0 25.153-6.288 46.142-18.865 62.965-12.577 16.497-28.746 24.745-48.51 24.745-19.763 0-35.933-8.248-48.51-24.745-12.577-16.823-18.865-37.812-18.865-62.965zm111.72 0c0-19.273-4.083-35.117-12.25-47.53-8.003-12.413-18.701-18.62-32.095-18.62-13.393 0-24.091 6.207-32.095 18.62-8.167 12.413-12.25 28.257-12.25 47.53s4.083 35.198 12.25 47.775c8.004 12.25 18.702 18.375 32.095 18.375 13.394 0 24.092-6.207 32.095-18.62 8.167-12.577 12.25-28.42 12.25-47.53zm107.31-83.79v167.58h-22.54v-139.65l-32.585 14.21-8.575-19.11 49.245-23.03zm82.81 106.33c-13.393 0-25.561-5.308-36.505-15.925-10.617-10.943-15.925-23.683-15.925-38.22 0-15.19 5.717-28.257 17.15-39.2 11.434-11.27 24.827-16.905 40.18-16.905 16.17 0 29.808 5.553 40.915 16.66s16.66 24.255 16.66 39.445c0 13.557-5.471 28.992-16.415 46.305l-48.755 73.01-18.13-12.495 41.405-57.33-.49-.49c-5.227 3.43-11.923 5.145-20.09 5.145zm39.69-54.39c0-9.473-3.43-17.558-10.29-24.255-6.697-6.697-14.863-10.045-24.5-10.045s-17.803 3.348-24.5 10.045-10.045 14.782-10.045 24.255 3.348 17.558 10.045 24.255c7.024 6.697 15.19 10.045 24.5 10.045s17.477-3.348 24.5-10.045c6.86-6.533 10.29-14.618 10.29-24.255zm-1492.834-289.628h64.212c15.036 0 28.568 2.307 40.597 6.922s22.288 11.137 30.78 19.567c8.49 8.43 14.991 18.503 19.502 30.217 4.51 11.714 6.766 24.581 6.766 38.602 0 14.2-2.255 27.155-6.766 38.87-4.511 11.713-11.012 21.74-19.503 30.083-8.49 8.341-18.75 14.82-30.78 19.434-12.028 4.615-25.56 6.922-40.596 6.922h-64.213v-190.617zm62.62 156.54c10.436 0 19.635-1.464 27.595-4.393 7.96-2.928 14.594-7.055 19.9-12.379 5.307-5.325 9.287-11.758 11.94-19.301 2.654-7.543 3.981-15.93 3.981-25.159s-1.327-17.615-3.98-25.158c-2.654-7.543-6.634-13.977-11.94-19.301-5.307-5.325-11.94-9.451-19.901-12.38-7.96-2.928-17.159-4.392-27.595-4.392h-26.8v122.463zm243.052 2.662c-6.015 10.65-14.108 19.257-24.279 25.824s-22.598 9.85-37.28 9.85c-9.906 0-19.06-1.73-27.463-5.19-8.403-3.462-15.7-8.298-21.89-14.51-6.192-6.212-11.012-13.533-14.462-21.964-3.45-8.43-5.174-17.704-5.174-27.82 0-9.407 1.68-18.325 5.041-26.756 3.361-8.43 8.05-15.796 14.064-22.096 6.014-6.301 13.134-11.315 21.36-15.042 8.225-3.727 17.29-5.59 27.197-5.59 10.437 0 19.724 1.73 27.86 5.19 8.138 3.462 14.948 8.254 20.432 14.377s9.64 13.355 12.47 21.697c2.831 8.342 4.246 17.393 4.246 27.155v3.195a17.982 17.982 0 0 0 -.265 2.928 15.007 15.007 0 0 0 -.265 2.929h-97.911c.708 5.324 2.167 9.894 4.378 13.71s4.953 7.01 8.226 9.584c3.272 2.574 6.854 4.437 10.746 5.59a41.794 41.794 0 0 0 11.94 1.731c7.96 0 14.55-1.819 19.768-5.457 5.219-3.639 9.331-8.209 12.339-13.71zm-31.576-50.582c-.177-2.308-.929-4.881-2.255-7.72-1.327-2.84-3.273-5.503-5.838-7.988-2.565-2.484-5.749-4.525-9.552-6.123-3.803-1.597-8.358-2.396-13.665-2.396-7.43 0-13.975 2.13-19.635 6.39s-9.641 10.205-11.94 17.837zm39.536-48.453h39.536l32.371 83.062h1.858l32.637-83.062h39.27l-55.987 130.45h-34.229zm165.838-60.167h120.465v34.077h-84.645v46.323h76.153v34.076h-76.153v76.14h-35.82zm258.972 159.202c-6.014 10.65-14.107 19.257-24.278 25.824-10.172 6.567-22.598 9.85-37.28 9.85-9.907 0-19.06-1.73-27.463-5.19-8.403-3.462-15.7-8.298-21.891-14.51s-11.012-13.533-14.461-21.964c-3.45-8.43-5.174-17.704-5.174-27.82 0-9.407 1.68-18.325 5.041-26.756 3.361-8.43 8.049-15.796 14.063-22.096 6.015-6.301 13.135-11.315 21.36-15.042 8.226-3.727 17.292-5.59 27.198-5.59 10.437 0 19.723 1.73 27.86 5.19 8.138 3.462 14.948 8.254 20.432 14.377 5.483 6.123 9.64 13.355 12.47 21.697 2.831 8.342 4.246 17.393 4.246 27.155v3.195a17.982 17.982 0 0 0 -.265 2.928 15.007 15.007 0 0 0 -.265 2.929h-97.911c.707 5.324 2.167 9.894 4.378 13.71s4.953 7.01 8.225 9.584c3.273 2.574 6.855 4.437 10.747 5.59a41.794 41.794 0 0 0 11.94 1.731c7.96 0 14.55-1.819 19.768-5.457 5.218-3.639 9.331-8.209 12.338-13.71zm-31.575-50.582c-.177-2.308-.929-4.881-2.255-7.72-1.327-2.84-3.273-5.503-5.838-7.988-2.565-2.484-5.749-4.525-9.552-6.123-3.803-1.597-8.358-2.396-13.665-2.396-7.43 0-13.975 2.13-19.635 6.39-5.661 4.26-9.641 10.205-11.94 17.837zm108.79 86.256c-8.491 0-16.053-1.064-22.687-3.194s-12.383-4.925-17.247-8.386c-4.865-3.461-8.977-7.455-12.338-11.98-3.361-4.526-5.926-9.096-7.695-13.711l31.045-13.311c3.007 6.744 7.031 11.758 12.073 15.041 5.041 3.284 10.657 4.926 16.849 4.926 6.368 0 11.41-1.154 15.124-3.461 3.715-2.308 5.572-5.059 5.572-8.253 0-3.55-1.548-6.434-4.643-8.653-3.096-2.218-8.447-4.215-16.053-5.99l-18.309-3.993c-4.068-.887-8.27-2.307-12.604-4.26-4.333-1.952-8.27-4.437-11.807-7.454-3.538-3.017-6.457-6.655-8.756-10.915-2.3-4.26-3.45-9.23-3.45-14.909 0-6.39 1.371-12.068 4.113-17.038s6.5-9.185 11.277-12.646c4.776-3.46 10.392-6.123 16.849-7.986 6.457-1.864 13.4-2.796 20.83-2.796 12.382 0 23.438 2.44 33.167 7.321 9.73 4.881 16.893 12.646 21.492 23.295l-29.983 12.246c-2.477-5.147-6.103-8.874-10.879-11.181s-9.552-3.461-14.328-3.461c-4.953 0-9.287 1.02-13.002 3.062-3.715 2.04-5.572 4.659-5.572 7.853 0 3.017 1.548 5.413 4.643 7.188 3.096 1.775 7.297 3.372 12.604 4.792l19.9 4.792c13.268 3.195 23.13 8.298 29.586 15.308 6.457 7.01 9.685 15.308 9.685 24.892 0 5.68-1.327 11.093-3.98 16.24-2.654 5.147-6.413 9.717-11.277 13.71-4.865 3.994-10.702 7.144-17.513 9.452-6.81 2.307-14.372 3.46-22.686 3.46zm89.685-104.892h-22.82v-29.817h22.82v-39.934h34.76v39.934h31.84v29.817h-31.84v50.583c0 3.017.309 5.812.928 8.386.62 2.573 1.813 4.747 3.582 6.522 2.477 2.84 6.015 4.26 10.614 4.26 3.007 0 5.395-.31 7.164-.932a22.37 22.37 0 0 0 5.042-2.53l9.817 30.617c-4.068 1.952-8.446 3.416-13.134 4.392-4.688.977-9.862 1.465-15.523 1.465-6.545 0-12.426-1.02-17.645-3.062-5.218-2.041-9.596-4.836-13.134-8.386-8.314-7.987-12.471-19.346-12.471-34.077z" fill="#333"/><g fill-rule="nonzero"><g transform="translate(107.35 312.344)"><use fill="url(#a)" xlink:href="#b"/><path d="m-230.173-67.407c14.495-11.339 38.141-35.58 44.596-76.593-10.603.013-18.588-7.973-18.588-17.822 0-9.85 7.985-17.836 17.832-17.836 9.848 0 17.832 7.987 17.832 17.836 0 5.8-2.804 10.986-7.089 14.243 13.906 12.163 55.224 44.02 115.64 52.745-8.676-60.445-40.538-101.785-52.7-115.695-3.257 4.285-8.442 7.09-14.242 7.09-9.847 0-17.832-7.986-17.832-17.835s7.985-17.835 17.832-17.835 17.832 7.986 17.832 17.835c40.992-5.7 65.228-29.35 76.565-43.848-6.337-2.735-10.786-9.054-10.786-16.395 0-9.85 7.984-17.835 17.832-17.835 9.947 0 17.931 7.986 17.931 17.835 0 7.34-4.448 13.66-10.785 16.395 11.336 14.497 35.573 38.148 76.577 44.602-.011-10.603 7.972-18.59 17.82-18.59 9.849 0 17.833 7.987 17.833 17.836s-7.984 17.835-17.832 17.835c-5.8 0-10.985-2.805-14.241-7.09-12.164 13.909-44.026 55.249-52.741 115.695 60.455-8.726 101.773-40.582 115.68-52.745-4.284-3.257-7.09-8.443-7.09-14.243 0-9.85 7.984-17.836 17.832-17.836 9.849 0 17.832 7.987 17.832 17.836s-7.983 17.835-17.832 17.835c5.7 41 29.345 65.24 43.841 76.58 2.733-6.338 9.052-10.787 16.393-10.787 9.846 0 17.832 7.985 17.832 17.834 0 9.85-7.986 17.835-17.832 17.835-7.341 0-13.66-4.449-16.393-10.787-14.496 11.338-38.14 35.58-44.595 76.592 10.603-.012 18.586 7.974 18.586 17.823 0 9.85-7.983 17.836-17.832 17.836-9.848 0-17.832-7.987-17.832-17.836 0-5.8 2.806-10.986 7.09-14.243-13.906-12.163-55.224-44.018-115.64-52.744 8.675 60.442 40.538 101.786 52.7 115.694 3.257-4.285 8.442-7.09 14.242-7.09 9.848 0 17.832 7.986 17.832 17.835s-7.984 17.835-17.832 17.835c-9.849 0-17.832-7.986-17.832-17.835-40.993 5.7-65.23 29.35-76.566 43.848 6.336 2.735 10.785 9.054 10.785 16.395 0 9.85-7.984 17.835-17.832 17.835-9.947 0-17.93-7.986-17.93-17.835 0-7.34 4.447-13.66 10.785-16.395-11.337-14.497-35.574-38.148-76.578-44.604.013 10.605-7.972 18.591-17.819 18.591s-17.832-7.986-17.832-17.835 7.985-17.835 17.832-17.835c5.8 0 10.985 2.805 14.241 7.09 12.163-13.908 44.025-55.252 52.74-115.694-60.454 8.727-101.772 40.581-115.679 52.744 4.285 3.257 7.09 8.443 7.09 14.243 0 9.85-7.985 17.836-17.833 17.836-9.847 0-17.832-7.987-17.832-17.836s7.985-17.835 17.832-17.835c-5.699-41-29.345-65.241-43.84-76.58-2.734 6.337-9.052 10.787-16.392 10.787-9.847 0-17.832-7.985-17.832-17.835s7.985-17.834 17.832-17.834c7.34 0 13.658 4.448 16.392 10.787zm59.691 60.95c40.282-33.959 103.125-41.589 134.532-43.221-1.836 31.454-9.498 94.158-43.392 134.378 0 0 28.383 6.373 53.952 33.977 25.6-27.617 53.93-33.977 53.93-33.977-33.892-40.22-41.554-102.924-43.204-134.389 31.22 1.644 94.064 9.274 134.347 43.231 0 0 6.362-28.347 33.91-53.905-27.537-25.488-33.91-53.897-33.91-53.897-40.283 33.957-103.126 41.587-134.534 43.22 1.837-31.452 9.499-94.158 43.393-134.378 0 0-28.331-6.36-53.88-33.9-25.622 27.528-54.004 33.9-54.004 33.9 33.893 40.22 41.556 102.927 43.206 134.39-31.222-1.644-94.064-9.275-134.346-43.232 0 0-6.362 28.347-33.911 53.9 27.546 25.543 33.911 53.902 33.911 53.902z" fill="#fff" mask="url(#i)" opacity=".5"/></g><g transform="translate(42 230.552)"><use fill="url(#c)" xlink:href="#d"/><path d="m-165.274 14.539c14.52-11.319 38.208-35.52 44.674-76.46-10.621.012-18.62-7.961-18.62-17.793s7.999-17.805 17.863-17.805 17.863 7.973 17.863 17.805c0 5.79-2.81 10.968-7.101 14.219 13.93 12.142 55.32 43.944 115.842 52.654-8.69-60.34-40.608-101.61-52.793-115.496-3.262 4.278-8.456 7.078-14.266 7.078-9.864 0-17.863-7.972-17.863-17.804s7.999-17.805 17.863-17.805c9.865 0 17.863 7.973 17.863 17.805 41.064-5.69 65.343-29.3 76.7-43.773-6.348-2.73-10.805-9.039-10.805-16.367 0-9.832 7.998-17.805 17.863-17.805 9.965 0 17.962 7.973 17.962 17.805 0 7.328-4.455 13.636-10.804 16.367 11.356 14.472 35.635 38.082 76.712 44.525-.012-10.584 7.986-18.557 17.852-18.557 9.865 0 17.863 7.973 17.863 17.805s-7.998 17.804-17.863 17.804c-5.81 0-11.004-2.8-14.266-7.078-12.185 13.886-44.105 55.155-52.835 115.496 60.562-8.71 101.952-40.512 115.883-52.654-4.291-3.251-7.102-8.428-7.102-14.219 0-9.832 7.998-17.804 17.864-17.804 9.865 0 17.863 7.972 17.863 17.804s-7.998 17.805-17.863 17.805c5.71 40.929 29.396 65.128 43.917 76.448 2.738-6.327 9.068-10.769 16.422-10.769 9.863 0 17.863 7.972 17.863 17.804 0 9.833-8 17.804-17.863 17.804-7.354 0-13.684-4.44-16.422-10.768-14.521 11.318-38.207 35.519-44.674 76.46 10.622-.012 18.62 7.961 18.62 17.793s-7.998 17.805-17.863 17.805c-9.866 0-17.864-7.973-17.864-17.805 0-5.79 2.81-10.968 7.102-14.219-13.93-12.142-55.32-43.942-115.842-52.653 8.69 60.338 40.609 101.61 52.793 115.495 3.262-4.278 8.456-7.078 14.266-7.078 9.865 0 17.863 7.972 17.863 17.805 0 9.832-7.998 17.804-17.863 17.804-9.866 0-17.864-7.972-17.864-17.804-41.065 5.69-65.343 29.3-76.7 43.772 6.348 2.73 10.804 9.039 10.804 16.367 0 9.832-7.997 17.805-17.863 17.805-9.964 0-17.962-7.973-17.962-17.805 0-7.328 4.456-13.637 10.804-16.367-11.356-14.472-35.636-38.082-76.712-44.527.013 10.587-7.985 18.559-17.85 18.559-9.864 0-17.863-7.972-17.863-17.804 0-9.833 7.999-17.805 17.863-17.805 5.81 0 11.004 2.8 14.266 7.078 12.186-13.884 44.103-55.156 52.834-115.495-60.56 8.712-101.951 40.511-115.882 52.653 4.292 3.251 7.101 8.429 7.101 14.219 0 9.832-7.999 17.805-17.863 17.805s-17.863-7.973-17.863-17.805 7.999-17.805 17.863-17.805c-5.71-40.93-29.397-65.129-43.917-76.448-2.739 6.326-9.068 10.768-16.421 10.768-9.865 0-17.863-7.971-17.863-17.804 0-9.832 7.998-17.804 17.863-17.804 7.353 0 13.682 4.441 16.421 10.769zm59.795 60.845c40.354-33.899 103.307-41.516 134.769-43.145-1.84 31.399-9.515 93.996-43.468 134.146 0 0 28.432 6.362 54.046 33.919 25.645-27.57 54.026-33.92 54.026-33.92-33.953-40.15-41.628-102.746-43.282-134.157 31.276 1.64 94.23 9.258 134.583 43.157 0 0 6.373-28.299 33.97-53.813-27.586-25.444-33.97-53.805-33.97-53.805-40.353 33.9-103.307 41.517-134.769 43.146 1.84-31.397 9.515-93.996 43.468-134.146 0 0-28.38-6.35-53.974-33.843-25.667 27.48-54.098 33.843-54.098 33.843 33.952 40.15 41.628 102.749 43.281 134.158-31.276-1.641-94.228-9.259-134.582-43.158 0 0-6.373 28.299-33.97 53.809 27.594 25.498 33.97 53.809 33.97 53.809z" fill="#fff" mask="url(#j)" opacity=".5"/></g><g transform="translate(42 8)"><use fill="url(#e)" xlink:href="#f"/><path d="m-165.345 237.01c14.526-11.327 38.224-35.547 44.693-76.52-10.626.012-18.628-7.967-18.628-17.807s8.002-17.818 17.871-17.818 17.87 7.979 17.87 17.818c0 5.795-2.81 10.977-7.104 14.23 13.937 12.152 55.344 43.98 115.892 52.696-8.694-60.388-40.625-101.69-52.815-115.587-3.264 4.281-8.46 7.084-14.272 7.084-9.87 0-17.871-7.979-17.871-17.819s8.002-17.818 17.87-17.818c9.87 0 17.872 7.979 17.872 17.818 41.08-5.695 65.37-29.323 76.731-43.806-6.35-2.734-10.809-9.046-10.809-16.38 0-9.84 8.001-17.82 17.871-17.82 9.969 0 17.97 7.98 17.97 17.82 0 7.334-4.458 13.646-10.809 16.38 11.361 14.483 35.65 38.111 76.745 44.56-.012-10.593 7.99-18.572 17.86-18.572 9.869 0 17.87 7.979 17.87 17.818 0 9.84-8.001 17.819-17.87 17.819-5.813 0-11.01-2.803-14.273-7.084-12.189 13.898-44.122 55.199-52.856 115.587 60.587-8.717 101.995-40.544 115.933-52.695-4.293-3.254-7.105-8.435-7.105-14.23 0-9.84 8.001-17.819 17.87-17.819 9.87 0 17.872 7.979 17.872 17.819s-8.001 17.818-17.871 17.818c5.713 40.962 29.408 65.18 43.937 76.509 2.738-6.332 9.071-10.778 16.428-10.778 9.868 0 17.87 7.978 17.87 17.818s-8.002 17.818-17.87 17.818c-7.357 0-13.69-4.444-16.428-10.777-14.529 11.328-38.224 35.547-44.694 76.52 10.627-.01 18.628 7.968 18.628 17.808s-8.001 17.818-17.871 17.818-17.871-7.978-17.871-17.818c0-5.795 2.812-10.976 7.105-14.23-13.937-12.152-55.345-43.977-115.892-52.695 8.693 60.385 40.626 101.69 52.815 115.586 3.264-4.281 8.46-7.084 14.272-7.084 9.87 0 17.871 7.98 17.871 17.819 0 9.84-8.001 17.818-17.87 17.818-9.87 0-17.872-7.978-17.872-17.818-41.082 5.695-65.37 29.323-76.733 43.807 6.35 2.732 10.81 9.046 10.81 16.38 0 9.84-8.002 17.819-17.872 17.819-9.969 0-17.97-7.98-17.97-17.819 0-7.334 4.458-13.648 10.81-16.38-11.363-14.484-35.653-38.113-76.745-44.563.013 10.595-7.99 18.573-17.858 18.573-9.87 0-17.871-7.978-17.871-17.818s8.002-17.819 17.87-17.819c5.813 0 11.01 2.803 14.273 7.084 12.19-13.895 44.12-55.2 52.855-115.586-60.587 8.719-101.995 40.543-115.932 52.695 4.294 3.254 7.105 8.435 7.105 14.23 0 9.84-8.002 17.818-17.871 17.818s-17.871-7.978-17.871-17.818 8.002-17.819 17.87-17.819c-5.71-40.962-29.409-65.18-43.935-76.509-2.74 6.332-9.072 10.777-16.428 10.777-9.869 0-17.87-7.977-17.87-17.818 0-9.84 8.001-17.818 17.87-17.818 7.356 0 13.688 4.445 16.428 10.777zm59.821 60.893c40.37-33.925 103.35-41.549 134.826-43.179-1.84 31.424-9.519 94.07-43.486 134.252 0 0 28.444 6.367 54.069 33.945 25.656-27.59 54.05-33.945 54.05-33.945-33.968-40.182-41.647-102.828-43.3-134.264 31.288 1.642 94.27 9.266 134.64 43.191 0 0 6.375-28.32 33.984-53.854-27.597-25.465-33.984-53.848-33.984-53.848-40.37 33.926-103.352 41.55-134.827 43.18 1.84-31.422 9.519-94.07 43.487-134.252 0 0-28.393-6.355-53.997-33.87-25.679 27.503-54.122 33.87-54.122 33.87 33.966 40.182 41.646 102.83 43.3 134.264-31.29-1.643-94.27-9.266-134.64-43.192 0 0-6.376 28.32-33.985 53.85 27.606 25.519 33.985 53.852 33.985 53.852z" fill="#fff" mask="url(#k)" opacity=".5"/></g><g transform="translate(107.35 8)"><use fill="url(#g)" xlink:href="#h"/><path d="m-231.379 237.22c14.57-11.338 38.34-35.579 44.83-76.589-10.659.013-18.686-7.973-18.686-17.822 0-9.848 8.027-17.834 17.926-17.834s17.925 7.986 17.925 17.834c0 5.8-2.819 10.986-7.126 14.243 13.979 12.162 55.513 44.018 116.245 52.742-8.72-60.441-40.75-101.78-52.976-115.689-3.274 4.285-8.486 7.09-14.316 7.09-9.899 0-17.925-7.986-17.925-17.834 0-9.849 8.026-17.834 17.925-17.834 9.9 0 17.926 7.985 17.926 17.834 41.206-5.7 65.57-29.35 76.965-43.846-6.37-2.735-10.842-9.053-10.842-16.394 0-9.849 8.026-17.835 17.926-17.835 10 0 18.025 7.986 18.025 17.835 0 7.34-4.472 13.659-10.842 16.394 11.395 14.497 35.759 38.146 76.979 44.6-.012-10.603 8.014-18.588 17.913-18.588 9.9 0 17.926 7.985 17.926 17.834 0 9.848-8.026 17.834-17.926 17.834-5.83 0-11.042-2.805-14.315-7.09-12.226 13.91-44.257 55.248-53.018 115.69 60.773-8.726 102.307-40.58 116.287-52.743-4.306-3.257-7.127-8.442-7.127-14.242 0-9.849 8.026-17.835 17.926-17.835s17.925 7.986 17.925 17.835c0 9.848-8.026 17.834-17.925 17.834 5.73 40.998 29.498 65.237 44.07 76.576a17.96 17.96 0 0 1 16.479-10.787c9.898 0 17.925 7.985 17.925 17.833 0 9.85-8.027 17.835-17.925 17.835a17.958 17.958 0 0 1 -16.479-10.787c-14.572 11.338-38.34 35.578-44.83 76.588 10.66-.011 18.685 7.974 18.685 17.823 0 9.848-8.026 17.834-17.925 17.834-9.9 0-17.926-7.986-17.926-17.834 0-5.8 2.82-10.986 7.127-14.243-13.98-12.162-55.513-44.016-116.246-52.74 8.72 60.438 40.75 101.78 52.977 115.687 3.273-4.285 8.486-7.09 14.315-7.09 9.9 0 17.926 7.986 17.926 17.835 0 9.848-8.026 17.834-17.926 17.834s-17.925-7.986-17.925-17.834c-41.208 5.7-65.57 29.349-76.967 43.845 6.37 2.735 10.842 9.054 10.842 16.395 0 9.848-8.026 17.834-17.926 17.834-9.999 0-18.025-7.986-18.025-17.834 0-7.341 4.472-13.66 10.842-16.395-11.395-14.496-35.76-38.145-76.978-44.601.013 10.604-8.014 18.59-17.913 18.59s-17.925-7.986-17.925-17.834c0-9.849 8.026-17.835 17.925-17.835 5.83 0 11.042 2.805 14.316 7.09 12.227-13.907 44.256-55.25 53.016-115.688-60.771 8.726-102.305 40.58-116.285 52.741 4.307 3.257 7.126 8.443 7.126 14.243 0 9.848-8.026 17.834-17.925 17.834s-17.926-7.986-17.926-17.834c0-9.849 8.027-17.834 17.926-17.834-5.73-40.999-29.5-65.238-44.07-76.577a17.963 17.963 0 0 1 -16.478 10.787c-9.899 0-17.926-7.985-17.926-17.835 0-9.848 8.027-17.833 17.926-17.833 7.378 0 13.73 4.449 16.478 10.787zm60.004 60.946c40.493-33.955 103.665-41.585 135.237-43.217-1.846 31.452-9.548 94.153-43.62 134.37 0 0 28.532 6.373 54.235 33.976 25.735-27.616 54.213-33.975 54.213-33.975-34.07-40.218-41.772-102.92-43.43-134.383 31.384 1.644 94.557 9.274 135.05 43.23 0 0 6.396-28.346 34.089-53.903-27.682-25.487-34.088-53.895-34.088-53.895-40.494 33.956-103.667 41.586-135.238 43.218 1.846-31.45 9.548-94.153 43.62-134.37 0 0-28.48-6.361-54.162-33.9-25.757 27.527-54.287 33.9-54.287 33.9 34.07 40.217 41.773 102.92 43.432 134.382-31.386-1.644-94.557-9.274-135.05-43.23 0 0-6.396 28.346-34.09 53.898 27.691 25.541 34.09 53.9 34.09 53.9z" fill="#fff" mask="url(#l)" opacity=".5"/></g></g></g></svg>