<?xml version="1.0" encoding="UTF-8" standalone="no"?>
<!-- Created with Inkscape (http://www.inkscape.org/) -->

<svg
   xmlns:dc="http://purl.org/dc/elements/1.1/"
   xmlns:cc="http://creativecommons.org/ns#"
   xmlns:rdf="http://www.w3.org/1999/02/22-rdf-syntax-ns#"
   xmlns:svg="http://www.w3.org/2000/svg"
   xmlns="http://www.w3.org/2000/svg"
   xmlns:sodipodi="http://sodipodi.sourceforge.net/DTD/sodipodi-0.dtd"
   xmlns:inkscape="http://www.inkscape.org/namespaces/inkscape"
   version="1.1"
   id="svg910"
   xml:space="preserve"
   width="475.20667"
   height="326.52216"
   viewBox="0 0 475.20666 326.52216"
   sodipodi:docname="Liberty Rider.svg"
   inkscape:version="0.92.3 (2405546, 2018-03-11)"><metadata
     id="metadata916"><rdf:RDF><cc:Work
         rdf:about=""><dc:format>image/svg+xml</dc:format><dc:type
           rdf:resource="http://purl.org/dc/dcmitype/StillImage" /><dc:title></dc:title></cc:Work></rdf:RDF></metadata><defs
     id="defs914"><clipPath
       clipPathUnits="userSpaceOnUse"
       id="clipPath926"><path
         d="M 0,595.28 H 841.89 V 0 H 0 Z"
         id="path924"
         inkscape:connector-curvature="0" /></clipPath><clipPath
       clipPathUnits="userSpaceOnUse"
       id="clipPath992"><path
         d="M 0,595.28 H 841.89 V 0 H 0 Z"
         id="path990"
         inkscape:connector-curvature="0" /></clipPath><clipPath
       clipPathUnits="userSpaceOnUse"
       id="clipPath1018"><path
         d="M 0,595.28 H 841.89 V 0 H 0 Z"
         id="path1016"
         inkscape:connector-curvature="0" /></clipPath></defs><sodipodi:namedview
     pagecolor="#ffffff"
     bordercolor="#666666"
     borderopacity="1"
     objecttolerance="10"
     gridtolerance="10"
     guidetolerance="10"
     inkscape:pageopacity="0"
     inkscape:pageshadow="2"
     inkscape:window-width="1853"
     inkscape:window-height="1145"
     id="namedview912"
     showgrid="false"
     fit-margin-top="20"
     fit-margin-left="20"
     fit-margin-right="20"
     fit-margin-bottom="20"
     inkscape:zoom="2.2004062"
     inkscape:cx="249.30763"
     inkscape:cy="145.2318"
     inkscape:window-x="1987"
     inkscape:window-y="27"
     inkscape:window-maximized="1"
     inkscape:current-layer="g918" /><g
     id="g918"
     inkscape:groupmode="layer"
     inkscape:label="Liberty App 5"
     transform="matrix(1.3333333,0,0,-1.3333333,-334.01732,577.25985)"><g
       id="g920"><g
         id="g922"
         clip-path="url(#clipPath926)"><g
           id="g928"
           transform="translate(428.9308,310.8989)"><path
             d="m 0,0 c -33.857,-0.456 -47.898,6.112 -52.799,9.419 -2.745,9.035 -5.248,21.494 -5.412,37.167 -0.163,15.556 5.228,29.312 15.59,39.782 8.625,8.715 20.318,14.643 32.547,16.767 l 0.65,-47.046 c -3.787,-0.184 -8.306,-0.492 -12.931,-1.009 -15.233,-1.704 -24.531,-4.776 -28.425,-9.39 -4.609,-5.462 -2.494,-15.51 -0.255,-26.147 l 0.293,-1.393 0.219,-1.045 0.825,-0.676 c 4.087,-3.353 5.238,-3.599 5.73,-3.704 3.759,-0.802 18.058,-3.422 44.192,-3.422 22.518,0 37.253,1.852 45.649,3.406 1.92,0.355 3.968,2.266 5.348,3.806 l 0.605,0.675 0.135,0.898 c 0.272,1.824 0.597,3.707 0.911,5.528 1.543,8.948 3,17.399 -0.944,22.074 -3.894,4.614 -13.19,7.686 -28.42,9.39 -3.951,0.442 -7.824,0.731 -11.23,0.92 l -0.669,47.065 C 23.697,100.883 35.236,94.989 43.77,86.365 54.131,75.895 59.522,62.14 59.36,46.586 59.191,30.464 56.742,18.24 53.986,9.505 49.13,5.989 35.833,0.483 0,0 m 46.069,-7.599 c -18.411,-18.016 -31.341,-20.45 -41.564,-20.45 -0.609,0 -1.191,0.006 -1.747,0.012 -0.526,0.005 -1.029,0.01 -1.509,0.01 -0.44,0 -0.863,-0.004 -1.266,-0.016 -0.608,0.017 -1.246,0.026 -1.917,0.035 -8.465,0.115 -22.608,0.307 -43.701,20.322 -0.617,1.012 -2.879,4.934 -5.318,11.587 5.883,-6.673 19.839,-16.655 50.579,-16.309 30.764,0.345 45.034,7.988 51.598,14.375 -2.497,-5.881 -4.71,-8.973 -5.155,-9.566 m 3.544,51.335 c 3.721,-4.41 0.858,-15.136 -0.648,-25.2 0,0 -2.336,-2.607 -3.643,-2.848 -6.591,-1.22 -21.155,-3.356 -45.098,-3.356 -23.007,0 -37.358,2.031 -43.56,3.356 -0.923,0.197 -4.441,3.083 -4.441,3.083 -2.149,10.259 -4.517,20.427 -0.688,24.965 7.958,9.431 46.266,9.594 48.903,9.594 0.094,0 0.143,0 0.143,0 0,0 0.048,0 0.142,0 2.632,0 40.932,-0.162 48.89,-9.594 M 1.32,107.046 c -0.249,0 -0.496,-0.002 -0.744,-0.005 H 0.574 0.572 c -0.246,0.003 -0.496,0.005 -0.744,0.005 -28.674,10e-4 -61.477,-21.383 -61.068,-60.492 0.385,-36.785 13.241,-56.172 13.241,-56.172 23.792,-22.704 39.255,-21.205 47.984,-21.455 0.402,0.013 0.823,0.017 1.264,0.017 0.986,0 2.071,-0.022 3.256,-0.022 8.816,0 23.189,1.2 43.831,21.46 0,0 13.64,16.724 14.052,56.172 0.408,39.107 -32.395,60.492 -61.068,60.492"
             style="fill:#ffffff;fill-opacity:1;fill-rule:nonzero;stroke:none"
             id="path930"
             inkscape:connector-curvature="0" /></g><g
           id="g932"
           transform="translate(386.3098,397.2667)"><path
             d="m 0,0 c -10.362,-10.47 -15.753,-24.226 -15.59,-39.782 0.164,-15.672 2.668,-28.132 5.412,-37.167 4.901,-3.307 18.942,-9.875 52.799,-9.419 35.833,0.483 49.13,5.989 53.986,9.505 2.756,8.735 5.205,20.959 5.374,37.081 0.162,15.554 -5.229,29.309 -15.59,39.779 -8.534,8.624 -20.073,14.518 -32.161,16.7 l 0.669,-47.064 c 3.406,-0.19 7.279,-0.479 11.23,-0.921 15.23,-1.704 24.526,-4.776 28.42,-9.39 3.944,-4.675 2.487,-13.126 0.944,-22.073 -0.314,-1.822 -0.639,-3.705 -0.911,-5.529 l -0.135,-0.897 -0.605,-0.676 c -1.38,-1.54 -3.428,-3.451 -5.348,-3.806 -8.396,-1.553 -23.131,-3.406 -45.649,-3.406 -26.134,0 -40.433,2.62 -44.192,3.422 -0.492,0.105 -1.643,0.351 -5.73,3.704 l -0.825,0.676 -0.219,1.045 -0.293,1.393 c -2.239,10.637 -4.354,20.685 0.255,26.147 3.894,4.614 13.192,7.686 28.425,9.39 4.625,0.517 9.144,0.825 12.931,1.009 l -0.65,47.046 C 20.318,14.643 8.625,8.715 0,0"
             style="fill:#f14923;fill-opacity:1;fill-rule:nonzero;stroke:none"
             id="path934"
             inkscape:connector-curvature="0" /></g><g
           id="g936"
           transform="translate(377.9776,314.7995)"><path
             d="m 0,0 c 2.439,-6.652 4.701,-10.574 5.318,-11.587 21.093,-20.015 35.236,-20.206 43.702,-20.322 0.67,-0.009 1.309,-0.018 1.916,-0.034 0.404,0.011 0.826,0.016 1.266,0.016 0.48,0 0.983,-0.005 1.509,-0.011 0.556,-0.005 1.138,-0.011 1.747,-0.011 10.223,0 23.153,2.434 41.564,20.45 0.445,0.593 2.658,3.684 5.155,9.566 C 95.613,-8.321 81.343,-15.963 50.579,-16.309 19.839,-16.654 5.883,-6.673 0,0"
             style="fill:#f14923;fill-opacity:1;fill-rule:nonzero;stroke:none"
             id="path938"
             inkscape:connector-curvature="0" /></g><g
           id="g940"
           transform="translate(467.4081,325.2885)"><path
             d="m 0,0 c 0.745,10.2 1.348,19.607 1.261,22.871 -0.212,7.998 -39.128,6.961 -39.128,6.961 0,0 -38.891,1.037 -39.103,-6.961 -0.087,-3.26 0.515,-12.653 1.259,-22.841 7.723,-1.155 20.144,-2.328 37.486,-2.328 C -20.57,-2.298 -8.02,-1.118 0,0"
             style="fill:#ffffff;fill-opacity:1;fill-rule:nonzero;stroke:none"
             id="path942"
             inkscape:connector-curvature="0" /></g><g
           id="g944"
           transform="translate(410.5641,335.8754)"><path
             d="M 0,0 C -0.64,0 -1.159,0.456 -1.159,1.018 -1.159,1.58 -0.64,2.035 0,2.035 0.64,2.035 1.159,1.58 1.159,1.018 1.159,0.456 0.64,0 0,0 m 0.751,5.833 c -9.205,1.002 -13.057,-4.761 -13.057,-4.761 2.442,-1.378 4.321,-1.503 4.321,-1.503 1.112,1.516 2.267,2.573 3.434,3.286 -0.034,-0.294 -0.052,-0.594 -0.052,-0.9 0,-1.716 0.543,-3.262 1.411,-4.357 2.479,-0.214 4.936,0.341 6.653,0.617 0.616,1.026 0.985,2.325 0.985,3.74 0,0.275 -0.02,0.542 -0.047,0.807 3.916,-2.021 6.78,-5.699 6.78,-5.699 C 7.233,4.079 0.751,5.833 0.751,5.833"
             style="fill:#f14923;fill-opacity:1;fill-rule:nonzero;stroke:none"
             id="path946"
             inkscape:connector-curvature="0" /></g><g
           id="g948"
           transform="translate(406.2375,348.5006)"><path
             d="m 0,0 c -9.26,1.122 -13.152,-4.374 -13.152,-4.374 3.014,2.549 7.806,2.239 10.065,2.269 5.262,0.071 20.127,-5.746 20.127,-5.746 0,0 0.308,2.937 -0.251,3.665 C 15.246,-2.175 4.648,-0.563 0,0"
             style="fill:#f14923;fill-opacity:1;fill-rule:nonzero;stroke:none"
             id="path950"
             inkscape:connector-curvature="0" /></g><g
           id="g952"
           transform="translate(448.3482,335.8754)"><path
             d="M 0,0 C -0.64,0 -1.159,0.456 -1.159,1.018 -1.159,1.58 -0.64,2.035 0,2.035 0.64,2.035 1.159,1.58 1.159,1.018 1.159,0.456 0.64,0 0,0 m -0.751,5.833 c 0,0 -6.482,-1.754 -10.428,-8.77 0,0 2.864,3.678 6.78,5.7 -0.027,-0.266 -0.047,-0.533 -0.047,-0.808 0,-1.415 0.369,-2.714 0.985,-3.74 1.717,-0.276 4.174,-0.831 6.653,-0.617 0.868,1.095 1.411,2.641 1.411,4.357 0,0.306 -0.018,0.606 -0.052,0.9 1.167,-0.713 2.322,-1.77 3.434,-3.286 0,0 1.879,0.125 4.321,1.503 0,0 -3.852,5.763 -13.057,4.761"
             style="fill:#f14923;fill-opacity:1;fill-rule:nonzero;stroke:none"
             id="path954"
             inkscape:connector-curvature="0" /></g><g
           id="g956"
           transform="translate(465.8264,344.1262)"><path
             d="M 0,0 C 0,0 -3.892,5.497 -13.152,4.374 -17.8,3.811 -28.398,2.2 -29.941,0.189 c -0.559,-0.729 -0.25,-3.666 -0.25,-3.666 0,0 14.865,5.817 20.126,5.747 C -7.805,2.24 -3.013,2.55 0,0"
             style="fill:#f14923;fill-opacity:1;fill-rule:nonzero;stroke:none"
             id="path958"
             inkscape:connector-curvature="0" /></g><g
           id="g960"
           transform="translate(390.435,348.235)"><path
             d="m 0,0 c 0.212,7.886 39.115,6.863 39.115,6.863 0,0 38.929,1.023 39.141,-6.863 0.088,-3.245 -0.527,-12.654 -1.281,-22.811 2.866,0.393 5.159,0.778 6.894,1.1 1.307,0.243 3.644,2.856 3.644,2.856 1.506,10.089 4.371,20.842 0.648,25.264 -7.96,9.455 -46.272,9.618 -48.905,9.618 -0.094,0 -0.143,-0.001 -0.143,-0.001 0,0 -0.048,0.001 -0.142,0.001 -2.638,0 -40.959,-0.164 -48.919,-9.618 -3.83,-4.55 -1.461,-14.743 0.688,-25.029 0,0 3.52,-2.893 4.443,-3.091 1.532,-0.328 3.563,-0.699 6.096,-1.071 C 0.526,-12.636 -0.088,-3.242 0,0"
             style="fill:#f14923;fill-opacity:1;fill-rule:nonzero;stroke:none"
             id="path962"
             inkscape:connector-curvature="0" /></g><g
           id="g964"
           transform="translate(418.1945,414.8284)"><path
             d="m 0,0 0.687,-49.693 21.909,-0.509 -0.712,50.089 c 0,0 -2.948,1.474 -11.112,1.474 C 1.587,1.361 0,0 0,0"
             style="fill:#ffffff;fill-opacity:1;fill-rule:nonzero;stroke:none"
             id="path966"
             inkscape:connector-curvature="0" /></g><path
           d="m 283.205,236.474 h -8.846 v 8.846 h 8.846 z"
           style="fill:#f14923;fill-opacity:1;fill-rule:nonzero;stroke:none"
           id="path968"
           inkscape:connector-curvature="0" /><path
           d="m 292.051,227.628 h -8.846 v 8.846 h 8.846 z"
           style="fill:#f14923;fill-opacity:1;fill-rule:nonzero;stroke:none"
           id="path970"
           inkscape:connector-curvature="0" /><path
           d="m 300.898,236.474 h -8.846 v 8.846 h 8.846 z"
           style="fill:#f14923;fill-opacity:1;fill-rule:nonzero;stroke:none"
           id="path972"
           inkscape:connector-curvature="0" /><path
           d="m 292.051,245.32 h -8.846 v 8.846 h 8.846 z"
           style="fill:#f14923;fill-opacity:1;fill-rule:nonzero;stroke:none"
           id="path974"
           inkscape:connector-curvature="0" /><path
           d="m 274.359,245.32 h -8.846 v 8.846 h 8.846 z"
           style="fill:#f14923;fill-opacity:1;fill-rule:nonzero;stroke:none"
           id="path976"
           inkscape:connector-curvature="0" /><path
           d="m 309.744,245.32 h -8.846 v 8.846 h 8.846 z"
           style="fill:#f14923;fill-opacity:1;fill-rule:nonzero;stroke:none"
           id="path978"
           inkscape:connector-curvature="0" /><path
           d="m 309.744,227.543 h -8.846 v 8.846 h 8.846 z"
           style="fill:#f14923;fill-opacity:1;fill-rule:nonzero;stroke:none"
           id="path980"
           inkscape:connector-curvature="0" /></g></g><text
       transform="matrix(1,0,0,-1,322.688,227.9395)"
       style="font-variant:normal;font-weight:bold;font-stretch:condensed;font-size:38.22190094px;font-family:'Open Sans Condensed';-inkscape-font-specification:OpenSans-CondensedBold;writing-mode:lr-tb;fill:#f14923;fill-opacity:1;fill-rule:nonzero;stroke:none"
       id="text984"><tspan
         x="0 15.365204 26.831774 46.210278 62.492805 81.60376 98.115616 116.04169 125.4825 144.59344 156.06001 177.38783 193.67036"
         y="0"
         sodipodi:role="line"
         id="tspan982">LIBERTY RIDER</tspan></text>
<g
       id="g986"><g
         id="g988"
         clip-path="url(#clipPath992)"><path
           d="m 573.806,236.686 h 9.056 v 9.056 h -9.056 z"
           style="fill:#f14923;fill-opacity:1;fill-rule:nonzero;stroke:none"
           id="path994"
           inkscape:connector-curvature="0" /><path
           d="m 564.749,227.63 h 9.056 v 9.056 h -9.056 z"
           style="fill:#f14923;fill-opacity:1;fill-rule:nonzero;stroke:none"
           id="path996"
           inkscape:connector-curvature="0" /><path
           d="m 555.693,236.686 h 9.056 v 9.056 h -9.056 z"
           style="fill:#f14923;fill-opacity:1;fill-rule:nonzero;stroke:none"
           id="path998"
           inkscape:connector-curvature="0" /><path
           d="m 564.749,245.742 h 9.056 v 9.056 h -9.056 z"
           style="fill:#f14923;fill-opacity:1;fill-rule:nonzero;stroke:none"
           id="path1000"
           inkscape:connector-curvature="0" /><path
           d="m 582.862,245.742 h 9.056 v 9.056 h -9.056 z"
           style="fill:#f14923;fill-opacity:1;fill-rule:nonzero;stroke:none"
           id="path1002"
           inkscape:connector-curvature="0" /><path
           d="m 546.637,245.742 h 9.056 v 9.056 h -9.056 z"
           style="fill:#f14923;fill-opacity:1;fill-rule:nonzero;stroke:none"
           id="path1004"
           inkscape:connector-curvature="0" /><path
           d="m 546.637,227.543 h 9.056 v 9.056 h -9.056 z"
           style="fill:#f14923;fill-opacity:1;fill-rule:nonzero;stroke:none"
           id="path1006"
           inkscape:connector-curvature="0" /></g></g><text
       transform="matrix(1,0,0,-1,328.8521,203.2046)"
       style="font-style:italic;font-variant:normal;font-weight:300;font-stretch:normal;font-size:15.49540043px;font-family:'Open Sans Light';-inkscape-font-specification:OpenSansLight-Italic;writing-mode:lr-tb;fill:#f14923;fill-opacity:1;fill-rule:nonzero;stroke:none"
       id="text1010"><tspan
         x="0 8.0111217 18.39304 28.790453 36.863556 40.892361 51.289776 59.300896 67.962822 78.174294 81.98616 90.059265 100.44118 104.46999 114.68146 122.75456 130.47127 134.50008 147.12883 158.20804 165.66132 173.67244 182.33437 192.54584"
         y="0"
         sodipodi:role="line"
         id="tspan1008">ANGE GARDIEN DES MOTARDS</tspan></text>
<g
       id="g1012"><g
         id="g1014"
         clip-path="url(#clipPath1018)"><g
           id="g1020"
           transform="translate(372.8114,321.648)"><path
             d="m 0,0 c 0,0 10.022,-11.975 55.557,-11.362 53.482,0.72 57.228,12.53 57.228,12.53 v -1.81 c 0,0 -3.897,-22.64 -57.605,-23.243 C 8.712,-24.407 0.238,-1.547 0.238,-1.547 Z"
             style="fill:#ffffff;fill-opacity:1;fill-rule:nonzero;stroke:none"
             id="path1022"
             inkscape:connector-curvature="0" /></g></g></g></g></svg>