<?xml version="1.0" encoding="UTF-8" standalone="no"?>
<svg
   xmlns:dc="http://purl.org/dc/elements/1.1/"
   xmlns:cc="http://creativecommons.org/ns#"
   xmlns:rdf="http://www.w3.org/1999/02/22-rdf-syntax-ns#"
   xmlns:svg="http://www.w3.org/2000/svg"
   xmlns="http://www.w3.org/2000/svg"
   viewBox="260 420 270 300"
   xml:space="preserve"
   id="svg2"
   version="1.1"><metadata
     id="metadata8"><rdf:RDF><cc:Work
         rdf:about=""><dc:format>image/svg+xml</dc:format><dc:type
           rdf:resource="http://purl.org/dc/dcmitype/StillImage" /></cc:Work></rdf:RDF></metadata><defs
     id="defs6"><clipPath
       id="clipPath18"
       clipPathUnits="userSpaceOnUse"><path
         id="path16"
         d="M 0,841.89 H 595.28 V 0 H 0 Z" /></clipPath></defs><g
     transform="matrix(1.3333333,0,0,-1.3333333,0,1122.52)"
     id="g10"><g
       id="g12"><g
         clip-path="url(#clipPath18)"
         id="g14"><g
           transform="translate(322.6025,433.7084)"
           id="g20"><path
             id="path22"
             style="fill:#165096;fill-opacity:1;fill-rule:nonzero;stroke:none"
             d="m 0,0 c -13.421,0.195 -28.375,11.81 -28.375,30.893 v 63.224 h -4.458 V 60.432 c -19.345,-4.197 -33.749,-20.225 -33.749,-39.417 0,-22.344 19.561,-40.465 43.74,-40.465 18.376,0 34.06,10.532 40.541,25.434 C 13.561,2.388 6.451,-0.082 0,0" /></g><g
           transform="translate(300.0371,495.1996)"
           id="g24"><path
             id="path26"
             style="fill:#165096;fill-opacity:1;fill-rule:nonzero;stroke:none"
             d="M 0,0 C 1.848,0.222 24.264,-0.074 37.354,-19.897 41.768,-26.575 37.468,-34.914 24.187,-35.361 19.452,-35.509 2.515,-31.212 0,0" /></g><g
           transform="translate(271.3896,402.1742)"
           id="g28"><path
             id="path30"
             style="fill:#165096;fill-opacity:1;fill-rule:nonzero;stroke:none"
             d="m 0,0 c -11.311,0 -22.75,-4.668 -22.75,-21.47 v -22.742 h 10.103 v 22.584 c 0,11.334 7.313,13.949 12.647,13.949 5.332,0 12.643,-2.615 12.643,-13.949 V -44.212 H 22.744 V -21.47 C 22.744,-4.668 11.307,0 0,0" /></g><g
           transform="translate(200.0269,379.4594)"
           id="g32"><path
             id="path34"
             style="fill:#165096;fill-opacity:1;fill-rule:nonzero;stroke:none"
             d="m 0,0 c 0,-10.685 4.668,-21.497 21.468,-21.497 h 20.555 v 7.541 H 24.094 c -11.338,0 -13.571,8.741 -13.571,13.956 0,5.205 2.233,14.077 13.571,14.077 h 17.929 v 7.415 H 21.468 C 4.668,21.492 0,10.683 0,0" /></g><g
           transform="translate(310.9248,375.9769)"
           id="g36"><path
             id="path38"
             style="fill:#165096;fill-opacity:1;fill-rule:nonzero;stroke:none"
             d="m 0,0 h 35.175 c 0.02,1.206 0,3.19 0,3.19 0,19.142 -12.552,23.007 -23.952,23.007 -16.039,0 -21.978,-11.471 -21.978,-22.104 l -0.01,-0.611 c 0,-10.684 4.675,-21.497 21.476,-21.497 h 23.2 v 7.541 H 13.337 C 3.919,-10.474 0.789,-5.043 0,0 M 24.39,6.505 H 0.012 c 0,3.674 0.257,13.119 12.074,13.119 14.04,0 12.304,-13.119 12.304,-13.119" /></g><g
           transform="translate(377.5967,382.8168)"
           id="g40"><path
             id="path42"
             style="fill:#165096;fill-opacity:1;fill-rule:nonzero;stroke:none"
             d="m 0,0 h -5.675 c -5.322,0 -8.638,1.693 -8.638,5.488 0,3.682 2.597,5.178 8.001,5.232 h 22.321 v 7.415 H -6.228 c -9.033,0 -19.271,-1.508 -19.271,-12.649 0,-12.17 13.629,-11.983 17.656,-11.983 h 5.671 c 5.324,0 8.639,-1.693 8.639,-5.49 0,-3.678 -2.601,-5.174 -8.006,-5.228 h -22.315 v -7.417 h 22.237 c 9.037,0 19.273,1.508 19.273,12.649 C 17.656,0.193 4.025,0 0,0" /></g><g
           transform="translate(211.3115,345.8236)"
           id="g44"><path
             id="path46"
             style="fill:#165096;fill-opacity:1;fill-rule:nonzero;stroke:none"
             d="M 0,0 C 0.208,0 0.311,-0.105 0.311,-0.313 V -1.7 C 0.311,-1.916 0.208,-2.025 0,-2.025 h -6.296 c -0.367,0 -0.672,-0.032 -0.912,-0.09 -0.24,-0.064 -0.432,-0.165 -0.573,-0.314 -0.141,-0.145 -0.243,-0.341 -0.304,-0.584 -0.063,-0.247 -0.092,-0.56 -0.092,-0.936 v -2.01 c 0,-0.377 0.029,-0.689 0.092,-0.94 0.061,-0.247 0.163,-0.448 0.304,-0.592 0.141,-0.149 0.333,-0.251 0.573,-0.314 0.24,-0.058 0.545,-0.09 0.912,-0.09 H 0 c 0.208,0 0.311,-0.106 0.311,-0.313 V -9.596 C 0.311,-9.803 0.208,-9.904 0,-9.904 h -6.381 c -0.717,0 -1.324,0.066 -1.826,0.199 -0.499,0.13 -0.906,0.345 -1.222,0.642 -0.317,0.298 -0.549,0.682 -0.694,1.161 -0.147,0.473 -0.219,1.053 -0.219,1.731 v 2.433 c 0,0.682 0.072,1.258 0.219,1.728 0.145,0.47 0.377,0.854 0.694,1.152 0.316,0.297 0.723,0.513 1.222,0.65 C -7.705,-0.07 -7.098,0 -6.381,0 Z" /></g><g
           transform="translate(224.7246,345.8236)"
           id="g48"><path
             id="path50"
             style="fill:#165096;fill-opacity:1;fill-rule:nonzero;stroke:none"
             d="m 0,0 c 0.215,0 0.325,-0.105 0.325,-0.313 v -1.344 c 0,-0.208 -0.11,-0.31 -0.325,-0.31 h -6.183 c -0.368,0 -0.671,-0.031 -0.913,-0.094 -0.24,-0.059 -0.434,-0.165 -0.579,-0.309 -0.147,-0.15 -0.249,-0.345 -0.306,-0.596 -0.055,-0.251 -0.084,-0.556 -0.084,-0.925 v -0.14 h 7.994 c 0.206,0 0.31,-0.107 0.31,-0.314 v -1.117 c 0,-0.207 -0.104,-0.313 -0.31,-0.313 h -7.994 v -0.239 c 0,-0.369 0.029,-0.678 0.084,-0.928 0.057,-0.247 0.159,-0.448 0.306,-0.592 0.145,-0.15 0.339,-0.251 0.579,-0.314 0.242,-0.058 0.545,-0.089 0.913,-0.089 H 0 c 0.215,0 0.325,-0.107 0.325,-0.314 V -9.596 C 0.325,-9.803 0.215,-9.904 0,-9.904 h -6.226 c -0.717,0 -1.324,0.066 -1.826,0.199 -0.499,0.13 -0.906,0.345 -1.222,0.642 -0.317,0.298 -0.549,0.682 -0.693,1.161 -0.147,0.473 -0.22,1.053 -0.22,1.731 v 2.433 c 0,0.682 0.073,1.258 0.22,1.728 0.144,0.47 0.376,0.854 0.693,1.152 0.316,0.297 0.723,0.513 1.222,0.65 C -7.55,-0.07 -6.943,0 -6.226,0 Z" /></g><g
           transform="translate(230.7075,345.8236)"
           id="g52"><path
             id="path54"
             style="fill:#165096;fill-opacity:1;fill-rule:nonzero;stroke:none"
             d="m 0,0 c 0.227,0 0.415,-0.012 0.566,-0.031 0.151,-0.016 0.282,-0.059 0.395,-0.117 0.114,-0.064 0.222,-0.15 0.326,-0.255 0.104,-0.111 0.221,-0.255 0.355,-0.432 l 5.261,-6.907 c 0.039,-0.063 0.1,-0.098 0.184,-0.098 h 0.128 c 0.076,0 0.114,0.047 0.114,0.141 v 7.386 C 7.329,-0.105 7.432,0 7.64,0 H 9.125 C 9.333,0 9.436,-0.105 9.436,-0.313 V -8.432 C 9.436,-9.008 9.333,-9.399 9.125,-9.599 8.917,-9.803 8.598,-9.904 8.163,-9.904 H 6.946 c -0.217,0 -0.397,0.007 -0.544,0.027 -0.147,0.02 -0.277,0.059 -0.39,0.113 -0.112,0.059 -0.223,0.141 -0.331,0.247 -0.11,0.11 -0.233,0.259 -0.376,0.447 l -5.276,6.903 c -0.057,0.067 -0.119,0.099 -0.184,0.099 h -0.127 c -0.077,0 -0.114,-0.047 -0.114,-0.142 v -7.386 c 0,-0.207 -0.104,-0.308 -0.312,-0.308 h -1.484 c -0.218,0 -0.326,0.101 -0.326,0.308 v 8.122 c 0,0.577 0.104,0.964 0.312,1.168 C -2,-0.102 -1.679,0 -1.244,0 Z" /></g><g
           transform="translate(254.3071,345.8236)"
           id="g56"><path
             id="path58"
             style="fill:#165096;fill-opacity:1;fill-rule:nonzero;stroke:none"
             d="M 0,0 C 0.216,0 0.325,-0.105 0.325,-0.313 V -1.7 C 0.325,-1.916 0.216,-2.025 0,-2.025 h -4.443 v -7.571 c 0,-0.207 -0.104,-0.308 -0.311,-0.308 h -1.542 c -0.208,0 -0.311,0.101 -0.311,0.308 v 7.571 h -4.443 c -0.218,0 -0.326,0.109 -0.326,0.325 v 1.387 c 0,0.208 0.108,0.313 0.326,0.313 z" /></g><g
           transform="translate(259.5713,340.7728)"
           id="g60"><path
             id="path62"
             style="fill:#165096;fill-opacity:1;fill-rule:nonzero;stroke:none"
             d="m 0,0 h 5.418 c 0.48,0 0.819,0.103 1.019,0.31 0.198,0.208 0.296,0.525 0.296,0.948 v 0.596 c 0,0.422 -0.098,0.74 -0.296,0.948 -0.2,0.204 -0.539,0.309 -1.019,0.309 H 0.182 C 0.061,3.111 0,3.057 0,2.943 Z M 5.855,5.051 C 6.94,5.051 7.718,4.804 8.19,4.314 8.663,3.824 8.897,3.096 8.897,2.136 V 1.329 C 8.897,0.518 8.733,-0.125 8.402,-0.595 8.073,-1.069 7.534,-1.371 6.79,-1.5 L 9.209,-4.501 C 9.256,-4.548 9.27,-4.619 9.252,-4.713 9.232,-4.807 9.158,-4.854 9.025,-4.854 H 7.201 c -0.123,0 -0.208,0.016 -0.255,0.043 -0.049,0.028 -0.095,0.075 -0.143,0.141 L 4.568,-1.728 H 0 V -4.545 C 0,-4.752 -0.104,-4.854 -0.312,-4.854 H -1.84 c -0.217,0 -0.325,0.102 -0.325,0.309 v 9.169 c 0,0.286 0.141,0.427 0.423,0.427 z" /></g><g
           transform="translate(281.543,345.8236)"
           id="g64"><path
             id="path66"
             style="fill:#165096;fill-opacity:1;fill-rule:nonzero;stroke:none"
             d="m 0,0 c 0.216,0 0.325,-0.105 0.325,-0.313 v -1.344 c 0,-0.208 -0.109,-0.31 -0.325,-0.31 h -6.183 c -0.368,0 -0.671,-0.031 -0.912,-0.094 C -7.336,-2.12 -7.53,-2.226 -7.675,-2.37 -7.822,-2.52 -7.924,-2.715 -7.98,-2.966 -8.036,-3.217 -8.065,-3.522 -8.065,-3.891 v -0.14 h 7.995 c 0.205,0 0.309,-0.107 0.309,-0.314 v -1.117 c 0,-0.207 -0.104,-0.313 -0.309,-0.313 h -7.995 v -0.239 c 0,-0.369 0.029,-0.678 0.085,-0.928 0.056,-0.247 0.158,-0.448 0.305,-0.592 0.145,-0.15 0.339,-0.251 0.58,-0.314 0.241,-0.058 0.544,-0.089 0.912,-0.089 H 0 c 0.216,0 0.325,-0.107 0.325,-0.314 V -9.596 C 0.325,-9.803 0.216,-9.904 0,-9.904 h -6.226 c -0.716,0 -1.324,0.066 -1.825,0.199 -0.5,0.13 -0.907,0.345 -1.222,0.642 -0.318,0.298 -0.549,0.682 -0.694,1.161 -0.147,0.473 -0.22,1.053 -0.22,1.731 v 2.433 c 0,0.682 0.073,1.258 0.22,1.728 0.145,0.47 0.376,0.854 0.694,1.152 0.315,0.297 0.722,0.513 1.222,0.65 C -7.55,-0.07 -6.942,0 -6.226,0 Z" /></g><g
           transform="translate(293.7793,345.8236)"
           id="g68"><path
             id="path70"
             style="fill:#165096;fill-opacity:1;fill-rule:nonzero;stroke:none"
             d="m 0,0 c 0.227,0 0.415,-0.012 0.566,-0.031 0.151,-0.016 0.282,-0.059 0.396,-0.117 0.113,-0.064 0.221,-0.15 0.325,-0.255 0.104,-0.111 0.221,-0.255 0.355,-0.432 l 5.261,-6.907 c 0.039,-0.063 0.1,-0.098 0.184,-0.098 h 0.128 c 0.076,0 0.113,0.047 0.113,0.141 v 7.386 C 7.328,-0.105 7.433,0 7.64,0 H 9.125 C 9.332,0 9.437,-0.105 9.437,-0.313 V -8.432 C 9.437,-9.008 9.332,-9.399 9.125,-9.599 8.917,-9.803 8.598,-9.904 8.163,-9.904 H 6.946 c -0.217,0 -0.397,0.007 -0.545,0.027 -0.146,0.02 -0.275,0.059 -0.389,0.113 -0.112,0.059 -0.223,0.141 -0.331,0.247 -0.11,0.11 -0.233,0.259 -0.376,0.447 l -5.276,6.903 c -0.057,0.067 -0.119,0.099 -0.184,0.099 h -0.127 c -0.077,0 -0.114,-0.047 -0.114,-0.142 v -7.386 c 0,-0.207 -0.104,-0.308 -0.312,-0.308 h -1.484 c -0.218,0 -0.326,0.101 -0.326,0.308 v 8.122 c 0,0.577 0.104,0.964 0.312,1.168 C -2,-0.102 -1.679,0 -1.244,0 Z" /></g><g
           transform="translate(310.1484,339.5707)"
           id="g72"><path
             id="path74"
             style="fill:#165096;fill-opacity:1;fill-rule:nonzero;stroke:none"
             d="M 0,0 H 4.866 L 2.617,4.146 C 2.58,4.208 2.527,4.243 2.463,4.243 H 2.376 C 2.312,4.243 2.259,4.208 2.222,4.146 Z m 2.744,6.253 c 0.36,0 0.66,-0.074 0.905,-0.22 C 3.896,5.885 4.136,5.603 4.372,5.176 L 9.055,-3.327 C 9.102,-3.421 9.113,-3.499 9.09,-3.562 9.066,-3.62 8.998,-3.651 8.886,-3.651 H 7.088 c -0.161,0 -0.269,0.062 -0.325,0.183 l -1.005,1.826 h -6.65 l -0.975,-1.826 c -0.067,-0.121 -0.174,-0.183 -0.325,-0.183 h -1.839 c -0.124,0 -0.197,0.031 -0.22,0.089 -0.023,0.063 -0.012,0.141 0.035,0.235 l 4.641,8.503 c 0.235,0.427 0.467,0.709 0.694,0.857 0.225,0.146 0.489,0.22 0.791,0.22 z" /></g><g
           transform="translate(330.8477,345.8236)"
           id="g76"><path
             id="path78"
             style="fill:#165096;fill-opacity:1;fill-rule:nonzero;stroke:none"
             d="M 0,0 C 0.215,0 0.325,-0.105 0.325,-0.313 V -1.7 C 0.325,-1.916 0.215,-2.025 0,-2.025 h -4.443 v -7.571 c 0,-0.207 -0.104,-0.308 -0.312,-0.308 h -1.542 c -0.207,0 -0.311,0.101 -0.311,0.308 v 7.571 h -4.443 c -0.218,0 -0.325,0.109 -0.325,0.325 v 1.387 c 0,0.208 0.107,0.313 0.325,0.313 z" /></g><g
           transform="translate(335.7979,345.8236)"
           id="g80"><path
             id="path82"
             style="fill:#165096;fill-opacity:1;fill-rule:nonzero;stroke:none"
             d="M 0,0 C 0.207,0 0.312,-0.105 0.312,-0.313 V -9.596 C 0.312,-9.803 0.207,-9.904 0,-9.904 h -1.528 c -0.218,0 -0.326,0.101 -0.326,0.308 v 9.283 c 0,0.208 0.108,0.313 0.326,0.313 z" /></g><g
           transform="translate(341.5547,339.8099)"
           id="g84"><path
             id="path86"
             style="fill:#165096;fill-opacity:1;fill-rule:nonzero;stroke:none"
             d="m 0,0 c 0,-0.369 0.03,-0.679 0.093,-0.929 0.06,-0.247 0.162,-0.447 0.303,-0.592 0.141,-0.149 0.333,-0.25 0.574,-0.313 0.239,-0.059 0.545,-0.09 0.911,-0.09 h 4.202 c 0.368,0 0.672,0.031 0.913,0.09 0.241,0.063 0.431,0.164 0.574,0.313 0.141,0.145 0.241,0.345 0.304,0.592 0.061,0.25 0.092,0.56 0.092,0.929 V 2.123 C 7.966,2.491 7.935,2.797 7.874,3.048 7.811,3.299 7.711,3.494 7.57,3.644 7.427,3.788 7.237,3.894 6.996,3.953 6.755,4.016 6.451,4.047 6.083,4.047 H 1.881 C 1.515,4.047 1.209,4.016 0.97,3.953 0.729,3.894 0.537,3.788 0.396,3.644 0.255,3.494 0.153,3.299 0.093,3.048 0.03,2.797 0,2.491 0,2.123 Z M 6.169,6.014 C 6.885,6.014 7.495,5.943 8.001,5.806 8.505,5.669 8.916,5.453 9.231,5.155 9.547,4.857 9.775,4.474 9.917,4.004 10.06,3.533 10.131,2.958 10.131,2.275 v -2.432 c 0,-0.678 -0.071,-1.258 -0.214,-1.732 C 9.775,-2.367 9.547,-2.751 9.231,-3.049 8.916,-3.347 8.505,-3.562 8.001,-3.691 7.495,-3.824 6.885,-3.891 6.169,-3.891 H 1.797 c -0.717,0 -1.324,0.067 -1.826,0.2 -0.499,0.129 -0.907,0.344 -1.222,0.642 -0.317,0.298 -0.549,0.682 -0.694,1.16 -0.147,0.474 -0.219,1.054 -0.219,1.732 v 2.432 c 0,0.683 0.072,1.258 0.219,1.729 0.145,0.47 0.377,0.853 0.694,1.151 0.315,0.298 0.723,0.514 1.222,0.651 0.502,0.137 1.109,0.208 1.826,0.208 z" /></g><g
           transform="translate(357.4697,345.8236)"
           id="g88"><path
             id="path90"
             style="fill:#165096;fill-opacity:1;fill-rule:nonzero;stroke:none"
             d="M 0,0 C 0.228,0 0.416,-0.012 0.566,-0.031 0.717,-0.047 0.849,-0.09 0.962,-0.148 1.076,-0.212 1.184,-0.298 1.287,-0.403 1.392,-0.514 1.509,-0.658 1.642,-0.835 L 6.903,-7.742 C 6.942,-7.805 7.004,-7.84 7.088,-7.84 h 0.127 c 0.077,0 0.114,0.047 0.114,0.141 v 7.386 C 7.329,-0.105 7.433,0 7.641,0 H 9.125 C 9.333,0 9.437,-0.105 9.437,-0.313 V -8.432 C 9.437,-9.008 9.333,-9.399 9.125,-9.599 8.918,-9.803 8.599,-9.904 8.163,-9.904 H 6.947 c -0.218,0 -0.398,0.007 -0.545,0.027 -0.147,0.02 -0.276,0.059 -0.389,0.113 -0.113,0.059 -0.224,0.141 -0.331,0.247 -0.111,0.11 -0.234,0.259 -0.377,0.447 l -5.276,6.903 c -0.056,0.067 -0.119,0.099 -0.183,0.099 h -0.128 c -0.076,0 -0.114,-0.047 -0.114,-0.142 v -7.386 c 0,-0.207 -0.103,-0.308 -0.311,-0.308 h -1.485 c -0.217,0 -0.325,0.101 -0.325,0.308 v 8.122 c 0,0.577 0.104,0.964 0.311,1.168 C -2,-0.102 -1.679,0 -1.244,0 Z" /></g><g
           transform="translate(373.8389,339.5707)"
           id="g92"><path
             id="path94"
             style="fill:#165096;fill-opacity:1;fill-rule:nonzero;stroke:none"
             d="M 0,0 H 4.866 L 2.618,4.146 C 2.58,4.208 2.527,4.243 2.463,4.243 H 2.377 C 2.313,4.243 2.259,4.208 2.222,4.146 Z m 2.745,6.253 c 0.359,0 0.66,-0.074 0.905,-0.22 C 3.896,5.885 4.136,5.603 4.373,5.176 L 9.055,-3.327 C 9.102,-3.421 9.113,-3.499 9.09,-3.562 9.066,-3.62 8.998,-3.651 8.887,-3.651 H 7.088 c -0.16,0 -0.269,0.062 -0.325,0.183 l -1.005,1.826 h -6.649 l -0.975,-1.826 c -0.067,-0.121 -0.175,-0.183 -0.325,-0.183 h -1.84 c -0.123,0 -0.197,0.031 -0.22,0.089 -0.023,0.063 -0.012,0.141 0.036,0.235 l 4.641,8.503 c 0.234,0.427 0.466,0.709 0.693,0.857 0.226,0.146 0.489,0.22 0.791,0.22 z" /></g><g
           transform="translate(386.8682,345.8236)"
           id="g96"><path
             id="path98"
             style="fill:#165096;fill-opacity:1;fill-rule:nonzero;stroke:none"
             d="m 0,0 c 0.208,0 0.312,-0.105 0.312,-0.313 v -5.646 c 0,-0.377 0.031,-0.689 0.092,-0.94 0.061,-0.247 0.162,-0.448 0.304,-0.592 0.143,-0.149 0.333,-0.251 0.573,-0.314 0.241,-0.058 0.545,-0.09 0.913,-0.09 h 5.731 c 0.205,0 0.309,-0.106 0.309,-0.313 v -1.388 c 0,-0.207 -0.104,-0.308 -0.309,-0.308 H 2.108 c -0.716,0 -1.324,0.066 -1.824,0.199 -0.501,0.13 -0.908,0.345 -1.223,0.642 -0.316,0.298 -0.547,0.682 -0.695,1.161 -0.146,0.473 -0.219,1.053 -0.219,1.731 v 5.858 c 0,0.208 0.108,0.313 0.326,0.313 z" /></g><g
           transform="translate(202.8936,316.2162)"
           id="g100"><path
             id="path102"
             style="fill:#165096;fill-opacity:1;fill-rule:nonzero;stroke:none"
             d="m 0,0 c 0,-0.122 0.061,-0.185 0.182,-0.185 h 4.641 c 0.415,0 0.764,0.039 1.048,0.114 0.282,0.075 0.511,0.196 0.686,0.369 0.174,0.168 0.299,0.395 0.374,0.678 0.076,0.282 0.113,0.63 0.113,1.045 v 1.556 c 0,0.415 -0.037,0.764 -0.113,1.05 C 6.856,4.909 6.731,5.136 6.557,5.305 6.382,5.473 6.153,5.599 5.871,5.673 5.587,5.747 5.238,5.786 4.823,5.786 H 0.182 C 0.061,5.786 0,5.72 0,5.587 Z M 4.88,7.753 C 5.644,7.753 6.3,7.675 6.847,7.519 7.393,7.361 7.842,7.122 8.19,6.797 8.539,6.472 8.796,6.057 8.962,5.552 9.127,5.046 9.209,4.45 9.209,3.761 V 1.837 C 9.209,1.151 9.127,0.552 8.962,0.051 8.796,-0.455 8.539,-0.87 8.19,-1.195 7.842,-1.521 7.393,-1.764 6.847,-1.916 6.3,-2.073 5.644,-2.151 4.88,-2.151 h -6.622 c -0.282,0 -0.423,0.14 -0.423,0.422 v 9.055 c 0,0.286 0.141,0.427 0.423,0.427 z" /></g><g
           transform="translate(215.188,324.6752)"
           id="g104"><path
             id="path106"
             style="fill:#165096;fill-opacity:1;fill-rule:nonzero;stroke:none"
             d="M 0,0 C 0.206,0 0.31,-0.103 0.31,-0.31 V -1.513 C 0.31,-1.634 0.306,-1.74 0.296,-1.826 0.286,-1.908 0.259,-2.026 0.212,-2.179 L -0.312,-4.103 C -0.351,-4.224 -0.394,-4.307 -0.446,-4.35 -0.498,-4.393 -0.58,-4.412 -0.693,-4.412 h -0.566 c -0.228,0 -0.318,0.101 -0.269,0.309 l 0.382,2.108 h -0.241 c -0.217,0 -0.325,0.106 -0.325,0.313 v 1.372 c 0,0.207 0.108,0.31 0.325,0.31 z" /></g><g
           transform="translate(224.4248,327.0258)"
           id="g108"><path
             id="path110"
             style="fill:#165096;fill-opacity:1;fill-rule:nonzero;stroke:none"
             d="M 0,0 C 0.104,0 0.178,-0.023 0.225,-0.07 0.272,-0.118 0.263,-0.185 0.198,-0.271 l -1.444,-2.08 c -0.057,-0.094 -0.115,-0.161 -0.176,-0.204 -0.063,-0.043 -0.145,-0.062 -0.249,-0.062 h -1.074 c -0.104,0 -0.18,0.023 -0.227,0.07 -0.047,0.047 -0.043,0.113 0.014,0.196 l 1.259,2.08 C -1.595,-0.091 -1.45,0 -1.26,0 Z m 2.617,-3.057 c 0.216,0 0.325,-0.105 0.325,-0.313 v -1.344 c 0,-0.207 -0.109,-0.309 -0.325,-0.309 h -6.182 c -0.369,0 -0.672,-0.032 -0.914,-0.094 -0.24,-0.059 -0.434,-0.165 -0.579,-0.31 -0.147,-0.148 -0.249,-0.344 -0.306,-0.595 -0.054,-0.25 -0.084,-0.556 -0.084,-0.924 v -0.142 h 7.995 c 0.205,0 0.309,-0.105 0.309,-0.313 v -1.117 c 0,-0.208 -0.104,-0.313 -0.309,-0.313 H -5.448 V -9.07 c 0,-0.368 0.03,-0.678 0.084,-0.929 0.057,-0.247 0.159,-0.446 0.306,-0.592 0.145,-0.148 0.339,-0.25 0.579,-0.313 0.242,-0.059 0.545,-0.09 0.914,-0.09 h 6.182 c 0.216,0 0.325,-0.106 0.325,-0.314 v -1.343 c 0,-0.208 -0.109,-0.31 -0.325,-0.31 h -6.225 c -0.718,0 -1.325,0.066 -1.826,0.2 -0.5,0.129 -0.907,0.345 -1.223,0.643 -0.317,0.298 -0.548,0.681 -0.693,1.159 -0.147,0.475 -0.22,1.054 -0.22,1.732 v 2.433 c 0,0.682 0.073,1.258 0.22,1.728 0.145,0.47 0.376,0.854 0.693,1.152 0.316,0.298 0.723,0.513 1.223,0.65 0.501,0.137 1.108,0.207 1.826,0.207 z" /></g><g
           transform="translate(239.7051,323.9691)"
           id="g112"><path
             id="path114"
             style="fill:#165096;fill-opacity:1;fill-rule:nonzero;stroke:none"
             d="M 0,0 C 0.215,0 0.325,-0.105 0.325,-0.313 V -1.7 C 0.325,-1.915 0.215,-2.025 0,-2.025 h -4.443 v -7.57 c 0,-0.208 -0.104,-0.309 -0.311,-0.309 h -1.542 c -0.208,0 -0.312,0.101 -0.312,0.309 v 7.57 h -4.443 c -0.217,0 -0.325,0.11 -0.325,0.325 v 1.387 c 0,0.208 0.108,0.313 0.325,0.313 z" /></g><g
           transform="translate(243.1978,323.9691)"
           id="g116"><path
             id="path118"
             style="fill:#165096;fill-opacity:1;fill-rule:nonzero;stroke:none"
             d="m 0,0 c 0.208,0 0.312,-0.105 0.312,-0.313 v -5.646 c 0,-0.376 0.031,-0.689 0.092,-0.94 0.06,-0.247 0.162,-0.447 0.303,-0.592 0.143,-0.149 0.334,-0.25 0.574,-0.314 0.241,-0.058 0.545,-0.09 0.913,-0.09 h 3.918 c 0.368,0 0.672,0.032 0.913,0.09 0.241,0.064 0.431,0.165 0.572,0.314 0.143,0.145 0.241,0.345 0.298,0.592 0.057,0.251 0.084,0.564 0.084,0.94 v 5.646 C 7.979,-0.105 8.083,0 8.291,0 h 1.543 c 0.206,0 0.31,-0.105 0.31,-0.313 V -6.17 c 0,-0.679 -0.071,-1.258 -0.212,-1.732 C 9.791,-8.38 9.562,-8.764 9.247,-9.062 8.929,-9.359 8.52,-9.575 8.016,-9.704 7.511,-9.838 6.899,-9.904 6.183,-9.904 H 2.108 c -0.717,0 -1.324,0.066 -1.824,0.2 -0.501,0.129 -0.909,0.345 -1.224,0.642 -0.316,0.298 -0.547,0.682 -0.694,1.16 -0.147,0.474 -0.219,1.053 -0.219,1.732 v 5.857 c 0,0.208 0.108,0.313 0.325,0.313 z" /></g><g
           transform="translate(257.3066,316.2162)"
           id="g120"><path
             id="path122"
             style="fill:#165096;fill-opacity:1;fill-rule:nonzero;stroke:none"
             d="m 0,0 c 0,-0.122 0.061,-0.185 0.182,-0.185 h 4.641 c 0.415,0 0.764,0.039 1.048,0.114 0.282,0.075 0.511,0.196 0.686,0.369 0.174,0.168 0.299,0.395 0.374,0.678 0.076,0.282 0.113,0.63 0.113,1.045 v 1.556 c 0,0.415 -0.037,0.764 -0.113,1.05 C 6.856,4.909 6.731,5.136 6.557,5.305 6.382,5.473 6.153,5.599 5.871,5.673 5.587,5.747 5.238,5.786 4.823,5.786 H 0.182 C 0.061,5.786 0,5.72 0,5.587 Z M 4.88,7.753 C 5.644,7.753 6.3,7.675 6.847,7.519 7.393,7.361 7.842,7.122 8.19,6.797 8.539,6.472 8.796,6.057 8.962,5.552 9.127,5.046 9.209,4.45 9.209,3.761 V 1.837 C 9.209,1.151 9.127,0.552 8.962,0.051 8.796,-0.455 8.539,-0.87 8.19,-1.195 7.842,-1.521 7.393,-1.764 6.847,-1.916 6.3,-2.073 5.644,-2.151 4.88,-2.151 h -6.622 c -0.282,0 -0.423,0.14 -0.423,0.422 v 9.055 c 0,0.286 0.141,0.427 0.423,0.427 z" /></g><g
           transform="translate(278.3013,323.9691)"
           id="g124"><path
             id="path126"
             style="fill:#165096;fill-opacity:1;fill-rule:nonzero;stroke:none"
             d="m 0,0 c 0.215,0 0.325,-0.105 0.325,-0.313 v -1.344 c 0,-0.207 -0.11,-0.31 -0.325,-0.31 h -6.183 c -0.368,0 -0.672,-0.031 -0.913,-0.094 -0.241,-0.058 -0.435,-0.165 -0.58,-0.309 -0.146,-0.149 -0.248,-0.345 -0.305,-0.596 -0.055,-0.25 -0.084,-0.555 -0.084,-0.924 v -0.141 h 7.994 c 0.206,0 0.31,-0.106 0.31,-0.314 v -1.116 c 0,-0.208 -0.104,-0.313 -0.31,-0.313 h -7.994 v -0.24 c 0,-0.368 0.029,-0.677 0.084,-0.928 0.057,-0.247 0.159,-0.447 0.305,-0.592 0.145,-0.149 0.339,-0.25 0.58,-0.314 0.241,-0.058 0.545,-0.089 0.913,-0.089 H 0 c 0.215,0 0.325,-0.106 0.325,-0.314 V -9.595 C 0.325,-9.803 0.215,-9.904 0,-9.904 h -6.226 c -0.717,0 -1.324,0.066 -1.826,0.2 -0.499,0.129 -0.906,0.345 -1.222,0.642 -0.317,0.298 -0.549,0.682 -0.694,1.16 -0.146,0.474 -0.219,1.053 -0.219,1.732 v 2.433 c 0,0.681 0.073,1.258 0.219,1.727 0.145,0.471 0.377,0.855 0.694,1.153 0.316,0.297 0.723,0.512 1.222,0.65 C -7.55,-0.07 -6.943,0 -6.226,0 Z" /></g><g
           transform="translate(290.0298,323.9691)"
           id="g128"><path
             id="path130"
             style="fill:#165096;fill-opacity:1;fill-rule:nonzero;stroke:none"
             d="m 0,0 c 0.208,0 0.312,-0.105 0.312,-0.313 v -1.344 c 0,-0.207 -0.104,-0.31 -0.312,-0.31 h -7.088 c -0.274,0 -0.468,-0.07 -0.579,-0.211 -0.114,-0.145 -0.171,-0.337 -0.171,-0.58 V -3.24 c 0,-0.529 0.245,-0.791 0.734,-0.791 h 5.308 c 0.82,0 1.437,-0.212 1.853,-0.631 0.415,-0.419 0.623,-1.023 0.623,-1.806 v -1.129 c 0,-0.689 -0.204,-1.246 -0.61,-1.673 -0.405,-0.422 -1.038,-0.634 -1.896,-0.634 h -7.838 c -0.217,0 -0.325,0.101 -0.325,0.309 v 1.344 c 0,0.208 0.108,0.314 0.325,0.314 h 7.429 c 0.272,0 0.466,0.07 0.579,0.211 0.114,0.141 0.171,0.337 0.171,0.58 v 0.58 c 0,0.529 -0.247,0.792 -0.737,0.792 h -5.305 c -0.821,0 -1.437,0.211 -1.853,0.63 -0.415,0.419 -0.623,1.023 -0.623,1.802 v 1.034 c 0,0.69 0.202,1.246 0.609,1.669 C -8.99,-0.211 -8.357,0 -7.5,0 Z" /></g><g
           transform="translate(306.7793,323.9691)"
           id="g132"><path
             id="path134"
             style="fill:#165096;fill-opacity:1;fill-rule:nonzero;stroke:none"
             d="m 0,0 c 0.207,0 0.312,-0.105 0.312,-0.313 v -1.344 c 0,-0.207 -0.105,-0.31 -0.312,-0.31 h -7.088 c -0.274,0 -0.469,-0.07 -0.58,-0.211 -0.113,-0.145 -0.17,-0.337 -0.17,-0.58 V -3.24 c 0,-0.529 0.244,-0.791 0.734,-0.791 h 5.307 c 0.821,0 1.439,-0.212 1.854,-0.631 0.415,-0.419 0.623,-1.023 0.623,-1.806 v -1.129 c 0,-0.689 -0.204,-1.246 -0.61,-1.673 -0.405,-0.422 -1.038,-0.634 -1.896,-0.634 h -7.838 c -0.217,0 -0.325,0.101 -0.325,0.309 v 1.344 c 0,0.208 0.108,0.314 0.325,0.314 h 7.429 c 0.272,0 0.465,0.07 0.58,0.211 0.113,0.141 0.17,0.337 0.17,0.58 v 0.58 c 0,0.529 -0.247,0.792 -0.737,0.792 h -5.304 c -0.822,0 -1.439,0.211 -1.854,0.63 -0.415,0.419 -0.623,1.023 -0.623,1.802 v 1.034 c 0,0.69 0.202,1.246 0.609,1.669 C -8.99,-0.211 -8.357,0 -7.499,0 Z" /></g><g
           transform="translate(311.1787,318.9584)"
           id="g136"><path
             id="path138"
             style="fill:#165096;fill-opacity:1;fill-rule:nonzero;stroke:none"
             d="m 0,0 h 5.419 c 0.479,0 0.818,0.105 1.018,0.313 0.199,0.208 0.296,0.522 0.296,0.949 v 0.537 c 0,0.423 -0.097,0.74 -0.296,0.947 -0.2,0.208 -0.539,0.31 -1.018,0.31 H 0.183 C 0.061,3.056 0,3.001 0,2.888 Z M 5.855,5.011 C 6.94,5.011 7.719,4.765 8.19,4.274 8.663,3.785 8.898,3.056 8.898,2.096 V 1.05 C 8.898,0.086 8.663,-0.639 8.19,-1.128 7.719,-1.622 6.94,-1.865 5.855,-1.865 H 0 v -2.719 c 0,-0.208 -0.104,-0.31 -0.312,-0.31 h -1.527 c -0.218,0 -0.325,0.102 -0.325,0.31 v 9.168 c 0,0.286 0.141,0.427 0.423,0.427 z" /></g><g
           transform="translate(323.542,317.7162)"
           id="g140"><path
             id="path142"
             style="fill:#165096;fill-opacity:1;fill-rule:nonzero;stroke:none"
             d="M 0,0 H 4.866 L 2.617,4.146 C 2.58,4.208 2.527,4.243 2.463,4.243 H 2.376 C 2.312,4.243 2.259,4.208 2.222,4.146 Z m 2.745,6.253 c 0.359,0 0.66,-0.074 0.904,-0.219 C 3.896,5.885 4.136,5.603 4.373,5.176 L 9.055,-3.326 C 9.102,-3.42 9.113,-3.499 9.09,-3.562 9.066,-3.62 8.998,-3.651 8.886,-3.651 H 7.088 c -0.161,0 -0.269,0.062 -0.325,0.184 l -1.005,1.825 h -6.65 l -0.975,-1.825 c -0.067,-0.122 -0.174,-0.184 -0.325,-0.184 h -1.839 c -0.124,0 -0.197,0.031 -0.22,0.089 -0.023,0.063 -0.012,0.142 0.035,0.236 L 0.425,5.176 C 0.66,5.603 0.892,5.885 1.119,6.034 1.344,6.179 1.608,6.253 1.91,6.253 Z" /></g><g
           transform="translate(342.6719,323.9691)"
           id="g144"><path
             id="path146"
             style="fill:#165096;fill-opacity:1;fill-rule:nonzero;stroke:none"
             d="M 0,0 C 0.215,0 0.325,-0.105 0.325,-0.313 V -1.7 C 0.325,-1.915 0.215,-2.025 0,-2.025 h -4.443 v -7.57 c 0,-0.208 -0.104,-0.309 -0.312,-0.309 h -1.541 c -0.208,0 -0.311,0.101 -0.311,0.309 v 7.57 h -4.444 c -0.218,0 -0.325,0.11 -0.325,0.325 v 1.387 c 0,0.208 0.107,0.313 0.325,0.313 z" /></g><g
           transform="translate(346.0527,323.9691)"
           id="g148"><path
             id="path150"
             style="fill:#165096;fill-opacity:1;fill-rule:nonzero;stroke:none"
             d="M 0,0 C 0.208,0 0.312,-0.105 0.312,-0.313 V -9.595 C 0.312,-9.803 0.208,-9.904 0,-9.904 h -1.528 c -0.217,0 -0.326,0.101 -0.326,0.309 v 9.282 c 0,0.208 0.109,0.313 0.326,0.313 z" /></g><g
           transform="translate(351.7266,317.7162)"
           id="g152"><path
             id="path154"
             style="fill:#165096;fill-opacity:1;fill-rule:nonzero;stroke:none"
             d="M 0,0 H 4.866 L 2.617,4.146 C 2.58,4.208 2.526,4.243 2.462,4.243 H 2.376 C 2.312,4.243 2.259,4.208 2.221,4.146 Z m 2.744,6.253 c 0.359,0 0.66,-0.074 0.905,-0.219 C 3.896,5.885 4.135,5.603 4.372,5.176 L 9.054,-3.326 C 9.102,-3.42 9.113,-3.499 9.089,-3.562 9.065,-3.62 8.997,-3.651 8.886,-3.651 H 7.087 c -0.16,0 -0.268,0.062 -0.325,0.184 l -1.005,1.825 h -6.649 l -0.975,-1.825 c -0.067,-0.122 -0.175,-0.184 -0.325,-0.184 h -1.84 c -0.123,0 -0.196,0.031 -0.219,0.089 -0.023,0.063 -0.012,0.142 0.035,0.236 l 4.641,8.502 c 0.235,0.427 0.466,0.709 0.693,0.858 0.226,0.145 0.49,0.219 0.791,0.219 z" /></g><g
           transform="translate(363.1846,323.9691)"
           id="g156"><path
             id="path158"
             style="fill:#165096;fill-opacity:1;fill-rule:nonzero;stroke:none"
             d="m 0,0 c 0.207,0 0.312,-0.105 0.312,-0.313 v -5.646 c 0,-0.376 0.031,-0.689 0.091,-0.94 0.061,-0.247 0.163,-0.447 0.304,-0.592 0.143,-0.149 0.333,-0.25 0.574,-0.314 0.24,-0.058 0.544,-0.09 0.912,-0.09 h 5.731 c 0.206,0 0.309,-0.105 0.309,-0.313 v -1.387 c 0,-0.208 -0.103,-0.309 -0.309,-0.309 H 2.107 c -0.716,0 -1.324,0.066 -1.823,0.2 -0.502,0.129 -0.909,0.345 -1.224,0.642 -0.316,0.298 -0.547,0.682 -0.694,1.16 -0.147,0.474 -0.22,1.053 -0.22,1.732 v 5.857 c 0,0.208 0.108,0.313 0.326,0.313 z" /></g><g
           transform="translate(382.71,323.9691)"
           id="g160"><path
             id="path162"
             style="fill:#165096;fill-opacity:1;fill-rule:nonzero;stroke:none"
             d="m 0,0 c 0.215,0 0.325,-0.105 0.325,-0.313 v -1.344 c 0,-0.207 -0.11,-0.31 -0.325,-0.31 h -6.183 c -0.368,0 -0.671,-0.031 -0.913,-0.094 -0.241,-0.058 -0.434,-0.165 -0.58,-0.309 -0.146,-0.149 -0.249,-0.345 -0.305,-0.596 -0.055,-0.25 -0.084,-0.555 -0.084,-0.924 v -0.141 h 7.994 c 0.206,0 0.309,-0.106 0.309,-0.314 v -1.116 c 0,-0.208 -0.103,-0.313 -0.309,-0.313 h -7.994 v -0.24 c 0,-0.368 0.029,-0.677 0.084,-0.928 0.056,-0.247 0.159,-0.447 0.305,-0.592 0.146,-0.149 0.339,-0.25 0.58,-0.314 0.242,-0.058 0.545,-0.089 0.913,-0.089 H 0 c 0.215,0 0.325,-0.106 0.325,-0.314 V -9.595 C 0.325,-9.803 0.215,-9.904 0,-9.904 h -6.226 c -0.717,0 -1.324,0.066 -1.826,0.2 -0.5,0.129 -0.907,0.345 -1.222,0.642 -0.318,0.298 -0.548,0.682 -0.694,1.16 -0.146,0.474 -0.22,1.053 -0.22,1.732 v 2.433 c 0,0.681 0.074,1.258 0.22,1.727 0.146,0.471 0.376,0.855 0.694,1.153 0.315,0.297 0.722,0.512 1.222,0.65 C -7.55,-0.07 -6.943,0 -6.226,0 Z" /></g><g
           transform="translate(394.4385,323.9691)"
           id="g164"><path
             id="path166"
             style="fill:#165096;fill-opacity:1;fill-rule:nonzero;stroke:none"
             d="m 0,0 c 0.207,0 0.312,-0.105 0.312,-0.313 v -1.344 c 0,-0.207 -0.105,-0.31 -0.312,-0.31 h -7.088 c -0.274,0 -0.469,-0.07 -0.58,-0.211 -0.113,-0.145 -0.17,-0.337 -0.17,-0.58 V -3.24 c 0,-0.529 0.244,-0.791 0.734,-0.791 h 5.307 c 0.821,0 1.439,-0.212 1.854,-0.631 0.415,-0.419 0.623,-1.023 0.623,-1.806 v -1.129 c 0,-0.689 -0.204,-1.246 -0.61,-1.673 -0.405,-0.422 -1.038,-0.634 -1.896,-0.634 h -7.838 c -0.218,0 -0.325,0.101 -0.325,0.309 v 1.344 c 0,0.208 0.107,0.314 0.325,0.314 h 7.429 c 0.272,0 0.465,0.07 0.58,0.211 0.113,0.141 0.17,0.337 0.17,0.58 v 0.58 c 0,0.529 -0.247,0.792 -0.737,0.792 h -5.304 c -0.822,0 -1.439,0.211 -1.854,0.63 -0.415,0.419 -0.623,1.023 -0.623,1.802 v 1.034 c 0,0.69 0.202,1.246 0.609,1.669 C -8.99,-0.211 -8.357,0 -7.499,0 Z" /></g></g></g></g></svg>