<?xml version="1.0" standalone="no"?>
<!DOCTYPE svg PUBLIC "-//W3C//DTD SVG 20010904//EN"
 "http://www.w3.org/TR/2001/REC-SVG-20010904/DTD/svg10.dtd">
<svg version="1.0" xmlns="http://www.w3.org/2000/svg"
 width="1901.000000pt" height="1901.000000pt" viewBox="0 0 1901.000000 1901.000000"
 preserveAspectRatio="xMidYMid meet">
<metadata>
Created by potrace 1.11, written by Peter Selinger 2001-2013
</metadata>
<g transform="translate(0.000000,1901.000000) scale(0.100000,-0.100000)"
fill="#000000" stroke="none">
<path d="M11177 13964 c-1 -1 -58 -4 -127 -7 -214 -11 -549 -71 -765 -138
-487 -151 -958 -460 -1279 -839 -109 -128 -135 -166 -111 -155 267 112 544
185 684 179 125 -5 340 -134 659 -396 49 -40 93 -68 106 -68 13 0 51 9 85 20
340 108 630 156 761 126 91 -21 463 -278 582 -401 42 -43 40 -34 22 -140 -23
-136 -154 -854 -168 -921 -2 -12 -7 -37 -10 -55 -5 -35 -127 -690 -146 -789
-6 -30 -13 -72 -16 -93 -12 -82 -18 -91 -60 -98 -21 -4 -70 -10 -109 -13 -38
-4 -97 -11 -130 -16 -77 -11 -117 -17 -185 -25 -30 -4 -66 -8 -80 -10 -47 -7
-505 -76 -635 -95 -71 -10 -157 -22 -190 -25 -33 -4 -67 -8 -75 -10 -8 -2 -44
-7 -80 -10 -36 -4 -101 -10 -145 -14 -150 -15 -573 -19 -743 -7 -112 7 -367
51 -504 85 l-107 27 -4 -22 c-2 -12 -5 -87 -6 -166 l-2 -145 73 -21 c131 -38
380 -82 563 -99 108 -10 463 -10 605 0 175 12 735 79 850 102 14 2 39 7 55 9
74 12 304 45 345 51 25 3 56 8 71 10 76 13 345 45 374 45 39 0 38 1 26 -55 -5
-22 -12 -58 -15 -79 -16 -101 -17 -101 -147 -116 -52 -6 -218 -29 -369 -51
-463 -68 -812 -117 -875 -124 -262 -29 -368 -34 -665 -30 -310 4 -355 7 -455
25 -27 5 -66 12 -85 15 -113 18 -270 53 -322 74 l-28 11 0 -174 0 -173 128
-31 c136 -34 331 -66 477 -79 199 -18 672 -8 890 18 44 5 100 12 125 14 62 8
259 34 290 40 14 2 153 23 310 45 325 47 307 44 460 65 63 8 127 17 142 20 15
2 29 1 32 -3 2 -4 -4 -57 -15 -117 -10 -61 -19 -111 -19 -112 0 -1 -48 -9
-115 -19 -16 -2 -41 -6 -55 -9 -14 -2 -47 -7 -75 -10 -58 -7 -57 -7 -280 -40
-218 -32 -228 -34 -300 -45 -33 -5 -80 -12 -105 -15 -25 -3 -72 -10 -105 -15
-85 -13 -297 -38 -380 -45 -38 -3 -92 -8 -120 -11 -202 -19 -663 -8 -850 21
-92 14 -207 37 -309 61 -86 21 -110 24 -116 13 -5 -7 -9 -81 -9 -164 l-2 -152
73 -21 c97 -29 297 -68 393 -78 28 -3 56 -7 62 -9 29 -10 230 -20 383 -19 164
0 458 12 469 18 3 2 49 7 101 11 52 3 97 8 100 10 3 1 34 6 70 9 88 9 230 29
505 71 127 20 246 38 265 41 462 66 726 90 1020 93 296 2 563 -30 869 -106 53
-13 65 -13 72 -2 5 8 9 82 9 165 l0 151 -72 21 c-74 21 -268 62 -388 81 -153
24 -577 33 -824 17 l-119 -7 7 58 c8 73 32 163 46 177 14 14 664 18 765 5 39
-5 95 -12 125 -15 50 -6 323 -60 412 -82 30 -8 37 -7 40 7 6 22 2 310 -4 316
-9 10 -228 62 -328 78 -14 3 -45 8 -70 12 -25 4 -52 9 -61 10 -70 13 -242 20
-507 20 l-312 0 0 25 c0 44 29 193 40 204 12 12 459 15 605 3 168 -13 312 -36
499 -79 104 -23 131 -27 137 -16 5 7 9 81 9 164 l0 150 -52 17 c-126 39 -424
93 -558 102 -41 2 -187 7 -325 11 -137 3 -251 7 -252 8 -2 1 11 74 27 162 16
87 50 272 75 409 25 138 94 502 152 810 58 308 110 584 115 613 12 64 -1 57
233 117 203 52 278 63 410 60 91 -2 106 -5 165 -35 128 -65 246 -146 465 -318
66 -52 125 -99 130 -103 6 -4 92 16 190 45 281 84 400 108 535 109 102 1 120
-2 160 -23 116 -60 299 -199 437 -334 40 -38 75 -67 78 -64 8 8 -36 182 -75
293 -66 190 -220 473 -369 676 -369 505 -992 913 -1709 1118 -101 29 -186 51
-188 48 -3 -3 5 -8 18 -12 314 -92 804 -327 1023 -490 148 -111 341 -314 442
-465 107 -161 233 -380 233 -406 0 -34 -53 -44 -175 -31 -149 16 -214 21 -380
32 -178 12 -163 6 -328 119 -192 131 -348 220 -446 256 l-76 28 -1 128 c0 71
-7 163 -14 204 -44 256 -186 503 -355 620 -25 17 -45 35 -45 40 0 5 -43 19
-96 31 -246 57 -440 -21 -659 -264 -75 -83 -173 -253 -216 -376 -16 -47 -34
-88 -39 -91 -5 -3 -42 -7 -82 -8 -109 -3 -283 -28 -476 -68 l-173 -37 -187 61
c-103 33 -254 82 -337 108 -82 25 -152 48 -154 50 -2 1 14 24 35 51 174 215
318 341 505 443 51 27 94 50 96 50 2 0 28 11 57 24 102 47 330 107 496 131 41
6 354 15 524 15 38 0 67 2 65 4 -9 9 -501 28 -512 20z"/>
<path d="M5710 11117 c-3 -3 -39 -7 -80 -10 -237 -18 -479 -87 -725 -207 -181
-88 -280 -148 -408 -249 -90 -70 -269 -244 -332 -321 -177 -218 -325 -496
-401 -750 -10 -35 -63 -260 -79 -340 -101 -495 -167 -848 -170 -913 -5 -121
11 -145 190 -288 121 -96 171 -145 247 -243 80 -103 146 -232 184 -361 25 -84
26 -103 26 -285 1 -214 -8 -273 -64 -435 -140 -411 -477 -692 -923 -770 -124
-22 -347 -19 -451 5 -206 48 -397 161 -569 334 -108 109 -179 211 -245 349
-81 169 -96 250 -93 522 1 127 6 193 21 260 11 50 17 92 15 95 -3 3 -227 7
-499 9 l-494 3 -2 -58 c-10 -393 1 -631 38 -794 128 -559 455 -1036 928 -1352
253 -169 551 -291 841 -343 150 -26 407 -36 560 -21 542 53 1057 304 1416 691
386 417 589 919 593 1465 2 245 -13 377 -56 525 -42 145 -88 224 -208 356
-224 247 -289 356 -347 578 -34 131 -42 337 -19 471 85 484 451 864 936 970
103 23 304 25 435 4 410 -66 792 -394 919 -790 43 -133 58 -222 63 -384 3 -85
7 -157 9 -158 1 -2 44 -10 96 -18 92 -14 411 -60 478 -70 19 -3 78 -11 130
-19 52 -8 113 -16 135 -19 22 -3 78 -10 124 -17 97 -14 93 -16 113 80 21 106
18 583 -5 686 -61 271 -102 393 -192 570 -137 269 -246 425 -420 600 -357 360
-785 571 -1280 630 -103 12 -425 21 -435 12z"/>
<path d="M12800 10770 l0 -300 305 0 305 0 1 -177 c3 -1059 8 -1635 12 -1640
3 -3 137 -7 296 -9 l291 -4 0 915 0 915 88 1 c358 4 514 7 518 12 8 7 8 566 1
573 -3 3 -413 7 -911 10 l-906 4 0 -300z"/>
<path d="M14859 11063 c-10 -2 -19 -12 -21 -21 -7 -26 -2 -2381 5 -2388 3 -3
348 -8 766 -10 l761 -4 0 300 0 300 -470 0 -470 0 0 916 0 915 -277 -2 c-153
-2 -285 -4 -294 -6z"/>
<path d="M16266 11043 c3 -16 8 -35 11 -43 2 -8 36 -118 73 -245 217 -728 633
-2090 640 -2099 5 -4 151 -10 327 -12 l318 -4 165 553 c218 731 215 722 259
872 21 72 96 323 166 559 103 346 125 430 114 437 -14 8 -519 10 -563 2 -23
-5 -29 -23 -119 -392 -236 -958 -331 -1331 -337 -1331 -7 0 -15 26 -36 110 -2
8 -39 157 -84 330 -44 173 -135 534 -202 803 l-123 487 -308 0 -307 0 6 -27z"/>
<path d="M846 10699 c-4 -11 -102 -496 -122 -599 -8 -45 -484 -2424 -489
-2447 l-5 -23 852 1 853 0 54 84 c57 88 161 203 246 271 121 98 213 149 352
198 149 51 249 66 429 63 l153 -2 31 77 c44 112 71 236 74 341 8 276 -117 457
-392 563 -50 20 -94 39 -97 43 -2 4 31 22 73 39 101 41 226 119 288 179 155
148 259 370 269 573 15 295 -168 534 -465 609 -41 10 -93 22 -115 25 -22 4
-478 10 -1012 13 -819 5 -973 3 -977 -8z m1457 -640 c109 -55 145 -113 134
-219 -16 -145 -99 -261 -217 -298 -70 -23 -100 -25 -373 -29 -268 -5 -279 -4
-274 14 3 10 29 135 57 278 29 143 54 263 56 267 3 5 133 8 290 8 270 0 287
-1 327 -21z m-190 -1164 c89 -16 133 -39 173 -93 27 -35 29 -43 29 -132 0
-109 -18 -156 -87 -235 -51 -58 -111 -93 -201 -117 -61 -17 -118 -20 -384 -25
-250 -5 -313 -3 -313 7 0 14 108 564 116 593 5 16 26 17 297 16 200 0 317 -5
370 -14z"/>
<path d="M5764 9277 c-12 -18 -45 -74 -73 -125 l-52 -92 -140 0 c-76 0 -139
-2 -139 -5 0 -3 27 -52 60 -109 33 -57 63 -111 66 -119 3 -9 -22 -64 -57 -127
-51 -90 -60 -113 -48 -121 8 -5 69 -9 136 -9 l122 0 52 -92 c28 -51 62 -108
76 -126 l25 -33 72 123 c51 86 78 123 92 124 10 1 72 2 137 3 74 1 117 5 117
12 0 5 -25 53 -55 105 -30 53 -58 106 -61 119 -4 18 10 52 55 131 34 59 59
109 57 112 -3 2 -60 6 -128 8 -68 2 -128 6 -134 8 -6 2 -36 49 -67 104 -31 54
-65 109 -74 121 l-18 21 -21 -33z"/>
<path d="M6895 8166 c-100 -8 -112 -11 -130 -34 -138 -172 -296 -308 -450
-385 -100 -50 -346 -117 -429 -117 -43 0 -78 -39 -129 -145 -157 -321 -129
-618 77 -813 147 -139 341 -223 802 -347 74 -20 203 -73 238 -98 79 -54 111
-123 103 -214 -8 -83 -44 -149 -119 -218 -99 -91 -203 -131 -354 -134 -183 -3
-291 52 -361 184 -26 50 -30 88 -33 298 0 28 0 28 -52 23 -52 -5 -118 -10
-308 -21 -52 -3 -117 -8 -145 -10 -27 -2 -97 -7 -155 -10 -124 -7 -193 -14
-200 -21 -2 -3 -6 -92 -7 -197 -3 -208 4 -259 53 -381 54 -137 154 -257 260
-313 96 -51 251 -98 404 -121 62 -10 610 -9 688 1 34 4 113 20 175 36 342 87
630 273 832 539 79 105 175 294 211 417 32 110 41 311 19 412 -20 92 -71 186
-140 256 -145 149 -339 235 -822 366 -122 33 -248 70 -279 83 -106 43 -147
129 -104 221 58 122 194 197 361 197 139 0 240 -36 289 -103 37 -51 63 -148
59 -221 l-4 -58 125 7 c69 3 145 8 170 10 25 2 95 7 155 10 61 4 126 8 145 10
19 2 82 6 140 10 58 4 108 10 113 14 11 11 15 228 5 306 -44 343 -298 530
-758 560 -154 10 -327 11 -445 1z"/>
<path d="M17070 8168 c-544 -39 -962 -285 -1163 -683 -160 -318 -133 -618 74
-810 143 -134 288 -202 664 -310 250 -73 372 -123 422 -175 120 -123 61 -324
-130 -450 -80 -52 -148 -72 -262 -75 -168 -5 -249 19 -326 96 -66 66 -81 113
-88 269 l-6 135 -35 -1 c-65 -3 -265 -14 -315 -19 -27 -3 -88 -7 -135 -10 -47
-2 -128 -7 -180 -10 -115 -7 -183 -14 -190 -21 -3 -3 -6 -92 -7 -197 -3 -234
7 -291 78 -437 69 -139 139 -210 271 -273 102 -49 166 -68 303 -92 206 -36
599 -39 785 -5 30 5 67 11 81 14 51 8 185 49 257 77 197 78 357 183 503 328
382 383 491 908 250 1208 -120 150 -362 261 -841 389 -299 79 -342 98 -388
165 -67 97 37 263 196 314 127 41 300 28 399 -30 62 -37 102 -123 107 -230 2
-44 4 -84 5 -88 1 -8 69 -6 294 8 42 3 114 7 160 10 244 15 360 26 380 36 19
11 20 20 17 193 -2 132 -6 166 -27 231 -71 221 -246 355 -539 414 -155 31
-408 43 -614 29z"/>
<path d="M8850 8122 c-19 -2 -38 -7 -42 -10 -6 -6 -113 -393 -212 -772 -58
-220 -316 -1182 -336 -1255 -11 -38 -67 -248 -125 -465 -58 -217 -110 -415
-116 -438 -10 -35 -10 -45 1 -52 14 -8 870 -14 870 -6 0 3 21 80 46 173 25 92
122 454 215 803 94 349 222 829 285 1065 64 237 133 495 154 575 21 80 49 186
63 235 40 145 40 142 -2 148 -41 5 -747 4 -801 -1z"/>
<path d="M10186 7874 c-52 -197 -264 -983 -303 -1129 -27 -99 -360 -1352 -379
-1425 -14 -52 -31 -116 -39 -142 -10 -36 -11 -48 -1 -51 18 -7 1423 0 1497 7
118 12 339 60 439 94 392 137 770 513 955 952 92 217 195 588 220 790 53 431
-21 728 -233 927 -134 128 -289 188 -557 219 -16 2 -367 6 -780 10 l-750 6
-69 -258z m999 -428 c152 -6 185 -10 260 -33 96 -30 168 -93 206 -178 19 -42
23 -69 23 -170 1 -126 -4 -175 -29 -297 -64 -305 -177 -594 -284 -725 -57 -69
-144 -144 -204 -174 -72 -37 -162 -50 -399 -56 -126 -3 -228 -2 -228 1 0 12
35 148 167 641 69 259 134 504 145 545 48 185 119 444 123 451 3 4 22 6 43 4
20 -2 100 -6 177 -9z"/>
<path d="M13280 8106 c-8 -18 -39 -131 -152 -556 -11 -41 -60 -226 -109 -410
-50 -184 -92 -342 -94 -351 -2 -9 -22 -86 -45 -170 -42 -153 -103 -382 -159
-594 -61 -229 -232 -871 -237 -888 -6 -18 38 -18 1205 -15 917 2 1214 6 1219
15 12 20 175 643 169 649 -9 10 -227 13 -874 14 -353 0 -644 4 -647 8 -9 15
145 567 161 580 13 9 153 12 617 13 590 0 754 4 765 14 3 3 17 52 32 108 38
146 88 331 109 410 14 48 15 67 7 68 -63 5 -283 7 -784 9 -326 2 -593 3 -593
5 0 1 13 48 29 106 15 57 43 160 61 229 18 69 35 128 39 132 3 4 340 8 749 10
584 2 744 6 751 16 4 7 24 76 45 155 21 78 57 212 81 297 37 136 40 156 26
161 -9 4 -544 6 -1189 7 l-1173 0 -9 -22z"/>
<path d="M2910 7449 c-35 -61 -69 -117 -76 -124 -7 -6 -41 -13 -76 -14 -131
-5 -189 -8 -193 -13 -3 -3 24 -56 60 -117 l65 -113 -65 -112 c-36 -62 -65
-117 -65 -123 0 -7 46 -11 132 -12 72 -1 135 -4 138 -6 4 -3 38 -57 76 -120
37 -63 71 -115 75 -115 8 0 45 58 108 168 l42 72 112 1 c99 0 156 5 163 12 1
1 -22 45 -52 97 -82 145 -82 131 -13 254 33 59 57 111 54 116 -4 6 -61 10
-133 10 l-127 1 -73 124 c-40 69 -76 125 -80 125 -5 0 -37 -50 -72 -111z"/>
</g>
</svg>
