<svg id="Calque_1" data-name="Calque 1" xmlns="http://www.w3.org/2000/svg" viewBox="0 0 576.91 576.91"><title>MO-small-ico</title><rect width="576.91" height="576.91" rx="4" ry="4" style="fill:#ef4850"/><path d="M260.45,217H122.26v15.76H266.14Zm-12.64-35H122.26v15.76H253.5ZM236.6,151c-2.67-4.89-9.34-8.9-15.13-8.9h-93a6.46,6.46,0,0,0-6.23,6.67v14h118.6ZM298,320.9L273.08,252H122.26V442.8a6.36,6.36,0,0,0,6.23,6.23h82.3c3.56,0,6.67-3.11,6.67-6.23V312L262.4,442.35c1.33,3.56,7.12,6.67,11.12,6.67h48.94c4,0,9.79-3.11,11.12-6.67L378.51,312V442.8c0,3.11,3.11,6.23,6.67,6.23h82.3a6.36,6.36,0,0,0,6.23-6.23V252H322.9Zm31.85-88.17H473.72V217H335.54Zm137.65-90.67h-93c-5.78,0-12.46,4-15.13,8.9l-4.27,11.81h118.6v-14A6.46,6.46,0,0,0,467.49,142.06Zm-125,55.69H473.72V182H348.17Z" transform="translate(-9.54 -7.09)" style="fill:#fff"/></svg>