<?xml version="1.0" encoding="UTF-8"?>
<!-- Generator: Adobe Illustrator 21.0.2, SVG Export Plug-In . SVG Version: 6.00 Build 0)  -->
<svg version="1.0" id="Calque_1" xmlns="http://www.w3.org/2000/svg" xmlns:xlink="http://www.w3.org/1999/xlink" x="0px" y="0px" viewBox="0 0 354.8 62.8" style="enable-background:new 0 0 354.8 62.8;" xml:space="preserve">
<style type="text/css">
	.st0{fill:none;}
	.st1{fill:#007EAF;}
</style>
<g>
	<rect x="-55.4" y="-54.3" class="st0" width="464.3" height="170.9"/>
	<g>
		<path class="st1" d="M34.3,1.6C34.3,1.6,34.3,1.6,34.3,1.6c-7.4,0-16.2,1.4-21.9,5.8C8,10.9,17,15.2,25.1,11.4    c2-0.9,4.8-1.7,7.6-1.7c12.4-0.1,16.5,5.2,16.9,13.9c-5.3,0-11.1,0-18.4,0.3C11.5,24.3,1.8,30.3,1.8,42.4    c0,10.6,10.3,18.4,24.6,18.4c15.9,0,31.6-3,31.6-3c4.5-4.5,3.8-36.4,3.8-36.4C61.8,7.3,49.7,1.6,34.3,1.6z M29.1,52.2    c-10,0-14.5-5.5-14.5-10.1c0-6.7,6.7-8.5,18.2-9c7.1-0.3,12.5-0.3,16.7-0.3C49.1,44.5,52.9,52.2,29.1,52.2z"/>
		<path class="st1" d="M81.4,36.9V2.2H68.7v43.9c0,12.7,12.7,12.7,12.7,12.7h31.1v-9.2H94C81.4,49.5,81.4,49.5,81.4,36.9z"/>
		<path class="st1" d="M100.1,11.5h12.3c9.3,0,9.3,0,9.3,9v38.2h12.7V20.5c0-9,0-9,9.1-9h12.4V2.2h-55.8V11.5z"/>
		<path class="st1" d="M220.4,19.2c0-11.2-9.3-17-21.8-17c0,0,0,0,0,0h-34.7v56.5h12.7V36.4l15.4,0c11.5,0.1,15.6,2.6,15.6,13.4v9    h12.9V48.4c0-8.2-1.7-13.3-8.6-15.4C217.1,30,220.4,25,220.4,19.2z M193.9,27.7l-17.3,0V11.5h17.8c6.7,0,13.1,0.7,13.1,7.5    C207.5,25.8,201.3,27.7,193.9,27.7z"/>
		<path class="st1" d="M323.6,1.6c0,0-0.1,0-0.1,0c-16.1,0-28.2,8-28.1,24.4v32.8h11.9V26c0-9.2,5.6-14.8,16.2-14.8    c10.7,0,16.3,5.7,16.3,14.8v32.8h11.9V26C351.7,9.7,339.7,1.6,323.6,1.6z"/>
		<path class="st1" d="M259.6,1.6C259.6,1.6,259.6,1.6,259.6,1.6c-7.4,0-16.2,1.4-21.9,5.8c-4.5,3.5,4.6,7.8,12.6,4.1    c2-0.9,4.8-1.7,7.6-1.7c12.4-0.1,16.5,5.2,16.9,13.9c-5.3,0-11.1,0-18.4,0.3c-19.7,0.5-29.4,6.5-29.4,18.6    c0,10.6,10.3,18.4,24.6,18.4c15.9,0,31.6-3,31.6-3c4.5-4.5,3.8-36.4,3.8-36.4C287.1,7.3,275,1.6,259.6,1.6z M254.4,52.2    c-10,0-14.5-5.5-14.5-10.1c0-6.7,6.7-8.5,18.2-9c7-0.3,12.5-0.3,16.7-0.3C274.3,44.5,278.2,52.2,254.4,52.2z"/>
	</g>
</g>
</svg>