<?xml version="1.0" encoding="UTF-8"?>
<svg xmlns="http://www.w3.org/2000/svg" xmlns:xlink="http://www.w3.org/1999/xlink" width="1072px" height="318px" viewBox="0 0 536 159" version="1.1">
<g id="surface1">
<path style=" stroke:none;fill-rule:evenodd;fill:rgb(0%,0%,0%);fill-opacity:1;" d="M 65.664062 5.324219 C 76.078125 15.980469 86.84375 34.207031 94.796875 55.890625 C 82.988281 38.082031 69.578125 23.066406 57.007812 12.710938 C 60.183594 9.722656 63.015625 7.261719 65.664062 5.324219 Z M 88.132812 52.703125 C 77.117188 37.046875 64.84375 24.183594 53.667969 15.914062 C 51.332031 18.191406 48.808594 20.710938 46.042969 23.472656 C 59.433594 30.300781 74.101562 40.304688 88.132812 52.703125 Z M 63.878906 103.320312 C 71.808594 124.957031 82.546875 143.152344 92.941406 153.820312 C 95.601562 151.90625 98.441406 149.457031 101.628906 146.46875 C 89.070312 136.113281 75.671875 121.113281 63.878906 103.320312 Z M 70.546875 106.519531 C 81.550781 122.15625 93.804688 135.003906 104.972656 143.273438 C 107.304688 141.003906 109.828125 138.488281 112.59375 135.722656 C 99.214844 128.898438 84.566406 118.902344 70.546875 106.519531 Z M 127.273438 121.042969 L 135.007812 113.308594 C 135.605469 112.710938 136.195312 112.125 136.769531 111.546875 C 121.648438 112.390625 103.746094 111.070312 85.179688 107.308594 C 100.050781 114.203125 114.699219 118.859375 127.273438 121.042969 Z M 92.148438 104.851562 C 116.757812 103.328125 139.214844 98.09375 155.15625 90.96875 C 152.292969 95.472656 147.796875 100.382812 141.664062 106.621094 C 128.035156 108.53125 110.613281 108.066406 92.148438 104.851562 Z M 123.632812 124.683594 C 109.519531 121.445312 93.664062 115.765625 77.804688 107.875 C 90.726562 118.664062 104.03125 127.121094 115.851562 132.46875 Z M 158.515625 83.246094 C 145.949219 91.679688 123.691406 98.390625 98.242188 100.679688 C 122.171875 92.652344 142.910156 81.453125 156.457031 70.179688 C 158.097656 73.292969 158.917969 76.277344 158.917969 79.457031 C 158.917969 80.746094 158.785156 82 158.515625 83.246094 Z M 146.335938 57.148438 C 149.332031 60.335938 151.792969 63.175781 153.71875 65.835938 C 143.078125 76.28125 124.800781 87.09375 103.046875 95.070312 C 120.921875 83.21875 135.976562 69.757812 146.335938 57.148438 Z M 107.609375 81.132812 C 115.546875 65.183594 121.242188 49.242188 124.46875 35.070312 L 132.289062 42.890625 C 126.949219 54.757812 118.460938 68.136719 107.609375 81.132812 Z M 107.035156 73.78125 C 113.976562 58.800781 118.652344 44.054688 120.820312 31.417969 L 113.398438 24 C 112.667969 23.269531 111.957031 22.554688 111.257812 21.859375 C 112.136719 37.050781 110.824219 55.078125 107.035156 73.78125 Z M 42.785156 26.730469 C 54.613281 32.078125 67.929688 40.539062 80.867188 51.339844 C 64.992188 43.441406 49.121094 37.757812 34.996094 34.519531 Z M 31.355469 38.164062 C 43.941406 40.34375 58.609375 45.007812 73.503906 51.910156 C 54.910156 48.140625 36.980469 46.824219 21.84375 47.671875 C 22.535156 46.984375 23.242188 46.277344 23.960938 45.554688 L 23.996094 45.523438 Z M 16.953125 52.605469 C 30.585938 50.683594 48.03125 51.148438 66.523438 54.363281 C 41.953125 55.886719 19.53125 61.105469 3.59375 68.214844 C 6.402344 63.710938 10.855469 58.820312 16.953125 52.605469 Z M 0.367188 75.832031 C 0.121094 77.023438 0 78.226562 0 79.457031 C 0 82.664062 0.832031 85.667969 2.496094 88.804688 C 16.046875 77.609375 36.667969 66.507812 60.433594 58.539062 C 35.125 60.8125 12.972656 67.464844 0.367188 75.832031 Z M 5.226562 93.117188 C 7.148438 95.765625 9.597656 98.59375 12.582031 101.773438 C 22.933594 89.246094 37.894531 75.902344 55.625 64.148438 C 34.054688 72.058594 15.902344 82.753906 5.226562 93.117188 Z M 82.910156 0.332031 C 91.375 12.882812 98.113281 35.1875 100.40625 60.699219 C 92.398438 36.820312 81.230469 16.117188 69.976562 2.566406 C 73.164062 0.855469 76.207031 0 79.457031 0 C 80.628906 0 81.773438 0.109375 82.910156 0.332031 Z M 58.269531 98.515625 C 60.535156 123.753906 67.15625 145.855469 75.496094 158.476562 C 76.796875 158.769531 78.109375 158.917969 79.457031 158.917969 C 82.59375 158.917969 85.539062 158.121094 88.597656 156.53125 C 77.382812 142.980469 66.253906 122.324219 58.269531 98.515625 Z M 143.132812 53.796875 C 134.867188 65.011719 121.964844 77.335938 106.25 88.398438 C 118.695312 74.308594 128.726562 59.585938 135.554688 46.15625 C 138.328125 48.925781 140.851562 51.457031 143.132812 53.796875 Z M 67.820312 155.074219 C 63.351562 152.207031 58.46875 147.734375 52.289062 141.652344 C 50.421875 128.066406 50.902344 110.757812 54.09375 92.417969 C 55.605469 116.847656 60.773438 139.152344 67.820312 155.074219 Z M 104.582031 66.796875 C 103.050781 42.042969 97.761719 19.472656 90.574219 3.511719 C 95.109375 6.3125 100.03125 10.789062 106.300781 16.941406 C 108.265625 30.617188 107.820312 48.175781 104.582031 66.796875 Z M 15.773438 105.105469 C 18.039062 107.433594 20.550781 109.949219 23.304688 112.703125 C 30.128906 99.367188 40.09375 84.777344 52.429688 70.816406 C 36.855469 81.773438 24.046875 93.976562 15.773438 105.105469 Z M 51.070312 78.082031 C 40.328125 90.941406 31.90625 104.179688 26.554688 115.953125 L 34.304688 123.707031 C 37.554688 109.644531 43.214844 93.867188 51.070312 78.082031 Z M 51.636719 85.445312 C 44.78125 100.238281 40.136719 114.804688 37.9375 127.335938 L 45.519531 134.917969 C 46.152344 135.550781 46.773438 136.175781 47.382812 136.785156 C 46.570312 121.714844 47.894531 103.90625 51.636719 85.445312 Z M 51.636719 85.445312 "/>
<path style=" stroke:none;fill-rule:nonzero;fill:rgb(0%,0%,0%);fill-opacity:1;" d="M 197.007812 41.460938 L 192 41.460938 L 192 32.394531 L 214.597656 32.394531 L 214.597656 38.476562 C 222 33.589844 229.429688 30.722656 236.832031 30.722656 C 249.503906 30.722656 260.855469 38.960938 260.855469 63.199219 C 260.855469 89.820312 247.589844 98.515625 230.480469 98.515625 C 225.695312 98.515625 219.945312 97.6875 214.824219 96.609375 L 214.824219 112.34375 L 222.96875 112.34375 L 222.96875 121.519531 L 192.113281 121.519531 L 192.113281 112.34375 L 197.007812 112.34375 C 198.800781 112.34375 200.113281 112.234375 200.113281 109.734375 L 200.113281 44.070312 C 200.113281 41.683594 198.800781 41.460938 197.007812 41.460938 Z M 214.832031 48.246094 L 214.832031 85.726562 C 218.414062 86.808594 223.3125 87.746094 226.902344 87.746094 C 241.847656 87.746094 245.804688 78.792969 245.804688 63.761719 C 245.804688 48.726562 240.199219 41.90625 231.941406 41.90625 C 226.933594 41.90625 220.816406 44.183594 214.832031 48.246094 Z M 214.832031 48.246094 "/>
<path style=" stroke:none;fill-rule:nonzero;fill:rgb(0%,0%,0%);fill-opacity:1;" d="M 278.199219 44.449219 C 278.199219 41.835938 277.007812 41.578125 274.980469 41.578125 L 270.085938 41.578125 L 270.085938 32.402344 L 292.207031 32.402344 L 292.207031 44.222656 C 303.199219 33.484375 312.53125 31.210938 314.214844 31.210938 L 314.214844 47.203125 C 302.964844 49.222656 295.308594 52.09375 292.917969 52.6875 L 292.917969 88 L 301.0625 88 L 301.0625 97.0625 L 270.207031 97.0625 L 270.207031 88 L 275.101562 88 C 277.007812 88 278.207031 87.777344 278.207031 85.132812 L 278.207031 44.441406 Z M 278.199219 44.449219 "/>
<path style=" stroke:none;fill-rule:nonzero;fill:rgb(0%,0%,0%);fill-opacity:1;" d="M 346.949219 88.113281 C 348.371094 88.113281 349.941406 88.113281 350.421875 88 L 350.421875 97.433594 C 347.546875 97.914062 344.8125 98.144531 342.277344 98.144531 C 332.941406 98.144531 327.699219 94.675781 327.699219 84.90625 L 327.699219 44.449219 C 327.699219 41.835938 326.507812 41.46875 324.484375 41.46875 L 319.589844 41.46875 L 319.589844 32.402344 L 342.421875 32.402344 L 342.421875 81.925781 C 342.421875 85.878906 343.386719 88.121094 346.972656 88.121094 L 346.941406 88.121094 Z M 327.222656 6 L 342.652344 6 L 342.652344 19.125 L 327.222656 19.125 Z M 327.222656 6 "/>
<path style=" stroke:none;fill-rule:nonzero;fill:rgb(0%,0%,0%);fill-opacity:1;" d="M 366.339844 44.304688 C 366.339844 41.804688 365.027344 41.546875 363.125 41.546875 L 358.226562 41.546875 L 358.226562 32.371094 L 380.570312 32.371094 L 380.570312 38.933594 C 387.746094 34.046875 394.804688 30.953125 401.867188 30.953125 C 408.929688 30.953125 416.097656 33.230469 419.457031 40.015625 C 427.113281 34.414062 434.515625 30.839844 442.433594 30.839844 C 452.480469 30.839844 461.679688 35.984375 461.679688 50.050781 L 461.679688 84.425781 C 461.679688 87.40625 462.394531 88.007812 465.042969 88.007812 L 469.824219 88.007812 L 469.824219 97.070312 L 440.53125 97.070312 L 440.53125 88.007812 L 447.105469 88.007812 L 447.105469 53.398438 C 447.105469 45.867188 443.890625 42.773438 436.828125 42.773438 C 431.5625 42.773438 426.289062 45.273438 421.394531 48.375 L 421.394531 88.007812 L 429.050781 88.007812 L 429.050781 97.070312 L 400.242188 97.070312 L 400.242188 88.007812 L 406.707031 88.007812 L 406.707031 53.285156 C 406.707031 45.753906 403.492188 42.773438 396.171875 42.773438 C 391.019531 42.773438 385.890625 45.386719 380.996094 48.511719 L 380.996094 88.007812 L 388.761719 88.007812 L 388.761719 97.070312 L 358.277344 97.070312 L 358.277344 88.007812 L 363.171875 88.007812 C 365.074219 88.007812 366.386719 87.785156 366.386719 85.253906 L 366.386719 44.304688 L 366.332031 44.304688 Z M 366.339844 44.304688 "/>
<path style=" stroke:none;fill-rule:nonzero;fill:rgb(0%,0%,0%);fill-opacity:1;" d="M 476.929688 64.472656 C 476.929688 42.285156 488.890625 30.6875 508.015625 30.6875 C 530.851562 30.6875 536 45.980469 536 62.085938 L 536 67.933594 L 492.585938 67.933594 C 492.585938 81.773438 498.792969 87.625 510.410156 87.625 C 516.609375 87.625 524.984375 86.316406 528.109375 77.109375 L 534.574219 77.109375 L 534.574219 92.402344 C 527.511719 96.09375 516.160156 98.484375 509.355469 98.484375 C 488.425781 98.484375 476.953125 88.113281 476.953125 64.472656 L 476.921875 64.472656 Z M 521.988281 58.761719 C 521.988281 50.410156 519.828125 40.96875 507.648438 40.96875 C 496.890625 40.96875 492.335938 48.726562 492.335938 58.761719 L 522 58.761719 Z M 521.988281 58.761719 "/>
<path style=" stroke:none;fill-rule:nonzero;fill:rgb(0%,0%,0%);fill-opacity:1;" d="M 383.480469 111.4375 L 383.480469 116.863281 L 380.855469 116.863281 C 379.851562 114.847656 377.886719 114.019531 375.742188 114.019531 C 373.25 114.019531 371.851562 115.246094 371.851562 116.953125 C 371.851562 119.230469 374.296875 119.582031 377.179688 120.410156 C 380.457031 121.332031 384.261719 122.378906 384.261719 127.414062 C 384.261719 133.144531 379.804688 135.378906 374.382812 135.378906 C 371.808594 135.378906 368.703125 134.851562 366.347656 134.113281 L 366.347656 128.554688 L 369.277344 128.554688 C 369.800781 130.65625 372.074219 132.011719 374.257812 132.011719 C 376.660156 132.011719 378.671875 131.136719 378.671875 128.246094 C 378.671875 125.800781 375.875 125.097656 373.210938 124.398438 C 369.933594 123.523438 366.398438 122.210938 366.398438 117.527344 C 366.398438 112.363281 370.726562 110.523438 376.140625 110.523438 C 378.496094 110.523438 381.207031 110.917969 383.480469 111.445312 Z M 383.480469 111.4375 "/>
<path style=" stroke:none;fill-rule:nonzero;fill:rgb(0%,0%,0%);fill-opacity:1;" d="M 386.84375 122.902344 C 386.84375 114.761719 391.210938 110.511719 398.203125 110.511719 C 406.546875 110.511719 408.425781 116.117188 408.425781 122.027344 L 408.425781 124.167969 L 392.5625 124.167969 C 392.5625 129.246094 394.835938 131.390625 399.074219 131.390625 C 401.347656 131.390625 404.402344 130.910156 405.542969 127.542969 L 407.898438 127.542969 L 407.898438 133.144531 C 405.324219 134.5 401.171875 135.378906 398.683594 135.378906 C 391.039062 135.378906 386.84375 131.570312 386.84375 122.90625 Z M 403.3125 120.800781 C 403.3125 117.738281 402.527344 114.277344 398.070312 114.277344 C 394.140625 114.277344 392.476562 117.125 392.476562 120.800781 Z M 403.3125 120.800781 "/>
<path style=" stroke:none;fill-rule:nonzero;fill:rgb(0%,0%,0%);fill-opacity:1;" d="M 423.410156 131.304688 C 425.8125 131.304688 427.167969 129.992188 428.039062 128.023438 L 431.097656 128.023438 L 431.097656 133.886719 C 428.867188 134.847656 426.027344 135.375 423.277344 135.375 C 417.550781 135.375 411.132812 132.746094 411.132812 122.945312 C 411.132812 113.148438 417.550781 110.519531 423.277344 110.519531 C 426.074219 110.519531 429.042969 111.171875 431.097656 112.050781 L 431.097656 117.695312 L 427.953125 117.695312 C 427.207031 116.035156 425.855469 114.589844 423.277344 114.589844 C 418.910156 114.589844 416.679688 117.695312 416.679688 122.945312 C 416.679688 127.847656 418.777344 131.304688 423.40625 131.304688 Z M 423.410156 131.304688 "/>
<path style=" stroke:none;fill-rule:nonzero;fill:rgb(0%,0%,0%);fill-opacity:1;" d="M 443.769531 135.375 C 440.054688 135.375 436.824219 133.535156 436.824219 128.328125 L 436.824219 115.460938 C 436.824219 114.542969 436.34375 114.453125 435.730469 114.453125 L 433.984375 114.453125 L 433.984375 111.128906 L 442.195312 111.128906 L 442.195312 127.101562 C 442.195312 130.078125 443.421875 131.039062 445.914062 131.039062 C 447.789062 131.039062 450.328125 130.078125 452.203125 128.890625 L 452.203125 115.285156 C 452.160156 114.496094 451.679688 114.449219 451.066406 114.449219 L 448.921875 114.449219 L 448.921875 111.121094 L 457.574219 111.121094 L 457.574219 129.460938 C 457.574219 130.949219 458.226562 131.472656 459.453125 131.472656 L 460.5 131.472656 L 460.5 134.800781 C 459.667969 135.023438 458.359375 135.195312 457.136719 135.195312 C 455.171875 135.195312 453.207031 134.84375 452.546875 132.261719 C 450.277344 133.835938 446.648438 135.371094 443.761719 135.371094 Z M 443.769531 135.375 "/>
<path style=" stroke:none;fill-rule:nonzero;fill:rgb(0%,0%,0%);fill-opacity:1;" d="M 466.226562 115.550781 C 466.226562 114.589844 465.785156 114.5 465.046875 114.5 L 463.253906 114.5 L 463.253906 111.132812 L 471.339844 111.132812 L 471.339844 115.46875 C 475.359375 111.53125 478.765625 110.699219 479.378906 110.699219 L 479.378906 116.5625 C 475.269531 117.308594 472.472656 118.355469 471.597656 118.574219 L 471.597656 131.53125 L 474.570312 131.53125 L 474.570312 134.859375 L 463.296875 134.859375 L 463.296875 131.53125 L 465.085938 131.53125 C 465.785156 131.53125 466.226562 131.445312 466.226562 130.480469 Z M 466.226562 115.550781 "/>
<path style=" stroke:none;fill-rule:nonzero;fill:rgb(0%,0%,0%);fill-opacity:1;" d="M 491.34375 131.570312 C 491.871094 131.570312 492.4375 131.570312 492.609375 131.523438 L 492.609375 134.980469 C 491.558594 135.15625 490.558594 135.242188 489.640625 135.242188 C 486.230469 135.242188 484.3125 133.972656 484.3125 130.386719 L 484.3125 115.550781 C 484.3125 114.589844 483.875 114.453125 483.132812 114.453125 L 481.34375 114.453125 L 481.34375 111.128906 L 489.6875 111.128906 L 489.6875 129.289062 C 489.6875 130.738281 490.035156 131.566406 491.34375 131.566406 Z M 484.132812 103.867188 L 489.769531 103.867188 L 489.769531 108.683594 L 484.132812 108.683594 Z M 484.132812 103.867188 "/>
<path style=" stroke:none;fill-rule:nonzero;fill:rgb(0%,0%,0%);fill-opacity:1;" d="M 502.09375 127.761719 C 502.09375 130.304688 503.488281 131.132812 505.628906 131.132812 C 506.675781 131.132812 507.859375 130.910156 508.996094 130.5625 L 508.996094 134.632812 C 507.289062 135.113281 505.28125 135.378906 503.445312 135.378906 C 500.300781 135.378906 496.71875 134.152344 496.71875 128.902344 L 496.71875 114.808594 L 493.96875 114.808594 L 493.96875 111.875 C 496.984375 111.171875 498.078125 109.03125 498.554688 105.484375 L 502.09375 105.484375 L 502.09375 111.128906 L 509.566406 111.128906 L 509.566406 114.800781 L 502.09375 114.800781 Z M 502.09375 127.761719 "/>
<path style=" stroke:none;fill-rule:nonzero;fill:rgb(0%,0%,0%);fill-opacity:1;" d="M 512.886719 114.980469 C 512.710938 114.628906 512.40625 114.5 511.964844 114.5 L 510.648438 114.5 L 510.648438 111.132812 L 521.796875 111.132812 L 521.796875 114.5 L 518.34375 114.5 L 523.851562 130.125 L 529.484375 114.5 L 526.296875 114.5 L 526.296875 111.132812 L 535.988281 111.132812 L 535.988281 114.5 L 534.679688 114.5 C 534.238281 114.5 533.980469 114.722656 533.851562 115.070312 L 526.59375 134.851562 L 523.84375 143.824219 L 517.289062 143.824219 L 517.289062 142.335938 L 522.664062 135.207031 L 522.664062 134.898438 L 520.265625 134.898438 L 512.878906 114.988281 Z M 512.886719 114.980469 "/>
</g>
</svg>
