<svg width="1072" height="318" viewBox="0 0 1072 318" fill="none" xmlns="http://www.w3.org/2000/svg">
<path fill-rule="evenodd" clip-rule="evenodd" d="M131.328 10.6496C152.156 31.96 173.691 68.4153 189.592 111.781C165.977 76.1632 139.156 46.1357 114.012 25.4243C120.37 19.4446 126.03 14.5197 131.328 10.6496ZM176.269 105.405C154.234 74.0927 129.688 48.3687 107.334 31.8285C102.663 36.3796 97.6169 41.4188 92.0892 46.946C118.868 60.6012 148.202 80.6111 176.269 105.405ZM127.756 206.643C143.621 249.914 165.096 286.306 185.881 307.639C191.203 303.815 196.88 298.915 203.259 292.94C178.137 272.229 151.346 242.225 127.756 206.643ZM141.092 213.038C163.101 244.31 187.613 270.008 209.945 286.548C214.613 282.009 219.658 276.976 225.186 271.449C198.431 257.796 169.129 237.804 141.092 213.038ZM254.548 242.087L269.835 226.8L269.969 226.666L270.016 226.619C271.212 225.422 272.387 224.248 273.538 223.095C243.298 224.778 207.491 222.143 170.359 214.618C200.105 228.403 229.396 237.719 254.548 242.087ZM184.293 209.707C233.516 206.659 278.427 196.189 310.314 181.936C304.588 190.943 295.592 200.765 283.326 213.239C256.073 217.062 221.226 216.129 184.293 209.707ZM247.267 249.368C219.041 242.889 187.331 231.533 155.61 215.747C181.457 237.332 208.062 254.24 231.701 264.934L247.267 249.368ZM317.03 166.489C291.897 183.357 247.383 196.783 196.484 201.357C244.34 185.304 285.822 162.91 312.915 140.362C316.195 146.584 317.835 152.552 317.835 158.917C317.835 161.492 317.567 164.001 317.03 166.489ZM292.675 114.293C298.665 120.675 303.586 126.355 307.438 131.675C286.153 152.565 249.602 174.186 206.096 190.137C241.84 166.44 271.954 139.514 292.675 114.293ZM215.218 162.267C231.09 130.369 242.483 98.4837 248.941 70.1417L264.579 85.7789C253.897 109.516 236.923 136.274 215.218 162.267ZM214.07 147.56C227.954 117.605 237.306 88.1093 241.638 62.8378L226.8 48C225.339 46.5394 223.912 45.112 222.516 43.718C224.272 74.099 221.651 110.158 214.07 147.56ZM85.5714 53.4639C109.228 64.1554 135.861 81.0745 161.735 102.681C129.981 86.8796 98.2389 75.5173 69.9924 69.0428L85.5714 53.4639ZM62.7072 76.328C87.8837 80.6895 117.217 90.0136 147.006 103.819C109.82 96.2825 73.961 93.6491 43.6912 95.3459C45.0696 93.9656 46.4806 92.5546 47.9242 91.1111L47.9913 91.0439L48 91.0352L62.7072 76.328ZM33.9039 105.212C61.1727 101.37 96.0638 102.296 133.047 108.726C83.9067 111.77 39.0637 122.21 7.18799 136.428C12.8033 127.424 21.7086 117.637 33.9039 105.212ZM0.73798 151.663C0.245993 154.047 0 156.452 0 158.917C0 165.329 1.66387 171.337 4.99162 177.608C32.0942 155.216 73.3358 133.019 120.865 117.075C70.2482 121.624 25.9456 134.926 0.73798 151.663ZM10.4493 186.231C14.2931 191.532 19.1975 197.189 25.1623 203.544C45.8659 178.496 75.7871 151.807 111.249 128.297C68.1099 144.114 31.8082 165.505 10.4493 186.231ZM165.817 0.66661C182.747 25.7637 196.229 70.3741 200.816 121.402C184.795 73.6425 162.458 32.2317 139.956 5.13664C146.325 1.71221 152.413 0 158.917 0C161.261 0 163.55 0.222205 165.817 0.66661ZM116.536 197.03C121.073 247.51 134.316 291.71 150.989 316.951C153.593 317.54 156.22 317.835 158.917 317.835C165.189 317.835 171.075 316.243 177.198 313.059C154.762 285.959 132.51 244.651 116.536 197.03ZM286.262 107.597C269.733 130.02 243.933 154.672 212.5 176.794C237.387 148.621 257.453 119.17 271.109 92.3093C276.654 97.8544 281.705 102.914 286.262 107.597ZM135.643 310.15C126.701 304.414 116.941 295.466 104.575 283.306C100.844 256.136 101.807 221.513 108.186 184.833C111.211 233.695 121.55 278.308 135.643 310.15ZM209.165 133.595C206.099 84.0896 195.526 38.9453 181.147 7.02659C190.217 12.6284 200.066 21.5798 212.599 33.8806C216.535 61.233 215.641 96.3534 209.165 133.595ZM31.5463 210.211C36.0784 214.868 41.0989 219.898 46.6077 225.407C60.2571 198.737 80.1905 169.555 104.86 141.629C73.7127 163.548 48.095 187.952 31.5463 210.211ZM102.137 156.162C80.657 181.885 63.8103 208.357 53.1095 231.909L68.6127 247.412C75.1055 219.29 86.4272 187.732 102.137 156.162ZM103.276 170.888C89.5641 200.475 80.2731 229.613 75.8747 254.674L91.0353 269.835C92.3044 271.104 93.5484 272.348 94.7685 273.567C93.1434 243.432 95.7923 207.814 103.276 170.888Z" fill="black"/>
<path d="M394.016 82.9185H384V64.7922H429.199V76.9565C443.999 67.1802 458.862 61.4426 473.662 61.4426C499.005 61.4426 521.709 77.9181 521.709 126.399C521.709 179.64 495.181 197.029 460.958 197.029C451.39 197.029 439.887 195.378 429.647 193.215V224.691H445.935V243.042H384.224V224.691H394.016C397.6 224.691 400.224 224.467 400.224 219.466V88.1432C400.224 83.3672 397.6 82.9185 394.016 82.9185ZM429.663 96.4932V171.45C436.831 173.614 446.623 175.489 453.806 175.489C483.694 175.489 491.613 157.587 491.613 127.521C491.613 97.4548 480.398 83.816 463.886 83.816C453.87 83.816 441.631 88.3676 429.663 96.4932Z" fill="black"/>
<path d="M556.396 88.8964C556.396 83.6717 554.012 83.1588 549.964 83.1588H540.172V64.8082H584.411V88.4476C606.395 66.9718 625.066 62.4202 628.426 62.4202V94.4096C605.931 98.4483 590.619 104.186 585.835 105.372V176.002H602.123V194.128H540.412V176.002H550.204C554.012 176.002 556.412 175.553 556.412 170.264V88.8804L556.396 88.8964Z" fill="black"/>
<path d="M693.897 176.226C696.745 176.226 699.881 176.226 700.841 176.002V194.865C695.097 195.827 689.625 196.292 684.553 196.292C665.881 196.292 655.402 189.352 655.402 169.816V88.8964C655.402 83.6717 653.018 82.9344 648.97 82.9344H639.178V64.8082H684.841V163.854C684.841 171.755 686.777 176.242 693.945 176.242H693.881L693.897 176.226ZM654.442 12H685.305V38.2518H654.442V12Z" fill="black"/>
<path d="M732.68 88.6079C732.68 83.6076 730.056 83.0947 726.248 83.0947H716.456V64.7441H761.143V77.87C775.495 68.0937 789.607 61.9074 803.734 61.9074C817.862 61.9074 832.198 66.459 838.917 80.0336C854.229 68.8309 869.029 61.683 884.868 61.683C904.964 61.683 923.363 71.9722 923.363 100.099V168.854C923.363 174.816 924.787 176.018 930.083 176.018H939.651V194.144H881.061V176.018H894.212V106.798C894.212 91.7332 887.78 85.5468 873.653 85.5468C863.125 85.5468 852.581 90.5472 842.789 96.7495V176.018H858.101V194.144H800.486V176.018H813.414V106.574C813.414 91.5088 806.982 85.5468 792.343 85.5468C782.039 85.5468 771.783 90.7716 761.991 97.022V176.018H777.527V194.144H716.552V176.018H726.344C730.152 176.018 732.776 175.569 732.776 170.505V88.6079H732.664H732.68Z" fill="black"/>
<path d="M953.859 128.947C953.859 84.5691 977.778 61.3784 1016.03 61.3784C1061.7 61.3784 1072 91.9575 1072 124.171V135.871H985.17C985.17 163.549 997.586 175.249 1020.82 175.249C1033.22 175.249 1049.97 172.636 1056.22 154.221H1069.15V184.801C1055.02 192.189 1032.32 196.965 1018.71 196.965C976.85 196.965 953.907 176.226 953.907 128.947H953.843H953.859ZM1043.98 117.52C1043.98 100.82 1039.66 81.9408 1015.3 81.9408C993.778 81.9408 984.674 97.4547 984.674 117.52H1044H1043.98Z" fill="black"/>
<path d="M766.958 222.877V233.726H761.712C759.701 229.697 755.771 228.041 751.484 228.041C746.503 228.041 743.706 230.495 743.706 233.91C743.706 238.46 748.595 239.165 754.362 240.822C760.916 242.662 768.52 244.758 768.52 254.829C768.52 266.291 759.609 270.759 748.769 270.759C743.614 270.759 737.408 269.706 732.692 268.224V257.11H738.551C739.603 261.312 744.145 264.021 748.514 264.021C753.321 264.021 757.343 262.273 757.343 256.496C757.343 251.598 751.749 250.198 746.421 248.797C739.868 247.049 732.794 244.421 732.794 235.055C732.794 224.728 741.45 221.047 752.28 221.047C756.996 221.047 762.416 221.835 766.958 222.888V222.877Z" fill="black"/>
<path d="M773.685 245.801C773.685 229.523 782.422 221.027 796.406 221.027C813.095 221.027 816.852 232.233 816.852 244.053V248.337H785.127C785.127 258.49 789.67 262.784 798.152 262.784C802.694 262.784 808.808 261.823 811.085 255.085H815.8V266.291C810.646 269.001 802.347 270.759 797.366 270.759C782.075 270.759 773.685 263.142 773.685 245.811V245.801ZM806.624 241.599C806.624 235.474 805.052 228.552 796.141 228.552C788.281 228.552 784.954 234.247 784.954 241.599H806.624Z" fill="black"/>
<path d="M846.82 262.611C851.628 262.611 854.333 259.983 856.079 256.046H862.193V267.774C857.732 269.696 852.057 270.749 846.555 270.749C835.102 270.749 822.262 265.494 822.262 245.893C822.262 226.293 835.102 221.037 846.555 221.037C852.149 221.037 858.089 222.346 862.193 224.105V235.393H855.905C854.415 232.069 851.71 229.176 846.555 229.176C837.818 229.176 833.357 235.393 833.357 245.893C833.357 255.699 837.552 262.611 846.81 262.611H846.82Z" fill="black"/>
<path d="M887.538 270.749C880.107 270.749 873.645 267.068 873.645 256.66V230.924C873.645 229.084 872.686 228.91 871.461 228.91H867.97V222.254H884.394V254.206C884.394 260.157 886.843 262.079 891.825 262.079C895.581 262.079 900.654 260.157 904.41 257.785V230.567C904.318 228.992 903.359 228.9 902.134 228.9H897.847V222.244H915.148V258.919C915.148 261.895 916.455 262.948 918.905 262.948H920.997V269.604C919.333 270.044 916.72 270.391 914.271 270.391C910.341 270.391 906.411 269.686 905.094 264.523C900.552 267.672 893.294 270.739 887.527 270.739L887.538 270.749Z" fill="black"/>
<path d="M932.45 231.098C932.45 229.176 931.572 229.002 930.092 229.002H926.509V222.264H942.678V230.935C950.721 223.062 957.529 221.395 958.754 221.395V233.123C950.537 234.615 944.944 236.712 943.198 237.151V263.06H949.139V269.717H926.591V263.06H930.174C931.572 263.06 932.45 262.887 932.45 260.964V231.119V231.098Z" fill="black"/>
<path d="M982.69 263.142C983.742 263.142 984.875 263.142 985.222 263.05V269.962C983.119 270.31 981.118 270.483 979.281 270.483C972.462 270.483 968.624 267.948 968.624 260.77V231.098C968.624 229.176 967.747 228.91 966.267 228.91H962.684V222.254H979.373V258.582C979.373 261.476 980.067 263.132 982.69 263.132V263.142ZM968.267 207.735H979.536V217.366H968.267V207.735Z" fill="black"/>
<path d="M1004.19 255.525C1004.19 260.606 1006.98 262.263 1011.26 262.263C1013.35 262.263 1015.72 261.823 1017.99 261.128V269.267C1014.58 270.228 1010.56 270.76 1006.89 270.76C1000.6 270.76 993.439 268.306 993.439 257.805V229.616H987.937V223.747C993.969 222.346 996.154 218.062 997.113 210.966H1004.19V222.254H1019.13V229.605H1004.19V255.515V255.525Z" fill="black"/>
<path d="M1025.77 229.963C1025.42 229.258 1024.81 229.002 1023.93 229.002H1021.3V222.264H1043.59V229.002H1036.69L1047.7 260.249L1058.97 229.002H1052.59V222.264H1071.98V229.002H1069.36C1068.48 229.002 1067.96 229.442 1067.7 230.137L1053.19 269.706L1047.69 287.651H1034.58V284.675L1045.33 270.412V269.798H1040.53L1025.76 229.973L1025.77 229.963Z" fill="black"/>
</svg>
