<svg height="500" width="500" xmlns="http://www.w3.org/2000/svg" xmlns:xlink="http://www.w3.org/1999/xlink"><defs><path id="a" d="m108.108.445-107.934 177.233h53.295c13.195 0 29.589-9.136 36.396-20.35l43.273-73.412c5.544-11.313 7.812-28.985 1.48-39.412l-26.51-44.06z"/><path id="b" d="m122.856.229c6.754 11.205 9.195 29.549 2.44 40.795l-123.063 205.053c-4.75 10.134.19 18.168 12.4 18.168h48.737l109.573-181.385-50.087-82.63z"/><path id="c" d="m14.75.834c-13.254 0-18.517 9.202-11.706 20.413l200.262 329.995c6.336 10.466 6.527 25.736.98 37.092l46.527-75.765-189.368-311.735z"/><path id="d" d="m212.69 224.402-122.974-203.147c-6.799-11.218-23.166-20.42-36.336-20.42h-53.177l186.509 308.165 25.98-43.745c6.804-11.264 6.804-29.636-.003-40.854z"/><mask id="e" fill="#fff"><use fill="none" xlink:href="#a"/></mask><mask id="f" fill="#fff"><use fill="none" xlink:href="#b"/></mask><mask id="g" fill="#fff"><use fill="none" xlink:href="#c"/></mask><mask id="h" fill="#fff"><use fill="none" xlink:href="#d"/></mask></defs><g fill="none" fill-rule="nonzero"><g transform="translate(180.185 317.113)"><use fill="#333" xlink:href="#a"/><path d="m-236.187-71.273c14.724-11.369 38.745-35.677 45.303-76.802-10.771.012-18.883-7.996-18.883-17.872s8.112-17.884 18.115-17.884 18.115 8.008 18.115 17.884c0 5.817-2.85 11.017-7.202 14.283 14.127 12.196 56.1 44.14 117.473 52.889-8.813-60.61-41.18-102.064-53.536-116.012a18.267 18.267 0 0 1 -14.467 7.11c-10.003 0-18.114-8.008-18.114-17.884s8.111-17.884 18.114-17.884c10.004 0 18.115 8.008 18.115 17.884 41.641-5.716 66.262-29.432 77.778-43.968-6.437-2.744-10.956-9.08-10.956-16.44 0-9.877 8.11-17.885 18.114-17.885 10.105 0 18.216 8.008 18.216 17.884 0 7.361-4.519 13.697-10.957 16.44 11.516 14.537 36.137 38.253 77.792 44.725-.012-10.632 8.098-18.64 18.103-18.64 10.004 0 18.114 8.008 18.114 17.884s-8.11 17.884-18.114 17.884a18.267 18.267 0 0 1 -14.467-7.11c-12.355 13.947-44.724 55.402-53.577 116.012 61.414-8.75 103.386-40.693 117.514-52.89-4.352-3.265-7.202-8.465-7.202-14.282 0-9.876 8.11-17.884 18.115-17.884 10.004 0 18.114 8.008 18.114 17.884s-8.11 17.884-18.114 17.884c5.79 41.113 29.81 65.42 44.536 76.79 2.775-6.354 9.195-10.816 16.652-10.816 10.002 0 18.115 8.007 18.115 17.883 0 9.877-8.113 17.884-18.115 17.884-7.457 0-13.877-4.461-16.652-10.817-14.727 11.37-38.746 35.678-45.303 76.802 10.771-.011 18.881 7.997 18.881 17.873s-8.11 17.884-18.114 17.884c-10.005 0-18.115-8.008-18.115-17.884 0-5.817 2.85-11.017 7.202-14.283-14.127-12.196-56.1-44.139-117.473-52.888 8.812 60.607 41.18 102.065 53.537 116.011a18.267 18.267 0 0 1 14.467-7.11c10.004 0 18.114 8.008 18.114 17.884s-8.11 17.885-18.114 17.885c-10.005 0-18.115-8.009-18.115-17.885-41.643 5.716-66.263 29.432-77.78 43.969 6.437 2.742 10.957 9.079 10.957 16.44 0 9.876-8.11 17.884-18.115 17.884-10.105 0-18.215-8.008-18.215-17.884 0-7.361 4.518-13.698 10.956-16.44-11.516-14.537-36.138-38.253-77.791-44.727.013 10.634-8.098 18.643-18.102 18.643-10.003 0-18.114-8.009-18.114-17.885s8.111-17.884 18.114-17.884a18.267 18.267 0 0 1 14.467 7.11c12.355-13.946 44.721-55.404 53.575-116.011-61.413 8.75-103.385 40.692-117.513 52.888 4.353 3.266 7.202 8.466 7.202 14.283 0 9.876-8.112 17.884-18.115 17.884s-18.115-8.008-18.115-17.884 8.112-17.884 18.115-17.884c-5.79-41.113-29.81-65.42-44.535-76.791-2.777 6.355-9.196 10.817-16.652 10.817-10.004 0-18.115-8.007-18.115-17.884 0-9.876 8.111-17.883 18.115-17.883 7.456 0 13.875 4.46 16.652 10.816zm60.637 61.117c40.921-34.05 104.76-41.701 136.665-43.338-1.866 31.54-9.649 94.417-44.08 134.746 0 0 28.833 6.39 54.807 34.07 26.006-27.692 54.787-34.07 54.787-34.07-34.431-40.33-42.215-103.206-43.891-134.758 31.716 1.648 95.556 9.3 136.477 43.35 0 0 6.463-28.425 34.448-54.053-27.974-25.558-34.448-54.045-34.448-54.045-40.921 34.05-104.761 41.702-136.666 43.338 1.866-31.537 9.649-94.416 44.08-134.745 0 0-28.78-6.38-54.734-33.994-26.028 27.603-54.86 33.994-54.86 33.994 34.43 40.33 42.214 103.208 43.891 134.758-31.717-1.65-95.555-9.3-136.476-43.351 0 0-6.463 28.425-34.45 54.049 27.984 25.612 34.45 54.05 34.45 54.05z" fill="#fff" mask="url(#e)" opacity=".5"/></g><g transform="translate(112 230.548)"><use fill="#333" xlink:href="#b"/><path d="m-166.356 14.642c14.615-11.4 38.457-35.771 44.966-77.003-10.69.012-18.742-8.017-18.742-17.918 0-9.902 8.051-17.931 17.98-17.931 9.93 0 17.98 8.029 17.98 17.93 0 5.832-2.827 11.046-7.148 14.32 14.022 12.228 55.683 44.257 116.601 53.028-8.747-60.769-40.874-102.33-53.138-116.315-3.284 4.308-8.512 7.128-14.36 7.128-9.929 0-17.98-8.029-17.98-17.93 0-9.902 8.051-17.932 17.98-17.932 9.93 0 17.98 8.03 17.98 17.931 41.333-5.73 65.771-29.508 77.202-44.083-6.39-2.75-10.875-9.102-10.875-16.483 0-9.902 8.05-17.93 17.98-17.93 10.03 0 18.08 8.028 18.08 17.93 0 7.38-4.485 13.733-10.875 16.483 11.43 14.575 35.868 38.352 77.214 44.841-.012-10.66 8.038-18.689 17.969-18.689 9.93 0 17.98 8.03 17.98 17.931 0 9.902-8.05 17.931-17.98 17.931-5.848 0-11.076-2.82-14.36-7.128-12.263 13.985-44.392 55.546-53.18 116.315 60.959-8.772 102.62-40.8 116.643-53.028-4.32-3.274-7.149-8.488-7.149-14.32 0-9.901 8.05-17.93 17.98-17.93s17.98 8.029 17.98 17.93c0 9.903-8.05 17.932-17.98 17.932 5.748 41.22 29.59 65.59 44.206 76.99 2.755-6.371 9.127-10.845 16.529-10.845 9.928 0 17.98 8.028 17.98 17.93 0 9.903-8.052 17.93-17.98 17.93-7.402 0-13.774-4.472-16.529-10.845-14.617 11.4-38.458 35.771-44.966 77.003 10.69-.011 18.74 8.018 18.74 17.92 0 9.901-8.05 17.93-17.98 17.93s-17.98-8.029-17.98-17.93c0-5.832 2.83-11.046 7.149-14.32-14.022-12.228-55.683-44.255-116.601-53.027 8.746 60.766 40.875 102.331 53.138 116.315 3.284-4.309 8.512-7.129 14.36-7.129 9.93 0 17.98 8.03 17.98 17.93 0 9.903-8.05 17.932-17.98 17.932s-17.98-8.03-17.98-17.931c-41.335 5.73-65.772 29.508-77.203 44.083 6.389 2.75 10.875 9.103 10.875 16.483 0 9.902-8.05 17.931-17.98 17.931-10.03 0-18.08-8.029-18.08-17.93 0-7.381 4.485-13.735 10.875-16.484-11.43-14.575-35.87-38.352-77.215-44.843.014 10.662-8.038 18.69-17.967 18.69s-17.98-8.028-17.98-17.93 8.051-17.931 17.98-17.931c5.848 0 11.076 2.82 14.36 7.129 12.264-13.984 44.39-55.55 53.178-116.315-60.957 8.773-102.618 40.799-116.64 53.027 4.32 3.274 7.147 8.488 7.147 14.32 0 9.901-8.05 17.93-17.98 17.93-9.929 0-17.98-8.029-17.98-17.93 0-9.902 8.051-17.931 17.98-17.931-5.747-41.22-29.59-65.591-44.204-76.992-2.757 6.372-9.128 10.846-16.53 10.846-9.928 0-17.98-8.028-17.98-17.931 0-9.902 8.052-17.93 17.98-17.93 7.402 0 13.773 4.473 16.53 10.845zm60.187 61.277c40.617-34.14 103.982-41.811 135.649-43.452-1.85 31.623-9.575 94.663-43.75 135.098 0 0 28.618 6.407 54.4 34.16 25.813-27.766 54.38-34.16 54.38-34.16-34.175-40.435-41.9-103.476-43.565-135.11 31.48 1.653 94.847 9.324 135.464 43.463 0 0 6.415-28.499 34.192-54.194-27.766-25.624-34.192-54.186-34.192-54.186-40.618 34.139-103.985 41.81-135.653 43.451 1.852-31.62 9.578-94.662 43.753-135.097 0 0-28.566-6.396-54.327-34.083-25.836 27.676-54.453 34.083-54.453 34.083 34.174 40.435 41.9 103.478 43.565 135.11-31.482-1.653-94.846-9.325-135.463-43.464 0 0-6.415 28.499-34.194 54.19 27.776 25.679 34.194 54.19 34.194 54.19z" fill="#fff" mask="url(#f)" opacity=".5"/></g><g transform="translate(114.841 7)"><use fill="#333" xlink:href="#c"/><path d="m-170.145 238.74c14.732-11.41 38.765-35.806 45.326-77.08-10.777.013-18.892-8.024-18.892-17.935 0-9.912 8.115-17.949 18.124-17.949 10.008 0 18.123 8.037 18.123 17.949 0 5.837-2.85 11.056-7.205 14.334 14.134 12.24 56.128 44.3 117.532 53.08-8.817-60.83-41.2-102.432-53.563-116.43a18.256 18.256 0 0 1 -14.474 7.135c-10.008 0-18.123-8.037-18.123-17.949 0-9.911 8.115-17.948 18.123-17.948 10.009 0 18.124 8.037 18.124 17.948 41.662-5.735 66.296-29.537 77.817-44.125-6.44-2.753-10.962-9.112-10.962-16.5 0-9.912 8.115-17.949 18.124-17.949 10.11 0 18.225 8.037 18.225 17.949 0 7.388-4.521 13.747-10.962 16.5 11.521 14.589 36.155 38.39 77.83 44.885-.012-10.67 8.103-18.707 18.112-18.707 10.01 0 18.124 8.037 18.124 17.948 0 9.912-8.114 17.949-18.124 17.949a18.256 18.256 0 0 1 -14.474-7.136c-12.361 14-44.746 55.602-53.604 116.43 61.445-8.78 103.439-40.84 117.573-53.08-4.353-3.277-7.205-8.496-7.205-14.333 0-9.912 8.114-17.949 18.124-17.949s18.124 8.037 18.124 17.949c0 9.911-8.115 17.948-18.124 17.948 5.793 41.26 29.825 65.656 44.558 77.067 2.777-6.378 9.2-10.856 16.661-10.856 10.007 0 18.124 8.036 18.124 17.948s-8.117 17.948-18.124 17.948c-7.461 0-13.884-4.477-16.66-10.855-14.734 11.41-38.766 35.806-45.326 77.079 10.776-.012 18.89 8.025 18.89 17.937 0 9.911-8.114 17.948-18.123 17.948-10.01 0-18.124-8.037-18.124-17.948 0-5.838 2.852-11.057 7.205-14.334-14.133-12.24-56.127-44.298-117.531-53.08 8.816 60.826 41.201 102.433 53.562 116.43a18.256 18.256 0 0 1 14.474-7.135c10.01 0 18.124 8.037 18.124 17.948 0 9.912-8.114 17.949-18.124 17.949s-18.124-8.037-18.124-17.949c-41.663 5.737-66.296 29.538-77.818 44.127 6.44 2.752 10.962 9.112 10.962 16.5 0 9.911-8.115 17.948-18.124 17.948-10.11 0-18.225-8.037-18.225-17.949 0-7.387 4.521-13.747 10.962-16.5-11.521-14.588-36.156-38.39-77.83-44.887.013 10.673-8.102 18.71-18.11 18.71-10.01 0-18.124-8.037-18.124-17.949 0-9.911 8.115-17.948 18.123-17.948a18.256 18.256 0 0 1 14.474 7.135c12.363-13.997 44.746-55.604 53.603-116.43-61.443 8.783-103.437 40.84-117.572 53.08 4.355 3.277 7.205 8.496 7.205 14.334 0 9.911-8.115 17.948-18.123 17.948-10.009 0-18.124-8.037-18.124-17.948 0-9.912 8.115-17.949 18.124-17.949-5.793-41.261-29.826-65.656-44.558-77.067-2.779 6.377-9.2 10.856-16.66 10.856-10.009 0-18.124-8.036-18.124-17.95 0-9.91 8.115-17.947 18.124-17.947 7.46 0 13.881 4.477 16.66 10.856zm60.668 61.337c40.941-34.173 104.813-41.852 136.734-43.494-1.867 31.653-9.654 94.757-44.103 135.232 0 0 28.847 6.413 54.835 34.193 26.02-27.793 54.814-34.193 54.814-34.193-34.448-40.475-42.235-103.579-43.913-135.245 31.732 1.654 95.604 9.333 136.546 43.506 0 0 6.466-28.527 34.465-54.247-27.988-25.65-34.465-54.24-34.465-54.24-40.942 34.172-104.814 41.851-136.736 43.494 1.867-31.651 9.654-94.757 44.102-135.232 0 0-28.794-6.401-54.76-34.116-26.042 27.705-54.888 34.118-54.888 34.118 34.447 40.475 42.235 103.58 43.912 135.243-31.733-1.655-95.603-9.334-136.544-43.507 0 0-6.466 28.528-34.467 54.244 27.998 25.704 34.467 54.244 34.467 54.244z" fill="#fff" mask="url(#g)" opacity=".5"/></g><g transform="translate(180.185 7)"><use fill="#333" xlink:href="#d"/><path d="m-235.8 238.835c14.7-11.414 38.681-35.82 45.228-77.11-10.754.013-18.852-8.027-18.852-17.943 0-9.915 8.098-17.956 18.085-17.956s18.085 8.04 18.085 17.956c0 5.84-2.844 11.06-7.19 14.34 14.104 12.245 56.008 44.317 117.28 53.1-8.798-60.852-41.112-102.471-53.448-116.476-3.302 4.314-8.56 7.138-14.442 7.138-9.987 0-18.085-8.04-18.085-17.955 0-9.916 8.098-17.956 18.085-17.956 9.986 0 18.085 8.04 18.085 17.956 41.573-5.74 66.153-29.55 77.65-44.144-6.426-2.755-10.938-9.116-10.938-16.507 0-9.915 8.097-17.956 18.085-17.956 10.088 0 18.185 8.04 18.185 17.956 0 7.391-4.511 13.752-10.938 16.507 11.497 14.595 36.077 38.405 77.663 44.903-.011-10.675 8.086-18.715 18.074-18.715s18.085 8.04 18.085 17.956c0 9.915-8.097 17.955-18.085 17.955-5.882 0-11.14-2.824-14.443-7.138-12.335 14.005-44.651 55.624-53.49 116.477 61.314-8.784 103.217-40.856 117.322-53.101-4.345-3.279-7.19-8.5-7.19-14.34 0-9.915 8.097-17.956 18.085-17.956s18.085 8.04 18.085 17.956-8.097 17.956-18.085 17.956c5.78 41.277 29.76 65.682 44.463 77.098a18.12 18.12 0 0 1 16.625-10.86c9.986 0 18.085 8.039 18.085 17.954 0 9.917-8.1 17.956-18.085 17.956a18.12 18.12 0 0 1 -16.625-10.86c-14.702 11.414-38.682 35.82-45.229 77.11 10.754-.012 18.85 8.028 18.85 17.944 0 9.915-8.096 17.955-18.084 17.955s-18.085-8.04-18.085-17.955c0-5.84 2.845-11.061 7.19-14.34-14.104-12.245-56.007-44.316-117.28-53.1 8.797 60.85 41.113 102.473 53.448 116.476 3.302-4.315 8.561-7.139 14.443-7.139 9.988 0 18.085 8.04 18.085 17.956s-8.097 17.956-18.085 17.956-18.085-8.04-18.085-17.956c-41.575 5.739-66.154 29.55-77.652 44.144 6.426 2.753 10.938 9.116 10.938 16.507 0 9.915-8.097 17.955-18.085 17.955-10.088 0-18.185-8.04-18.185-17.955 0-7.391 4.51-13.754 10.938-16.507-11.497-14.595-36.078-38.405-77.664-44.905.014 10.677-8.085 18.717-18.071 18.717-9.987 0-18.085-8.04-18.085-17.956s8.098-17.956 18.085-17.956c5.881 0 11.14 2.824 14.442 7.139 12.336-14.003 44.65-55.626 53.489-116.476-61.312 8.785-103.216 40.855-117.32 53.1 4.345 3.279 7.19 8.5 7.19 14.34 0 9.915-8.099 17.955-18.086 17.955s-18.085-8.04-18.085-17.955c0-9.916 8.098-17.956 18.085-17.956-5.78-41.278-29.761-65.683-44.461-77.098a18.124 18.124 0 0 1 -16.626 10.86c-9.986 0-18.085-8.04-18.085-17.956 0-9.915 8.099-17.955 18.085-17.955a18.122 18.122 0 0 1 16.626 10.86zm60.537 61.362c40.854-34.187 104.588-41.869 136.44-43.512-1.862 31.667-9.632 94.795-44.007 135.286 0 0 28.785 6.416 54.717 34.207 25.964-27.804 54.697-34.207 54.697-34.207-34.375-40.491-42.145-103.62-43.819-135.298 31.664 1.655 95.4 9.337 136.253 43.524 0 0 6.452-28.539 34.392-54.27-27.928-25.66-34.392-54.261-34.392-54.261-40.854 34.186-104.589 41.869-136.442 43.511 1.863-31.663 9.634-94.793 44.008-135.285 0 0-28.733-6.404-54.644-34.13-25.985 27.714-54.77 34.13-54.77 34.13 34.374 40.492 42.145 103.622 43.82 135.298-31.666-1.655-95.4-9.337-136.253-43.524 0 0-6.452 28.538-34.393 54.265 27.938 25.715 34.393 54.266 34.393 54.266z" fill="#fff" mask="url(#h)" opacity=".5"/></g></g></svg>